<svg width="33" height="33" viewBox="0 0 33 33" fill="none" xmlns="http://www.w3.org/2000/svg">
<path d="M16.3499 5C10.0785 5 5 10.1027 5 16.39C5 22.6772 10.0785 27.7799 16.3499 27.7799C22.6327 27.7799 27.7225 22.6772 27.7225 16.39C27.7225 10.1027 22.6327 5 16.3499 5ZM16.3613 25.5019C11.3396 25.5019 7.27225 21.4243 7.27225 16.39C7.27225 11.3556 11.3396 7.27799 16.3613 7.27799C21.3829 7.27799 25.4503 11.3556 25.4503 16.39C25.4503 21.4243 21.3829 25.5019 16.3613 25.5019Z" fill="black"/>
<path d="M16.9293 10.695H15.2251V17.529L21.1898 21.1168L22.0419 19.7159L16.9293 16.6747V10.695Z" fill="black"/>
</svg>
