<svg width="144" height="144" viewBox="0 0 144 144" fill="none" xmlns="http://www.w3.org/2000/svg">
<path d="M144 72C144 111.765 111.765 144 72 144C32.2355 144 0 111.765 0 72C0 32.2355 32.2355 0 72 0C111.765 0 144 32.2355 144 72Z" fill="#D986F6"/>
<rect x="23.5" y="26.5" width="96" height="94" rx="2.5" fill="white" stroke="#3076DF" stroke-width="3"/>
<rect x="35" y="43" width="13" height="13" rx="1" fill="white" stroke="#4E4E4E" stroke-width="2"/>
<rect x="35" y="91" width="13" height="13" rx="1" fill="white" stroke="#4E4E4E" stroke-width="2"/>
<path d="M47.8333 66.5H36.1667C35.2417 66.5 34.5 67.25 34.5 68.1667V79.8333C34.5 80.75 35.2417 81.5 36.1667 81.5H47.8333C48.7583 81.5 49.5 80.75 49.5 79.8333V68.1667C49.5 67.25 48.7583 66.5 47.8333 66.5ZM40.3333 78.1667L36.1667 74L37.3417 72.825L40.3333 75.8083L46.6583 69.4833L47.8333 70.6667L40.3333 78.1667Z" fill="#3076DF"/>
<path d="M59.5039 49.1973C58.5391 48.9199 57.8359 48.5801 57.3945 48.1777C56.957 47.7715 56.7383 47.2715 56.7383 46.6777C56.7383 46.0059 57.0059 45.4512 57.541 45.0137C58.0801 44.5723 58.7793 44.3516 59.6387 44.3516C60.2246 44.3516 60.7461 44.4648 61.2031 44.6914C61.6641 44.918 62.0195 45.2305 62.2695 45.6289C62.5234 46.0273 62.6504 46.4629 62.6504 46.9355H61.5195C61.5195 46.4199 61.3555 46.0156 61.0273 45.7227C60.6992 45.4258 60.2363 45.2773 59.6387 45.2773C59.084 45.2773 58.6504 45.4004 58.3379 45.6465C58.0293 45.8887 57.875 46.2266 57.875 46.6602C57.875 47.0078 58.0215 47.3027 58.3145 47.5449C58.6113 47.7832 59.1133 48.002 59.8203 48.2012C60.5312 48.4004 61.0859 48.6211 61.4844 48.8633C61.8867 49.1016 62.1836 49.3809 62.375 49.7012C62.5703 50.0215 62.668 50.3984 62.668 50.832C62.668 51.5234 62.3984 52.0781 61.8594 52.4961C61.3203 52.9102 60.5996 53.1172 59.6973 53.1172C59.1113 53.1172 58.5645 53.0059 58.0566 52.7832C57.5488 52.5566 57.1562 52.248 56.8789 51.8574C56.6055 51.4668 56.4688 51.0234 56.4688 50.5273H57.5996C57.5996 51.043 57.7891 51.4512 58.168 51.752C58.5508 52.0488 59.0605 52.1973 59.6973 52.1973C60.291 52.1973 60.7461 52.0762 61.0625 51.834C61.3789 51.5918 61.5371 51.2617 61.5371 50.8438C61.5371 50.4258 61.3906 50.1035 61.0977 49.877C60.8047 49.6465 60.2734 49.4199 59.5039 49.1973ZM66.4883 52.2324C66.875 52.2324 67.2129 52.1152 67.502 51.8809C67.791 51.6465 67.9512 51.3535 67.9824 51.002H69.0078C68.9883 51.3652 68.8633 51.7109 68.6328 52.0391C68.4023 52.3672 68.0938 52.6289 67.707 52.8242C67.3242 53.0195 66.918 53.1172 66.4883 53.1172C65.625 53.1172 64.9375 52.8301 64.4258 52.2559C63.918 51.6777 63.6641 50.8887 63.6641 49.8887V49.707C63.6641 49.0898 63.7773 48.541 64.0039 48.0605C64.2305 47.5801 64.5547 47.207 64.9766 46.9414C65.4023 46.6758 65.9043 46.543 66.4824 46.543C67.1934 46.543 67.7832 46.7559 68.252 47.1816C68.7246 47.6074 68.9766 48.1602 69.0078 48.8398H67.9824C67.9512 48.4297 67.7949 48.0938 67.5137 47.832C67.2363 47.5664 66.8926 47.4336 66.4824 47.4336C65.9316 47.4336 65.5039 47.6328 65.1992 48.0312C64.8984 48.4258 64.748 48.998 64.748 49.748V49.9531C64.748 50.6836 64.8984 51.2461 65.1992 51.6406C65.5 52.0352 65.9297 52.2324 66.4883 52.2324ZM72.8574 53.1172C71.998 53.1172 71.2988 52.8359 70.7598 52.2734C70.2207 51.707 69.9512 50.9512 69.9512 50.0059V49.8066C69.9512 49.1777 70.0703 48.6172 70.3086 48.125C70.5508 47.6289 70.8867 47.2422 71.3164 46.9648C71.75 46.6836 72.2188 46.543 72.7227 46.543C73.5469 46.543 74.1875 46.8145 74.6445 47.3574C75.1016 47.9004 75.3301 48.6777 75.3301 49.6895V50.1406H71.0352C71.0508 50.7656 71.2324 51.2715 71.5801 51.6582C71.9316 52.041 72.377 52.2324 72.916 52.2324C73.2988 52.2324 73.623 52.1543 73.8887 51.998C74.1543 51.8418 74.3867 51.6348 74.5859 51.377L75.248 51.8926C74.7168 52.709 73.9199 53.1172 72.8574 53.1172ZM72.7227 47.4336C72.2852 47.4336 71.918 47.5938 71.6211 47.9141C71.3242 48.2305 71.1406 48.6758 71.0703 49.25H74.2461V49.168C74.2148 48.6172 74.0664 48.1914 73.8008 47.8906C73.5352 47.5859 73.1758 47.4336 72.7227 47.4336ZM77.6152 46.6602L77.6504 47.457C78.1348 46.8477 78.7676 46.543 79.5488 46.543C80.8887 46.543 81.5645 47.2988 81.5762 48.8105V53H80.4922V48.8047C80.4883 48.3477 80.3828 48.0098 80.1758 47.791C79.9727 47.5723 79.6543 47.4629 79.2207 47.4629C78.8691 47.4629 78.5605 47.5566 78.2949 47.7441C78.0293 47.9316 77.8223 48.1777 77.6738 48.4824V53H76.5898V46.6602H77.6152ZM87.125 53C87.0625 52.875 87.0117 52.6523 86.9727 52.332C86.4688 52.8555 85.8672 53.1172 85.168 53.1172C84.543 53.1172 84.0293 52.9414 83.627 52.5898C83.2285 52.2344 83.0293 51.7852 83.0293 51.2422C83.0293 50.582 83.2793 50.0703 83.7793 49.707C84.2832 49.3398 84.9902 49.1562 85.9004 49.1562H86.9551V48.6582C86.9551 48.2793 86.8418 47.9785 86.6152 47.7559C86.3887 47.5293 86.0547 47.416 85.6133 47.416C85.2266 47.416 84.9023 47.5137 84.6406 47.709C84.3789 47.9043 84.248 48.1406 84.248 48.418H83.1582C83.1582 48.1016 83.2695 47.7969 83.4922 47.5039C83.7188 47.207 84.0234 46.9727 84.4062 46.8008C84.793 46.6289 85.2168 46.543 85.6777 46.543C86.4082 46.543 86.9805 46.7266 87.3945 47.0938C87.8086 47.457 88.0234 47.959 88.0391 48.5996V51.5176C88.0391 52.0996 88.1133 52.5625 88.2617 52.9062V53H87.125ZM85.3262 52.1738C85.666 52.1738 85.9883 52.0859 86.293 51.9102C86.5977 51.7344 86.8184 51.5059 86.9551 51.2246V49.9238H86.1055C84.7773 49.9238 84.1133 50.3125 84.1133 51.0898C84.1133 51.4297 84.2266 51.6953 84.4531 51.8867C84.6797 52.0781 84.9707 52.1738 85.3262 52.1738ZM92.8027 47.6328C92.6387 47.6055 92.4609 47.5918 92.2695 47.5918C91.5586 47.5918 91.0762 47.8945 90.8223 48.5V53H89.7383V46.6602H90.793L90.8105 47.3926C91.166 46.8262 91.6699 46.543 92.3223 46.543C92.5332 46.543 92.6934 46.5703 92.8027 46.625V47.6328ZM94.9824 53H93.8984V46.6602H94.9824V53ZM93.8105 44.9785C93.8105 44.8027 93.8633 44.6543 93.9688 44.5332C94.0781 44.4121 94.2383 44.3516 94.4492 44.3516C94.6602 44.3516 94.8203 44.4121 94.9297 44.5332C95.0391 44.6543 95.0938 44.8027 95.0938 44.9785C95.0938 45.1543 95.0391 45.3008 94.9297 45.418C94.8203 45.5352 94.6602 45.5938 94.4492 45.5938C94.2383 45.5938 94.0781 45.5352 93.9688 45.418C93.8633 45.3008 93.8105 45.1543 93.8105 44.9785ZM96.4355 49.7715C96.4355 49.1504 96.5566 48.5918 96.7988 48.0957C97.0449 47.5996 97.3848 47.2168 97.8184 46.9473C98.2559 46.6777 98.7539 46.543 99.3125 46.543C100.176 46.543 100.873 46.8418 101.404 47.4395C101.939 48.0371 102.207 48.832 102.207 49.8242V49.9004C102.207 50.5176 102.088 51.0723 101.85 51.5645C101.615 52.0527 101.277 52.4336 100.836 52.707C100.398 52.9805 99.8945 53.1172 99.3242 53.1172C98.4648 53.1172 97.7676 52.8184 97.2324 52.2207C96.7012 51.623 96.4355 50.832 96.4355 49.8477V49.7715ZM97.5254 49.9004C97.5254 50.6035 97.6875 51.168 98.0117 51.5938C98.3398 52.0195 98.7773 52.2324 99.3242 52.2324C99.875 52.2324 100.312 52.0176 100.637 51.5879C100.961 51.1543 101.123 50.5488 101.123 49.7715C101.123 49.0762 100.957 48.5137 100.625 48.084C100.297 47.6504 99.8594 47.4336 99.3125 47.4336C98.7773 47.4336 98.3457 47.6465 98.0176 48.0723C97.6895 48.498 97.5254 49.1074 97.5254 49.9004ZM109.994 53H108.904V45.7754L106.719 46.5781V45.5938L109.824 44.4277H109.994V53Z" fill="black"/>
<path d="M59.5039 74.1973C58.5391 73.9199 57.8359 73.5801 57.3945 73.1777C56.957 72.7715 56.7383 72.2715 56.7383 71.6777C56.7383 71.0059 57.0059 70.4512 57.541 70.0137C58.0801 69.5723 58.7793 69.3516 59.6387 69.3516C60.2246 69.3516 60.7461 69.4648 61.2031 69.6914C61.6641 69.918 62.0195 70.2305 62.2695 70.6289C62.5234 71.0273 62.6504 71.4629 62.6504 71.9355H61.5195C61.5195 71.4199 61.3555 71.0156 61.0273 70.7227C60.6992 70.4258 60.2363 70.2773 59.6387 70.2773C59.084 70.2773 58.6504 70.4004 58.3379 70.6465C58.0293 70.8887 57.875 71.2266 57.875 71.6602C57.875 72.0078 58.0215 72.3027 58.3145 72.5449C58.6113 72.7832 59.1133 73.002 59.8203 73.2012C60.5312 73.4004 61.0859 73.6211 61.4844 73.8633C61.8867 74.1016 62.1836 74.3809 62.375 74.7012C62.5703 75.0215 62.668 75.3984 62.668 75.832C62.668 76.5234 62.3984 77.0781 61.8594 77.4961C61.3203 77.9102 60.5996 78.1172 59.6973 78.1172C59.1113 78.1172 58.5645 78.0059 58.0566 77.7832C57.5488 77.5566 57.1562 77.248 56.8789 76.8574C56.6055 76.4668 56.4688 76.0234 56.4688 75.5273H57.5996C57.5996 76.043 57.7891 76.4512 58.168 76.752C58.5508 77.0488 59.0605 77.1973 59.6973 77.1973C60.291 77.1973 60.7461 77.0762 61.0625 76.834C61.3789 76.5918 61.5371 76.2617 61.5371 75.8438C61.5371 75.4258 61.3906 75.1035 61.0977 74.877C60.8047 74.6465 60.2734 74.4199 59.5039 74.1973ZM66.4883 77.2324C66.875 77.2324 67.2129 77.1152 67.502 76.8809C67.791 76.6465 67.9512 76.3535 67.9824 76.002H69.0078C68.9883 76.3652 68.8633 76.7109 68.6328 77.0391C68.4023 77.3672 68.0938 77.6289 67.707 77.8242C67.3242 78.0195 66.918 78.1172 66.4883 78.1172C65.625 78.1172 64.9375 77.8301 64.4258 77.2559C63.918 76.6777 63.6641 75.8887 63.6641 74.8887V74.707C63.6641 74.0898 63.7773 73.541 64.0039 73.0605C64.2305 72.5801 64.5547 72.207 64.9766 71.9414C65.4023 71.6758 65.9043 71.543 66.4824 71.543C67.1934 71.543 67.7832 71.7559 68.252 72.1816C68.7246 72.6074 68.9766 73.1602 69.0078 73.8398H67.9824C67.9512 73.4297 67.7949 73.0938 67.5137 72.832C67.2363 72.5664 66.8926 72.4336 66.4824 72.4336C65.9316 72.4336 65.5039 72.6328 65.1992 73.0312C64.8984 73.4258 64.748 73.998 64.748 74.748V74.9531C64.748 75.6836 64.8984 76.2461 65.1992 76.6406C65.5 77.0352 65.9297 77.2324 66.4883 77.2324ZM72.8574 78.1172C71.998 78.1172 71.2988 77.8359 70.7598 77.2734C70.2207 76.707 69.9512 75.9512 69.9512 75.0059V74.8066C69.9512 74.1777 70.0703 73.6172 70.3086 73.125C70.5508 72.6289 70.8867 72.2422 71.3164 71.9648C71.75 71.6836 72.2188 71.543 72.7227 71.543C73.5469 71.543 74.1875 71.8145 74.6445 72.3574C75.1016 72.9004 75.3301 73.6777 75.3301 74.6895V75.1406H71.0352C71.0508 75.7656 71.2324 76.2715 71.5801 76.6582C71.9316 77.041 72.377 77.2324 72.916 77.2324C73.2988 77.2324 73.623 77.1543 73.8887 76.998C74.1543 76.8418 74.3867 76.6348 74.5859 76.377L75.248 76.8926C74.7168 77.709 73.9199 78.1172 72.8574 78.1172ZM72.7227 72.4336C72.2852 72.4336 71.918 72.5938 71.6211 72.9141C71.3242 73.2305 71.1406 73.6758 71.0703 74.25H74.2461V74.168C74.2148 73.6172 74.0664 73.1914 73.8008 72.8906C73.5352 72.5859 73.1758 72.4336 72.7227 72.4336ZM77.6152 71.6602L77.6504 72.457C78.1348 71.8477 78.7676 71.543 79.5488 71.543C80.8887 71.543 81.5645 72.2988 81.5762 73.8105V78H80.4922V73.8047C80.4883 73.3477 80.3828 73.0098 80.1758 72.791C79.9727 72.5723 79.6543 72.4629 79.2207 72.4629C78.8691 72.4629 78.5605 72.5566 78.2949 72.7441C78.0293 72.9316 77.8223 73.1777 77.6738 73.4824V78H76.5898V71.6602H77.6152ZM87.125 78C87.0625 77.875 87.0117 77.6523 86.9727 77.332C86.4688 77.8555 85.8672 78.1172 85.168 78.1172C84.543 78.1172 84.0293 77.9414 83.627 77.5898C83.2285 77.2344 83.0293 76.7852 83.0293 76.2422C83.0293 75.582 83.2793 75.0703 83.7793 74.707C84.2832 74.3398 84.9902 74.1562 85.9004 74.1562H86.9551V73.6582C86.9551 73.2793 86.8418 72.9785 86.6152 72.7559C86.3887 72.5293 86.0547 72.416 85.6133 72.416C85.2266 72.416 84.9023 72.5137 84.6406 72.709C84.3789 72.9043 84.248 73.1406 84.248 73.418H83.1582C83.1582 73.1016 83.2695 72.7969 83.4922 72.5039C83.7188 72.207 84.0234 71.9727 84.4062 71.8008C84.793 71.6289 85.2168 71.543 85.6777 71.543C86.4082 71.543 86.9805 71.7266 87.3945 72.0938C87.8086 72.457 88.0234 72.959 88.0391 73.5996V76.5176C88.0391 77.0996 88.1133 77.5625 88.2617 77.9062V78H87.125ZM85.3262 77.1738C85.666 77.1738 85.9883 77.0859 86.293 76.9102C86.5977 76.7344 86.8184 76.5059 86.9551 76.2246V74.9238H86.1055C84.7773 74.9238 84.1133 75.3125 84.1133 76.0898C84.1133 76.4297 84.2266 76.6953 84.4531 76.8867C84.6797 77.0781 84.9707 77.1738 85.3262 77.1738ZM92.8027 72.6328C92.6387 72.6055 92.4609 72.5918 92.2695 72.5918C91.5586 72.5918 91.0762 72.8945 90.8223 73.5V78H89.7383V71.6602H90.793L90.8105 72.3926C91.166 71.8262 91.6699 71.543 92.3223 71.543C92.5332 71.543 92.6934 71.5703 92.8027 71.625V72.6328ZM94.9824 78H93.8984V71.6602H94.9824V78ZM93.8105 69.9785C93.8105 69.8027 93.8633 69.6543 93.9688 69.5332C94.0781 69.4121 94.2383 69.3516 94.4492 69.3516C94.6602 69.3516 94.8203 69.4121 94.9297 69.5332C95.0391 69.6543 95.0938 69.8027 95.0938 69.9785C95.0938 70.1543 95.0391 70.3008 94.9297 70.418C94.8203 70.5352 94.6602 70.5938 94.4492 70.5938C94.2383 70.5938 94.0781 70.5352 93.9688 70.418C93.8633 70.3008 93.8105 70.1543 93.8105 69.9785ZM96.4355 74.7715C96.4355 74.1504 96.5566 73.5918 96.7988 73.0957C97.0449 72.5996 97.3848 72.2168 97.8184 71.9473C98.2559 71.6777 98.7539 71.543 99.3125 71.543C100.176 71.543 100.873 71.8418 101.404 72.4395C101.939 73.0371 102.207 73.832 102.207 74.8242V74.9004C102.207 75.5176 102.088 76.0723 101.85 76.5645C101.615 77.0527 101.277 77.4336 100.836 77.707C100.398 77.9805 99.8945 78.1172 99.3242 78.1172C98.4648 78.1172 97.7676 77.8184 97.2324 77.2207C96.7012 76.623 96.4355 75.832 96.4355 74.8477V74.7715ZM97.5254 74.9004C97.5254 75.6035 97.6875 76.168 98.0117 76.5938C98.3398 77.0195 98.7773 77.2324 99.3242 77.2324C99.875 77.2324 100.312 77.0176 100.637 76.5879C100.961 76.1543 101.123 75.5488 101.123 74.7715C101.123 74.0762 100.957 73.5137 100.625 73.084C100.297 72.6504 99.8594 72.4336 99.3125 72.4336C98.7773 72.4336 98.3457 72.6465 98.0176 73.0723C97.6895 73.498 97.5254 74.1074 97.5254 74.9004ZM112.021 78H106.432V77.2207L109.385 73.9395C109.822 73.4434 110.123 73.041 110.287 72.7324C110.455 72.4199 110.539 72.0977 110.539 71.7656C110.539 71.3203 110.404 70.9551 110.135 70.6699C109.865 70.3848 109.506 70.2422 109.057 70.2422C108.518 70.2422 108.098 70.3965 107.797 70.7051C107.5 71.0098 107.352 71.4355 107.352 71.9824H106.268C106.268 71.1973 106.52 70.5625 107.023 70.0781C107.531 69.5938 108.209 69.3516 109.057 69.3516C109.85 69.3516 110.477 69.5605 110.938 69.9785C111.398 70.3926 111.629 70.9453 111.629 71.6367C111.629 72.4766 111.094 73.4766 110.023 74.6367L107.738 77.1152H112.021V78Z" fill="black"/>
<path d="M59.5039 97.1973C58.5391 96.9199 57.8359 96.5801 57.3945 96.1777C56.957 95.7715 56.7383 95.2715 56.7383 94.6777C56.7383 94.0059 57.0059 93.4512 57.541 93.0137C58.0801 92.5723 58.7793 92.3516 59.6387 92.3516C60.2246 92.3516 60.7461 92.4648 61.2031 92.6914C61.6641 92.918 62.0195 93.2305 62.2695 93.6289C62.5234 94.0273 62.6504 94.4629 62.6504 94.9355H61.5195C61.5195 94.4199 61.3555 94.0156 61.0273 93.7227C60.6992 93.4258 60.2363 93.2773 59.6387 93.2773C59.084 93.2773 58.6504 93.4004 58.3379 93.6465C58.0293 93.8887 57.875 94.2266 57.875 94.6602C57.875 95.0078 58.0215 95.3027 58.3145 95.5449C58.6113 95.7832 59.1133 96.002 59.8203 96.2012C60.5312 96.4004 61.0859 96.6211 61.4844 96.8633C61.8867 97.1016 62.1836 97.3809 62.375 97.7012C62.5703 98.0215 62.668 98.3984 62.668 98.832C62.668 99.5234 62.3984 100.078 61.8594 100.496C61.3203 100.91 60.5996 101.117 59.6973 101.117C59.1113 101.117 58.5645 101.006 58.0566 100.783C57.5488 100.557 57.1562 100.248 56.8789 99.8574C56.6055 99.4668 56.4688 99.0234 56.4688 98.5273H57.5996C57.5996 99.043 57.7891 99.4512 58.168 99.752C58.5508 100.049 59.0605 100.197 59.6973 100.197C60.291 100.197 60.7461 100.076 61.0625 99.834C61.3789 99.5918 61.5371 99.2617 61.5371 98.8438C61.5371 98.4258 61.3906 98.1035 61.0977 97.877C60.8047 97.6465 60.2734 97.4199 59.5039 97.1973ZM66.4883 100.232C66.875 100.232 67.2129 100.115 67.502 99.8809C67.791 99.6465 67.9512 99.3535 67.9824 99.002H69.0078C68.9883 99.3652 68.8633 99.7109 68.6328 100.039C68.4023 100.367 68.0938 100.629 67.707 100.824C67.3242 101.02 66.918 101.117 66.4883 101.117C65.625 101.117 64.9375 100.83 64.4258 100.256C63.918 99.6777 63.6641 98.8887 63.6641 97.8887V97.707C63.6641 97.0898 63.7773 96.541 64.0039 96.0605C64.2305 95.5801 64.5547 95.207 64.9766 94.9414C65.4023 94.6758 65.9043 94.543 66.4824 94.543C67.1934 94.543 67.7832 94.7559 68.252 95.1816C68.7246 95.6074 68.9766 96.1602 69.0078 96.8398H67.9824C67.9512 96.4297 67.7949 96.0938 67.5137 95.832C67.2363 95.5664 66.8926 95.4336 66.4824 95.4336C65.9316 95.4336 65.5039 95.6328 65.1992 96.0312C64.8984 96.4258 64.748 96.998 64.748 97.748V97.9531C64.748 98.6836 64.8984 99.2461 65.1992 99.6406C65.5 100.035 65.9297 100.232 66.4883 100.232ZM72.8574 101.117C71.998 101.117 71.2988 100.836 70.7598 100.273C70.2207 99.707 69.9512 98.9512 69.9512 98.0059V97.8066C69.9512 97.1777 70.0703 96.6172 70.3086 96.125C70.5508 95.6289 70.8867 95.2422 71.3164 94.9648C71.75 94.6836 72.2188 94.543 72.7227 94.543C73.5469 94.543 74.1875 94.8145 74.6445 95.3574C75.1016 95.9004 75.3301 96.6777 75.3301 97.6895V98.1406H71.0352C71.0508 98.7656 71.2324 99.2715 71.5801 99.6582C71.9316 100.041 72.377 100.232 72.916 100.232C73.2988 100.232 73.623 100.154 73.8887 99.998C74.1543 99.8418 74.3867 99.6348 74.5859 99.377L75.248 99.8926C74.7168 100.709 73.9199 101.117 72.8574 101.117ZM72.7227 95.4336C72.2852 95.4336 71.918 95.5938 71.6211 95.9141C71.3242 96.2305 71.1406 96.6758 71.0703 97.25H74.2461V97.168C74.2148 96.6172 74.0664 96.1914 73.8008 95.8906C73.5352 95.5859 73.1758 95.4336 72.7227 95.4336ZM77.6152 94.6602L77.6504 95.457C78.1348 94.8477 78.7676 94.543 79.5488 94.543C80.8887 94.543 81.5645 95.2988 81.5762 96.8105V101H80.4922V96.8047C80.4883 96.3477 80.3828 96.0098 80.1758 95.791C79.9727 95.5723 79.6543 95.4629 79.2207 95.4629C78.8691 95.4629 78.5605 95.5566 78.2949 95.7441C78.0293 95.9316 77.8223 96.1777 77.6738 96.4824V101H76.5898V94.6602H77.6152ZM87.125 101C87.0625 100.875 87.0117 100.652 86.9727 100.332C86.4688 100.855 85.8672 101.117 85.168 101.117C84.543 101.117 84.0293 100.941 83.627 100.59C83.2285 100.234 83.0293 99.7852 83.0293 99.2422C83.0293 98.582 83.2793 98.0703 83.7793 97.707C84.2832 97.3398 84.9902 97.1562 85.9004 97.1562H86.9551V96.6582C86.9551 96.2793 86.8418 95.9785 86.6152 95.7559C86.3887 95.5293 86.0547 95.416 85.6133 95.416C85.2266 95.416 84.9023 95.5137 84.6406 95.709C84.3789 95.9043 84.248 96.1406 84.248 96.418H83.1582C83.1582 96.1016 83.2695 95.7969 83.4922 95.5039C83.7188 95.207 84.0234 94.9727 84.4062 94.8008C84.793 94.6289 85.2168 94.543 85.6777 94.543C86.4082 94.543 86.9805 94.7266 87.3945 95.0938C87.8086 95.457 88.0234 95.959 88.0391 96.5996V99.5176C88.0391 100.1 88.1133 100.562 88.2617 100.906V101H87.125ZM85.3262 100.174C85.666 100.174 85.9883 100.086 86.293 99.9102C86.5977 99.7344 86.8184 99.5059 86.9551 99.2246V97.9238H86.1055C84.7773 97.9238 84.1133 98.3125 84.1133 99.0898C84.1133 99.4297 84.2266 99.6953 84.4531 99.8867C84.6797 100.078 84.9707 100.174 85.3262 100.174ZM92.8027 95.6328C92.6387 95.6055 92.4609 95.5918 92.2695 95.5918C91.5586 95.5918 91.0762 95.8945 90.8223 96.5V101H89.7383V94.6602H90.793L90.8105 95.3926C91.166 94.8262 91.6699 94.543 92.3223 94.543C92.5332 94.543 92.6934 94.5703 92.8027 94.625V95.6328ZM94.9824 101H93.8984V94.6602H94.9824V101ZM93.8105 92.9785C93.8105 92.8027 93.8633 92.6543 93.9688 92.5332C94.0781 92.4121 94.2383 92.3516 94.4492 92.3516C94.6602 92.3516 94.8203 92.4121 94.9297 92.5332C95.0391 92.6543 95.0938 92.8027 95.0938 92.9785C95.0938 93.1543 95.0391 93.3008 94.9297 93.418C94.8203 93.5352 94.6602 93.5938 94.4492 93.5938C94.2383 93.5938 94.0781 93.5352 93.9688 93.418C93.8633 93.3008 93.8105 93.1543 93.8105 92.9785ZM96.4355 97.7715C96.4355 97.1504 96.5566 96.5918 96.7988 96.0957C97.0449 95.5996 97.3848 95.2168 97.8184 94.9473C98.2559 94.6777 98.7539 94.543 99.3125 94.543C100.176 94.543 100.873 94.8418 101.404 95.4395C101.939 96.0371 102.207 96.832 102.207 97.8242V97.9004C102.207 98.5176 102.088 99.0723 101.85 99.5645C101.615 100.053 101.277 100.434 100.836 100.707C100.398 100.98 99.8945 101.117 99.3242 101.117C98.4648 101.117 97.7676 100.818 97.2324 100.221C96.7012 99.623 96.4355 98.832 96.4355 97.8477V97.7715ZM97.5254 97.9004C97.5254 98.6035 97.6875 99.168 98.0117 99.5938C98.3398 100.02 98.7773 100.232 99.3242 100.232C99.875 100.232 100.312 100.018 100.637 99.5879C100.961 99.1543 101.123 98.5488 101.123 97.7715C101.123 97.0762 100.957 96.5137 100.625 96.084C100.297 95.6504 99.8594 95.4336 99.3125 95.4336C98.7773 95.4336 98.3457 95.6465 98.0176 96.0723C97.6895 96.498 97.5254 97.1074 97.5254 97.9004ZM108.008 96.207H108.822C109.334 96.1992 109.736 96.0645 110.029 95.8027C110.322 95.541 110.469 95.1875 110.469 94.7422C110.469 93.7422 109.971 93.2422 108.975 93.2422C108.506 93.2422 108.131 93.377 107.85 93.6465C107.572 93.9121 107.434 94.2656 107.434 94.707H106.35C106.35 94.0312 106.596 93.4707 107.088 93.0254C107.584 92.5762 108.213 92.3516 108.975 92.3516C109.779 92.3516 110.41 92.5645 110.867 92.9902C111.324 93.416 111.553 94.0078 111.553 94.7656C111.553 95.1367 111.432 95.4961 111.189 95.8438C110.951 96.1914 110.625 96.4512 110.211 96.623C110.68 96.7715 111.041 97.0176 111.295 97.3613C111.553 97.7051 111.682 98.125 111.682 98.6211C111.682 99.3867 111.432 99.9941 110.932 100.443C110.432 100.893 109.781 101.117 108.98 101.117C108.18 101.117 107.527 100.9 107.023 100.467C106.523 100.033 106.273 99.4609 106.273 98.75H107.363C107.363 99.1992 107.51 99.5586 107.803 99.8281C108.096 100.098 108.488 100.232 108.98 100.232C109.504 100.232 109.904 100.096 110.182 99.8223C110.459 99.5488 110.598 99.1562 110.598 98.6445C110.598 98.1484 110.445 97.7676 110.141 97.502C109.836 97.2363 109.396 97.0996 108.822 97.0918H108.008V96.207Z" fill="black"/>
</svg>
