<svg width="162" height="162" viewBox="0 0 162 162" fill="none" xmlns="http://www.w3.org/2000/svg">
<path d="M162 81C162 125.735 125.735 162 81 162C36.2649 162 0 125.735 0 81C0 36.2649 36.2649 0 81 0C125.735 0 162 36.2649 162 81Z" fill="#3AB2B6"/>
<rect x="16.5" y="38.5" width="129" height="85.6667" rx="3.5" fill="#E2F8F9" stroke="black"/>
<line x1="22.0555" y1="80.3333" x2="137.056" y2="80.3333" stroke="black" stroke-width="2" stroke-linecap="round"/>
<line x1="47.3334" y1="46.2222" x2="47.3334" y2="115.722" stroke="black" stroke-width="2" stroke-linecap="round"/>
<line x1="80.5555" y1="46.2222" x2="80.5555" y2="115.722" stroke="black" stroke-width="2" stroke-linecap="round"/>
<line x1="113.778" y1="46.2222" x2="113.778" y2="115.722" stroke="black" stroke-width="2" stroke-linecap="round"/>
<g clip-path="url(#clip0_702_12)">
<path d="M132.278 92.1667V97.9444H138.056C138.056 94.7522 135.47 92.1667 132.278 92.1667ZM136.842 102.198C137.601 101.223 138.056 99.9955 138.056 98.6667H127.54L126.854 97.2222H124.333V98.6667H125.937C125.937 98.6667 127.302 101.606 127.468 101.859C126.673 102.285 126.139 103.123 126.139 104.083C126.139 105.477 127.273 106.611 128.667 106.611C129.938 106.611 130.992 105.672 131.166 104.444H132.668C132.841 105.672 133.896 106.611 135.167 106.611C136.561 106.611 137.694 105.477 137.694 104.083C137.694 103.332 137.362 102.661 136.842 102.198ZM128.667 105.167C128.067 105.167 127.583 104.683 127.583 104.083C127.583 103.484 128.067 103 128.667 103C129.266 103 129.75 103.484 129.75 104.083C129.75 104.683 129.266 105.167 128.667 105.167ZM135.167 105.167C134.567 105.167 134.083 104.683 134.083 104.083C134.083 103.484 134.567 103 135.167 103C135.766 103 136.25 103.484 136.25 104.083C136.25 104.683 135.766 105.167 135.167 105.167Z" fill="black"/>
</g>
<g clip-path="url(#clip1_702_12)">
<path d="M36.9445 65.0833C36.9445 68.2743 37.6667 69.0556 34.0556 66.8889C29 69.7778 32.6111 66.1667 29.7222 62.9167C29.7222 59.7257 33.6945 64 34.0556 57.5C33.3333 62.5556 42.7222 60.0278 36.9445 65.0833Z" fill="#FFFF00"/>
<path d="M41.2778 61.2844L36.085 60.8367L34.0556 56.0556L32.0262 60.8439L26.8334 61.2844L30.7767 64.7006L29.5923 69.7778L34.0556 67.0839L38.5189 69.7778L37.3417 64.7006L41.2778 61.2844ZM34.0556 65.7333L31.34 67.3728L32.0623 64.2817L29.6645 62.2017L32.8278 61.9272L34.0556 59.0167L35.2906 61.9344L38.4539 62.2089L36.0562 64.2889L36.7784 67.38L34.0556 65.7333Z" fill="black"/>
</g>
<g clip-path="url(#clip2_702_12)">
<path d="M37.3056 105.889C37.9039 105.889 38.3889 105.404 38.3889 104.806C38.3889 104.207 37.9039 103.722 37.3056 103.722C36.7073 103.722 36.2222 104.207 36.2222 104.806C36.2222 105.404 36.7073 105.889 37.3056 105.889Z" fill="black"/>
<path d="M35.5 94.9978L29.7223 92.1667V105.167H28.2778V103.917C26.985 104.17 26.1111 104.632 26.1111 105.167C26.1111 105.961 28.0539 106.611 30.4445 106.611C32.835 106.611 34.7778 105.961 34.7778 105.167C34.7778 104.452 33.2178 103.859 31.1667 103.744V97.2078L35.5 94.9978Z" fill="black"/>
</g>
<g clip-path="url(#clip3_702_12)">
<path d="M124.333 66.1667C124.333 68.9617 126.594 71.2222 129.389 71.2222C132.184 71.2222 134.444 68.9617 134.444 66.1667V63.2778H124.333V66.1667ZM132.364 57.7672L133.881 56.2506L133.289 55.6511L131.628 57.3194C130.949 56.98 130.198 56.7778 129.389 56.7778C128.58 56.7778 127.829 56.98 127.157 57.3194L125.489 55.6511L124.897 56.2506L126.413 57.7672C125.157 58.6844 124.333 60.1578 124.333 61.8333V62.5556H134.444V61.8333C134.444 60.1578 133.621 58.6844 132.364 57.7672ZM127.222 61.1111C126.825 61.1111 126.5 60.7861 126.5 60.3889C126.5 59.9917 126.825 59.6667 127.222 59.6667C127.619 59.6667 127.944 59.9917 127.944 60.3889C127.944 60.7861 127.619 61.1111 127.222 61.1111ZM131.556 61.1111C131.158 61.1111 130.833 60.7861 130.833 60.3889C130.833 59.9917 131.158 59.6667 131.556 59.6667C131.953 59.6667 132.278 59.9917 132.278 60.3889C132.278 60.7861 131.953 61.1111 131.556 61.1111Z" fill="#8CA612"/>
</g>
<g clip-path="url(#clip4_702_12)">
<ellipse cx="96.1667" cy="99.3889" rx="6.5" ry="5.77778" fill="white"/>
<path d="M97.9723 99.2083C98.4709 99.2083 98.8751 98.8041 98.8751 98.3055C98.8751 97.807 98.4709 97.4028 97.9723 97.4028C97.4737 97.4028 97.0695 97.807 97.0695 98.3055C97.0695 98.8041 97.4737 99.2083 97.9723 99.2083Z" fill="black"/>
<path d="M94.3612 99.2083C94.8597 99.2083 95.2639 98.8041 95.2639 98.3055C95.2639 97.807 94.8597 97.4028 94.3612 97.4028C93.8626 97.4028 93.4584 97.807 93.4584 98.3055C93.4584 98.8041 93.8626 99.2083 94.3612 99.2083Z" fill="black"/>
<path d="M104.068 99.8655C104.097 99.7139 104.111 99.555 104.111 99.3889C104.111 99.2228 104.097 99.0639 104.068 98.9122C103.887 97.8217 103.086 96.9333 102.038 96.6228C101.656 95.8139 101.114 95.1061 100.457 94.5211C99.3156 93.5028 97.8134 92.8889 96.1667 92.8889C94.5201 92.8889 93.0178 93.5028 91.8767 94.5211C91.2123 95.1061 90.6706 95.8211 90.2951 96.6228C89.2478 96.9333 88.4462 97.8144 88.2656 98.9122C88.2367 99.0639 88.2223 99.2228 88.2223 99.3889C88.2223 99.555 88.2367 99.7139 88.2656 99.8655C88.4462 100.956 89.2478 101.844 90.2951 102.155C90.6706 102.957 91.2123 103.664 91.8623 104.242C93.0034 105.268 94.5128 105.889 96.1667 105.889C97.8206 105.889 99.3301 105.268 100.478 104.242C101.128 103.664 101.67 102.949 102.046 102.155C103.086 101.844 103.887 100.963 104.068 99.8655ZM101.222 100.833C101.15 100.833 101.085 100.819 101.013 100.812C100.868 101.296 100.659 101.743 100.392 102.155C99.489 103.534 97.9362 104.444 96.1667 104.444C94.3973 104.444 92.8445 103.534 91.9417 102.155C91.6745 101.743 91.4651 101.296 91.3206 100.812C91.2484 100.819 91.1834 100.833 91.1112 100.833C90.3167 100.833 89.6667 100.183 89.6667 99.3889C89.6667 98.5944 90.3167 97.9444 91.1112 97.9444C91.1834 97.9444 91.2484 97.9589 91.3206 97.9661C91.4651 97.4822 91.6745 97.0344 91.9417 96.6228C92.8445 95.2433 94.3973 94.3333 96.1667 94.3333C97.9362 94.3333 99.489 95.2433 100.392 96.6228C100.659 97.0344 100.868 97.4822 101.013 97.9661C101.085 97.9589 101.15 97.9444 101.222 97.9444C102.017 97.9444 102.667 98.5944 102.667 99.3889C102.667 100.183 102.017 100.833 101.222 100.833ZM92.9167 100.833C93.4656 102.112 94.7151 103 96.1667 103C97.6184 103 98.8678 102.112 99.4167 100.833H92.9167Z" fill="black"/>
</g>
<g clip-path="url(#clip5_702_12)">
<ellipse cx="64.3889" cy="63.2778" rx="6.5" ry="5.77778" fill="white"/>
<path d="M66.1945 63.0972C66.6931 63.0972 67.0972 62.693 67.0972 62.1945C67.0972 61.6959 66.6931 61.2917 66.1945 61.2917C65.6959 61.2917 65.2917 61.6959 65.2917 62.1945C65.2917 62.693 65.6959 63.0972 66.1945 63.0972Z" fill="black"/>
<path d="M62.5833 63.0972C63.0819 63.0972 63.4861 62.693 63.4861 62.1945C63.4861 61.6959 63.0819 61.2917 62.5833 61.2917C62.0847 61.2917 61.6805 61.6959 61.6805 62.1945C61.6805 62.693 62.0847 63.0972 62.5833 63.0972Z" fill="black"/>
<path d="M72.29 63.7545C72.3189 63.6028 72.3333 63.4439 72.3333 63.2778C72.3333 63.1117 72.3189 62.9528 72.29 62.8011C72.1095 61.7106 71.3078 60.8222 70.2606 60.5117C69.8778 59.7028 69.3361 58.995 68.6789 58.41C67.5378 57.3917 66.0356 56.7778 64.3889 56.7778C62.7422 56.7778 61.24 57.3917 60.0989 58.41C59.4345 58.995 58.8928 59.71 58.5172 60.5117C57.47 60.8222 56.6683 61.7033 56.4878 62.8011C56.4589 62.9528 56.4445 63.1117 56.4445 63.2778C56.4445 63.4439 56.4589 63.6028 56.4878 63.7545C56.6683 64.845 57.47 65.7333 58.5172 66.0439C58.8928 66.8456 59.4345 67.5533 60.0845 68.1311C61.2256 69.1567 62.735 69.7778 64.3889 69.7778C66.0428 69.7778 67.5522 69.1567 68.7006 68.1311C69.3506 67.5533 69.8922 66.8383 70.2678 66.0439C71.3078 65.7333 72.1095 64.8522 72.29 63.7545ZM69.4445 64.7222C69.3722 64.7222 69.3072 64.7078 69.235 64.7006C69.0906 65.1845 68.8811 65.6322 68.6139 66.0439C67.7111 67.4233 66.1583 68.3333 64.3889 68.3333C62.6195 68.3333 61.0667 67.4233 60.1639 66.0439C59.8967 65.6322 59.6872 65.1845 59.5428 64.7006C59.4706 64.7078 59.4056 64.7222 59.3333 64.7222C58.5389 64.7222 57.8889 64.0722 57.8889 63.2778C57.8889 62.4833 58.5389 61.8333 59.3333 61.8333C59.4056 61.8333 59.4706 61.8478 59.5428 61.855C59.6872 61.3711 59.8967 60.9233 60.1639 60.5117C61.0667 59.1322 62.6195 58.2222 64.3889 58.2222C66.1583 58.2222 67.7111 59.1322 68.6139 60.5117C68.8811 60.9233 69.0906 61.3711 69.235 61.855C69.3072 61.8478 69.3722 61.8333 69.4445 61.8333C70.2389 61.8333 70.8889 62.4833 70.8889 63.2778C70.8889 64.0722 70.2389 64.7222 69.4445 64.7222ZM61.1389 64.7222C61.6878 66.0006 62.9372 66.8889 64.3889 66.8889C65.8406 66.8889 67.09 66.0006 67.6389 64.7222H61.1389Z" fill="black"/>
</g>
<defs>
<clipPath id="clip0_702_12">
<rect width="17.3333" height="17.3333" fill="white" transform="translate(122.889 90.7222)"/>
</clipPath>
<clipPath id="clip1_702_12">
<rect width="17.3333" height="17.3333" fill="white" transform="translate(25.3889 54.6111)"/>
</clipPath>
<clipPath id="clip2_702_12">
<rect width="17.3333" height="17.3333" fill="white" transform="translate(23.2222 90.7222)"/>
</clipPath>
<clipPath id="clip3_702_12">
<rect width="17.3333" height="17.3333" fill="white" transform="translate(120.722 54.6111)"/>
</clipPath>
<clipPath id="clip4_702_12">
<rect width="17.3333" height="17.3333" fill="white" transform="translate(87.5001 90.7222)"/>
</clipPath>
<clipPath id="clip5_702_12">
<rect width="17.3333" height="17.3333" fill="white" transform="translate(55.7222 54.6111)"/>
</clipPath>
</defs>
</svg>
