<svg width="285" height="51" viewBox="0 0 285 51" fill="none" xmlns="http://www.w3.org/2000/svg">
<rect width="285" height="51" rx="25.5" fill="#68259D"/>
<path d="M55.524 31.216C54.24 31.216 53.076 30.94 52.032 30.388C51 29.824 50.184 29.05 49.584 28.066C48.996 27.07 48.702 25.948 48.702 24.7C48.702 23.452 48.996 22.336 49.584 21.352C50.184 20.356 51 19.582 52.032 19.03C53.076 18.466 54.246 18.184 55.542 18.184C56.634 18.184 57.618 18.376 58.494 18.76C59.382 19.144 60.126 19.696 60.726 20.416L58.854 22.144C58.002 21.16 56.946 20.668 55.686 20.668C54.906 20.668 54.21 20.842 53.598 21.19C52.986 21.526 52.506 22 52.158 22.612C51.822 23.224 51.654 23.92 51.654 24.7C51.654 25.48 51.822 26.176 52.158 26.788C52.506 27.4 52.986 27.88 53.598 28.228C54.21 28.564 54.906 28.732 55.686 28.732C56.946 28.732 58.002 28.234 58.854 27.238L60.726 28.966C60.126 29.698 59.382 30.256 58.494 30.64C57.606 31.024 56.616 31.216 55.524 31.216ZM65.1792 22.594C65.5152 22.126 65.9652 21.772 66.5292 21.532C67.1052 21.292 67.7652 21.172 68.5092 21.172V23.764C68.1972 23.74 67.9872 23.728 67.8792 23.728C67.0752 23.728 66.4452 23.956 65.9892 24.412C65.5332 24.856 65.3052 25.528 65.3052 26.428V31H62.4972V21.316H65.1792V22.594ZM79.5769 26.194C79.5769 26.23 79.5589 26.482 79.5229 26.95H72.1969C72.3289 27.55 72.6409 28.024 73.1329 28.372C73.6249 28.72 74.2369 28.894 74.9689 28.894C75.4729 28.894 75.9169 28.822 76.3009 28.678C76.6969 28.522 77.0629 28.282 77.3989 27.958L78.8929 29.578C77.9809 30.622 76.6489 31.144 74.8969 31.144C73.8049 31.144 72.8389 30.934 71.9989 30.514C71.1589 30.082 70.5109 29.488 70.0549 28.732C69.5989 27.976 69.3709 27.118 69.3709 26.158C69.3709 25.21 69.5929 24.358 70.0369 23.602C70.4929 22.834 71.1109 22.24 71.8909 21.82C72.6829 21.388 73.5649 21.172 74.5369 21.172C75.4849 21.172 76.3429 21.376 77.1109 21.784C77.8789 22.192 78.4789 22.78 78.9109 23.548C79.3549 24.304 79.5769 25.186 79.5769 26.194ZM74.5549 23.296C73.9189 23.296 73.3849 23.476 72.9529 23.836C72.5209 24.196 72.2569 24.688 72.1609 25.312H76.9309C76.8349 24.7 76.5709 24.214 76.1389 23.854C75.7069 23.482 75.1789 23.296 74.5549 23.296ZM85.0887 21.172C86.5887 21.172 87.7407 21.532 88.5447 22.252C89.3487 22.96 89.7507 24.034 89.7507 25.474V31H87.1227V29.794C86.5947 30.694 85.6107 31.144 84.1707 31.144C83.4267 31.144 82.7787 31.018 82.2267 30.766C81.6867 30.514 81.2727 30.166 80.9847 29.722C80.6967 29.278 80.5527 28.774 80.5527 28.21C80.5527 27.31 80.8887 26.602 81.5607 26.086C82.2447 25.57 83.2947 25.312 84.7107 25.312H86.9427C86.9427 24.7 86.7567 24.232 86.3847 23.908C86.0127 23.572 85.4547 23.404 84.7107 23.404C84.1947 23.404 83.6847 23.488 83.1807 23.656C82.6887 23.812 82.2687 24.028 81.9207 24.304L80.9127 22.342C81.4407 21.97 82.0707 21.682 82.8027 21.478C83.5467 21.274 84.3087 21.172 85.0887 21.172ZM84.8727 29.254C85.3527 29.254 85.7787 29.146 86.1507 28.93C86.5227 28.702 86.7867 28.372 86.9427 27.94V26.95H85.0167C83.8647 26.95 83.2887 27.328 83.2887 28.084C83.2887 28.444 83.4267 28.732 83.7027 28.948C83.9907 29.152 84.3807 29.254 84.8727 29.254ZM98.5381 30.532C98.2621 30.736 97.9201 30.892 97.5121 31C97.1161 31.096 96.6961 31.144 96.2521 31.144C95.1001 31.144 94.2061 30.85 93.5701 30.262C92.9461 29.674 92.6341 28.81 92.6341 27.67V23.692H91.1401V21.532H92.6341V19.174H95.4421V21.532H97.8541V23.692H95.4421V27.634C95.4421 28.042 95.5441 28.36 95.7481 28.588C95.9641 28.804 96.2641 28.912 96.6481 28.912C97.0921 28.912 97.4701 28.792 97.7821 28.552L98.5381 30.532ZM109.302 26.194C109.302 26.23 109.284 26.482 109.248 26.95H101.922C102.054 27.55 102.366 28.024 102.858 28.372C103.35 28.72 103.962 28.894 104.694 28.894C105.198 28.894 105.642 28.822 106.026 28.678C106.422 28.522 106.788 28.282 107.124 27.958L108.618 29.578C107.706 30.622 106.374 31.144 104.622 31.144C103.53 31.144 102.564 30.934 101.724 30.514C100.884 30.082 100.236 29.488 99.7795 28.732C99.3235 27.976 99.0955 27.118 99.0955 26.158C99.0955 25.21 99.3175 24.358 99.7615 23.602C100.218 22.834 100.836 22.24 101.616 21.82C102.408 21.388 103.29 21.172 104.262 21.172C105.21 21.172 106.068 21.376 106.836 21.784C107.604 22.192 108.204 22.78 108.636 23.548C109.08 24.304 109.302 25.186 109.302 26.194ZM104.28 23.296C103.644 23.296 103.11 23.476 102.678 23.836C102.246 24.196 101.982 24.688 101.886 25.312H106.656C106.56 24.7 106.296 24.214 105.864 23.854C105.432 23.482 104.904 23.296 104.28 23.296ZM122.155 21.172C123.355 21.172 124.321 21.532 125.053 22.252C125.797 22.972 126.169 24.04 126.169 25.456V31H123.361V25.888C123.361 25.12 123.193 24.55 122.857 24.178C122.521 23.794 122.035 23.602 121.399 23.602C120.691 23.602 120.127 23.824 119.707 24.268C119.287 24.7 119.077 25.348 119.077 26.212V31H116.269V21.316H118.951V22.45C119.323 22.042 119.785 21.73 120.337 21.514C120.889 21.286 121.495 21.172 122.155 21.172ZM138.305 26.194C138.305 26.23 138.287 26.482 138.251 26.95H130.925C131.057 27.55 131.369 28.024 131.861 28.372C132.353 28.72 132.965 28.894 133.697 28.894C134.201 28.894 134.645 28.822 135.029 28.678C135.425 28.522 135.791 28.282 136.127 27.958L137.621 29.578C136.709 30.622 135.377 31.144 133.625 31.144C132.533 31.144 131.567 30.934 130.727 30.514C129.887 30.082 129.239 29.488 128.783 28.732C128.327 27.976 128.099 27.118 128.099 26.158C128.099 25.21 128.321 24.358 128.765 23.602C129.221 22.834 129.839 22.24 130.619 21.82C131.411 21.388 132.293 21.172 133.265 21.172C134.213 21.172 135.071 21.376 135.839 21.784C136.607 22.192 137.207 22.78 137.639 23.548C138.083 24.304 138.305 25.186 138.305 26.194ZM133.283 23.296C132.647 23.296 132.113 23.476 131.681 23.836C131.249 24.196 130.985 24.688 130.889 25.312H135.659C135.563 24.7 135.299 24.214 134.867 23.854C134.435 23.482 133.907 23.296 133.283 23.296ZM155.551 21.316L152.041 31H149.341L147.163 24.988L144.913 31H142.213L138.721 21.316H141.367L143.653 27.868L146.029 21.316H148.405L150.709 27.868L153.067 21.316H155.551ZM165.86 21.172C167.36 21.172 168.512 21.532 169.316 22.252C170.12 22.96 170.522 24.034 170.522 25.474V31H167.894V29.794C167.366 30.694 166.382 31.144 164.942 31.144C164.198 31.144 163.55 31.018 162.998 30.766C162.458 30.514 162.044 30.166 161.756 29.722C161.468 29.278 161.324 28.774 161.324 28.21C161.324 27.31 161.66 26.602 162.332 26.086C163.016 25.57 164.066 25.312 165.482 25.312H167.714C167.714 24.7 167.528 24.232 167.156 23.908C166.784 23.572 166.226 23.404 165.482 23.404C164.966 23.404 164.456 23.488 163.952 23.656C163.46 23.812 163.04 24.028 162.692 24.304L161.684 22.342C162.212 21.97 162.842 21.682 163.574 21.478C164.318 21.274 165.08 21.172 165.86 21.172ZM165.644 29.254C166.124 29.254 166.55 29.146 166.922 28.93C167.294 28.702 167.558 28.372 167.714 27.94V26.95H165.788C164.636 26.95 164.06 27.328 164.06 28.084C164.06 28.444 164.198 28.732 164.474 28.948C164.762 29.152 165.152 29.254 165.644 29.254ZM177.849 31.144C176.817 31.144 175.887 30.934 175.059 30.514C174.243 30.082 173.601 29.488 173.133 28.732C172.677 27.976 172.449 27.118 172.449 26.158C172.449 25.198 172.677 24.34 173.133 23.584C173.601 22.828 174.243 22.24 175.059 21.82C175.887 21.388 176.817 21.172 177.849 21.172C178.869 21.172 179.757 21.388 180.513 21.82C181.281 22.24 181.839 22.846 182.187 23.638L180.009 24.808C179.505 23.92 178.779 23.476 177.831 23.476C177.099 23.476 176.493 23.716 176.013 24.196C175.533 24.676 175.293 25.33 175.293 26.158C175.293 26.986 175.533 27.64 176.013 28.12C176.493 28.6 177.099 28.84 177.831 28.84C178.791 28.84 179.517 28.396 180.009 27.508L182.187 28.696C181.839 29.464 181.281 30.064 180.513 30.496C179.757 30.928 178.869 31.144 177.849 31.144ZM188.361 31.144C187.329 31.144 186.399 30.934 185.571 30.514C184.755 30.082 184.113 29.488 183.645 28.732C183.189 27.976 182.961 27.118 182.961 26.158C182.961 25.198 183.189 24.34 183.645 23.584C184.113 22.828 184.755 22.24 185.571 21.82C186.399 21.388 187.329 21.172 188.361 21.172C189.381 21.172 190.269 21.388 191.025 21.82C191.793 22.24 192.351 22.846 192.699 23.638L190.521 24.808C190.017 23.92 189.291 23.476 188.343 23.476C187.611 23.476 187.005 23.716 186.525 24.196C186.045 24.676 185.805 25.33 185.805 26.158C185.805 26.986 186.045 27.64 186.525 28.12C187.005 28.6 187.611 28.84 188.343 28.84C189.303 28.84 190.029 28.396 190.521 27.508L192.699 28.696C192.351 29.464 191.793 30.064 191.025 30.496C190.269 30.928 189.381 31.144 188.361 31.144ZM198.8 31.144C197.78 31.144 196.862 30.934 196.046 30.514C195.242 30.082 194.612 29.488 194.156 28.732C193.7 27.976 193.472 27.118 193.472 26.158C193.472 25.198 193.7 24.34 194.156 23.584C194.612 22.828 195.242 22.24 196.046 21.82C196.862 21.388 197.78 21.172 198.8 21.172C199.82 21.172 200.732 21.388 201.536 21.82C202.34 22.24 202.97 22.828 203.426 23.584C203.882 24.34 204.11 25.198 204.11 26.158C204.11 27.118 203.882 27.976 203.426 28.732C202.97 29.488 202.34 30.082 201.536 30.514C200.732 30.934 199.82 31.144 198.8 31.144ZM198.8 28.84C199.52 28.84 200.108 28.6 200.564 28.12C201.032 27.628 201.266 26.974 201.266 26.158C201.266 25.342 201.032 24.694 200.564 24.214C200.108 23.722 199.52 23.476 198.8 23.476C198.08 23.476 197.486 23.722 197.018 24.214C196.55 24.694 196.316 25.342 196.316 26.158C196.316 26.974 196.55 27.628 197.018 28.12C197.486 28.6 198.08 28.84 198.8 28.84ZM215.743 21.316V31H213.079V29.848C212.707 30.268 212.263 30.592 211.747 30.82C211.231 31.036 210.673 31.144 210.073 31.144C208.801 31.144 207.793 30.778 207.049 30.046C206.305 29.314 205.933 28.228 205.933 26.788V21.316H208.741V26.374C208.741 27.934 209.395 28.714 210.703 28.714C211.375 28.714 211.915 28.498 212.323 28.066C212.731 27.622 212.935 26.968 212.935 26.104V21.316H215.743ZM224.231 21.172C225.431 21.172 226.397 21.532 227.129 22.252C227.873 22.972 228.245 24.04 228.245 25.456V31H225.437V25.888C225.437 25.12 225.269 24.55 224.933 24.178C224.597 23.794 224.111 23.602 223.475 23.602C222.767 23.602 222.203 23.824 221.783 24.268C221.363 24.7 221.153 25.348 221.153 26.212V31H218.345V21.316H221.027V22.45C221.399 22.042 221.861 21.73 222.413 21.514C222.965 21.286 223.571 21.172 224.231 21.172ZM237.036 30.532C236.76 30.736 236.418 30.892 236.01 31C235.614 31.096 235.194 31.144 234.75 31.144C233.598 31.144 232.704 30.85 232.068 30.262C231.444 29.674 231.132 28.81 231.132 27.67V23.692H229.638V21.532H231.132V19.174H233.94V21.532H236.352V23.692H233.94V27.634C233.94 28.042 234.042 28.36 234.246 28.588C234.462 28.804 234.762 28.912 235.146 28.912C235.59 28.912 235.968 28.792 236.28 28.552L237.036 30.532Z" fill="white"/>
</svg>
