<svg width="466" height="358" viewBox="0 0 466 358" fill="none" xmlns="http://www.w3.org/2000/svg">
<mask id="path-1-inside-1_980_753" fill="white">
<path fill-rule="evenodd" clip-rule="evenodd" d="M198.682 200.162L189.109 196.495L185.622 206.134L195.194 209.801L198.682 200.162Z"/>
</mask>
<path fill-rule="evenodd" clip-rule="evenodd" d="M198.682 200.162L189.109 196.495L185.622 206.134L195.194 209.801L198.682 200.162Z" fill="white"/>
<path d="M189.109 196.495L189.807 194.673L187.951 193.962L187.275 195.831L189.109 196.495ZM198.682 200.162L200.516 200.825L201.167 199.025L199.379 198.34L198.682 200.162ZM185.622 206.134L183.787 205.47L183.136 207.27L184.924 207.955L185.622 206.134ZM195.194 209.801L194.496 211.622L196.352 212.333L197.028 210.464L195.194 209.801ZM188.411 198.316L197.984 201.983L199.379 198.34L189.807 194.673L188.411 198.316ZM187.456 206.797L190.944 197.158L187.275 195.831L183.787 205.47L187.456 206.797ZM195.892 207.979L186.32 204.312L184.924 207.955L194.496 211.622L195.892 207.979ZM196.847 199.498L193.359 209.137L197.028 210.464L200.516 200.825L196.847 199.498Z" fill="black" mask="url(#path-1-inside-1_980_753)"/>
<mask id="path-3-inside-2_980_753" fill="white">
<path fill-rule="evenodd" clip-rule="evenodd" d="M211.864 194.133L202.292 190.466L198.805 200.105L208.377 203.772L211.864 194.133Z"/>
</mask>
<path fill-rule="evenodd" clip-rule="evenodd" d="M211.864 194.133L202.292 190.466L198.805 200.105L208.377 203.772L211.864 194.133Z" fill="white"/>
<path d="M202.292 190.466L202.99 188.645L201.134 187.933L200.458 189.803L202.292 190.466ZM211.864 194.133L213.699 194.797L214.35 192.996L212.562 192.312L211.864 194.133ZM198.805 200.105L196.97 199.442L196.319 201.242L198.107 201.927L198.805 200.105ZM208.377 203.772L207.679 205.594L209.535 206.305L210.211 204.436L208.377 203.772ZM201.594 192.288L211.167 195.955L212.562 192.312L202.99 188.645L201.594 192.288ZM200.639 200.769L204.127 191.13L200.458 189.803L196.97 199.442L200.639 200.769ZM209.075 201.951L199.503 198.284L198.107 201.927L207.679 205.594L209.075 201.951ZM210.03 193.47L206.542 203.109L210.211 204.436L213.699 194.797L210.03 193.47Z" fill="black" mask="url(#path-3-inside-2_980_753)"/>
<mask id="path-5-inside-3_980_753" fill="white">
<path fill-rule="evenodd" clip-rule="evenodd" d="M224.727 188.252L215.155 184.585L211.667 194.224L221.239 197.891L224.727 188.252Z"/>
</mask>
<path fill-rule="evenodd" clip-rule="evenodd" d="M224.727 188.252L215.155 184.585L211.667 194.224L221.239 197.891L224.727 188.252Z" fill="white"/>
<path d="M215.155 184.585L215.853 182.763L213.997 182.052L213.32 183.921L215.155 184.585ZM224.727 188.252L226.561 188.915L227.213 187.115L225.425 186.43L224.727 188.252ZM211.667 194.224L209.833 193.56L209.181 195.36L210.969 196.045L211.667 194.224ZM221.239 197.891L220.542 199.712L222.398 200.423L223.074 198.554L221.239 197.891ZM214.457 186.406L224.029 190.073L225.425 186.43L215.853 182.763L214.457 186.406ZM213.502 194.887L216.989 185.248L213.32 183.921L209.833 193.56L213.502 194.887ZM221.937 196.069L212.365 192.402L210.969 196.045L220.542 199.712L221.937 196.069ZM222.893 187.588L219.405 197.227L223.074 198.554L226.561 188.915L222.893 187.588Z" fill="black" mask="url(#path-5-inside-3_980_753)"/>
<circle cx="225.482" cy="213.949" r="6" transform="rotate(-24.5738 225.482 213.949)" fill="#85953A"/>
<circle cx="204.565" cy="223.514" r="6" transform="rotate(-24.5738 204.565 223.514)" fill="#ABBF4A"/>
<rect x="2.65058" y="123.417" width="187" height="255" rx="3" transform="rotate(-24.5738 2.65058 123.417)" fill="white" stroke="black" stroke-width="4"/>
<path d="M102.091 275.144C103.934 274.301 104.744 272.126 103.901 270.282C103.058 268.438 100.882 267.628 99.0393 268.471C97.1963 269.313 96.3864 271.489 97.2294 273.333C98.0725 275.176 100.248 275.987 102.091 275.144ZM102.854 276.813C100.627 277.831 96.6937 280.981 97.7084 283.2L98.4713 284.869L111.814 278.767L111.051 277.099C110.037 274.88 105.081 275.794 102.854 276.813Z" fill="black"/>
<path d="M105.135 234.895L102.979 230.209L102.445 235.125L101.63 235.498L97.619 232.781L99.718 237.372L98.0204 238.148L94.4454 230.33L95.9419 229.646L101.09 233.166L101.75 226.99L103.235 226.311L106.832 234.118L105.135 234.895ZM113.087 227.653C113.097 227.675 113.157 227.837 113.268 228.137L108.722 230.216C108.974 230.551 109.302 230.756 109.706 230.833C110.11 230.909 110.539 230.843 110.994 230.636C111.306 230.493 111.561 230.322 111.759 230.124C111.96 229.914 112.119 229.662 112.236 229.365L113.622 229.947C113.353 230.853 112.674 231.555 111.587 232.052C110.91 232.362 110.251 232.506 109.61 232.483C108.967 232.454 108.396 232.269 107.899 231.929C107.401 231.59 107.016 231.122 106.744 230.526C106.475 229.938 106.371 229.346 106.432 228.751C106.497 228.145 106.712 227.602 107.077 227.12C107.445 226.627 107.931 226.243 108.535 225.967C109.123 225.698 109.713 225.581 110.305 225.616C110.898 225.651 111.437 225.846 111.923 226.2C112.413 226.543 112.801 227.027 113.087 227.653ZM109.148 227.28C108.754 227.46 108.473 227.723 108.308 228.069C108.142 228.415 108.117 228.795 108.235 229.21L111.195 227.856C110.961 227.504 110.66 227.277 110.29 227.176C109.916 227.068 109.536 227.102 109.148 227.28ZM115.082 222.973C116.012 222.547 116.829 222.444 117.533 222.662C118.232 222.874 118.786 223.426 119.195 224.319L120.763 227.748L119.132 228.494L118.79 227.746C118.718 228.454 118.235 229.012 117.342 229.421C116.88 229.632 116.442 229.738 116.028 229.738C115.621 229.735 115.266 229.636 114.961 229.442C114.657 229.249 114.424 228.977 114.264 228.627C114.009 228.068 114.016 227.534 114.287 227.023C114.565 226.509 115.143 226.051 116.022 225.649L117.407 225.016C117.233 224.636 116.985 224.398 116.662 224.303C116.336 224.2 115.942 224.254 115.48 224.465C115.16 224.611 114.868 224.808 114.603 225.055C114.342 225.292 114.142 225.545 114.005 225.815L112.823 224.884C113.045 224.503 113.354 224.146 113.75 223.811C114.154 223.474 114.598 223.194 115.082 222.973ZM117.241 228.049C117.539 227.913 117.772 227.725 117.942 227.485C118.108 227.238 118.178 226.959 118.152 226.646L117.871 226.032L116.676 226.578C115.962 226.905 115.712 227.303 115.926 227.772C116.028 227.996 116.196 228.135 116.428 228.191C116.665 228.236 116.936 228.188 117.241 228.049ZM124.402 226.192C123.903 226.42 123.388 226.584 122.857 226.682C122.323 226.774 121.872 226.791 121.504 226.734L121.512 225.218C121.859 225.266 122.247 225.26 122.678 225.198C123.106 225.128 123.502 225.01 123.867 224.843C124.604 224.506 124.889 224.155 124.722 223.791C124.644 223.619 124.487 223.542 124.252 223.56C124.017 223.577 123.679 223.655 123.238 223.794C122.713 223.944 122.268 224.044 121.903 224.094C121.539 224.143 121.181 224.1 120.831 223.963C120.487 223.823 120.212 223.526 120.004 223.072C119.831 222.692 119.785 222.307 119.869 221.918C119.956 221.518 120.17 221.141 120.512 220.787C120.862 220.429 121.323 220.119 121.897 219.856C122.321 219.662 122.764 219.518 123.225 219.425C123.69 219.32 124.098 219.286 124.449 219.324L124.435 220.83C123.77 220.773 123.125 220.888 122.499 221.174C122.127 221.345 121.872 221.524 121.733 221.714C121.595 221.903 121.563 222.08 121.638 222.244C121.723 222.43 121.883 222.514 122.118 222.497C122.353 222.479 122.706 222.403 123.176 222.27C123.705 222.127 124.147 222.032 124.504 221.986C124.858 221.932 125.206 221.976 125.55 222.116C125.893 222.256 126.165 222.546 126.366 222.985C126.536 223.357 126.576 223.74 126.485 224.132C126.395 224.525 126.171 224.902 125.814 225.263C125.461 225.613 124.99 225.923 124.402 226.192ZM131.579 215.537L134.326 221.546L132.674 222.302L132.347 221.587C132.235 221.953 132.051 222.28 131.796 222.568C131.537 222.848 131.222 223.074 130.849 223.244C130.06 223.605 129.331 223.664 128.661 223.421C127.992 223.178 127.453 222.609 127.045 221.716L125.492 218.32L127.234 217.524L128.669 220.662C129.112 221.63 129.739 221.928 130.551 221.557C130.968 221.367 131.241 221.079 131.372 220.696C131.499 220.304 131.44 219.841 131.195 219.305L129.837 216.334L131.579 215.537ZM135.22 214.831C135.295 214.445 135.474 214.098 135.756 213.789C136.045 213.477 136.421 213.215 136.882 213.004L137.618 214.612C137.417 214.686 137.284 214.738 137.217 214.768C136.718 214.997 136.392 215.317 136.238 215.729C136.081 216.134 136.13 216.616 136.386 217.174L137.683 220.011L135.941 220.808L133.193 214.799L134.857 214.038L135.22 214.831ZM145.175 212.98C145.185 213.002 145.245 213.163 145.356 213.464L140.81 215.543C141.062 215.877 141.39 216.083 141.794 216.159C142.198 216.236 142.627 216.17 143.082 215.962C143.394 215.819 143.649 215.649 143.847 215.45C144.048 215.241 144.207 214.988 144.324 214.692L145.71 215.273C145.441 216.18 144.762 216.882 143.675 217.379C142.998 217.689 142.339 217.832 141.698 217.81C141.055 217.78 140.484 217.596 139.987 217.256C139.489 216.916 139.104 216.449 138.832 215.853C138.563 215.265 138.459 214.673 138.52 214.078C138.585 213.472 138.8 212.928 139.165 212.446C139.533 211.954 140.019 211.569 140.622 211.293C141.211 211.025 141.801 210.908 142.393 210.943C142.986 210.978 143.525 211.173 144.011 211.527C144.501 211.87 144.889 212.354 145.175 212.98ZM141.236 212.606C140.842 212.787 140.561 213.05 140.396 213.396C140.23 213.742 140.205 214.122 140.323 214.536L143.283 213.183C143.049 212.831 142.748 212.604 142.377 212.503C142.004 212.395 141.623 212.429 141.236 212.606ZM153.614 212.888C152.996 213.171 152.359 213.363 151.704 213.464C151.052 213.555 150.49 213.547 150.017 213.439L150.009 211.795C150.456 211.888 150.945 211.903 151.474 211.841C152.004 211.779 152.5 211.642 152.961 211.431C153.475 211.196 153.821 210.948 153.998 210.687C154.173 210.418 154.202 210.157 154.086 209.904C154.001 209.718 153.857 209.599 153.653 209.548C153.454 209.486 153.222 209.471 152.957 209.502C152.7 209.529 152.357 209.587 151.929 209.675C151.268 209.806 150.716 209.887 150.272 209.92C149.827 209.952 149.396 209.874 148.977 209.688C148.566 209.498 148.242 209.142 148.003 208.621C147.795 208.166 147.731 207.701 147.81 207.224C147.885 206.739 148.119 206.276 148.512 205.836C148.912 205.392 149.47 205.006 150.185 204.679C150.683 204.451 151.198 204.288 151.729 204.189C152.26 204.09 152.756 204.071 153.215 204.131L153.285 205.76C152.375 205.681 151.56 205.806 150.837 206.136C150.331 206.368 149.992 206.622 149.822 206.898C149.658 207.171 149.638 207.441 149.76 207.709C149.883 207.977 150.113 208.115 150.449 208.123C150.79 208.12 151.276 208.051 151.908 207.916C152.568 207.785 153.12 207.703 153.565 207.671C154.009 207.639 154.435 207.714 154.843 207.897C155.258 208.076 155.585 208.426 155.823 208.947C156.027 209.394 156.088 209.862 156.005 210.35C155.926 210.827 155.687 211.287 155.286 211.732C154.886 212.176 154.329 212.561 153.614 212.888ZM161.289 201.951L164.037 207.96L162.384 208.716L162.057 208.001C161.945 208.367 161.762 208.694 161.506 208.982C161.247 209.262 160.932 209.488 160.559 209.658C159.77 210.019 159.041 210.078 158.372 209.835C157.702 209.592 157.163 209.023 156.755 208.13L155.202 204.734L156.944 203.938L158.38 207.076C158.822 208.044 159.449 208.342 160.261 207.971C160.678 207.781 160.952 207.493 161.082 207.11C161.209 206.718 161.15 206.255 160.905 205.719L159.547 202.748L161.289 201.951ZM168.596 205.983C167.955 206.276 167.319 206.41 166.686 206.384C166.057 206.347 165.49 206.161 164.985 205.825C164.488 205.485 164.103 205.017 163.83 204.422C163.558 203.826 163.456 203.229 163.524 202.63C163.6 202.029 163.832 201.482 164.219 200.989C164.61 200.486 165.126 200.089 165.766 199.796C166.399 199.506 167.011 199.388 167.603 199.442C168.199 199.485 168.717 199.702 169.157 200.095L168.138 201.439C167.573 201.031 166.997 200.961 166.409 201.23C165.955 201.438 165.647 201.759 165.485 202.193C165.323 202.627 165.36 203.101 165.595 203.615C165.83 204.128 166.164 204.466 166.598 204.628C167.032 204.789 167.476 204.766 167.931 204.559C168.526 204.286 168.851 203.805 168.904 203.114L170.593 203.233C170.595 203.809 170.419 204.339 170.065 204.825C169.718 205.308 169.228 205.694 168.596 205.983ZM175.118 203.001C174.478 203.293 173.841 203.427 173.208 203.401C172.579 203.365 172.012 203.178 171.507 202.842C171.01 202.502 170.625 202.035 170.353 201.439C170.08 200.843 169.978 200.246 170.047 199.648C170.123 199.046 170.354 198.499 170.741 198.007C171.132 197.504 171.648 197.106 172.288 196.813C172.921 196.524 173.534 196.406 174.125 196.459C174.721 196.502 175.239 196.72 175.68 197.112L174.66 198.456C174.096 198.048 173.519 197.979 172.931 198.248C172.477 198.456 172.169 198.776 172.007 199.21C171.846 199.644 171.882 200.118 172.117 200.632C172.352 201.146 172.687 201.484 173.121 201.645C173.555 201.807 173.999 201.784 174.453 201.576C175.049 201.304 175.373 200.822 175.426 200.132L177.115 200.251C177.117 200.826 176.941 201.357 176.587 201.843C176.24 202.325 175.751 202.711 175.118 203.001ZM183.218 195.583C183.228 195.605 183.288 195.767 183.399 196.067L178.853 198.146C179.105 198.481 179.433 198.687 179.837 198.763C180.241 198.839 180.67 198.774 181.125 198.566C181.437 198.423 181.692 198.252 181.89 198.054C182.091 197.845 182.25 197.592 182.367 197.296L183.753 197.877C183.484 198.783 182.805 199.485 181.718 199.982C181.041 200.292 180.382 200.436 179.741 200.414C179.098 200.384 178.527 200.199 178.03 199.86C177.532 199.52 177.147 199.052 176.875 198.457C176.606 197.868 176.502 197.277 176.563 196.682C176.628 196.076 176.843 195.532 177.208 195.05C177.576 194.557 178.062 194.173 178.666 193.897C179.254 193.628 179.844 193.511 180.436 193.546C181.029 193.582 181.568 193.776 182.054 194.13C182.544 194.473 182.932 194.958 183.218 195.583ZM179.279 195.21C178.885 195.39 178.604 195.653 178.439 195.999C178.273 196.345 178.248 196.726 178.366 197.14L181.326 195.787C181.092 195.434 180.791 195.207 180.421 195.107C180.047 194.998 179.667 195.033 179.279 195.21ZM187.804 197.2C187.305 197.428 186.79 197.591 186.259 197.69C185.724 197.781 185.273 197.799 184.905 197.742L184.914 196.225C185.26 196.274 185.649 196.267 186.08 196.205C186.507 196.136 186.903 196.018 187.268 195.851C188.005 195.514 188.29 195.163 188.123 194.798C188.045 194.627 187.888 194.55 187.653 194.568C187.418 194.585 187.08 194.663 186.64 194.802C186.114 194.952 185.669 195.052 185.305 195.101C184.94 195.151 184.583 195.107 184.232 194.971C183.889 194.83 183.614 194.533 183.406 194.079C183.232 193.699 183.187 193.315 183.27 192.926C183.357 192.526 183.572 192.149 183.914 191.794C184.263 191.436 184.725 191.126 185.298 190.864C185.723 190.67 186.165 190.526 186.627 190.432C187.092 190.327 187.5 190.294 187.85 190.332L187.836 191.837C187.171 191.781 186.526 191.896 185.901 192.182C185.529 192.352 185.273 192.532 185.135 192.721C184.996 192.911 184.964 193.087 185.039 193.251C185.124 193.437 185.285 193.522 185.52 193.504C185.755 193.487 186.107 193.411 186.577 193.277C187.106 193.134 187.549 193.04 187.906 192.994C188.26 192.94 188.608 192.983 188.951 193.123C189.294 193.264 189.566 193.553 189.767 193.993C189.937 194.365 189.977 194.747 189.887 195.14C189.796 195.532 189.572 195.909 189.215 196.27C188.862 196.621 188.392 196.931 187.804 197.2ZM193.737 194.486C193.238 194.715 192.723 194.878 192.192 194.977C191.658 195.068 191.207 195.085 190.838 195.029L190.847 193.512C191.194 193.561 191.582 193.554 192.013 193.492C192.44 193.423 192.836 193.305 193.201 193.138C193.938 192.801 194.224 192.45 194.057 192.085C193.978 191.914 193.822 191.837 193.587 191.854C193.352 191.872 193.014 191.95 192.573 192.088C192.047 192.239 191.602 192.339 191.238 192.388C190.874 192.438 190.516 192.394 190.165 192.257C189.822 192.117 189.547 191.82 189.339 191.366C189.165 190.986 189.12 190.602 189.203 190.213C189.291 189.813 189.505 189.435 189.847 189.081C190.197 188.723 190.658 188.413 191.231 188.151C191.656 187.957 192.099 187.813 192.56 187.719C193.025 187.614 193.433 187.581 193.783 187.619L193.77 189.124C193.105 189.068 192.46 189.183 191.834 189.469C191.462 189.639 191.206 189.819 191.068 190.008C190.93 190.198 190.898 190.374 190.973 190.538C191.058 190.724 191.218 190.808 191.453 190.791C191.688 190.773 192.041 190.698 192.51 190.564C193.039 190.421 193.482 190.327 193.839 190.28C194.193 190.227 194.541 190.27 194.884 190.41C195.228 190.55 195.5 190.84 195.7 191.279C195.871 191.652 195.911 192.034 195.82 192.427C195.729 192.819 195.506 193.196 195.149 193.557C194.796 193.908 194.325 194.217 193.737 194.486Z" fill="black"/>
<path d="M116.149 301.494C115.502 301.79 114.851 301.894 114.199 301.805C113.546 301.716 112.936 301.437 112.37 300.966C111.808 300.485 111.335 299.824 110.95 298.983C110.565 298.141 110.376 297.354 110.384 296.622C110.395 295.879 110.58 295.231 110.94 294.679C111.3 294.128 111.804 293.704 112.452 293.407C113.1 293.111 113.75 293.007 114.402 293.096C115.055 293.185 115.663 293.47 116.225 293.951C116.791 294.421 117.266 295.077 117.651 295.918C118.036 296.76 118.223 297.552 118.211 298.295C118.204 299.028 118.021 299.67 117.661 300.222C117.301 300.773 116.797 301.197 116.149 301.494ZM115.45 299.963C115.926 299.746 116.205 299.371 116.286 298.838C116.374 298.303 116.222 297.607 115.831 296.751C115.439 295.895 115.012 295.325 114.549 295.041C114.094 294.754 113.628 294.72 113.151 294.938C112.682 295.152 112.404 295.527 112.315 296.063C112.235 296.595 112.39 297.289 112.782 298.145C113.173 299.001 113.597 299.573 114.052 299.86C114.515 300.143 114.981 300.178 115.45 299.963Z" fill="black"/>
<path d="M155.42 238.29C150.816 240.395 148.798 245.837 150.903 250.442C153.009 255.047 158.446 257.08 163.049 254.974C167.661 252.866 169.688 247.42 167.582 242.815C165.477 238.21 160.032 236.181 155.42 238.29ZM162.295 253.302C158.609 254.988 154.257 253.367 152.571 249.679C150.885 245.992 152.505 241.64 156.191 239.955C159.877 238.269 164.228 239.891 165.914 243.578C167.601 247.265 165.981 251.617 162.295 253.302Z" fill="black"/>
<path d="M157.752 242.267L156.502 242.839L158.79 247.844L164.37 248.47L164.526 247.158L159.755 246.646L157.752 242.267Z" fill="black"/>
<path d="M162.47 274.546C163.206 274.344 163.848 274.361 164.397 274.596C164.942 274.824 165.349 275.232 165.618 275.82C165.826 276.274 165.899 276.75 165.838 277.246C165.774 277.734 165.548 278.207 165.162 278.662C164.784 279.114 164.241 279.502 163.534 279.825C162.983 280.077 162.407 280.255 161.806 280.359C161.209 280.452 160.664 280.449 160.169 280.351L160.239 278.645C160.639 278.732 161.062 278.75 161.507 278.7C161.956 278.639 162.385 278.514 162.794 278.327C163.249 278.119 163.567 277.87 163.749 277.58C163.928 277.282 163.944 276.973 163.798 276.653C163.505 276.012 162.871 275.915 161.896 276.361L161.069 276.739L160.523 275.544L161.298 272.988L157.97 274.51L157.306 273.058L162.779 270.556L163.315 271.728L162.47 274.546ZM170.959 276.43C170.311 276.726 169.661 276.83 169.008 276.742C168.355 276.653 167.746 276.373 167.18 275.903C166.617 275.422 166.144 274.761 165.759 273.919C165.374 273.078 165.186 272.291 165.193 271.559C165.204 270.815 165.39 270.168 165.749 269.616C166.109 269.064 166.613 268.64 167.261 268.344C167.909 268.048 168.559 267.944 169.212 268.033C169.864 268.121 170.472 268.406 171.034 268.887C171.6 269.358 172.076 270.014 172.46 270.855C172.845 271.696 173.032 272.489 173.021 273.232C173.014 273.965 172.83 274.607 172.47 275.158C172.11 275.71 171.606 276.134 170.959 276.43ZM170.259 274.9C170.735 274.682 171.014 274.307 171.095 273.775C171.183 273.24 171.031 272.544 170.64 271.687C170.248 270.831 169.821 270.261 169.358 269.978C168.903 269.691 168.437 269.656 167.961 269.874C167.492 270.089 167.213 270.464 167.125 270.999C167.044 271.531 167.199 272.225 167.591 273.082C167.982 273.938 168.406 274.51 168.861 274.797C169.324 275.08 169.79 275.115 170.259 274.9ZM180.402 264.577C181.154 264.233 181.852 264.184 182.496 264.43C183.143 264.665 183.67 265.225 184.075 266.111L185.648 269.551L183.906 270.348L182.455 267.176C182.237 266.699 181.975 266.392 181.668 266.253C181.366 266.103 181.032 266.112 180.667 266.278C180.258 266.466 179.995 266.748 179.879 267.125C179.76 267.494 179.82 267.94 180.058 268.461L181.437 271.476L179.695 272.273L178.245 269.101C177.812 268.156 177.216 267.857 176.457 268.204C176.055 268.388 175.796 268.668 175.68 269.045C175.561 269.415 175.621 269.86 175.859 270.381L177.238 273.397L175.496 274.193L172.748 268.185L174.412 267.424L174.729 268.116C174.836 267.761 175.019 267.443 175.278 267.163C175.545 266.879 175.871 266.648 176.259 266.471C176.683 266.277 177.106 266.188 177.526 266.202C177.944 266.209 178.33 266.325 178.685 266.55C178.788 266.125 178.986 265.742 179.28 265.4C179.581 265.055 179.955 264.781 180.402 264.577Z" fill="black"/>
<rect x="147.55" y="299.618" width="71" height="24" rx="12" transform="rotate(-24.5738 147.55 299.618)" fill="white" stroke="black"/>
<path d="M178.365 301.644L174.735 303.304L174.809 305.296L172.955 306.144L172.864 296.733L174.651 295.915L181.722 302.135L179.823 303.003L178.365 301.644ZM177.167 300.531L174.558 298.105L174.688 301.665L177.167 300.531ZM184.686 290.759L188.476 299.046L186.812 299.807L186.495 299.115C186.302 299.834 185.795 300.38 184.976 300.755C184.411 301.013 183.839 301.122 183.262 301.08C182.692 301.034 182.169 300.837 181.694 300.487C181.219 300.137 180.84 299.653 180.557 299.035C180.275 298.417 180.157 297.814 180.203 297.225C180.249 296.637 180.441 296.113 180.779 295.652C181.125 295.188 181.581 294.826 182.147 294.567C182.914 294.217 183.624 294.184 184.277 294.471L182.944 291.556L184.686 290.759ZM184.624 299.187C185.064 298.986 185.36 298.671 185.515 298.24C185.665 297.802 185.625 297.33 185.393 296.823C185.162 296.317 184.833 295.981 184.406 295.816C183.976 295.644 183.542 295.658 183.102 295.859C182.656 296.063 182.357 296.384 182.206 296.822C182.052 297.253 182.091 297.722 182.322 298.228C182.554 298.734 182.884 299.074 183.314 299.246C183.741 299.411 184.178 299.391 184.624 299.187ZM192.419 287.223L196.209 295.51L194.545 296.271L194.228 295.579C194.035 296.297 193.528 296.844 192.709 297.218C192.144 297.477 191.572 297.586 190.994 297.544C190.425 297.498 189.902 297.3 189.427 296.95C188.952 296.601 188.573 296.117 188.29 295.499C188.008 294.881 187.89 294.278 187.936 293.689C187.982 293.101 188.174 292.576 188.512 292.116C188.858 291.651 189.314 291.29 189.88 291.031C190.647 290.68 191.357 290.648 192.01 290.935L190.677 288.02L192.419 287.223ZM192.357 295.651C192.797 295.45 193.093 295.134 193.247 294.704C193.398 294.266 193.358 293.794 193.126 293.287C192.895 292.781 192.566 292.445 192.139 292.28C191.709 292.108 191.275 292.122 190.835 292.323C190.389 292.527 190.09 292.848 189.939 293.286C189.785 293.717 189.823 294.185 190.055 294.692C190.287 295.198 190.617 295.537 191.047 295.71C191.474 295.875 191.91 295.855 192.357 295.651Z" fill="black"/>
<mask id="path-18-inside-4_980_753" fill="white">
<path fill-rule="evenodd" clip-rule="evenodd" d="M210.326 225.625L200.753 221.958L197.266 231.597L206.838 235.265L210.326 225.625Z"/>
</mask>
<path fill-rule="evenodd" clip-rule="evenodd" d="M210.326 225.625L200.753 221.958L197.266 231.597L206.838 235.265L210.326 225.625Z" fill="white"/>
<path d="M200.753 221.958L201.451 220.137L199.595 219.426L198.919 221.295L200.753 221.958ZM210.326 225.625L212.16 226.289L212.812 224.489L211.024 223.804L210.326 225.625ZM197.266 231.597L195.431 230.934L194.78 232.734L196.568 233.419L197.266 231.597ZM206.838 235.265L206.14 237.086L207.996 237.797L208.673 235.928L206.838 235.265ZM200.056 223.78L209.628 227.447L211.024 223.804L201.451 220.137L200.056 223.78ZM199.1 232.261L202.588 222.622L198.919 221.295L195.431 230.934L199.1 232.261ZM207.536 233.443L197.964 229.776L196.568 233.419L206.14 237.086L207.536 233.443ZM208.491 224.962L205.004 234.601L208.673 235.928L212.16 226.289L208.491 224.962Z" fill="black" mask="url(#path-18-inside-4_980_753)"/>
<mask id="path-20-inside-5_980_753" fill="white">
<path fill-rule="evenodd" clip-rule="evenodd" d="M223.509 219.597L213.936 215.93L210.449 225.569L220.021 229.236L223.509 219.597Z"/>
</mask>
<path fill-rule="evenodd" clip-rule="evenodd" d="M223.509 219.597L213.936 215.93L210.449 225.569L220.021 229.236L223.509 219.597Z" fill="white"/>
<path d="M213.936 215.93L214.634 214.108L212.778 213.397L212.102 215.266L213.936 215.93ZM223.509 219.597L225.343 220.261L225.995 218.46L224.207 217.775L223.509 219.597ZM210.449 225.569L208.614 224.905L207.963 226.706L209.751 227.391L210.449 225.569ZM220.021 229.236L219.323 231.058L221.179 231.769L221.856 229.9L220.021 229.236ZM213.239 217.752L222.811 221.419L224.207 217.775L214.634 214.108L213.239 217.752ZM212.283 226.233L215.771 216.594L212.102 215.266L208.614 224.905L212.283 226.233ZM220.719 227.414L211.147 223.747L209.751 227.391L219.323 231.058L220.719 227.414ZM221.674 218.933L218.187 228.572L221.856 229.9L225.343 220.261L221.674 218.933Z" fill="black" mask="url(#path-20-inside-5_980_753)"/>
<mask id="path-22-inside-6_980_753" fill="white">
<path fill-rule="evenodd" clip-rule="evenodd" d="M236.371 213.715L226.799 210.048L223.311 219.687L232.884 223.354L236.371 213.715Z"/>
</mask>
<path fill-rule="evenodd" clip-rule="evenodd" d="M236.371 213.715L226.799 210.048L223.311 219.687L232.884 223.354L236.371 213.715Z" fill="white"/>
<path d="M226.799 210.048L227.497 208.227L225.641 207.516L224.965 209.385L226.799 210.048ZM236.371 213.715L238.206 214.379L238.857 212.579L237.069 211.894L236.371 213.715ZM223.311 219.687L221.477 219.024L220.825 220.824L222.613 221.509L223.311 219.687ZM232.884 223.354L232.186 225.176L234.042 225.887L234.718 224.018L232.884 223.354ZM226.101 211.87L235.673 215.537L237.069 211.894L227.497 208.227L226.101 211.87ZM225.146 220.351L228.633 210.712L224.965 209.385L221.477 219.024L225.146 220.351ZM233.581 221.533L224.009 217.866L222.613 221.509L232.186 225.176L233.581 221.533ZM234.537 213.052L231.049 222.691L234.718 224.018L238.206 214.379L234.537 213.052Z" fill="black" mask="url(#path-22-inside-6_980_753)"/>
<path d="M232.579 241.492C233.957 244.506 232.632 248.066 229.618 249.444C226.604 250.822 223.044 249.496 221.666 246.483C220.288 243.469 221.614 239.909 224.628 238.531C227.641 237.153 231.201 238.479 232.579 241.492Z" fill="#85953A"/>
<path d="M165.316 123.256C177.834 150.629 165.791 182.967 138.417 195.484C111.044 208.001 78.7063 195.958 66.1889 168.585C53.6716 141.212 65.7147 108.874 93.088 96.3565C120.461 83.8391 152.799 95.8823 165.316 123.256Z" fill="#305346"/>
<path d="M75.2169 153.46L139.786 123.934C142.549 122.671 145.812 123.886 147.075 126.649C148.338 129.411 147.123 132.675 144.361 133.938L79.7914 163.464C77.0289 164.727 73.7655 163.512 72.5023 160.75C71.2391 157.987 72.4544 154.724 75.2169 153.46Z" fill="white" stroke="black"/>
<path d="M77.5042 158.462L134.798 132.263" stroke="#85953A" stroke-width="10" stroke-linecap="round"/>
<path d="M135.233 132.989C134.024 131.854 132.72 129.999 131.938 128.289L131.875 128.152L133.647 127.329L135.869 126.297L136.311 126.091L136.117 125.644L135.826 124.975L135.731 124.757L142.043 121.87L148.356 118.984L148.459 119.198L148.775 119.856L148.986 120.296L149.431 120.096L151.665 119.09L153.446 118.289L153.509 118.425C154.291 120.135 154.84 122.335 154.908 123.992M135.233 132.989L134.891 133.353M135.233 132.989L134.891 133.353M135.233 132.989C136.765 134.426 138.343 135.075 139.885 134.994C140.554 134.959 141 134.846 141.777 134.498L141.777 134.498L142.51 134.17L142.749 134.063L142.972 134.198L143.447 134.484L143.211 134.876L143.447 134.484C144.495 135.117 145.649 135.514 146.54 135.578C146.54 135.578 146.54 135.578 146.54 135.578L146.998 135.611L147.294 135.632L147.417 135.902L148.285 137.8L149.153 139.699L149.361 140.154L148.906 140.362L147.282 141.104L146.112 141.639L146.451 142.381L146.998 143.577L147.206 144.032L146.751 144.239L146.202 144.49L146.108 144.533L146.21 144.755L146.311 144.976L151.52 142.594L156.729 140.212L156.628 139.991L156.527 139.769L156.433 139.812L155.884 140.063L155.429 140.271L155.221 139.816L154.674 138.62L154.335 137.879L153.165 138.414L151.541 139.157L151.086 139.365L150.878 138.91L150.01 137.012L149.142 135.113L149.019 134.843L149.196 134.606L149.471 134.238C149.471 134.238 149.471 134.238 149.471 134.238C150.005 133.522 150.459 132.389 150.667 131.183L151.159 131.268L150.667 131.183L150.761 130.637L150.805 130.379L151.042 130.269L151.769 129.929C152.541 129.568 152.919 129.304 153.381 128.822C154.008 128.168 154.362 127.529 154.649 126.494C154.865 125.715 154.947 124.946 154.908 123.992M134.891 133.353C136.493 134.856 138.198 135.583 139.912 135.493L133.436 126.876L131.214 127.908L131.483 128.497C132.289 130.259 133.629 132.169 134.891 133.353ZM154.908 123.992L155.407 123.972M154.908 123.992L155.407 123.972M155.407 123.972C155.337 122.242 154.769 119.979 153.963 118.217L153.694 117.629L151.981 130.382C152.797 130.001 153.229 129.703 153.742 129.168C154.434 128.446 154.825 127.731 155.131 126.628C155.362 125.791 155.448 124.97 155.407 123.972ZM137.394 128.011L137.394 128.011C138.473 129.844 139.551 131.237 140.797 132.422C140.797 132.422 140.797 132.422 140.798 132.422L141.345 132.942L141.881 133.451L141.208 133.759L141.062 133.825C140.908 133.896 140.633 133.965 140.402 134.014C140.156 134.067 139.874 134.115 139.677 134.129L139.677 134.129C138.021 134.241 136.365 133.343 134.912 131.725C134.61 131.388 134.222 130.888 133.887 130.421C133.56 129.965 133.247 129.492 133.122 129.22L137.394 128.011ZM137.394 128.011L136.985 127.318L136.759 126.933M137.394 128.011L136.759 126.933M136.759 126.933L136.351 127.115M136.759 126.933L136.351 127.115M136.351 127.115L134.841 127.789C134.14 128.102 133.745 128.279 133.533 128.39M136.351 127.115L133.533 128.39M133.533 128.39C133.444 128.437 133.318 128.504 133.227 128.6M133.533 128.39L133.227 128.6M133.227 128.6C133.171 128.659 133.095 128.763 133.075 128.913M133.227 128.6L133.075 128.913M133.075 128.913C133.055 129.06 133.101 129.173 133.122 129.22L133.075 128.913ZM154.026 122.104L154.026 122.104L149.96 121.457L149.46 121.438C149.46 121.439 149.46 121.439 149.46 121.439C149.458 121.497 149.467 121.544 149.468 121.553L149.468 121.554C149.471 121.571 149.475 121.586 149.477 121.596C149.483 121.618 149.489 121.641 149.495 121.662C149.507 121.705 149.524 121.759 149.544 121.819C149.583 121.941 149.636 122.1 149.695 122.267L149.695 122.267C150.396 124.272 150.803 126.316 150.852 128.034C150.852 128.034 150.852 128.034 150.852 128.034L150.867 128.577L150.889 129.332L151.575 129.018L151.724 128.95C151.879 128.879 152.11 128.717 152.3 128.574C152.501 128.423 152.722 128.242 152.862 128.101L152.863 128.101C153.044 127.919 153.243 127.649 153.413 127.385C153.584 127.118 153.748 126.82 153.848 126.568C154.313 125.393 154.354 123.81 154.026 122.104Z" fill="#FCE4A8" stroke="black"/>
<path d="M84.1343 152.01L85.7635 153.783L85.8864 153.917L86.0516 153.842L88.2415 152.84L87.0584 154.938L86.9692 155.096L87.0921 155.229L88.7212 157.003L86.3609 156.526L86.1829 156.49L86.0936 156.648L84.9105 158.745L84.6348 156.353L84.614 156.173L84.436 156.137L82.0757 155.66L84.2656 154.658L84.4308 154.583L84.41 154.402L84.1343 152.01Z" fill="#F1BF3C" stroke="black" stroke-width="0.5"/>
<path d="M102.776 143.428L104.499 145.222L104.622 145.35L104.783 145.276L107.152 144.193L105.837 146.345L105.736 146.509L105.87 146.648L107.566 148.414L105.015 147.99L104.849 147.962L104.761 148.106L103.413 150.313L103.187 147.875L103.169 147.683L102.979 147.652L100.491 147.238L102.86 146.155L103.021 146.082L103.005 145.905L102.776 143.428Z" fill="#F1BF3C" stroke="black" stroke-width="0.5"/>
<path d="M120.848 135.221L122.477 136.995L122.6 137.128L122.765 137.053L124.955 136.051L123.772 138.149L123.683 138.307L123.806 138.441L125.435 140.214L123.075 139.737L122.897 139.701L122.807 139.859L121.624 141.957L121.349 139.564L121.328 139.384L121.15 139.348L118.79 138.871L120.979 137.87L121.145 137.794L121.124 137.614L120.848 135.221Z" fill="#F1BF3C" stroke="black" stroke-width="0.5"/>
<mask id="path-32-inside-7_980_753" fill="white">
<path fill-rule="evenodd" clip-rule="evenodd" d="M274.36 191.316L267.18 184L260 191.316L267.18 198.631L274.36 191.316Z"/>
</mask>
<path fill-rule="evenodd" clip-rule="evenodd" d="M274.36 191.316L267.18 184L260 191.316L267.18 198.631L274.36 191.316Z" fill="white"/>
<path d="M267.18 184L268.572 182.633L267.18 181.215L265.788 182.633L267.18 184ZM274.36 191.316L275.753 192.682L277.094 191.316L275.753 189.949L274.36 191.316ZM260 191.316L258.608 189.949L257.266 191.316L258.608 192.682L260 191.316ZM267.18 198.631L265.788 199.998L267.18 201.416L268.572 199.998L267.18 198.631ZM265.788 185.367L272.968 192.682L275.753 189.949L268.572 182.633L265.788 185.367ZM261.392 192.682L268.572 185.367L265.788 182.633L258.608 189.949L261.392 192.682ZM268.572 197.265L261.392 189.949L258.608 192.682L265.788 199.998L268.572 197.265ZM272.968 189.949L265.788 197.265L268.572 199.998L275.753 192.682L272.968 189.949Z" fill="black" mask="url(#path-32-inside-7_980_753)"/>
<mask id="path-34-inside-8_980_753" fill="white">
<path fill-rule="evenodd" clip-rule="evenodd" d="M288.856 191.316L281.676 184L274.496 191.316L281.676 198.631L288.856 191.316Z"/>
</mask>
<path fill-rule="evenodd" clip-rule="evenodd" d="M288.856 191.316L281.676 184L274.496 191.316L281.676 198.631L288.856 191.316Z" fill="white"/>
<path d="M281.676 184L283.068 182.634L281.676 181.215L280.284 182.634L281.676 184ZM288.856 191.316L290.249 192.682L291.59 191.316L290.249 189.949L288.856 191.316ZM274.496 191.316L273.103 189.949L271.762 191.316L273.103 192.682L274.496 191.316ZM281.676 198.631L280.284 199.998L281.676 201.416L283.068 199.998L281.676 198.631ZM280.284 185.367L287.464 192.682L290.249 189.949L283.068 182.634L280.284 185.367ZM275.888 192.682L283.068 185.367L280.284 182.634L273.103 189.949L275.888 192.682ZM283.068 197.265L275.888 189.949L273.103 192.682L280.284 199.998L283.068 197.265ZM287.464 189.949L280.284 197.265L283.068 199.998L290.249 192.682L287.464 189.949Z" fill="black" mask="url(#path-34-inside-8_980_753)"/>
<mask id="path-36-inside-9_980_753" fill="white">
<path fill-rule="evenodd" clip-rule="evenodd" d="M303 191.316L295.82 184L288.639 191.316L295.82 198.631L303 191.316Z"/>
</mask>
<path fill-rule="evenodd" clip-rule="evenodd" d="M303 191.316L295.82 184L288.639 191.316L295.82 198.631L303 191.316Z" fill="white"/>
<path d="M295.82 184L297.212 182.634L295.82 181.215L294.427 182.634L295.82 184ZM303 191.316L304.392 192.682L305.733 191.316L304.392 189.949L303 191.316ZM288.639 191.316L287.247 189.949L285.906 191.316L287.247 192.682L288.639 191.316ZM295.82 198.631L294.427 199.998L295.82 201.416L297.212 199.998L295.82 198.631ZM294.427 185.367L301.608 192.682L304.392 189.949L297.212 182.634L294.427 185.367ZM290.032 192.682L297.212 185.367L294.427 182.634L287.247 189.949L290.032 192.682ZM297.212 197.265L290.032 189.949L287.247 192.682L294.427 199.998L297.212 197.265ZM301.608 189.949L294.427 197.265L297.212 199.998L304.392 192.682L301.608 189.949Z" fill="black" mask="url(#path-36-inside-9_980_753)"/>
<circle cx="293" cy="215" r="6" fill="#85953A"/>
<circle cx="270" cy="215" r="6" fill="#ABBF4A"/>
<rect x="128" y="40" width="187" height="255" rx="3" fill="white" stroke="black" stroke-width="4"/>
<path d="M155.336 219.338C157.362 219.338 159.004 217.696 159.004 215.669C159.004 213.642 157.362 212 155.336 212C153.309 212 151.668 213.642 151.668 215.669C151.668 217.696 153.309 219.338 155.336 219.338ZM155.336 221.173C152.887 221.173 148 222.402 148 224.842V226.677H162.672V224.842C162.672 222.402 157.784 221.173 155.336 221.173Z" fill="black"/>
<path d="M187.019 175.403H190.925C191.858 175.403 192.681 175.583 193.393 175.944C194.114 176.296 194.67 176.795 195.063 177.442C195.465 178.089 195.665 178.842 195.665 179.702C195.665 180.561 195.465 181.315 195.063 181.961C194.67 182.608 194.114 183.112 193.393 183.472C192.681 183.824 191.858 184 190.925 184H187.019V175.403ZM190.826 182.367C191.686 182.367 192.37 182.129 192.877 181.654C193.393 181.171 193.651 180.52 193.651 179.702C193.651 178.883 193.393 178.236 192.877 177.761C192.37 177.278 191.686 177.037 190.826 177.037H189.009V182.367H190.826ZM200.174 184.098C199.478 184.098 198.852 183.955 198.295 183.668C197.747 183.374 197.317 182.968 197.006 182.453C196.695 181.937 196.539 181.351 196.539 180.696C196.539 180.041 196.695 179.456 197.006 178.94C197.317 178.424 197.747 178.023 198.295 177.737C198.852 177.442 199.478 177.295 200.174 177.295C200.87 177.295 201.492 177.442 202.041 177.737C202.59 178.023 203.019 178.424 203.331 178.94C203.642 179.456 203.797 180.041 203.797 180.696C203.797 181.351 203.642 181.937 203.331 182.453C203.019 182.968 202.59 183.374 202.041 183.668C201.492 183.955 200.87 184.098 200.174 184.098ZM200.174 182.526C200.666 182.526 201.067 182.363 201.378 182.035C201.697 181.699 201.857 181.253 201.857 180.696C201.857 180.14 201.697 179.698 201.378 179.37C201.067 179.034 200.666 178.867 200.174 178.867C199.683 178.867 199.278 179.034 198.959 179.37C198.639 179.698 198.48 180.14 198.48 180.696C198.48 181.253 198.639 181.699 198.959 182.035C199.278 182.363 199.683 182.526 200.174 182.526ZM209.339 183.681C209.151 183.82 208.918 183.926 208.639 184C208.369 184.065 208.083 184.098 207.78 184.098C206.994 184.098 206.384 183.898 205.95 183.496C205.524 183.095 205.311 182.506 205.311 181.728V179.014H204.292V177.54H205.311V175.931H207.227V177.54H208.873V179.014H207.227V181.703C207.227 181.982 207.297 182.199 207.436 182.354C207.583 182.502 207.788 182.575 208.05 182.575C208.353 182.575 208.611 182.494 208.823 182.33L209.339 183.681ZM222.293 175.403L218.572 184H216.607L212.898 175.403H215.047L217.663 181.544L220.316 175.403H222.293ZM225.528 184.098C224.832 184.098 224.205 183.955 223.649 183.668C223.1 183.374 222.67 182.968 222.359 182.453C222.048 181.937 221.893 181.351 221.893 180.696C221.893 180.041 222.048 179.456 222.359 178.94C222.67 178.424 223.1 178.023 223.649 177.737C224.205 177.442 224.832 177.295 225.528 177.295C226.224 177.295 226.846 177.442 227.394 177.737C227.943 178.023 228.373 178.424 228.684 178.94C228.995 179.456 229.151 180.041 229.151 180.696C229.151 181.351 228.995 181.937 228.684 182.453C228.373 182.968 227.943 183.374 227.394 183.668C226.846 183.955 226.224 184.098 225.528 184.098ZM225.528 182.526C226.019 182.526 226.42 182.363 226.731 182.035C227.051 181.699 227.21 181.253 227.21 180.696C227.21 180.14 227.051 179.698 226.731 179.37C226.42 179.034 226.019 178.867 225.528 178.867C225.037 178.867 224.631 179.034 224.312 179.37C223.993 179.698 223.833 180.14 223.833 180.696C223.833 181.253 223.993 181.699 224.312 182.035C224.631 182.363 225.037 182.526 225.528 182.526ZM234.693 183.681C234.504 183.82 234.271 183.926 233.993 184C233.722 184.065 233.436 184.098 233.133 184.098C232.347 184.098 231.737 183.898 231.303 183.496C230.877 183.095 230.665 182.506 230.665 181.728V179.014H229.645V177.54H230.665V175.931H232.58V177.54H234.226V179.014H232.58V181.703C232.58 181.982 232.65 182.199 232.789 182.354C232.937 182.502 233.141 182.575 233.403 182.575C233.706 182.575 233.964 182.494 234.177 182.33L234.693 183.681ZM235.768 177.393H237.684V184H235.768V177.393ZM236.726 176.472C236.374 176.472 236.087 176.369 235.866 176.165C235.645 175.96 235.535 175.706 235.535 175.403C235.535 175.1 235.645 174.847 235.866 174.642C236.087 174.437 236.374 174.335 236.726 174.335C237.078 174.335 237.365 174.433 237.586 174.63C237.807 174.826 237.917 175.072 237.917 175.366C237.917 175.686 237.807 175.952 237.586 176.165C237.365 176.369 237.078 176.472 236.726 176.472ZM243.478 177.295C244.297 177.295 244.956 177.54 245.455 178.031C245.963 178.523 246.217 179.251 246.217 180.217V184H244.301V180.512C244.301 179.988 244.186 179.599 243.957 179.346C243.728 179.084 243.396 178.953 242.962 178.953C242.479 178.953 242.094 179.104 241.808 179.407C241.521 179.702 241.378 180.144 241.378 180.733V184H239.462V177.393H241.292V178.167C241.546 177.888 241.861 177.675 242.237 177.528C242.614 177.372 243.028 177.295 243.478 177.295ZM254.841 177.393V182.895C254.841 184.106 254.526 185.007 253.895 185.597C253.265 186.186 252.344 186.481 251.132 186.481C250.494 186.481 249.888 186.403 249.315 186.247C248.741 186.092 248.267 185.867 247.89 185.572L248.651 184.196C248.93 184.426 249.282 184.606 249.708 184.737C250.133 184.876 250.559 184.946 250.985 184.946C251.648 184.946 252.135 184.794 252.446 184.491C252.766 184.196 252.925 183.746 252.925 183.14V182.858C252.426 183.406 251.73 183.681 250.837 183.681C250.232 183.681 249.675 183.55 249.167 183.288C248.668 183.018 248.271 182.641 247.976 182.158C247.681 181.675 247.534 181.118 247.534 180.488C247.534 179.857 247.681 179.3 247.976 178.817C248.271 178.334 248.668 177.962 249.167 177.7C249.675 177.43 250.232 177.295 250.837 177.295C251.795 177.295 252.524 177.61 253.023 178.24V177.393H254.841ZM251.218 182.109C251.726 182.109 252.139 181.961 252.458 181.667C252.786 181.364 252.95 180.971 252.95 180.488C252.95 180.005 252.786 179.616 252.458 179.321C252.139 179.018 251.726 178.867 251.218 178.867C250.711 178.867 250.293 179.018 249.965 179.321C249.638 179.616 249.474 180.005 249.474 180.488C249.474 180.971 249.638 181.364 249.965 181.667C250.293 181.961 250.711 182.109 251.218 182.109Z" fill="black"/>
<path d="M157.163 249.147C156.451 249.147 155.816 248.971 155.26 248.619C154.703 248.267 154.265 247.76 153.946 247.096C153.634 246.425 153.479 245.627 153.479 244.702C153.479 243.777 153.634 242.982 153.946 242.319C154.265 241.648 154.703 241.136 155.26 240.784C155.816 240.432 156.451 240.256 157.163 240.256C157.875 240.256 158.51 240.432 159.067 240.784C159.623 241.136 160.057 241.648 160.368 242.319C160.688 242.982 160.847 243.777 160.847 244.702C160.847 245.627 160.688 246.425 160.368 247.096C160.057 247.76 159.623 248.267 159.067 248.619C158.51 248.971 157.875 249.147 157.163 249.147ZM157.163 247.465C157.687 247.465 158.096 247.24 158.391 246.789C158.694 246.339 158.846 245.643 158.846 244.702C158.846 243.76 158.694 243.064 158.391 242.614C158.096 242.164 157.687 241.938 157.163 241.938C156.647 241.938 156.238 242.164 155.935 242.614C155.64 243.064 155.493 243.76 155.493 244.702C155.493 245.643 155.64 246.339 155.935 246.789C156.238 247.24 156.647 247.465 157.163 247.465Z" fill="black"/>
<path d="M219.161 208C214.099 208 210 212.109 210 217.173C210 222.236 214.099 226.346 219.161 226.346C224.232 226.346 228.34 222.236 228.34 217.173C228.34 212.109 224.232 208 219.161 208ZM219.17 224.511C215.117 224.511 211.834 221.227 211.834 217.173C211.834 213.118 215.117 209.835 219.17 209.835C223.223 209.835 226.506 213.118 226.506 217.173C226.506 221.227 223.223 224.511 219.17 224.511Z" fill="black"/>
<path d="M219.628 212.586H218.253V218.09L223.067 220.98L223.755 219.851L219.628 217.402V212.586Z" fill="black"/>
<path d="M211.795 240.403V249H209.805V242H208.086V240.403H211.795ZM216.972 249.147C216.26 249.147 215.626 248.971 215.069 248.619C214.512 248.267 214.074 247.76 213.755 247.096C213.444 246.425 213.288 245.627 213.288 244.702C213.288 243.777 213.444 242.982 213.755 242.319C214.074 241.648 214.512 241.136 215.069 240.784C215.626 240.432 216.26 240.256 216.972 240.256C217.685 240.256 218.319 240.432 218.876 240.784C219.433 241.136 219.867 241.648 220.178 242.319C220.497 242.982 220.657 243.777 220.657 244.702C220.657 245.627 220.497 246.425 220.178 247.096C219.867 247.76 219.433 248.267 218.876 248.619C218.319 248.971 217.685 249.147 216.972 249.147ZM216.972 247.465C217.496 247.465 217.906 247.24 218.201 246.789C218.503 246.339 218.655 245.643 218.655 244.702C218.655 243.76 218.503 243.064 218.201 242.614C217.906 242.164 217.496 241.938 216.972 241.938C216.457 241.938 216.047 242.164 215.744 242.614C215.45 243.064 215.302 243.76 215.302 244.702C215.302 245.643 215.45 246.339 215.744 246.789C216.047 247.24 216.457 247.465 216.972 247.465ZM230.49 242.295C231.317 242.295 231.972 242.54 232.455 243.031C232.946 243.515 233.192 244.243 233.192 245.217V249H231.276V245.512C231.276 244.988 231.166 244.599 230.945 244.346C230.732 244.084 230.425 243.953 230.024 243.953C229.573 243.953 229.217 244.1 228.955 244.395C228.693 244.681 228.562 245.111 228.562 245.684V249H226.646V245.512C226.646 244.472 226.229 243.953 225.394 243.953C224.952 243.953 224.599 244.1 224.337 244.395C224.075 244.681 223.944 245.111 223.944 245.684V249H222.029V242.393H223.859V243.154C224.104 242.876 224.403 242.663 224.755 242.516C225.115 242.368 225.508 242.295 225.934 242.295C226.401 242.295 226.822 242.389 227.199 242.577C227.576 242.757 227.878 243.023 228.108 243.375C228.378 243.031 228.718 242.765 229.127 242.577C229.545 242.389 229.999 242.295 230.49 242.295Z" fill="black"/>
<rect x="186.5" y="260.5" width="71" height="24" rx="12" fill="white" stroke="black"/>
<path d="M213.681 275.158H209.689L208.928 277H206.889L210.721 268.403H212.686L216.53 277H214.442L213.681 275.158ZM213.054 273.647L211.691 270.356L210.328 273.647H213.054ZM223.957 267.888V277H222.127V276.239C221.652 276.812 220.964 277.098 220.064 277.098C219.441 277.098 218.876 276.959 218.369 276.681C217.869 276.402 217.476 276.005 217.19 275.489C216.903 274.974 216.76 274.376 216.76 273.696C216.76 273.017 216.903 272.419 217.19 271.903C217.476 271.388 217.869 270.991 218.369 270.712C218.876 270.434 219.441 270.295 220.064 270.295C220.907 270.295 221.566 270.561 222.041 271.093V267.888H223.957ZM220.395 275.526C220.878 275.526 221.279 275.363 221.599 275.035C221.918 274.699 222.078 274.253 222.078 273.696C222.078 273.14 221.918 272.698 221.599 272.37C221.279 272.034 220.878 271.867 220.395 271.867C219.904 271.867 219.499 272.034 219.179 272.37C218.86 272.698 218.7 273.14 218.7 273.696C218.7 274.253 218.86 274.699 219.179 275.035C219.499 275.363 219.904 275.526 220.395 275.526ZM232.46 267.888V277H230.63V276.239C230.155 276.812 229.467 277.098 228.567 277.098C227.944 277.098 227.379 276.959 226.872 276.681C226.372 276.402 225.979 276.005 225.693 275.489C225.406 274.974 225.263 274.376 225.263 273.696C225.263 273.017 225.406 272.419 225.693 271.903C225.979 271.388 226.372 270.991 226.872 270.712C227.379 270.434 227.944 270.295 228.567 270.295C229.41 270.295 230.069 270.561 230.544 271.093V267.888H232.46ZM228.898 275.526C229.381 275.526 229.782 275.363 230.102 275.035C230.421 274.699 230.581 274.253 230.581 273.696C230.581 273.14 230.421 272.698 230.102 272.37C229.782 272.034 229.381 271.867 228.898 271.867C228.407 271.867 228.002 272.034 227.682 272.37C227.363 272.698 227.203 273.14 227.203 273.696C227.203 274.253 227.363 274.699 227.682 275.035C228.002 275.363 228.407 275.526 228.898 275.526Z" fill="black"/>
<mask id="path-49-inside-10_980_753" fill="white">
<path fill-rule="evenodd" clip-rule="evenodd" d="M274.36 219.316L267.18 212L260 219.316L267.18 226.631L274.36 219.316Z"/>
</mask>
<path fill-rule="evenodd" clip-rule="evenodd" d="M274.36 219.316L267.18 212L260 219.316L267.18 226.631L274.36 219.316Z" fill="white"/>
<path d="M267.18 212L268.572 210.633L267.18 209.215L265.788 210.633L267.18 212ZM274.36 219.316L275.753 220.682L277.094 219.316L275.753 217.949L274.36 219.316ZM260 219.316L258.608 217.949L257.266 219.316L258.608 220.682L260 219.316ZM267.18 226.631L265.788 227.998L267.18 229.416L268.572 227.998L267.18 226.631ZM265.788 213.367L272.968 220.682L275.753 217.949L268.572 210.633L265.788 213.367ZM261.392 220.682L268.572 213.367L265.788 210.633L258.608 217.949L261.392 220.682ZM268.572 225.265L261.392 217.949L258.608 220.682L265.788 227.998L268.572 225.265ZM272.968 217.949L265.788 225.265L268.572 227.998L275.753 220.682L272.968 217.949Z" fill="black" mask="url(#path-49-inside-10_980_753)"/>
<mask id="path-51-inside-11_980_753" fill="white">
<path fill-rule="evenodd" clip-rule="evenodd" d="M288.856 219.316L281.676 212L274.496 219.316L281.676 226.631L288.856 219.316Z"/>
</mask>
<path fill-rule="evenodd" clip-rule="evenodd" d="M288.856 219.316L281.676 212L274.496 219.316L281.676 226.631L288.856 219.316Z" fill="white"/>
<path d="M281.676 212L283.068 210.634L281.676 209.215L280.284 210.634L281.676 212ZM288.856 219.316L290.249 220.682L291.59 219.316L290.249 217.949L288.856 219.316ZM274.496 219.316L273.103 217.949L271.762 219.316L273.103 220.682L274.496 219.316ZM281.676 226.631L280.284 227.998L281.676 229.416L283.068 227.998L281.676 226.631ZM280.284 213.367L287.464 220.682L290.249 217.949L283.068 210.634L280.284 213.367ZM275.888 220.682L283.068 213.367L280.284 210.634L273.103 217.949L275.888 220.682ZM283.068 225.265L275.888 217.949L273.103 220.682L280.284 227.998L283.068 225.265ZM287.464 217.949L280.284 225.265L283.068 227.998L290.249 220.682L287.464 217.949Z" fill="black" mask="url(#path-51-inside-11_980_753)"/>
<mask id="path-53-inside-12_980_753" fill="white">
<path fill-rule="evenodd" clip-rule="evenodd" d="M303 219.316L295.82 212L288.639 219.316L295.82 226.631L303 219.316Z"/>
</mask>
<path fill-rule="evenodd" clip-rule="evenodd" d="M303 219.316L295.82 212L288.639 219.316L295.82 226.631L303 219.316Z" fill="white"/>
<path d="M295.82 212L297.212 210.634L295.82 209.215L294.427 210.634L295.82 212ZM303 219.316L304.392 220.682L305.733 219.316L304.392 217.949L303 219.316ZM288.639 219.316L287.247 217.949L285.906 219.316L287.247 220.682L288.639 219.316ZM295.82 226.631L294.427 227.998L295.82 229.416L297.212 227.998L295.82 226.631ZM294.427 213.367L301.608 220.682L304.392 217.949L297.212 210.634L294.427 213.367ZM290.032 220.682L297.212 213.367L294.427 210.634L287.247 217.949L290.032 220.682ZM297.212 225.265L290.032 217.949L287.247 220.682L294.427 227.998L297.212 225.265ZM301.608 217.949L294.427 225.265L297.212 227.998L304.392 220.682L301.608 217.949Z" fill="black" mask="url(#path-53-inside-12_980_753)"/>
<path d="M288 243C288 246.314 285.314 249 282 249C278.686 249 276 246.314 276 243C276 239.686 278.686 237 282 237C285.314 237 288 239.686 288 243Z" fill="#8C3A9D"/>
<path d="M276 107.5C276 137.6 251.6 162 221.5 162C191.4 162 167 137.6 167 107.5C167 77.4005 191.4 53 221.5 53C251.6 53 276 77.4005 276 107.5Z" fill="#3AB2B6"/>
<rect x="182.217" y="79.6896" width="32.9539" height="32.9539" rx="4" fill="white" stroke="#323537" stroke-width="2"/>
<rect x="220.469" y="115.303" width="32.9539" height="32.9539" rx="4" fill="white" stroke="#323537" stroke-width="2"/>
<rect x="228.383" y="71.116" width="32.9539" height="32.9539" rx="4" fill="white" stroke="#323537" stroke-width="2"/>
<rect x="185.834" y="89.2417" width="23.0828" height="1.97852" rx="0.989261" fill="#323537"/>
<rect x="185.834" y="94.5178" width="15.8282" height="1.97852" rx="0.989261" fill="#323537"/>
<rect x="233.318" y="90.5607" width="23.0828" height="1.97852" rx="0.989261" fill="#323537"/>
<rect x="233.318" y="95.8367" width="15.8282" height="1.97852" rx="0.989261" fill="#323537"/>
<rect x="233.318" y="80.0085" width="23.0828" height="1.97852" rx="0.989261" fill="#323537"/>
<rect x="233.318" y="85.2847" width="15.8282" height="1.97852" rx="0.989261" fill="#323537"/>
<rect x="225.404" y="128.812" width="23.0828" height="1.97852" rx="0.989261" fill="#323537"/>
<rect x="225.404" y="123.536" width="15.8282" height="1.97852" rx="0.989261" fill="#323537"/>
<rect x="185.834" y="89.2417" width="23.0828" height="1.97852" rx="0.989261" fill="#323537"/>
<rect x="185.834" y="94.5178" width="15.8282" height="1.97852" rx="0.989261" fill="#323537"/>
<circle cx="215.841" cy="79.6787" r="3.62729" fill="#F1BF3C"/>
<circle cx="223.756" cy="113.314" r="3.62729" fill="#F1BF3C"/>
<circle cx="231.01" cy="117.271" r="3.62729" fill="#F1BF3C"/>
<circle cx="256.071" cy="72.4244" r="3.62729" fill="#F1BF3C"/>
<rect x="233.318" y="90.5607" width="23.0828" height="1.97852" rx="0.989261" fill="#323537"/>
<rect x="233.318" y="85.2847" width="15.8282" height="1.97852" rx="0.989261" fill="#323537"/>
<mask id="path-76-inside-13_980_753" fill="white">
<path fill-rule="evenodd" clip-rule="evenodd" d="M371.784 196.207L367.595 186.851L358.319 191.215L362.508 200.57L371.784 196.207Z"/>
</mask>
<path fill-rule="evenodd" clip-rule="evenodd" d="M371.784 196.207L367.595 186.851L358.319 191.215L362.508 200.57L371.784 196.207Z" fill="white"/>
<path d="M367.595 186.851L369.375 186.054L368.563 184.24L366.764 185.086L367.595 186.851ZM371.784 196.207L372.614 197.972L374.347 197.157L373.564 195.41L371.784 196.207ZM358.319 191.215L357.489 189.449L355.756 190.264L356.539 192.012L358.319 191.215ZM362.508 200.57L360.728 201.367L361.54 203.181L363.339 202.335L362.508 200.57ZM365.814 187.649L370.003 197.004L373.564 195.41L369.375 186.054L365.814 187.649ZM359.149 192.98L368.425 188.617L366.764 185.086L357.489 189.449L359.149 192.98ZM364.289 199.773L360.1 190.417L356.539 192.012L360.728 201.367L364.289 199.773ZM370.953 194.442L361.678 198.805L363.339 202.335L372.614 197.972L370.953 194.442Z" fill="black" mask="url(#path-76-inside-13_980_753)"/>
<mask id="path-78-inside-14_980_753" fill="white">
<path fill-rule="evenodd" clip-rule="evenodd" d="M385.376 201.247L381.186 191.891L371.911 196.254L376.1 205.61L385.376 201.247Z"/>
</mask>
<path fill-rule="evenodd" clip-rule="evenodd" d="M385.376 201.247L381.186 191.891L371.911 196.254L376.1 205.61L385.376 201.247Z" fill="white"/>
<path d="M381.186 191.891L382.967 191.094L382.155 189.28L380.356 190.126L381.186 191.891ZM385.376 201.247L386.206 203.012L387.938 202.197L387.156 200.449L385.376 201.247ZM371.911 196.254L371.08 194.489L369.348 195.304L370.13 197.051L371.911 196.254ZM376.1 205.61L374.319 206.407L375.132 208.221L376.93 207.375L376.1 205.61ZM379.406 192.688L383.595 202.044L387.156 200.449L382.967 191.094L379.406 192.688ZM372.741 198.019L382.017 193.656L380.356 190.126L371.08 194.489L372.741 198.019ZM377.88 204.812L373.691 195.457L370.13 197.051L374.319 206.407L377.88 204.812ZM384.545 199.481L375.269 203.844L376.93 207.375L386.206 203.012L384.545 199.481Z" fill="black" mask="url(#path-78-inside-14_980_753)"/>
<mask id="path-80-inside-15_980_753" fill="white">
<path fill-rule="evenodd" clip-rule="evenodd" d="M398.637 206.164L394.448 196.808L385.172 201.171L389.361 210.527L398.637 206.164Z"/>
</mask>
<path fill-rule="evenodd" clip-rule="evenodd" d="M398.637 206.164L394.448 196.808L385.172 201.171L389.361 210.527L398.637 206.164Z" fill="white"/>
<path d="M394.448 196.808L396.228 196.011L395.416 194.197L393.617 195.043L394.448 196.808ZM398.637 206.164L399.467 207.929L401.2 207.114L400.417 205.366L398.637 206.164ZM385.172 201.171L384.342 199.406L382.609 200.221L383.392 201.968L385.172 201.171ZM389.361 210.527L387.581 211.324L388.393 213.138L390.192 212.292L389.361 210.527ZM392.667 197.605L396.856 206.961L400.417 205.366L396.228 196.011L392.667 197.605ZM386.002 202.936L395.278 198.573L393.617 195.043L384.342 199.406L386.002 202.936ZM391.142 209.729L386.953 200.374L383.392 201.968L387.581 211.324L391.142 209.729ZM397.806 204.398L388.531 208.761L390.192 212.292L399.467 207.929L397.806 204.398Z" fill="black" mask="url(#path-80-inside-15_980_753)"/>
<circle cx="381.027" cy="224.894" r="6" transform="rotate(20.3436 381.027 224.894)" fill="#85953A"/>
<circle cx="359.461" cy="216.898" r="6" transform="rotate(20.3436 359.461 216.898)" fill="#ABBF4A"/>
<rect x="287.157" y="3.44774" width="187" height="255" rx="3" transform="rotate(20.3436 287.157 3.44774)" fill="white" stroke="black" stroke-width="4"/>
<path d="M250.441 181.103C252.342 181.808 254.452 180.839 255.156 178.938C255.861 177.037 254.893 174.927 252.993 174.222C251.093 173.518 248.983 174.487 248.278 176.388C247.573 178.288 248.541 180.399 250.441 181.103ZM249.804 182.823C247.508 181.972 242.498 181.425 241.65 183.713L241.012 185.433L254.769 190.534L255.407 188.814C256.255 186.526 252.099 183.674 249.804 182.823Z" fill="black"/>
<path d="M281.899 155.235C280.748 154.808 279.968 154.156 279.559 153.28C279.158 152.407 279.177 151.379 279.615 150.197L281.289 145.683L283.154 146.375L281.506 150.819C280.971 152.263 281.302 153.206 282.5 153.65C283.083 153.866 283.593 153.859 284.028 153.627C284.466 153.388 284.823 152.896 285.099 152.151L286.747 147.707L288.589 148.39L286.916 152.904C286.477 154.086 285.818 154.876 284.937 155.274C284.063 155.675 283.051 155.662 281.899 155.235ZM289.368 157.952C288.853 157.761 288.373 157.513 287.927 157.208C287.484 156.895 287.153 156.589 286.932 156.289L288.009 155.221C288.22 155.5 288.5 155.77 288.849 156.03C289.2 156.283 289.564 156.479 289.94 156.618C290.7 156.9 291.15 156.853 291.29 156.477C291.355 156.3 291.298 156.135 291.12 155.982C290.941 155.828 290.646 155.645 290.236 155.431C289.758 155.167 289.373 154.923 289.079 154.701C288.786 154.479 288.564 154.196 288.412 153.851C288.268 153.51 288.283 153.105 288.457 152.637C288.602 152.245 288.841 151.941 289.175 151.724C289.519 151.502 289.937 151.387 290.43 151.377C290.93 151.371 291.476 151.477 292.067 151.696C292.504 151.858 292.92 152.069 293.312 152.328C293.716 152.583 294.028 152.847 294.25 153.121L293.177 154.177C292.746 153.668 292.208 153.294 291.563 153.055C291.179 152.913 290.871 152.86 290.64 152.896C290.408 152.932 290.261 153.035 290.198 153.204C290.127 153.396 290.181 153.568 290.359 153.722C290.538 153.876 290.841 154.071 291.269 154.308C291.744 154.58 292.124 154.826 292.41 155.045C292.698 155.257 292.914 155.534 293.058 155.875C293.202 156.217 293.19 156.614 293.022 157.067C292.88 157.451 292.638 157.75 292.297 157.964C291.956 158.178 291.531 158.287 291.023 158.29C290.526 158.289 289.974 158.176 289.368 157.952ZM300.643 158.53C300.635 158.553 300.563 158.71 300.429 159.001L295.743 157.263C295.685 157.679 295.772 158.056 296.004 158.395C296.236 158.735 296.587 158.991 297.055 159.165C297.377 159.284 297.678 159.343 297.958 159.342C298.249 159.336 298.54 159.27 298.831 159.142L299.403 160.533C298.572 160.984 297.596 161.002 296.475 160.587C295.777 160.328 295.208 159.964 294.771 159.496C294.336 159.021 294.062 158.487 293.95 157.895C293.837 157.304 293.895 156.701 294.123 156.087C294.348 155.48 294.692 154.988 295.155 154.609C295.629 154.226 296.165 153.993 296.764 153.909C297.373 153.821 297.988 153.892 298.61 154.122C299.217 154.347 299.717 154.681 300.112 155.124C300.506 155.567 300.75 156.086 300.845 156.68C300.949 157.269 300.882 157.886 300.643 158.53ZM298.118 155.485C297.711 155.334 297.327 155.323 296.965 155.451C296.603 155.579 296.318 155.831 296.108 156.207L299.16 157.339C299.243 156.924 299.19 156.551 298.999 156.218C298.811 155.877 298.517 155.633 298.118 155.485ZM304.409 157.307C304.735 157.087 305.106 156.968 305.524 156.948C305.95 156.931 306.4 157.011 306.876 157.187L306.261 158.845C306.067 158.756 305.936 158.698 305.867 158.673C305.353 158.482 304.895 158.479 304.496 158.662C304.099 158.838 303.793 159.214 303.58 159.789L302.495 162.714L300.699 162.048L302.996 155.853L304.712 156.489L304.409 157.307ZM312.034 157.083L313.9 157.774L310.911 165.835L309.046 165.143L312.034 157.083ZM318.794 161.606C319.562 161.891 320.094 162.35 320.392 162.984C320.697 163.621 320.682 164.393 320.346 165.299L319.031 168.845L317.234 168.179L318.447 164.909C318.629 164.418 318.657 164.013 318.53 163.695C318.406 163.37 318.141 163.132 317.734 162.981C317.281 162.813 316.868 162.821 316.494 163.006C316.122 163.183 315.834 163.547 315.63 164.1L314.494 167.163L312.698 166.497L314.994 160.302L316.71 160.938L316.441 161.664C316.776 161.491 317.146 161.401 317.55 161.394C317.957 161.379 318.372 161.449 318.794 161.606ZM324.766 170.631C324.541 170.696 324.285 170.715 323.998 170.687C323.722 170.655 323.442 170.586 323.158 170.48C322.421 170.207 321.919 169.807 321.652 169.28C321.392 168.756 321.397 168.129 321.668 167.4L322.611 164.855L321.655 164.501L322.168 163.119L323.124 163.473L323.683 161.965L325.479 162.631L324.92 164.139L326.463 164.711L325.951 166.093L324.408 165.521L323.473 168.043C323.376 168.304 323.366 168.531 323.442 168.726C323.529 168.915 323.695 169.055 323.941 169.146C324.225 169.252 324.495 169.265 324.752 169.185L324.766 170.631ZM332.68 170.409C332.672 170.432 332.6 170.589 332.466 170.88L327.78 169.142C327.722 169.557 327.809 169.934 328.041 170.274C328.273 170.613 328.624 170.87 329.092 171.043C329.414 171.163 329.715 171.222 329.995 171.221C330.286 171.215 330.577 171.148 330.868 171.021L331.44 172.411C330.609 172.863 329.633 172.881 328.512 172.465C327.814 172.206 327.245 171.843 326.808 171.375C326.373 170.899 326.099 170.366 325.987 169.774C325.874 169.182 325.932 168.579 326.16 167.965C326.385 167.359 326.729 166.866 327.192 166.488C327.666 166.105 328.202 165.871 328.801 165.788C329.41 165.699 330.025 165.77 330.647 166.001C331.254 166.226 331.754 166.56 332.149 167.003C332.543 167.446 332.788 167.964 332.882 168.558C332.986 169.147 332.919 169.764 332.68 170.409ZM330.155 167.364C329.748 167.213 329.364 167.201 329.002 167.329C328.64 167.457 328.355 167.709 328.145 168.086L331.197 169.217C331.28 168.803 331.227 168.429 331.036 168.097C330.848 167.756 330.554 167.512 330.155 167.364ZM336.446 169.186C336.772 168.966 337.144 168.846 337.561 168.826C337.987 168.809 338.437 168.889 338.913 169.066L338.298 170.724C338.105 170.634 337.973 170.577 337.904 170.551C337.39 170.361 336.933 170.357 336.533 170.541C336.136 170.717 335.83 171.092 335.617 171.668L334.533 174.593L332.736 173.927L335.033 167.732L336.749 168.368L336.446 169.186ZM346.31 171.913L341.399 177.139L339.545 176.451L339.24 169.291L341.094 169.979L341.247 174.829L344.583 171.273L346.31 171.913ZM347.043 172.185L348.839 172.851L346.542 179.046L344.746 178.38L347.043 172.185ZM348.261 171.654C347.931 171.532 347.698 171.336 347.562 171.067C347.426 170.799 347.41 170.522 347.516 170.238C347.621 169.954 347.813 169.755 348.091 169.64C348.37 169.524 348.674 169.528 349.004 169.651C349.334 169.773 349.569 169.965 349.708 170.226C349.847 170.487 349.865 170.756 349.762 171.032C349.651 171.331 349.455 171.542 349.174 171.665C348.896 171.78 348.591 171.776 348.261 171.654ZM355.418 178.839C355.409 178.862 355.338 179.019 355.204 179.31L350.517 177.573C350.459 177.988 350.547 178.365 350.779 178.704C351.011 179.044 351.361 179.3 351.829 179.474C352.152 179.593 352.453 179.652 352.733 179.651C353.023 179.646 353.314 179.579 353.606 179.451L354.177 180.842C353.346 181.294 352.37 181.312 351.25 180.896C350.551 180.637 349.983 180.273 349.545 179.806C349.11 179.33 348.837 178.796 348.724 178.204C348.612 177.613 348.67 177.01 348.897 176.396C349.122 175.789 349.466 175.297 349.93 174.918C350.403 174.535 350.94 174.302 351.538 174.218C352.147 174.13 352.763 174.201 353.385 174.431C353.991 174.656 354.492 174.99 354.886 175.433C355.281 175.877 355.525 176.395 355.619 176.989C355.724 177.578 355.657 178.195 355.418 178.839ZM352.892 175.794C352.486 175.643 352.101 175.632 351.739 175.76C351.378 175.888 351.092 176.14 350.883 176.516L353.934 177.648C354.018 177.233 353.964 176.86 353.773 176.527C353.585 176.187 353.292 175.942 352.892 175.794ZM367.607 179.809L363.065 185.172L361.337 184.531L361.37 180.169L358.505 183.481L356.778 182.841L356.841 175.817L358.533 176.445L358.442 181.179L361.516 177.551L363.036 178.114L362.955 182.852L366.018 179.22L367.607 179.809ZM368.105 187.146C367.591 186.955 367.111 186.707 366.665 186.402C366.222 186.089 365.89 185.783 365.67 185.483L366.747 184.415C366.958 184.694 367.238 184.964 367.586 185.224C367.938 185.477 368.302 185.673 368.678 185.812C369.438 186.094 369.888 186.047 370.027 185.671C370.093 185.494 370.036 185.329 369.857 185.176C369.679 185.022 369.384 184.839 368.974 184.626C368.496 184.361 368.11 184.117 367.817 183.895C367.524 183.673 367.302 183.39 367.15 183.045C367.006 182.704 367.021 182.299 367.194 181.831C367.34 181.439 367.579 181.135 367.913 180.918C368.257 180.696 368.675 180.581 369.168 180.571C369.668 180.565 370.213 180.671 370.804 180.89C371.242 181.052 371.657 181.263 372.05 181.522C372.454 181.777 372.766 182.041 372.987 182.315L371.915 183.371C371.484 182.862 370.946 182.488 370.301 182.249C369.917 182.107 369.609 182.054 369.377 182.09C369.146 182.126 368.998 182.229 368.936 182.398C368.865 182.59 368.918 182.762 369.097 182.916C369.276 183.07 369.579 183.265 370.006 183.502C370.482 183.774 370.862 184.02 371.147 184.239C371.436 184.451 371.652 184.728 371.796 185.069C371.94 185.411 371.928 185.808 371.76 186.261C371.618 186.645 371.376 186.944 371.035 187.158C370.693 187.372 370.269 187.481 369.761 187.484C369.264 187.483 368.712 187.37 368.105 187.146Z" fill="black"/>
<path d="M244.486 201.361L241.497 209.422L239.632 208.73L242.066 202.167L240.453 201.569L241.009 200.072L244.486 201.361Z" fill="black"/>
<path d="M314.227 192.661C309.481 190.901 304.209 193.329 302.449 198.077C300.688 202.824 303.103 208.102 307.849 209.862C312.604 211.625 317.884 209.2 319.645 204.452C321.405 199.705 318.982 194.424 314.227 192.661ZM308.495 208.145C304.695 206.736 302.759 202.516 304.168 198.714C305.578 194.913 309.797 192.975 313.598 194.384C317.398 195.793 319.334 200.013 317.925 203.815C316.515 207.616 312.296 209.554 308.495 208.145Z" fill="black"/>
<path d="M313.071 197.124L311.781 196.645L309.868 201.806L313.377 206.189L314.414 205.37L311.397 201.639L313.071 197.124Z" fill="black"/>
<path d="M287.653 224.61L286.34 224.123L285.712 225.816L283.893 225.141L284.52 223.448L280.179 221.839L280.645 220.584L286.34 216.88L288.298 217.606L282.977 221.147L285.142 221.95L285.701 220.441L287.463 221.094L286.903 222.603L288.216 223.09L287.653 224.61ZM292.19 222.493C293.326 222.915 294.079 223.451 294.448 224.104C294.825 224.759 294.873 225.466 294.591 226.226C294.409 226.717 294.12 227.121 293.723 227.437C293.329 227.745 292.834 227.928 292.236 227.986C291.649 228.039 290.987 227.928 290.25 227.655C289.682 227.445 289.148 227.164 288.65 226.813C288.162 226.457 287.777 226.07 287.495 225.652L288.762 224.497C288.983 224.841 289.27 225.152 289.62 225.431C289.974 225.702 290.362 225.915 290.784 226.072C291.253 226.246 291.655 226.29 291.992 226.206C292.329 226.121 292.559 225.914 292.681 225.583C292.809 225.238 292.764 224.924 292.546 224.642C292.335 224.363 291.884 224.096 291.193 223.84L289.132 223.075L291.228 218.692L296.145 220.515L295.59 222.012L292.228 220.766L291.533 222.25L292.19 222.493ZM296.027 225.134L299.286 226.343L298.752 227.782L295.493 226.574L296.027 225.134ZM304.723 223.539C305.851 223.957 306.606 224.63 306.987 225.557C307.371 226.476 307.324 227.581 306.846 228.871C306.507 229.784 306.044 230.503 305.456 231.027C304.877 231.555 304.213 231.872 303.466 231.979C302.719 232.086 301.939 231.989 301.125 231.688C300.695 231.528 300.302 231.33 299.944 231.092C299.59 230.848 299.307 230.586 299.096 230.307L300.295 229.192C300.587 229.606 301.04 229.927 301.654 230.155C302.337 230.408 302.953 230.409 303.5 230.158C304.05 229.899 304.481 229.395 304.794 228.647C304.131 228.951 303.373 228.945 302.521 228.629C302.007 228.439 301.577 228.161 301.231 227.798C300.886 227.434 300.66 227.018 300.554 226.551C300.451 226.076 300.492 225.589 300.677 225.09C300.876 224.553 301.185 224.13 301.605 223.823C302.024 223.516 302.504 223.34 303.045 223.296C303.595 223.247 304.155 223.328 304.723 223.539ZM303.452 227.39C303.859 227.541 304.23 227.552 304.566 227.423C304.913 227.289 305.151 227.046 305.282 226.693C305.413 226.34 305.393 226.005 305.222 225.688C305.059 225.375 304.759 225.137 304.321 224.975C303.922 224.827 303.556 224.813 303.223 224.934C302.898 225.058 302.667 225.304 302.53 225.673C302.394 226.041 302.407 226.382 302.57 226.696C302.744 227.005 303.038 227.236 303.452 227.39ZM309.585 234.824C308.918 234.577 308.384 234.191 307.984 233.667C307.585 233.144 307.35 232.516 307.281 231.783C307.223 231.045 307.355 230.243 307.676 229.375C307.998 228.508 308.42 227.817 308.942 227.303C309.475 226.785 310.064 226.457 310.708 226.321C311.352 226.184 312.009 226.24 312.676 226.488C313.344 226.735 313.878 227.121 314.278 227.644C314.677 228.168 314.906 228.799 314.965 229.536C315.033 230.269 314.907 231.069 314.585 231.937C314.264 232.804 313.837 233.497 313.304 234.016C312.782 234.529 312.198 234.854 311.554 234.991C310.909 235.128 310.253 235.072 309.585 234.824ZM310.17 233.247C310.662 233.429 311.124 233.36 311.557 233.04C311.997 232.724 312.381 232.124 312.708 231.241C313.036 230.358 313.136 229.653 313.008 229.125C312.888 228.601 312.583 228.247 312.092 228.065C311.608 227.886 311.146 227.955 310.705 228.271C310.272 228.591 309.892 229.192 309.565 230.075C309.238 230.958 309.134 231.662 309.254 232.187C309.381 232.714 309.687 233.067 310.17 233.247ZM324.642 233.098C325.418 233.386 325.946 233.844 326.229 234.472C326.521 235.096 326.498 235.865 326.159 236.778L324.845 240.325L323.048 239.659L324.261 236.389C324.443 235.897 324.474 235.494 324.355 235.179C324.247 234.86 324.005 234.63 323.628 234.491C323.206 234.334 322.821 234.349 322.473 234.534C322.128 234.711 321.855 235.069 321.656 235.606L320.503 238.715L318.707 238.049L319.92 234.779C320.281 233.804 320.07 233.171 319.287 232.881C318.873 232.727 318.491 232.743 318.143 232.929C317.798 233.106 317.526 233.464 317.327 234.001L316.174 237.11L314.377 236.444L316.674 230.249L318.39 230.885L318.125 231.599C318.453 231.423 318.807 231.328 319.188 231.312C319.577 231.299 319.971 231.366 320.37 231.514C320.808 231.677 321.17 231.912 321.458 232.219C321.749 232.519 321.94 232.874 322.033 233.283C322.406 233.055 322.817 232.924 323.266 232.889C323.723 232.858 324.182 232.928 324.642 233.098Z" fill="black"/>
<rect x="265.352" y="230.531" width="71" height="24" rx="12" transform="rotate(20.3436 265.352 230.531)" fill="white" stroke="black"/>
<path d="M285.741 253.724L281.999 252.337L280.645 253.799L278.733 253.091L285.314 246.362L287.157 247.045L287.772 256.442L285.815 255.716L285.741 253.724ZM285.679 252.09L285.545 248.53L283.123 251.142L285.679 252.09ZM297.904 250.48L294.736 259.024L293.02 258.388L293.285 257.674C292.64 258.046 291.896 258.076 291.052 257.763C290.468 257.546 289.987 257.219 289.608 256.782C289.236 256.347 289.006 255.838 288.916 255.255C288.827 254.672 288.9 254.062 289.137 253.425C289.373 252.787 289.715 252.277 290.163 251.893C290.611 251.509 291.118 251.273 291.683 251.186C292.255 251.101 292.833 251.167 293.417 251.383C294.207 251.677 294.733 252.155 294.993 252.819L296.107 249.814L297.904 250.48ZM291.909 256.404C292.362 256.572 292.795 256.558 293.208 256.362C293.624 256.158 293.929 255.795 294.123 255.273C294.316 254.751 294.32 254.281 294.135 253.863C293.952 253.437 293.634 253.141 293.181 252.973C292.721 252.802 292.282 252.818 291.866 253.022C291.453 253.218 291.15 253.577 290.956 254.099C290.762 254.621 290.757 255.095 290.94 255.521C291.125 255.939 291.448 256.233 291.909 256.404ZM305.877 253.436L302.709 261.98L300.993 261.344L301.258 260.63C300.613 261.002 299.869 261.032 299.024 260.719C298.441 260.502 297.96 260.176 297.58 259.738C297.209 259.303 296.978 258.794 296.889 258.211C296.8 257.628 296.873 257.018 297.109 256.381C297.346 255.743 297.688 255.233 298.136 254.849C298.584 254.465 299.09 254.229 299.655 254.142C300.228 254.057 300.806 254.123 301.39 254.339C302.18 254.633 302.706 255.111 302.966 255.775L304.08 252.77L305.877 253.436ZM299.882 259.36C300.335 259.528 300.768 259.514 301.181 259.318C301.597 259.114 301.902 258.751 302.095 258.229C302.289 257.707 302.293 257.237 302.107 256.819C301.925 256.393 301.607 256.097 301.154 255.929C300.693 255.758 300.255 255.774 299.839 255.978C299.426 256.174 299.122 256.533 298.929 257.055C298.735 257.577 298.73 258.051 298.912 258.477C299.098 258.895 299.421 259.189 299.882 259.36Z" fill="black"/>
<mask id="path-93-inside-16_980_753" fill="white">
<path fill-rule="evenodd" clip-rule="evenodd" d="M362.05 222.461L357.861 213.105L348.585 217.468L352.774 226.824L362.05 222.461Z"/>
</mask>
<path fill-rule="evenodd" clip-rule="evenodd" d="M362.05 222.461L357.861 213.105L348.585 217.468L352.774 226.824L362.05 222.461Z" fill="white"/>
<path d="M357.861 213.105L359.641 212.308L358.829 210.494L357.03 211.34L357.861 213.105ZM362.05 222.461L362.88 224.226L364.613 223.411L363.83 221.663L362.05 222.461ZM348.585 217.468L347.755 215.703L346.022 216.518L346.804 218.265L348.585 217.468ZM352.774 226.824L350.994 227.621L351.806 229.435L353.604 228.589L352.774 226.824ZM356.08 213.902L360.269 223.258L363.83 221.663L359.641 212.308L356.08 213.902ZM349.415 219.233L358.691 214.87L357.03 211.34L347.755 215.703L349.415 219.233ZM354.555 226.026L350.365 216.671L346.804 218.265L350.994 227.621L354.555 226.026ZM361.219 220.695L351.944 225.058L353.604 228.589L362.88 224.226L361.219 220.695Z" fill="black" mask="url(#path-93-inside-16_980_753)"/>
<mask id="path-95-inside-17_980_753" fill="white">
<path fill-rule="evenodd" clip-rule="evenodd" d="M375.641 227.5L371.452 218.145L362.177 222.508L366.366 231.863L375.641 227.5Z"/>
</mask>
<path fill-rule="evenodd" clip-rule="evenodd" d="M375.641 227.5L371.452 218.145L362.177 222.508L366.366 231.863L375.641 227.5Z" fill="white"/>
<path d="M371.452 218.145L373.233 217.347L372.42 215.533L370.622 216.379L371.452 218.145ZM375.641 227.5L376.472 229.265L378.204 228.45L377.422 226.703L375.641 227.5ZM362.177 222.508L361.346 220.742L359.614 221.557L360.396 223.305L362.177 222.508ZM366.366 231.863L364.585 232.66L365.397 234.474L367.196 233.628L366.366 231.863ZM369.672 218.942L373.861 228.297L377.422 226.703L373.233 217.347L369.672 218.942ZM363.007 224.273L372.283 219.91L370.622 216.379L361.346 220.742L363.007 224.273ZM368.146 231.066L363.957 221.71L360.396 223.305L364.585 232.66L368.146 231.066ZM374.811 225.735L365.535 230.098L367.196 233.628L376.472 229.265L374.811 225.735Z" fill="black" mask="url(#path-95-inside-17_980_753)"/>
<mask id="path-97-inside-18_980_753" fill="white">
<path fill-rule="evenodd" clip-rule="evenodd" d="M388.903 232.417L384.714 223.062L375.438 227.425L379.627 236.78L388.903 232.417Z"/>
</mask>
<path fill-rule="evenodd" clip-rule="evenodd" d="M388.903 232.417L384.714 223.062L375.438 227.425L379.627 236.78L388.903 232.417Z" fill="white"/>
<path d="M384.714 223.062L386.494 222.264L385.682 220.45L383.883 221.296L384.714 223.062ZM388.903 232.417L389.733 234.182L391.466 233.367L390.683 231.62L388.903 232.417ZM375.438 227.425L374.608 225.659L372.875 226.474L373.657 228.222L375.438 227.425ZM379.627 236.78L377.847 237.577L378.659 239.391L380.457 238.545L379.627 236.78ZM382.933 223.859L387.122 233.214L390.683 231.62L386.494 222.264L382.933 223.859ZM376.268 229.19L385.544 224.827L383.883 221.296L374.608 225.659L376.268 229.19ZM381.408 235.983L377.218 226.627L373.657 228.222L377.847 237.577L381.408 235.983ZM388.072 230.652L378.797 235.015L380.457 238.545L389.733 234.182L388.072 230.652Z" fill="black" mask="url(#path-97-inside-18_980_753)"/>
<path d="M376.918 253.233C375.766 256.34 372.314 257.925 369.207 256.773C366.1 255.621 364.515 252.169 365.667 249.062C366.819 245.955 370.272 244.37 373.379 245.522C376.486 246.674 378.07 250.126 376.918 253.233Z" fill="#E52525"/>
<path d="M355.353 245.237C354.201 248.344 350.748 249.929 347.641 248.777C344.534 247.625 342.95 244.173 344.102 241.066C345.254 237.959 348.706 236.374 351.813 237.526C354.92 238.678 356.505 242.13 355.353 245.237Z" fill="#ABBF4A"/>
<path d="M402.459 118.189C391.995 146.411 360.634 160.807 332.412 150.343C304.19 139.879 289.794 108.518 300.258 80.2956C310.722 52.0736 342.084 37.6779 370.306 48.1419C398.528 58.606 412.924 89.9672 402.459 118.189Z" fill="#E9AD75"/>
<g clip-path="url(#clip0_980_753)">
<circle cx="338.985" cy="69.4218" r="10.562" transform="rotate(20.3436 338.985 69.4218)" fill="white"/>
<path d="M335.524 68.73C334.773 68.4513 333.936 68.8352 333.658 69.5868C333.379 70.3385 333.763 71.1747 334.515 71.4534C335.266 71.7321 336.102 71.3483 336.381 70.5966C336.66 69.8449 336.276 69.0087 335.524 68.73ZM342.06 71.1535C341.309 70.8748 340.473 71.2586 340.194 72.0103C339.915 72.7619 340.299 73.5981 341.051 73.8768C341.802 74.1555 342.639 73.7717 342.917 73.02C343.196 72.2684 342.812 71.4322 342.06 71.1535ZM342.73 59.3205C336.717 57.091 330.027 60.1618 327.798 66.175C325.568 72.1883 328.639 78.8781 334.652 81.1076C340.666 83.3372 347.355 80.2664 349.585 74.2531C351.814 68.2399 348.744 61.5501 342.73 59.3205ZM335.46 78.9289C330.656 77.1477 328.195 71.7869 329.977 66.9828C330.094 66.6669 330.233 66.3591 330.378 66.0662C333.373 65.8756 336.19 64.5284 338.223 62.3207C339.161 65.8405 341.732 68.8634 345.403 70.2245C346.253 70.5396 347.107 70.7445 347.96 70.8501C347.902 71.7084 347.725 72.5847 347.406 73.4453C345.625 78.2494 340.264 80.7101 335.46 78.9289Z" fill="black"/>
</g>
<rect x="352.5" y="75.9501" width="42.7829" height="24.1938" rx="4" transform="rotate(20.3436 352.5 75.9501)" fill="white" stroke="#2B86C2" stroke-width="2"/>
<path d="M323.605 101.484C322.854 101.205 322.017 101.589 321.739 102.341C321.46 103.093 321.844 103.929 322.595 104.207C323.347 104.486 324.183 104.102 324.462 103.351C324.741 102.599 324.357 101.763 323.605 101.484ZM330.141 103.907C329.39 103.629 328.553 104.013 328.275 104.764C327.996 105.516 328.38 106.352 329.132 106.631C329.883 106.91 330.719 106.526 330.998 105.774C331.277 105.022 330.893 104.186 330.141 103.907ZM330.811 92.0746C324.798 89.845 318.108 92.9158 315.879 98.9291C313.649 104.942 316.72 111.632 322.733 113.862C328.746 116.091 335.436 113.02 337.666 107.007C339.895 100.994 336.825 94.3041 330.811 92.0746ZM323.541 111.683C318.737 109.902 316.276 104.541 318.057 99.7369C318.175 99.421 318.314 99.1131 318.459 98.8202C321.454 98.6296 324.271 97.2825 326.304 95.0747C327.242 98.5946 329.813 101.617 333.484 102.979C334.334 103.294 335.187 103.499 336.04 103.604C335.982 104.462 335.806 105.339 335.487 106.199C333.706 111.003 328.345 113.464 323.541 111.683Z" fill="black"/>
<rect x="340.581" y="108.704" width="42.7829" height="24.1938" rx="4" transform="rotate(20.3436 340.581 108.704)" fill="white" stroke="#323537" stroke-width="2"/>
<rect x="340.581" y="108.704" width="42.7829" height="24.1938" rx="4" transform="rotate(20.3436 340.581 108.704)" fill="white" stroke="#2B86C2" stroke-width="2"/>
<rect x="353.611" y="79.801" width="13.5194" height="2.53488" rx="1.26744" transform="rotate(20.3436 353.611 79.801)" fill="#323537"/>
<rect x="351.555" y="85.3468" width="30.4186" height="2.53488" rx="1.26744" transform="rotate(20.3436 351.555 85.3468)" fill="#323537"/>
<rect x="350.086" y="89.3081" width="23.6589" height="2.53488" rx="1.26744" transform="rotate(20.3436 350.086 89.3081)" fill="#323537"/>
<rect x="348.617" y="93.2694" width="27.8837" height="2.53488" rx="1.26744" transform="rotate(20.3436 348.617 93.2694)" fill="#323537"/>
<rect x="341.273" y="113.076" width="19.4341" height="2.53488" rx="1.26744" transform="rotate(20.3436 341.273 113.076)" fill="#323537"/>
<rect x="339.217" y="118.622" width="15.2093" height="2.53488" rx="1.26744" transform="rotate(20.3436 339.217 118.622)" fill="#323537"/>
<rect x="337.748" y="122.583" width="28.7287" height="2.53488" rx="1.26744" transform="rotate(20.3436 337.748 122.583)" fill="#323537"/>
<rect x="336.28" y="126.544" width="32.1085" height="2.53488" rx="1.26744" transform="rotate(20.3436 336.28 126.544)" fill="#323537"/>
<g clip-path="url(#clip1_980_753)">
<circle cx="326.941" cy="101.904" r="10.562" transform="rotate(20.3436 326.941 101.904)" fill="white"/>
<path d="M323.481 101.213C322.729 100.934 321.893 101.318 321.614 102.069C321.335 102.821 321.719 103.657 322.471 103.936C323.222 104.215 324.059 103.831 324.337 103.079C324.616 102.327 324.232 101.491 323.481 101.213ZM330.017 103.636C329.265 103.357 328.429 103.741 328.15 104.493C327.871 105.244 328.255 106.081 329.007 106.359C329.759 106.638 330.595 106.254 330.874 105.503C331.152 104.751 330.768 103.915 330.017 103.636ZM330.687 91.8031C324.674 89.5735 317.984 92.6443 315.754 98.6576C313.525 104.671 316.595 111.361 322.609 113.59C328.622 115.82 335.312 112.749 337.541 106.736C339.771 100.722 336.7 94.0327 330.687 91.8031ZM323.416 111.411C318.612 109.63 316.152 104.269 317.933 99.4654C318.05 99.1495 318.189 98.8416 318.335 98.5487C321.33 98.3581 324.146 97.011 326.179 94.8033C327.117 98.3231 329.689 101.346 333.36 102.707C334.209 103.022 335.063 103.227 335.916 103.333C335.858 104.191 335.682 105.067 335.363 105.928C333.581 110.732 328.22 113.193 323.416 111.411Z" fill="black"/>
</g>
<defs>
<clipPath id="clip0_980_753">
<rect width="27.8837" height="27.8837" fill="white" transform="translate(330.466 52.2949) rotate(20.3436)"/>
</clipPath>
<clipPath id="clip1_980_753">
<rect width="27.8837" height="27.8837" fill="white" transform="translate(318.422 84.7775) rotate(20.3436)"/>
</clipPath>
</defs>
</svg>
