<svg width="250" height="85" viewBox="0 0 250 85" fill="none" xmlns="http://www.w3.org/2000/svg">
<rect width="250" height="84.5527" rx="42.2764" fill="#8C3EC9"/>
<path d="M96.512 48.288C95.184 48.288 93.896 48.112 92.648 47.76C91.416 47.392 90.424 46.92 89.672 46.344L90.992 43.416C91.712 43.944 92.568 44.368 93.56 44.688C94.552 45.008 95.544 45.168 96.536 45.168C97.64 45.168 98.456 45.008 98.984 44.688C99.512 44.352 99.776 43.912 99.776 43.368C99.776 42.968 99.616 42.64 99.296 42.384C98.992 42.112 98.592 41.896 98.096 41.736C97.616 41.576 96.96 41.4 96.128 41.208C94.848 40.904 93.8 40.6 92.984 40.296C92.168 39.992 91.464 39.504 90.872 38.832C90.296 38.16 90.008 37.264 90.008 36.144C90.008 35.168 90.272 34.288 90.8 33.504C91.328 32.704 92.12 32.072 93.176 31.608C94.248 31.144 95.552 30.912 97.088 30.912C98.16 30.912 99.208 31.04 100.232 31.296C101.256 31.552 102.152 31.92 102.92 32.4L101.72 35.352C100.168 34.472 98.616 34.032 97.064 34.032C95.976 34.032 95.168 34.208 94.64 34.56C94.128 34.912 93.872 35.376 93.872 35.952C93.872 36.528 94.168 36.96 94.76 37.248C95.368 37.52 96.288 37.792 97.52 38.064C98.8 38.368 99.848 38.672 100.664 38.976C101.48 39.28 102.176 39.76 102.752 40.416C103.344 41.072 103.64 41.96 103.64 43.08C103.64 44.04 103.368 44.92 102.824 45.72C102.296 46.504 101.496 47.128 100.424 47.592C99.352 48.056 98.048 48.288 96.512 48.288ZM114.361 47.376C113.993 47.648 113.537 47.856 112.993 48C112.465 48.128 111.905 48.192 111.313 48.192C109.777 48.192 108.585 47.8 107.737 47.016C106.905 46.232 106.489 45.08 106.489 43.56V38.256H104.497V35.376H106.489V32.232H110.233V35.376H113.449V38.256H110.233V43.512C110.233 44.056 110.369 44.48 110.641 44.784C110.929 45.072 111.329 45.216 111.841 45.216C112.433 45.216 112.937 45.056 113.353 44.736L114.361 47.376ZM121.67 34.896C123.67 34.896 125.206 35.376 126.278 36.336C127.35 37.28 127.886 38.712 127.886 40.632V48H124.382V46.392C123.678 47.592 122.366 48.192 120.446 48.192C119.454 48.192 118.59 48.024 117.854 47.688C117.134 47.352 116.582 46.888 116.198 46.296C115.814 45.704 115.622 45.032 115.622 44.28C115.622 43.08 116.07 42.136 116.966 41.448C117.878 40.76 119.278 40.416 121.166 40.416H124.142C124.142 39.6 123.894 38.976 123.398 38.544C122.902 38.096 122.158 37.872 121.166 37.872C120.478 37.872 119.798 37.984 119.126 38.208C118.47 38.416 117.91 38.704 117.446 39.072L116.102 36.456C116.806 35.96 117.646 35.576 118.622 35.304C119.614 35.032 120.63 34.896 121.67 34.896ZM121.382 45.672C122.022 45.672 122.59 45.528 123.086 45.24C123.582 44.936 123.934 44.496 124.142 43.92V42.6H121.574C120.038 42.6 119.27 43.104 119.27 44.112C119.27 44.592 119.454 44.976 119.822 45.264C120.206 45.536 120.726 45.672 121.382 45.672ZM134.851 36.792C135.299 36.168 135.899 35.696 136.651 35.376C137.419 35.056 138.299 34.896 139.291 34.896V38.352C138.875 38.32 138.595 38.304 138.451 38.304C137.379 38.304 136.539 38.608 135.931 39.216C135.323 39.808 135.019 40.704 135.019 41.904V48H131.275V35.088H134.851V36.792ZM150.29 47.376C149.922 47.648 149.466 47.856 148.922 48C148.394 48.128 147.834 48.192 147.242 48.192C145.706 48.192 144.514 47.8 143.666 47.016C142.834 46.232 142.418 45.08 142.418 43.56V38.256H140.426V35.376H142.418V32.232H146.162V35.376H149.378V38.256H146.162V43.512C146.162 44.056 146.298 44.48 146.57 44.784C146.858 45.072 147.258 45.216 147.77 45.216C148.362 45.216 148.866 45.056 149.282 44.736L150.29 47.376Z" fill="white"/>
</svg>
