<svg width="139" height="139" viewBox="0 0 139 139" fill="none" xmlns="http://www.w3.org/2000/svg">
<circle cx="69.5" cy="69.5" r="69.5" fill="#F69B86"/>
<rect x="18.5" y="28.5" width="103" height="83" rx="13.5" fill="white" stroke="#8A8A8A" stroke-width="7"/>
<path d="M94 82L100.249 97L102.468 90.4679L109 88.2493L94 82Z" fill="black" stroke="#AAAAAA" stroke-linecap="round" stroke-linejoin="round"/>
<rect x="22" y="45" width="17" height="49" fill="#E0E0E0"/>
<path d="M29.7489 71.8272C29.7531 72.2872 29.3823 72.6639 28.9214 72.6668C28.461 72.6705 28.086 72.3001 28.0835 71.8402C28.0793 71.3798 28.4498 71.0048 28.9094 71.0002C29.3702 70.9973 29.7464 71.3681 29.7489 71.8272ZM29.3414 70.1665C28.8814 70.1698 28.5048 69.7998 28.5018 69.3386C28.4981 68.8791 28.8673 68.5037 29.3285 68.5008C29.7877 68.4966 30.1652 68.8661 30.1669 69.3265C30.1719 69.7878 29.8002 70.1623 29.3414 70.1665ZM32.6669 68.4941C32.6686 68.9532 32.2998 69.3307 31.8398 69.3336C31.379 69.3378 31.0031 68.9674 31.0002 68.5074C30.9956 68.0466 31.366 67.6716 31.8273 67.6679C32.286 67.6654 32.6627 68.0349 32.6669 68.4941V68.4941ZM27.6668 75.0966C29.5781 75.255 28.8935 73.2251 30.6619 73.2063L31.4277 73.8455C31.6185 76.1524 28.7964 76.667 27.6668 75.0966ZM33.5273 72.1322C34.1219 71.1994 35.9632 68.0708 35.9632 68.0708C36.1103 67.8112 35.7844 67.5404 35.5569 67.732C35.5569 67.732 32.8186 70.1127 32.0106 70.8673C31.3723 71.4639 31.3694 71.7364 31.1627 72.7201L31.8627 73.3034C32.7906 72.9222 33.0577 72.8701 33.5273 72.1322V72.1322ZM28.2681 74.1346C27.3998 73.3763 26.8431 72.2685 26.8335 71.0319C26.8152 68.7362 28.6693 66.8529 30.9669 66.8342C32.5661 66.8254 33.6665 67.6279 33.6736 68.2703L34.3665 67.6637C33.9456 66.7375 32.624 65.9784 30.9598 66.0005C28.2002 66.0234 25.9785 68.2778 26.0002 71.0385C26.0097 72.2518 26.4514 73.3592 27.1764 74.2196C27.5756 74.4246 28.061 74.3567 28.2681 74.1346V74.1346ZM33.6002 73.3405C34.0415 74.1613 33.0373 74.7446 32.1231 75.0037C31.9965 75.3837 31.7885 75.7208 31.5506 75.9666C33.7402 75.7204 35.3261 74.1734 34.1615 72.6797C33.9702 72.9651 33.7877 73.1784 33.6002 73.3405V73.3405Z" fill="black"/>
<path d="M31.6137 83.8164C31.4367 83.6168 31.4467 83.3041 31.6283 83.1109L33.4871 81.1445C33.5779 81.0486 33.6946 81 33.81 81C33.9275 81 34.0446 81.05 34.1333 81.1505L31.6137 83.8164V83.8164ZM28.5579 88.8259C28.5196 88.8664 28.5 88.9205 28.5 88.9745C28.5 89.0882 28.5846 89.1818 28.6896 89.1818C28.7375 89.1818 28.785 89.1627 28.8221 89.1236L29.1337 88.7923L28.87 88.495L28.5579 88.8259V88.8259ZM31.9796 85.8795L30.9087 87.0073C30.5654 87.3705 30.2392 87.6109 29.7817 87.8209C29.9883 87.3282 30.2192 86.9791 30.5621 86.6164L31.6325 85.4895L31.1954 84.9973L30.1271 86.1268C29.5529 86.7341 29.2604 87.3223 28.9896 88.1436L29.4617 88.675C30.2217 88.4055 30.77 88.1045 31.3442 87.4973L32.4121 86.3673L31.9796 85.8795V85.8795ZM35.2621 82.5873L32.9592 85.0232L32.4429 84.4418L34.7467 82.005C35.09 81.64 35.6162 82.2123 35.2621 82.5873ZM34.9942 81.2073C34.7558 81.2073 34.5125 81.3023 34.3108 81.5155L31.5592 84.4268L32.945 85.9877L35.6967 83.0773C35.8987 82.8636 36 82.58 36 82.2959C36 81.6477 35.5079 81.2073 34.9942 81.2073ZM33.5 86.6664V90.0909H26.8333V84.6364H30.1721L31.0296 83.7273H26V91H34.3333V85.785L33.5 86.6664Z" fill="black"/>
<path d="M31.0108 56.558C29.5629 57.3945 27.8842 58.3675 27.4758 58.603C26.7058 59.0475 26 57.8805 26 57.8805L29.6504 55.7675L31.0108 56.558ZM34.315 60C34.0292 60 33.7346 59.923 33.455 59.7605C32.6454 59.29 32.2246 58.26 32.4142 57.3335C32.5225 56.805 32.2908 56.733 31.9371 56.5275L26.025 53.0945C26.025 53.0945 26.7333 51.93 27.5025 52.3765C27.975 52.651 29.8729 53.75 31.5083 54.702L31.9187 54.465C32.2729 54.2605 32.5046 54.189 32.3975 53.6605C32.2096 52.733 32.6325 51.704 33.4433 51.2365C33.7221 51.076 34.0154 51 34.2992 51C35.2621 51 35.9846 51.848 35.9846 52.9005C35.9846 53.6915 35.5737 54.4785 34.8958 54.887C34.2187 55.295 33.7437 54.977 33.0708 55.3695L32.8608 55.492L33.0908 55.627C33.7629 56.0215 34.2383 55.705 34.9146 56.115C35.5912 56.5245 36 57.311 36 58.1C36 59.154 35.2754 60 34.315 60V60ZM33.2504 53.5925C33.4542 54.1035 34.0321 54.2815 34.5387 53.989C35.0458 53.697 35.2925 53.0425 35.0892 52.531C34.8854 52.02 34.3075 51.8415 33.8004 52.134C33.2933 52.4265 33.0471 53.081 33.2504 53.5925V53.5925ZM31.7325 55.405C31.7325 55.198 31.5929 55.03 31.42 55.03C31.2475 55.03 31.1075 55.198 31.1075 55.405C31.1075 55.612 31.2475 55.78 31.42 55.78C31.5925 55.78 31.7325 55.612 31.7325 55.405ZM34.5562 57.0115C34.05 56.7175 33.4713 56.8935 33.2667 57.4045C33.0621 57.9155 33.3075 58.5705 33.8137 58.864C34.32 59.158 34.8983 58.9815 35.1029 58.4705C35.3079 57.96 35.0625 57.3055 34.5562 57.0115Z" fill="black"/>
<circle cx="61.5" cy="50.5" r="8.5" fill="#EDDD4F"/>
<circle cx="78.5" cy="62.5" r="8.5" fill="#827A3A"/>
<circle cx="70.5" cy="87.5" r="8.5" fill="#E41717"/>
</svg>
