<svg width="138" height="138" viewBox="0 0 138 138" fill="none" xmlns="http://www.w3.org/2000/svg">
<path d="M138 69C138 107.108 107.108 138 69 138C30.8923 138 0 107.108 0 69C0 30.8923 30.8923 0 69 0C107.108 0 138 30.8923 138 69Z" fill="#3AB2B6"/>
<rect x="19" y="33.5243" width="42.2535" height="42.2535" rx="4" fill="white" stroke="#323537" stroke-width="2"/>
<rect x="67.429" y="78.6129" width="42.2535" height="42.2535" rx="4" fill="white" stroke="#323537" stroke-width="2"/>
<rect x="77.4477" y="22.6697" width="42.2535" height="42.2535" rx="4" fill="white" stroke="#323537" stroke-width="2"/>
<rect x="23.8446" y="45.8839" width="29.224" height="2.50492" rx="1.25246" fill="#323537"/>
<rect x="23.8446" y="52.5637" width="20.0393" height="2.50492" rx="1.25246" fill="#323537"/>
<rect x="83.9629" y="47.5538" width="29.224" height="2.50492" rx="1.25246" fill="#323537"/>
<rect x="83.9629" y="54.2336" width="20.0393" height="2.50492" rx="1.25246" fill="#323537"/>
<rect x="83.9629" y="34.1943" width="29.224" height="2.50492" rx="1.25246" fill="#323537"/>
<rect x="83.9629" y="40.8741" width="20.0393" height="2.50492" rx="1.25246" fill="#323537"/>
<rect x="73.9426" y="95.9822" width="29.224" height="2.50492" rx="1.25246" fill="#323537"/>
<rect x="73.9426" y="89.3025" width="20.0393" height="2.50492" rx="1.25246" fill="#323537"/>
<rect x="23.8446" y="45.8839" width="29.224" height="2.50492" rx="1.25246" fill="#323537"/>
<rect x="23.8446" y="52.5637" width="20.0393" height="2.50492" rx="1.25246" fill="#323537"/>
<circle cx="61.8357" cy="33.7768" r="4.59235" fill="#F1BF3C"/>
<circle cx="71.8559" cy="76.3604" r="4.59235" fill="#F1BF3C"/>
<circle cx="81.04" cy="81.3702" r="4.59235" fill="#F1BF3C"/>
<circle cx="112.769" cy="24.5924" r="4.59235" fill="#F1BF3C"/>
<rect x="83.9629" y="47.5538" width="29.224" height="2.50492" rx="1.25246" fill="#323537"/>
<rect x="83.9629" y="40.8741" width="20.0393" height="2.50492" rx="1.25246" fill="#323537"/>
</svg>
