<svg width="109" height="109" viewBox="0 0 109 109" fill="none" xmlns="http://www.w3.org/2000/svg">
<rect width="109" height="109" rx="54.5" fill="#EFD074"/>
<rect x="20.5225" y="30.2834" width="26.7413" height="26.7413" rx="4" fill="white" stroke="#323537" stroke-width="2"/>
<rect x="51.9756" y="59.5669" width="26.7413" height="26.7413" rx="4" fill="white" stroke="#323537" stroke-width="2"/>
<rect x="58.4824" y="23.2336" width="26.7413" height="26.7413" rx="4" fill="white" stroke="#323537" stroke-width="2"/>
<rect x="23.3184" y="37.96" width="18.9801" height="1.62687" rx="0.813433" fill="#323537"/>
<rect x="23.3184" y="42.2983" width="13.0149" height="1.62687" rx="0.813433" fill="#323537"/>
<rect x="62.3633" y="39.0444" width="18.9801" height="1.62687" rx="0.813433" fill="#323537"/>
<rect x="62.3633" y="43.3828" width="13.0149" height="1.62687" rx="0.813433" fill="#323537"/>
<rect x="62.3633" y="30.3679" width="18.9801" height="1.62687" rx="0.813433" fill="#323537"/>
<rect x="62.3633" y="34.7063" width="13.0149" height="1.62687" rx="0.813433" fill="#323537"/>
<rect x="55.8555" y="70.4973" width="18.9801" height="1.62687" rx="0.813433" fill="#323537"/>
<rect x="55.8555" y="66.1589" width="13.0149" height="1.62687" rx="0.813433" fill="#323537"/>
<rect x="23.3184" y="37.96" width="18.9801" height="1.62687" rx="0.813433" fill="#323537"/>
<rect x="23.3184" y="42.2983" width="13.0149" height="1.62687" rx="0.813433" fill="#323537"/>
<circle cx="47.9924" cy="30.0968" r="2.98259" fill="#985AE8"/>
<circle cx="54.5002" cy="57.7536" r="2.98259" fill="#985AE8"/>
<circle cx="60.465" cy="61.0072" r="2.98259" fill="#985AE8"/>
<circle cx="81.0724" cy="24.1318" r="2.98259" fill="#985AE8"/>
<rect x="62.3633" y="39.0444" width="18.9801" height="1.62687" rx="0.813433" fill="#323537"/>
<rect x="62.3633" y="34.7063" width="13.0149" height="1.62687" rx="0.813433" fill="#323537"/>
</svg>
