<svg width="242" height="242" viewBox="0 0 242 242" fill="none" xmlns="http://www.w3.org/2000/svg">
<path d="M242 121C242 187.826 187.826 242 121 242C54.1735 242 0 187.826 0 121C0 54.1735 54.1735 0 121 0C187.826 0 242 54.1735 242 121Z" fill="#76E0A0"/>
<path d="M97.628 40.6544C97.3723 40.6544 96.5068 40.7267 96.1079 41.6564L91.4545 52.5014C91.2312 53.0217 91.2819 53.5913 91.5935 54.064C91.9051 54.5368 92.4085 54.8079 92.9747 54.8079H102.281C102.848 54.8079 103.351 54.5368 103.663 54.064C103.974 53.5913 104.025 53.0217 103.802 52.5014L99.1482 41.6564C98.7493 40.7267 97.8838 40.6544 97.628 40.6544ZM97.628 39.0002C98.8616 39.0002 100.095 39.6682 100.668 41.0041L105.322 51.8492C106.258 54.0324 104.657 56.4621 102.281 56.4621H92.9747C90.5989 56.4621 88.9976 54.0324 89.9343 51.8492L94.5877 41.0041C95.1609 39.6682 96.3945 39.0002 97.628 39.0002Z" fill="#707070"/>
<path d="M68.2678 141.25L97.5 110.621L126.732 141.25H68.2678Z" stroke="#707070" stroke-width="5"/>
<path d="M97.6279 41.5946V140.831" stroke="#707070" stroke-width="6" stroke-linecap="round"/>
<path d="M149.216 56.2829H47.8296" stroke="#707070" stroke-width="6" stroke-linecap="round"/>
<path d="M50.4953 61.5821L29 85.7638" stroke="#FF0000" stroke-width="3" stroke-linecap="round"/>
<path d="M71.9897 85.7638L50.4944 61.5821" stroke="#FF0000" stroke-width="3" stroke-linecap="round"/>
<path d="M29 86.3187C29 86.3187 41.1188 97.4117 51.9744 97.4117C62.83 97.4117 72.4207 86.3187 72.4207 86.3187" stroke="#FF0000" stroke-width="3" stroke-linecap="round"/>
<path d="M144.33 61.5821L122.834 85.7638" stroke="#1700FF" stroke-width="3" stroke-linecap="round"/>
<path d="M165.824 85.7638L144.329 61.5821" stroke="#1700FF" stroke-width="3" stroke-linecap="round"/>
<path d="M122.834 86.3187C122.834 86.3187 134.953 97.4117 145.809 97.4117C156.664 97.4117 166.255 86.3187 166.255 86.3187" stroke="#1700FF" stroke-width="3" stroke-linecap="round"/>
<g filter="url(#filter0_d_768_107)">
<rect x="135.5" y="107.5" width="67.1925" height="91.4909" rx="3.5" fill="white" stroke="black"/>
<path d="M154.253 147.599L186.481 147.599M154.253 144.669L164.507 144.669L174.762 144.669M154.253 150.529L186.481 150.529" stroke="black" stroke-width="2" stroke-linecap="round"/>
<path d="M154.253 164.341L180.621 164.341M154.253 161.411L177.273 161.411M154.253 167.271L175.18 167.271" stroke="black" stroke-width="2" stroke-linecap="round"/>
<path d="M154.253 181.083L191.504 181.083M154.253 178.153H165.972M154.253 184.012L179.366 184.012" stroke="black" stroke-width="2" stroke-linecap="round"/>
<path d="M148.763 126.217V129H147.825V121.891H150.447C151.225 121.891 151.834 122.089 152.273 122.486C152.716 122.883 152.938 123.409 152.938 124.063C152.938 124.754 152.721 125.286 152.288 125.66C151.858 126.031 151.242 126.217 150.438 126.217H148.763ZM148.763 125.45H150.447C150.949 125.45 151.333 125.333 151.6 125.099C151.867 124.861 152 124.519 152 124.073C152 123.65 151.867 123.312 151.6 123.058C151.333 122.804 150.966 122.672 150.501 122.662H148.763V125.45ZM156.546 124.527C156.409 124.505 156.261 124.493 156.102 124.493C155.509 124.493 155.107 124.745 154.896 125.25V129H153.992V123.717H154.871L154.886 124.327C155.182 123.855 155.602 123.619 156.146 123.619C156.321 123.619 156.455 123.642 156.546 123.688V124.527ZM158.362 129H157.459V123.717H158.362V129ZM157.386 122.315C157.386 122.169 157.43 122.045 157.518 121.944C157.609 121.843 157.742 121.793 157.918 121.793C158.094 121.793 158.227 121.843 158.318 121.944C158.41 122.045 158.455 122.169 158.455 122.315C158.455 122.462 158.41 122.584 158.318 122.682C158.227 122.779 158.094 122.828 157.918 122.828C157.742 122.828 157.609 122.779 157.518 122.682C157.43 122.584 157.386 122.462 157.386 122.315ZM160.667 123.717L160.696 124.381C161.1 123.873 161.627 123.619 162.278 123.619C163.395 123.619 163.958 124.249 163.968 125.509V129H163.064V125.504C163.061 125.123 162.973 124.841 162.801 124.659C162.632 124.477 162.366 124.386 162.005 124.386C161.712 124.386 161.455 124.464 161.233 124.62C161.012 124.776 160.84 124.981 160.716 125.235V129H159.812V123.717H160.667ZM167.449 128.36C167.771 128.36 168.053 128.263 168.294 128.067C168.535 127.872 168.668 127.628 168.694 127.335H169.549C169.533 127.638 169.428 127.926 169.236 128.199C169.044 128.473 168.787 128.691 168.465 128.854C168.146 129.016 167.807 129.098 167.449 129.098C166.73 129.098 166.157 128.858 165.73 128.38C165.307 127.898 165.096 127.241 165.096 126.407V126.256C165.096 125.742 165.19 125.284 165.379 124.884C165.568 124.483 165.838 124.173 166.189 123.951C166.544 123.73 166.963 123.619 167.444 123.619C168.037 123.619 168.528 123.797 168.919 124.151C169.313 124.506 169.523 124.967 169.549 125.533H168.694C168.668 125.191 168.538 124.911 168.304 124.693C168.073 124.472 167.786 124.361 167.444 124.361C166.985 124.361 166.629 124.527 166.375 124.859C166.124 125.188 165.999 125.665 165.999 126.29V126.461C165.999 127.07 166.124 127.538 166.375 127.867C166.626 128.196 166.984 128.36 167.449 128.36ZM171.546 129H170.643V123.717H171.546V129ZM170.569 122.315C170.569 122.169 170.613 122.045 170.701 121.944C170.792 121.843 170.926 121.793 171.102 121.793C171.277 121.793 171.411 121.843 171.502 121.944C171.593 122.045 171.639 122.169 171.639 122.315C171.639 122.462 171.593 122.584 171.502 122.682C171.411 122.779 171.277 122.828 171.102 122.828C170.926 122.828 170.792 122.779 170.701 122.682C170.613 122.584 170.569 122.462 170.569 122.315ZM177.459 126.417C177.459 127.221 177.275 127.869 176.907 128.36C176.539 128.852 176.041 129.098 175.413 129.098C174.772 129.098 174.267 128.894 173.899 128.487V131.031H172.996V123.717H173.821L173.865 124.303C174.233 123.847 174.744 123.619 175.398 123.619C176.033 123.619 176.535 123.858 176.902 124.337C177.273 124.815 177.459 125.481 177.459 126.334V126.417ZM176.556 126.314C176.556 125.719 176.429 125.248 176.175 124.903C175.921 124.558 175.573 124.386 175.13 124.386C174.583 124.386 174.173 124.628 173.899 125.113V127.638C174.17 128.119 174.583 128.36 175.14 128.36C175.573 128.36 175.916 128.189 176.17 127.848C176.427 127.503 176.556 126.992 176.556 126.314ZM179.593 129H178.689V121.5H179.593V129ZM183.235 129.098C182.519 129.098 181.937 128.863 181.487 128.395C181.038 127.923 180.813 127.293 180.813 126.505V126.339C180.813 125.815 180.913 125.348 181.111 124.938C181.313 124.524 181.593 124.202 181.951 123.971C182.312 123.736 182.703 123.619 183.123 123.619C183.81 123.619 184.344 123.845 184.725 124.298C185.105 124.75 185.296 125.398 185.296 126.241V126.617H181.717C181.73 127.138 181.881 127.56 182.171 127.882C182.464 128.201 182.835 128.36 183.284 128.36C183.603 128.36 183.873 128.295 184.095 128.165C184.316 128.035 184.51 127.862 184.676 127.647L185.228 128.077C184.785 128.757 184.121 129.098 183.235 129.098ZM183.123 124.361C182.758 124.361 182.452 124.495 182.205 124.762C181.958 125.025 181.805 125.396 181.746 125.875H184.393V125.807C184.367 125.348 184.243 124.993 184.021 124.742C183.8 124.488 183.501 124.361 183.123 124.361ZM189.422 127.599C189.422 127.354 189.329 127.166 189.144 127.032C188.961 126.896 188.641 126.778 188.182 126.681C187.726 126.583 187.363 126.466 187.093 126.329C186.826 126.192 186.627 126.03 186.497 125.841C186.37 125.652 186.307 125.427 186.307 125.167C186.307 124.734 186.489 124.368 186.854 124.068C187.221 123.769 187.69 123.619 188.26 123.619C188.859 123.619 189.344 123.774 189.715 124.083C190.089 124.392 190.276 124.788 190.276 125.27H189.368C189.368 125.022 189.262 124.809 189.051 124.63C188.842 124.451 188.579 124.361 188.26 124.361C187.931 124.361 187.674 124.433 187.488 124.576C187.303 124.719 187.21 124.907 187.21 125.138C187.21 125.356 187.296 125.52 187.469 125.631C187.641 125.742 187.952 125.847 188.401 125.948C188.854 126.049 189.22 126.17 189.5 126.31C189.78 126.45 189.987 126.619 190.12 126.817C190.257 127.013 190.325 127.252 190.325 127.535C190.325 128.007 190.136 128.386 189.759 128.673C189.381 128.956 188.891 129.098 188.289 129.098C187.866 129.098 187.492 129.023 187.166 128.873C186.84 128.723 186.585 128.515 186.399 128.248C186.217 127.978 186.126 127.687 186.126 127.374H187.029C187.046 127.677 187.166 127.918 187.391 128.097C187.618 128.272 187.918 128.36 188.289 128.36C188.631 128.36 188.904 128.292 189.109 128.155C189.318 128.015 189.422 127.83 189.422 127.599Z" fill="black"/>
<circle cx="148" cy="145" r="2" fill="black"/>
<circle cx="148" cy="161" r="2" fill="black"/>
<circle cx="148" cy="177" r="2" fill="black"/>
</g>
<defs>
<filter id="filter0_d_768_107" x="131" y="107" width="76.1925" height="100.491" filterUnits="userSpaceOnUse" color-interpolation-filters="sRGB">
<feFlood flood-opacity="0" result="BackgroundImageFix"/>
<feColorMatrix in="SourceAlpha" type="matrix" values="0 0 0 0 0 0 0 0 0 0 0 0 0 0 0 0 0 0 127 0" result="hardAlpha"/>
<feOffset dy="4"/>
<feGaussianBlur stdDeviation="2"/>
<feComposite in2="hardAlpha" operator="out"/>
<feColorMatrix type="matrix" values="0 0 0 0 0 0 0 0 0 0 0 0 0 0 0 0 0 0 0.25 0"/>
<feBlend mode="normal" in2="BackgroundImageFix" result="effect1_dropShadow_768_107"/>
<feBlend mode="normal" in="SourceGraphic" in2="effect1_dropShadow_768_107" result="shape"/>
</filter>
</defs>
</svg>
