<svg width="152" height="152" viewBox="0 0 152 152" fill="none" xmlns="http://www.w3.org/2000/svg">
<path d="M152 76C152 117.974 117.974 152 76 152C34.0264 152 0 117.974 0 76C0 34.0264 34.0264 0 76 0C117.974 0 152 34.0264 152 76Z" fill="#929481"/>
<path d="M23.6491 70.9227C38.1534 56.7649 48.2727 66.0962 52.3205 70.9227C56.1561 75.4964 63.3851 87.9765 73.2337 87.9765C85.3768 87.9765 93.135 78.3234 99.2065 70.601C105.278 62.8785 113.211 64.1215 117.421 70.2792C122.481 77.6799 120.907 75.213 124.842 81.5411" stroke="#F1BF3C" stroke-width="2" stroke-linecap="round"/>
<rect x="4.5" y="64.8975" width="25.5263" height="9.80702" rx="1.5" fill="white" stroke="black"/>
<rect x="53.6228" y="71.7747" width="25.5263" height="8.82456" rx="1.5" fill="white" stroke="black"/>
<rect x="91.9386" y="60.9677" width="26.5088" height="9.80702" rx="1.5" fill="white" stroke="black"/>
<rect x="120.43" y="80.6168" width="25.5263" height="9.80702" rx="1.5" fill="white" stroke="black"/>
<path fill-rule="evenodd" clip-rule="evenodd" d="M46.1356 55.0679C45.9593 55.1823 45.883 55.3669 45.8565 55.743C45.8086 56.424 45.5932 57.0111 45.2369 57.4317C44.9037 57.825 44.5928 58.0003 44.0739 58.0876C43.8947 58.1178 43.7211 58.172 43.6727 58.2129C43.4755 58.3798 43.4059 58.7311 43.5125 59.0213C43.5914 59.2361 43.7407 59.3329 44.0578 59.3752C44.4158 59.4229 44.5727 59.4794 44.8309 59.6538C45.4169 60.0498 45.7955 60.8057 45.8571 61.7027C45.8829 62.0789 45.959 62.2632 46.1356 62.3778C46.4585 62.5874 46.7957 62.3233 46.8343 61.8306C46.8978 61.0197 47.0531 60.546 47.4033 60.0954C47.7506 59.6485 48.1512 59.4193 48.6993 59.3541C49.0633 59.3107 49.2333 59.1115 49.2337 58.7278C49.2342 58.314 49.067 58.1336 48.6255 58.0715C48.2599 58.0201 48.1309 57.9721 47.8476 57.7817C47.519 57.5609 47.2229 57.1652 47.051 56.717C46.9217 56.3802 46.8879 56.2084 46.8346 55.6186C46.7909 55.1357 46.4478 54.8653 46.1356 55.0679ZM46.396 57.7714C46.396 57.835 46.8703 58.4663 47.0164 58.5971L47.152 58.7184L47.0594 58.8034C46.904 58.9459 46.5362 59.4163 46.44 59.5957L46.3492 59.765L46.3 59.6652C46.2209 59.5048 45.8124 58.9693 45.6762 58.8474L45.5509 58.7353L45.7723 58.5075C45.894 58.3822 46.0709 58.1566 46.1654 58.0062C46.3259 57.7507 46.396 57.6794 46.396 57.7714ZM39.8061 61.0555C39.6305 61.1768 39.572 61.3472 39.5404 61.8291C39.4459 63.2729 38.6752 64.4763 37.6155 64.8348C37.5019 64.8732 37.2639 64.9197 37.0866 64.9381C36.7467 64.9733 36.6628 65.0193 36.5348 65.2408C36.4447 65.3967 36.4296 65.6833 36.502 65.8636C36.5974 66.1013 36.7301 66.187 37.0573 66.222C37.7898 66.3005 38.3627 66.6439 38.8309 67.2849C39.2728 67.8899 39.5456 68.7187 39.5456 69.4562C39.5456 70.0234 39.9067 70.3637 40.261 70.1304C40.4492 70.0064 40.4967 69.8801 40.5292 69.4179C40.5913 68.5331 40.8164 67.8653 41.2566 67.2603C41.6985 66.653 42.2966 66.2988 43.0089 66.2224C43.1936 66.2027 43.3267 66.1647 43.3925 66.113C43.6176 65.9362 43.6914 65.5428 43.5498 65.2742C43.416 65.0203 43.3377 64.9752 42.962 64.9364C42.0081 64.8378 41.2064 64.1426 40.801 63.0626C40.6303 62.6079 40.5687 62.313 40.5295 61.7624C40.4967 61.3013 40.4489 61.1746 40.261 61.0508C40.1161 60.9554 39.9485 60.9572 39.8061 61.0555ZM40.1819 64.2107C40.3442 64.5287 40.8447 65.1709 41.1095 65.401L41.3196 65.5836L41.2412 65.6503C40.8618 65.9727 40.4303 66.5058 40.2066 66.9283C40.1238 67.0847 40.0476 67.2127 40.0373 67.2126C40.027 67.2126 39.9785 67.1306 39.9295 67.0304C39.6994 66.5598 39.2717 66.0228 38.8328 65.6532C38.7573 65.5896 38.7578 65.5888 38.9805 65.3922C39.2619 65.1439 39.6898 64.5937 39.8759 64.2409C39.9544 64.0922 40.0276 63.97 40.0385 63.9695C40.0494 63.9689 40.1139 64.0775 40.1819 64.2107ZM48.196 64.6017C48.0406 64.7241 47.9732 64.9612 47.9508 65.4642C47.8626 67.4451 46.7389 69.2066 45.2332 69.7244C45.0692 69.7808 44.7369 69.8524 44.4949 69.8835C44.0213 69.9444 43.9424 69.9848 43.8326 70.2226C43.8012 70.2906 43.7754 70.4256 43.7754 70.5227C43.7754 70.9216 44.0204 71.1733 44.4087 71.1733C44.8419 71.1733 45.482 71.3822 45.923 71.6676C46.3835 71.9655 46.9288 72.5611 47.2415 73.1077C47.675 73.8654 47.9006 74.6796 47.958 75.6938C47.9854 76.1794 48.0176 76.2799 48.2027 76.4584C48.3422 76.593 48.6015 76.5788 48.7543 76.4283C48.8968 76.2879 48.9231 76.1758 48.9709 75.5065C49.0833 73.9292 49.7779 72.5481 50.8487 71.7725C51.3368 71.4189 51.8498 71.2282 52.4586 71.1741C52.7457 71.1485 52.8478 71.1229 52.9132 71.0598C53.2103 70.7733 53.2186 70.2595 52.9303 70.0109C52.8507 69.9422 52.7512 69.9141 52.5062 69.8911C51.4791 69.7944 50.6802 69.3341 50 68.4471C49.3657 67.6202 49.0186 66.5994 48.9539 65.3708C48.9285 64.8896 48.8795 64.7383 48.7042 64.6002C48.5637 64.4896 48.3375 64.4903 48.196 64.6017ZM48.9085 68.7568C49.2506 69.3421 49.75 69.9172 50.2452 70.2962C50.3977 70.413 50.5273 70.5142 50.5331 70.5211C50.539 70.5281 50.4435 70.6094 50.3209 70.7019C49.6277 71.2248 48.9794 72.0594 48.6021 72.9145L48.458 73.2409L48.3403 72.9691C47.9532 72.0749 47.2636 71.1843 46.5714 70.6843L46.3609 70.5322L46.5986 70.3568C47.2754 69.8573 47.9062 69.0455 48.3251 68.1347L48.4579 67.846L48.6176 68.189C48.7053 68.3778 48.8363 68.6332 48.9085 68.7568Z" fill="black"/>
<path fill-rule="evenodd" clip-rule="evenodd" d="M133.136 74.5856C132.959 74.7 132.883 74.8846 132.857 75.2607C132.809 75.9417 132.593 76.5289 132.237 76.9495C131.904 77.3427 131.593 77.5181 131.074 77.6054C130.895 77.6355 130.721 77.6897 130.673 77.7306C130.476 77.8976 130.406 78.2488 130.513 78.539C130.591 78.7538 130.741 78.8506 131.058 78.8929C131.416 78.9406 131.573 78.9971 131.831 79.1716C132.417 79.5675 132.796 80.3234 132.857 81.2205C132.883 81.5966 132.959 81.7809 133.136 81.8956C133.459 82.1051 133.796 81.8411 133.834 81.3484C133.898 80.5374 134.053 80.0637 134.403 79.6131C134.751 79.1662 135.151 78.9371 135.699 78.8718C136.063 78.8284 136.233 78.6293 136.234 78.2456C136.234 77.8317 136.067 77.6513 135.626 77.5893C135.26 77.5379 135.131 77.4898 134.848 77.2994C134.519 77.0786 134.223 76.6829 134.051 76.2347C133.922 75.8979 133.888 75.7261 133.835 75.1363C133.791 74.6534 133.448 74.383 133.136 74.5856ZM133.396 77.2891C133.396 77.3528 133.87 77.9841 134.016 78.1148L134.152 78.2362L134.059 78.3211C133.904 78.4637 133.536 78.9341 133.44 79.1134L133.349 79.2827L133.3 79.183C133.221 79.0225 132.812 78.4871 132.676 78.3651L132.551 78.253L132.772 78.0252C132.894 77.9 133.071 77.6744 133.165 77.524C133.326 77.2685 133.396 77.1971 133.396 77.2891ZM126.806 80.5732C126.631 80.6945 126.572 80.865 126.54 81.3468C126.446 82.7906 125.675 83.994 124.616 84.3525C124.502 84.391 124.264 84.4374 124.087 84.4558C123.747 84.4911 123.663 84.5371 123.535 84.7585C123.445 84.9144 123.43 85.2011 123.502 85.3814C123.597 85.6191 123.73 85.7047 124.057 85.7398C124.79 85.8183 125.363 86.1616 125.831 86.8026C126.273 87.4077 126.546 88.2364 126.546 88.9739C126.546 89.5411 126.907 89.8814 127.261 89.6481C127.449 89.5241 127.497 89.3978 127.529 88.9356C127.591 88.0509 127.816 87.3831 128.257 86.778C128.699 86.1708 129.297 85.8165 130.009 85.7402C130.194 85.7204 130.327 85.6824 130.393 85.6307C130.618 85.4539 130.691 85.0605 130.55 84.7919C130.416 84.538 130.338 84.493 129.962 84.4541C129.008 84.3555 128.206 83.6604 127.801 82.5803C127.63 82.1256 127.569 81.8307 127.53 81.2802C127.497 80.819 127.449 80.6923 127.261 80.5685C127.116 80.4731 126.949 80.4749 126.806 80.5732ZM127.182 83.7285C127.344 84.0464 127.845 84.6887 128.11 84.9188L128.32 85.1013L128.241 85.168C127.862 85.4904 127.43 86.0235 127.207 86.4461C127.124 86.6025 127.048 86.7304 127.037 86.7304C127.027 86.7303 126.979 86.6483 126.93 86.5481C126.699 86.0776 126.272 85.5406 125.833 85.1709C125.757 85.1074 125.758 85.1065 125.981 84.91C126.262 84.6616 126.69 84.1115 126.876 83.7586C126.954 83.6099 127.028 83.4878 127.038 83.4872C127.049 83.4867 127.114 83.5952 127.182 83.7285ZM135.196 84.1195C135.041 84.2419 134.973 84.479 134.951 84.9819C134.863 86.9629 133.739 88.7244 132.233 89.2421C132.069 89.2986 131.737 89.3701 131.495 89.4012C131.021 89.4621 130.942 89.5025 130.833 89.7403C130.801 89.8083 130.775 89.9434 130.775 90.0404C130.775 90.4394 131.02 90.691 131.409 90.691C131.842 90.691 132.482 90.8999 132.923 91.1853C133.383 91.4833 133.929 92.0789 134.242 92.6255C134.675 93.3831 134.901 94.1973 134.958 95.2115C134.985 95.6971 135.018 95.7977 135.203 95.9761C135.342 96.1107 135.602 96.0966 135.754 95.946C135.897 95.8056 135.923 95.6935 135.971 95.0243C136.083 93.4469 136.778 92.0658 137.849 91.2902C138.337 90.9366 138.85 90.7459 139.459 90.6918C139.746 90.6663 139.848 90.6406 139.913 90.5775C140.21 90.2911 140.219 89.7773 139.93 89.5286C139.851 89.4599 139.751 89.4318 139.506 89.4088C138.479 89.3121 137.68 88.8518 137 87.9649C136.366 87.1379 136.019 86.1172 135.954 84.8885C135.929 84.4073 135.88 84.2561 135.704 84.118C135.564 84.0074 135.338 84.008 135.196 84.1195ZM135.909 88.2745C136.251 88.8598 136.75 89.4349 137.245 89.8139C137.398 89.9307 137.527 90.0319 137.533 90.0388C137.539 90.0458 137.444 90.1272 137.321 90.2196C136.628 90.7426 135.979 91.5771 135.602 92.4322L135.458 92.7587L135.34 92.4868C134.953 91.5927 134.264 90.702 133.571 90.202L133.361 90.05L133.599 89.8745C134.275 89.375 134.906 88.5632 135.325 87.6524L135.458 87.3637L135.618 87.7068C135.705 87.8955 135.836 88.1509 135.909 88.2745Z" fill="black"/>
<path fill-rule="evenodd" clip-rule="evenodd" d="M92.1356 102.642C91.9593 102.757 91.883 102.941 91.8565 103.317C91.8086 103.998 91.5932 104.586 91.2369 105.006C90.9037 105.399 90.5928 105.575 90.0739 105.662C89.8947 105.692 89.7211 105.746 89.6727 105.787C89.4755 105.954 89.4059 106.306 89.5125 106.596C89.5914 106.811 89.7407 106.907 90.0578 106.95C90.4158 106.997 90.5727 107.054 90.8309 107.228C91.4169 107.624 91.7955 108.38 91.8571 109.277C91.8829 109.653 91.959 109.838 92.1356 109.952C92.4585 110.162 92.7957 109.898 92.8342 109.405C92.8978 108.594 93.0531 108.12 93.4033 107.67C93.7506 107.223 94.1512 106.994 94.6993 106.929C95.0633 106.885 95.2333 106.686 95.2337 106.302C95.2342 105.888 95.067 105.708 94.6255 105.646C94.2599 105.595 94.1309 105.547 93.8476 105.356C93.519 105.135 93.2229 104.74 93.0509 104.291C92.9217 103.955 92.8879 103.783 92.8346 103.193C92.7909 102.71 92.4478 102.44 92.1356 102.642ZM92.396 105.346C92.396 105.41 92.8703 106.041 93.0164 106.172L93.152 106.293L93.0594 106.378C92.904 106.52 92.5362 106.991 92.44 107.17L92.3492 107.339L92.3 107.24C92.2208 107.079 91.8124 106.544 91.6762 106.422L91.5509 106.31L91.7723 106.082C91.894 105.957 92.0709 105.731 92.1654 105.581C92.3259 105.325 92.396 105.254 92.396 105.346ZM85.8061 108.63C85.6305 108.751 85.572 108.922 85.5404 109.404C85.4459 110.847 84.6752 112.051 83.6155 112.409C83.5019 112.448 83.2639 112.494 83.0866 112.513C82.7467 112.548 82.6628 112.594 82.5348 112.815C82.4447 112.971 82.4296 113.258 82.502 113.438C82.5974 113.676 82.7301 113.761 83.0573 113.797C83.7898 113.875 84.3627 114.218 84.8309 114.859C85.2728 115.464 85.5456 116.293 85.5456 117.031C85.5456 117.598 85.9067 117.938 86.261 117.705C86.4492 117.581 86.4967 117.455 86.5292 116.992C86.5912 116.108 86.8164 115.44 87.2566 114.835C87.6985 114.227 88.2966 113.873 89.0089 113.797C89.1936 113.777 89.3267 113.739 89.3925 113.687C89.6176 113.511 89.6913 113.117 89.5498 112.849C89.416 112.595 89.3377 112.55 88.962 112.511C88.0081 112.412 87.2064 111.717 86.801 110.637C86.6303 110.182 86.5687 109.887 86.5295 109.337C86.4967 108.876 86.4489 108.749 86.261 108.625C86.1161 108.53 85.9485 108.532 85.8061 108.63ZM86.1819 111.785C86.3442 112.103 86.8447 112.745 87.1095 112.975L87.3196 113.158L87.2412 113.225C86.8618 113.547 86.4303 114.08 86.2066 114.503C86.1238 114.659 86.0476 114.787 86.0373 114.787C86.027 114.787 85.9785 114.705 85.9295 114.605C85.6994 114.134 85.2717 113.597 84.8328 113.228C84.7573 113.164 84.7578 113.163 84.9805 112.967C85.2619 112.718 85.6898 112.168 85.8759 111.815C85.9544 111.667 86.0276 111.544 86.0385 111.544C86.0494 111.543 86.1139 111.652 86.1819 111.785ZM94.196 112.176C94.0406 112.299 93.9732 112.536 93.9508 113.039C93.8626 115.02 92.7389 116.781 91.2332 117.299C91.0692 117.355 90.7369 117.427 90.4949 117.458C90.0213 117.519 89.9424 117.559 89.8326 117.797C89.8012 117.865 89.7754 118 89.7754 118.097C89.7754 118.496 90.0204 118.748 90.4087 118.748C90.8419 118.748 91.482 118.957 91.923 119.242C92.3835 119.54 92.9288 120.136 93.2415 120.682C93.675 121.44 93.9006 122.254 93.958 123.268C93.9854 123.754 94.0176 123.854 94.2027 124.033C94.3422 124.167 94.6015 124.153 94.7543 124.003C94.8968 123.862 94.9231 123.75 94.9709 123.081C95.0833 121.504 95.7779 120.123 96.8487 119.347C97.3368 118.993 97.8498 118.803 98.4586 118.749C98.7457 118.723 98.8478 118.697 98.9132 118.634C99.2103 118.348 99.2186 117.834 98.9303 117.585C98.8507 117.517 98.7512 117.489 98.5062 117.466C97.4791 117.369 96.6802 116.909 95.9999 116.022C95.3657 115.195 95.0186 114.174 94.9539 112.945C94.9285 112.464 94.8795 112.313 94.7042 112.175C94.5637 112.064 94.3375 112.065 94.196 112.176ZM94.9085 116.331C95.2506 116.917 95.75 117.492 96.2452 117.871C96.3977 117.987 96.5273 118.089 96.5331 118.096C96.539 118.103 96.4435 118.184 96.3209 118.276C95.6277 118.799 94.9794 119.634 94.6021 120.489L94.458 120.815L94.3403 120.544C93.9532 119.649 93.2636 118.759 92.5714 118.259L92.3609 118.107L92.5986 117.931C93.2754 117.432 93.9062 116.62 94.3251 115.709L94.4579 115.42L94.6176 115.764C94.7053 115.952 94.8363 116.208 94.9085 116.331Z" fill="black"/>
</svg>
