<svg width="160" height="159" viewBox="0 0 160 159" fill="none" xmlns="http://www.w3.org/2000/svg">
<path d="M160 79C160 123.183 124.183 159 80 159C35.8172 159 0 123.183 0 79C0 34.8172 35.8172 -1 80 -1C124.183 -1 160 34.8172 160 79Z" fill="#76E0A0"/>
<rect x="16.5" y="37.5" width="59" height="57" rx="3.5" fill="#EE6C4D" stroke="black"/>
<path d="M29.5469 55H28.416V51.0566H24.1152V55H22.9902V46.4688H24.1152V50.1367H28.416V46.4688H29.5469V55ZM32.998 46.4688L35.7871 53.4297L38.5762 46.4688H40.0352V55H38.9102V51.6777L39.0156 48.0918L36.2148 55H35.3535L32.5586 48.1094L32.6699 51.6777V55H31.5449V46.4688H32.998ZM43.8613 52.3105L44.0254 53.4355L44.2656 52.4219L45.9531 46.4688H46.9023L48.5488 52.4219L48.7832 53.4531L48.9648 52.3047L50.2891 46.4688H51.4199L49.3516 55H48.3262L46.5684 48.7832L46.4336 48.1328L46.2988 48.7832L44.4766 55H43.4512L41.3887 46.4688H42.5137L43.8613 52.3105ZM51.8008 54.4316C51.8008 54.2441 51.8555 54.0879 51.9648 53.9629C52.0781 53.8379 52.2461 53.7754 52.4688 53.7754C52.6914 53.7754 52.8594 53.8379 52.9727 53.9629C53.0898 54.0879 53.1484 54.2441 53.1484 54.4316C53.1484 54.6113 53.0898 54.7617 52.9727 54.8828C52.8594 55.0039 52.6914 55.0645 52.4688 55.0645C52.2461 55.0645 52.0781 55.0039 51.9648 54.8828C51.8555 54.7617 51.8008 54.6113 51.8008 54.4316ZM54.9648 54.4316C54.9648 54.2441 55.0195 54.0879 55.1289 53.9629C55.2422 53.8379 55.4102 53.7754 55.6328 53.7754C55.8555 53.7754 56.0234 53.8379 56.1367 53.9629C56.2539 54.0879 56.3125 54.2441 56.3125 54.4316C56.3125 54.6113 56.2539 54.7617 56.1367 54.8828C56.0234 55.0039 55.8555 55.0645 55.6328 55.0645C55.4102 55.0645 55.2422 55.0039 55.1289 54.8828C55.0195 54.7617 54.9648 54.6113 54.9648 54.4316ZM58.1289 54.4316C58.1289 54.2441 58.1836 54.0879 58.293 53.9629C58.4062 53.8379 58.5742 53.7754 58.7969 53.7754C59.0195 53.7754 59.1875 53.8379 59.3008 53.9629C59.418 54.0879 59.4766 54.2441 59.4766 54.4316C59.4766 54.6113 59.418 54.7617 59.3008 54.8828C59.1875 55.0039 59.0195 55.0645 58.7969 55.0645C58.5742 55.0645 58.4062 55.0039 58.293 54.8828C58.1836 54.7617 58.1289 54.6113 58.1289 54.4316Z" fill="black"/>
<rect x="91.5" y="55.5" width="59" height="57" rx="3.5" fill="#FFD4CA" stroke="black"/>
<path d="M104.547 73H103.416V69.0566H99.1152V73H97.9902V64.4688H99.1152V68.1367H103.416V64.4688H104.547V73ZM107.998 64.4688L110.787 71.4297L113.576 64.4688H115.035V73H113.91V69.6777L114.016 66.0918L111.215 73H110.354L107.559 66.1094L107.67 69.6777V73H106.545V64.4688H107.998ZM118.861 70.3105L119.025 71.4355L119.266 70.4219L120.953 64.4688H121.902L123.549 70.4219L123.783 71.4531L123.965 70.3047L125.289 64.4688H126.42L124.352 73H123.326L121.568 66.7832L121.434 66.1328L121.299 66.7832L119.477 73H118.451L116.389 64.4688H117.514L118.861 70.3105ZM126.801 72.4316C126.801 72.2441 126.855 72.0879 126.965 71.9629C127.078 71.8379 127.246 71.7754 127.469 71.7754C127.691 71.7754 127.859 71.8379 127.973 71.9629C128.09 72.0879 128.148 72.2441 128.148 72.4316C128.148 72.6113 128.09 72.7617 127.973 72.8828C127.859 73.0039 127.691 73.0645 127.469 73.0645C127.246 73.0645 127.078 73.0039 126.965 72.8828C126.855 72.7617 126.801 72.6113 126.801 72.4316ZM129.965 72.4316C129.965 72.2441 130.02 72.0879 130.129 71.9629C130.242 71.8379 130.41 71.7754 130.633 71.7754C130.855 71.7754 131.023 71.8379 131.137 71.9629C131.254 72.0879 131.312 72.2441 131.312 72.4316C131.312 72.6113 131.254 72.7617 131.137 72.8828C131.023 73.0039 130.855 73.0645 130.633 73.0645C130.41 73.0645 130.242 73.0039 130.129 72.8828C130.02 72.7617 129.965 72.6113 129.965 72.4316ZM133.129 72.4316C133.129 72.2441 133.184 72.0879 133.293 71.9629C133.406 71.8379 133.574 71.7754 133.797 71.7754C134.02 71.7754 134.188 71.8379 134.301 71.9629C134.418 72.0879 134.477 72.2441 134.477 72.4316C134.477 72.6113 134.418 72.7617 134.301 72.8828C134.188 73.0039 134.02 73.0645 133.797 73.0645C133.574 73.0645 133.406 73.0039 133.293 72.8828C133.184 72.7617 133.129 72.6113 133.129 72.4316Z" fill="black"/>
<line x1="23" y1="68" x2="61" y2="68" stroke="black" stroke-width="2" stroke-linecap="round"/>
<line x1="23" y1="77" x2="61" y2="77" stroke="black" stroke-width="2" stroke-linecap="round"/>
<line x1="97" y1="85" x2="135" y2="85" stroke="black" stroke-width="2" stroke-linecap="round"/>
<line x1="97" y1="94" x2="135" y2="94" stroke="black" stroke-width="2" stroke-linecap="round"/>
</svg>
