<svg width="86" height="86" viewBox="0 0 86 86" fill="none" xmlns="http://www.w3.org/2000/svg">
<path d="M8.69517 39.1222L12.1674 38.178C13.0127 37.9481 13.7783 37.8927 14.4639 38.0117C15.1554 38.1206 15.7339 38.3918 16.1996 38.8251C16.6732 39.2563 17.0056 39.8235 17.1968 40.5266C17.4589 41.4905 17.4726 42.3988 17.2379 43.2517C17.001 44.0967 16.5463 44.827 15.8737 45.4426C15.2069 46.0482 14.3639 46.4895 13.3447 46.7667L9.29179 47.8687L8.69517 39.1222ZM12.9754 45.1744C13.6232 44.9983 14.1476 44.7114 14.5486 44.3139C14.9553 43.9063 15.2207 43.4312 15.3446 42.8884C15.4663 42.3377 15.4456 41.7622 15.2823 41.1618C15.1126 40.5376 14.779 40.1065 14.2816 39.8685C13.782 39.6225 13.149 39.6037 12.3827 39.8121L10.7354 40.26L11.103 45.6836L12.9754 45.1744ZM24.889 39.6949C24.9685 39.9872 25.021 40.3208 25.0466 40.6957L20.1641 42.0233C20.4636 42.8752 21.1308 43.1604 22.1658 42.879C22.4897 42.7909 22.7839 42.6558 23.0483 42.4736C23.3205 42.2892 23.5415 42.0722 23.7112 41.8224L24.8134 42.8336C24.5352 43.2146 24.1863 43.5386 23.7668 43.8054C23.3472 44.0722 22.8846 44.2744 22.379 44.4119C21.7233 44.5902 21.1154 44.6324 20.5554 44.5387C20.0011 44.4348 19.5306 44.2022 19.1438 43.8407C18.7649 43.4771 18.4981 43.0109 18.3435 42.442C18.1523 41.7389 18.1384 41.0639 18.3019 40.417C18.4711 39.7601 18.7972 39.1963 19.2801 38.7256C19.7609 38.247 20.3647 37.9089 21.0915 37.7113C21.7077 37.5437 22.2722 37.5132 22.7848 37.6199C23.3053 37.7244 23.746 37.9567 24.1069 38.3167C24.4758 38.6746 24.7364 39.134 24.889 39.6949ZM21.3856 39.1203C20.951 39.2385 20.6159 39.4569 20.3801 39.7756C20.1422 40.0863 20.0159 40.4643 20.0012 40.9095L23.1653 40.0491C23.0536 39.6382 22.8363 39.3537 22.5132 39.1955C22.196 39.0272 21.8201 39.0022 21.3856 39.1203ZM28.7538 42.6784C28.2008 42.8288 27.6593 42.9124 27.1293 42.9292C26.6051 42.936 26.1779 42.8783 25.8477 42.7559L26.1946 41.2235C26.5205 41.33 26.896 41.3848 27.3211 41.388C27.7541 41.3891 28.1721 41.3348 28.575 41.2253C28.9937 41.1114 29.2918 40.9752 29.4693 40.8166C29.6447 40.6502 29.7055 40.4682 29.6518 40.2707C29.6088 40.1127 29.4868 40.0228 29.2857 40.0011C29.0847 39.9794 28.772 39.9839 28.3476 40.0144C27.8657 40.0521 27.4607 40.0604 27.1326 40.0393C26.8123 40.0161 26.5105 39.92 26.2269 39.7511C25.9492 39.5721 25.7555 39.2811 25.646 38.8782C25.4548 38.175 25.5978 37.5465 26.075 36.9925C26.5601 36.4363 27.2806 36.0283 28.2366 35.7684C28.679 35.6481 29.1225 35.5784 29.567 35.5593C30.0115 35.5403 30.4024 35.5739 30.7399 35.6604L30.4436 37.1918C29.8341 37.0097 29.162 37.0185 28.4272 37.2183C28.0243 37.3279 27.7323 37.4709 27.5512 37.6474C27.378 37.8218 27.3161 37.9998 27.3655 38.1815C27.4107 38.3474 27.5348 38.4452 27.738 38.4748C27.9391 38.4965 28.2647 38.4927 28.715 38.4636C29.1889 38.4281 29.5821 38.423 29.8944 38.4484C30.2125 38.4637 30.5094 38.5569 30.785 38.728C31.0606 38.8991 31.2521 39.1822 31.3595 39.5772C31.5529 40.2882 31.4019 40.919 30.9068 41.4694C30.4195 42.0176 29.7019 42.4206 28.7538 42.6784ZM32.2353 34.7828L34.0721 34.2834L34.5378 41.0038L32.7009 41.5033L32.2353 34.7828ZM33.2261 33.5589C32.9101 33.6448 32.6246 33.6249 32.3698 33.499C32.1207 33.3631 31.9597 33.1609 31.8866 32.8923C31.8007 32.5762 31.8404 32.2854 32.0058 32.0199C32.1769 31.7443 32.4442 31.5571 32.8076 31.4582C33.1315 31.3702 33.4169 31.3901 33.6638 31.5181C33.9165 31.6361 34.0783 31.8254 34.1492 32.0861C34.2416 32.4258 34.2022 32.7335 34.0311 33.0091C33.8578 33.2768 33.5895 33.4601 33.2261 33.5589ZM42.3653 32.0283L42.7542 37.6242C42.8437 38.8895 42.624 39.891 42.0949 40.6288C41.5738 41.3644 40.7483 41.8859 39.6185 42.1931C39.0023 42.3606 38.4141 42.4442 37.8541 42.4438C37.3019 42.4412 36.8025 42.3522 36.356 42.1766L36.8688 40.599C37.1796 40.7436 37.5487 40.8214 37.9759 40.8325C38.4132 40.8494 38.8531 40.7976 39.2955 40.6773C39.9196 40.5076 40.356 40.2405 40.6048 39.8759C40.8556 39.5192 40.9651 39.0482 40.9333 38.4629L40.9066 38.1775C40.5219 38.7912 39.9385 39.2043 39.1564 39.417C38.6271 39.5609 38.1201 39.5843 37.6355 39.487C37.1487 39.3817 36.7241 39.1621 36.3617 38.8279C36.0073 38.4916 35.7559 38.0508 35.6077 37.5057C35.4315 36.8579 35.4255 36.2274 35.5897 35.6143C35.7539 35.0012 36.0627 34.4675 36.5161 34.0133C36.9775 33.557 37.5439 33.2375 38.2155 33.0549C38.7132 32.9195 39.1735 32.8962 39.5964 32.9848C40.025 33.0634 40.3868 33.2705 40.6816 33.6061L40.5995 32.5084L42.3653 32.0283ZM39.2416 37.7648C39.7789 37.6187 40.174 37.3246 40.4271 36.8824C40.6802 36.4403 40.7327 35.9467 40.5844 35.4015C40.4792 35.0144 40.27 34.7446 39.9571 34.5922C39.642 34.4318 39.2592 34.4128 38.8089 34.5353C38.2638 34.6835 37.8607 34.9798 37.5997 35.4241C37.3466 35.8662 37.2942 36.3598 37.4424 36.905C37.5477 37.2921 37.7618 37.5648 38.0849 37.723C38.4057 37.8733 38.7913 37.8872 39.2416 37.7648ZM47.7694 30.457C48.4804 30.2636 49.0969 30.2996 49.6187 30.565C50.1384 30.8225 50.4928 31.2988 50.6818 31.994C50.7527 32.2547 50.7949 32.519 50.8083 32.7869L51.0576 36.5117L49.2089 37.0144L48.9681 33.4145C48.9632 33.2716 48.9393 33.1212 48.8963 32.9632C48.8061 32.6314 48.6465 32.4032 48.4175 32.2788C48.1885 32.1545 47.8923 32.1417 47.5289 32.2405C47.0549 32.3694 46.6975 32.6151 46.4567 32.9775C46.2216 33.3299 46.1229 33.7937 46.1605 34.3689L46.4003 37.7781L44.5516 38.2808L44.0859 31.5604L45.8398 31.0835L45.8845 31.8095C46.3115 31.1334 46.9398 30.6825 47.7694 30.457ZM58.7396 30.4902C58.8191 30.7825 58.8717 31.1161 58.8972 31.4909L54.0148 32.8186C54.3143 33.6704 54.9815 33.9557 56.0165 33.6742C56.3404 33.5862 56.6345 33.451 56.8989 33.2688C57.1712 33.0845 57.3922 32.8674 57.5618 32.6177L58.664 33.6288C58.3859 34.0099 58.037 34.3339 57.6174 34.6007C57.1979 34.8675 56.7353 35.0696 56.2297 35.2071C55.5739 35.3854 54.9661 35.4277 54.406 35.3339C53.8517 35.2301 53.3812 34.9975 52.9945 34.636C52.6156 34.2724 52.3488 33.8061 52.1941 33.2373C52.0029 32.5342 51.9891 31.8592 52.1526 31.2123C52.3218 30.5554 52.6479 29.9916 53.1308 29.5209C53.6115 29.0423 54.2153 28.7042 54.9422 28.5065C55.5584 28.339 56.1228 28.3085 56.6354 28.4152C57.156 28.5197 57.5967 28.752 57.9576 29.112C58.3264 29.4699 58.5871 29.9293 58.7396 30.4902ZM55.2362 29.9156C54.8017 30.0338 54.4666 30.2522 54.2308 30.5708C53.9929 30.8816 53.8666 31.2595 53.8519 31.7047L57.016 30.8443C56.9043 30.4335 56.6869 30.149 56.3639 29.9908C56.0466 29.8225 55.6708 29.7975 55.2362 29.9156ZM61.5964 27.6134C61.7913 27.238 62.064 26.9305 62.4146 26.691C62.7731 26.4493 63.217 26.2564 63.7463 26.1125L63.8786 27.9092C63.653 27.9536 63.5087 27.9843 63.4455 28.0015C62.8846 28.154 62.4718 28.4148 62.2073 28.7836C61.9507 29.1504 61.8426 29.6422 61.8831 30.259L62.1047 33.5078L60.256 34.0105L59.7903 27.29L61.5442 26.8131L61.5964 27.6134ZM65.6818 22.9899C65.9979 22.904 66.2815 22.9329 66.5327 23.0767C66.7918 23.2184 66.9643 23.4472 67.0503 23.7632C67.0954 23.9291 67.1078 24.0997 67.0876 24.2749C67.0731 24.44 67.022 24.6576 66.9341 24.9275L66.2797 27.1545L65.1065 27.4735L65.4884 25.3206C65.3204 25.2645 65.1725 25.1732 65.0448 25.0467C64.9228 24.9102 64.8361 24.7471 64.7845 24.5575C64.6857 24.1941 64.7236 23.8656 64.8983 23.572C65.0731 23.2785 65.3342 23.0844 65.6818 22.9899ZM71.0295 31.1827C70.4765 31.3331 69.935 31.4167 69.4051 31.4336C68.8809 31.4403 68.4536 31.3826 68.1234 31.2603L68.4703 29.7278C68.7963 29.8343 69.1718 29.8892 69.5969 29.8924C70.0299 29.8934 70.4478 29.8391 70.8507 29.7296C71.2695 29.6157 71.5676 29.4795 71.745 29.3209C71.9204 29.1545 71.9812 28.9725 71.9275 28.775C71.8845 28.617 71.7625 28.5271 71.5615 28.5054C71.3604 28.4837 71.0477 28.4882 70.6233 28.5187C70.1414 28.5564 69.7364 28.5647 69.4083 28.5437C69.0881 28.5204 68.7862 28.4244 68.5027 28.2554C68.2249 28.0764 68.0312 27.7854 67.9217 27.3825C67.7305 26.6794 67.8735 26.0508 68.3507 25.4968C68.8358 24.9407 69.5564 24.5326 70.5123 24.2727C70.9547 24.1524 71.3982 24.0827 71.8427 24.0636C72.2872 24.0446 72.6782 24.0783 73.0156 24.1647L72.7193 25.6961C72.1098 25.514 71.4377 25.5228 70.7029 25.7226C70.3 25.8322 70.008 25.9752 69.8269 26.1517C69.6537 26.3261 69.5919 26.5041 69.6413 26.6858C69.6864 26.8517 69.8105 26.9495 70.0137 26.9791C70.2148 27.0008 70.5404 26.9971 70.9907 26.968C71.4646 26.9324 71.8578 26.9273 72.1701 26.9527C72.4882 26.968 72.7851 27.0612 73.0607 27.2323C73.3363 27.4034 73.5278 27.6865 73.6352 28.0815C73.8286 28.7926 73.6777 29.4233 73.1825 29.9737C72.6952 30.5219 71.9776 30.9249 71.0295 31.1827ZM26.3344 51.5503L23.6798 52.2721L23.5744 50.6208L30.8033 48.6551L30.9087 50.3064L28.266 51.025L28.7454 58.1235L26.8256 58.6456L26.3344 51.5503ZM35.0221 56.5186C34.3822 56.6926 33.7851 56.7277 33.2308 56.6239C32.6844 56.5179 32.2189 56.2881 31.8343 55.9346C31.4554 55.5709 31.1887 55.1047 31.034 54.5359C30.8428 53.8327 30.8368 53.1556 31.0161 52.5044C31.1954 51.8533 31.5333 51.2862 32.0299 50.8034C32.5264 50.3205 33.1421 49.9791 33.8768 49.7793C34.5246 49.6032 35.1217 49.5681 35.6681 49.674C36.2145 49.78 36.6771 50.0148 37.056 50.3784C37.4406 50.732 37.7103 51.1932 37.8649 51.7621C38.0561 52.4652 38.0621 53.1423 37.8828 53.7935C37.7114 54.4425 37.3735 55.0095 36.869 55.4946C36.3725 55.9775 35.7568 56.3188 35.0221 56.5186ZM34.7249 54.9576C35.0804 54.861 35.3768 54.6871 35.6139 54.4359C35.8489 54.1769 36.0025 53.8678 36.0745 53.5089C36.1466 53.1499 36.1268 52.765 36.0151 52.3542C35.8969 51.9196 35.6771 51.6103 35.3555 51.4263C35.034 51.2422 34.6441 51.2125 34.1858 51.3371C33.8224 51.4359 33.5232 51.6148 33.2882 51.8739C33.0511 52.125 32.8964 52.4301 32.8244 52.7891C32.7523 53.148 32.7721 53.533 32.8838 53.9438C33.002 54.3783 33.2218 54.6876 33.5434 54.8717C33.8729 55.0536 34.2667 55.0822 34.7249 54.9576ZM42.7759 54.4102C42.136 54.5842 41.5389 54.6193 40.9846 54.5154C40.4382 54.4095 39.9728 54.1797 39.5881 53.8261C39.2093 53.4625 38.9425 52.9963 38.7878 52.4274C38.5966 51.7243 38.5907 51.0472 38.7699 50.396C38.9492 49.7448 39.2872 49.1778 39.7837 48.6949C40.2803 48.212 40.8959 47.8707 41.6306 47.6709C42.2785 47.4947 42.8756 47.4596 43.422 47.5656C43.9683 47.6716 44.4309 47.9064 44.8098 48.27C45.1944 48.6236 45.4641 49.0848 45.6188 49.6536C45.81 50.3568 45.8159 51.0339 45.6366 51.6851C45.4652 52.3341 45.1273 52.9011 44.6229 53.3861C44.1263 53.869 43.5107 54.2104 42.7759 54.4102ZM42.4787 52.8492C42.8343 52.7525 43.1306 52.5786 43.3678 52.3275C43.6028 52.0684 43.7563 51.7594 43.8284 51.4004C43.9005 51.0414 43.8806 50.6565 43.7689 50.2457C43.6508 49.8112 43.4309 49.5019 43.1094 49.3178C42.7878 49.1338 42.3979 49.104 41.9397 49.2286C41.5763 49.3275 41.277 49.5064 41.042 49.7654C40.8049 50.0166 40.6503 50.3216 40.5782 50.6806C40.5061 51.0396 40.5259 51.4245 40.6376 51.8353C40.7558 52.2699 40.9757 52.5792 41.2972 52.7632C41.6267 52.9451 42.0205 52.9738 42.4787 52.8492ZM46.5368 43.8423L48.3855 43.3396L49.0227 52.6097L47.174 53.1124L46.5368 43.8423ZM54.5109 47.2484L57.6829 50.2548L55.5379 50.8381L53.3475 48.7738L52.4763 50.0161L52.5871 51.6405L50.7384 52.1432L50.1012 42.8731L51.9499 42.3704L52.3037 47.5559L54.6812 44.224L57.0869 43.5698L54.5109 47.2484ZM57.8646 43.3584L59.7014 42.8589L60.1671 49.5793L58.3302 50.0788L57.8646 43.3584ZM58.8553 42.1344C58.5393 42.2204 58.2539 42.2004 57.9991 42.0745C57.75 41.9386 57.589 41.7364 57.5159 41.4678C57.43 41.1518 57.4697 40.861 57.6351 40.5954C57.8062 40.3198 58.0734 40.1326 58.4368 40.0338C58.7608 39.9457 59.0462 39.9656 59.2931 40.0936C59.5458 40.2116 59.7076 40.4009 59.7785 40.6616C59.8708 41.0014 59.8315 41.309 59.6604 41.5846C59.4871 41.8523 59.2188 42.0356 58.8553 42.1344ZM63.7832 46.1779C63.7845 46.2454 63.8003 46.3345 63.8303 46.4451C63.9421 46.8559 64.2231 47.0001 64.6734 46.8776C64.9183 46.811 65.1468 46.6683 65.3588 46.4495L65.989 47.6908C65.6469 48.0553 65.152 48.3256 64.5041 48.5018C63.9037 48.6651 63.3788 48.6381 62.9295 48.4209C62.4801 48.2037 62.1803 47.8186 62.0299 47.2656C61.9869 47.1076 61.9562 46.9165 61.9377 46.6925L61.748 43.9823L60.7644 44.2498L60.6621 42.7504L61.6457 42.4829L61.5317 40.8467L63.3804 40.344L63.4944 41.9802L65.0824 41.5484L65.1847 43.0478L63.5967 43.4796L63.7832 46.1779Z" fill="white"/>
<path d="M83.9549 42.515C83.9549 65.403 65.4011 83.9573 42.5138 83.9573C19.6266 83.9573 1.07273 65.403 1.07273 42.515C1.07273 19.627 19.6266 1.07273 42.5138 1.07273C65.4011 1.07273 83.9549 19.627 83.9549 42.515Z" stroke="white" stroke-width="2.14547"/>
</svg>
