<svg width="162" height="162" viewBox="0 0 162 162" fill="none" xmlns="http://www.w3.org/2000/svg">
<path d="M162 81C162 125.735 125.735 162 81 162C36.2649 162 0 125.735 0 81C0 36.2649 36.2649 0 81 0C125.735 0 162 36.2649 162 81Z" fill="#305346"/>
<rect x="12.5" y="65.3797" width="122.074" height="17.3692" rx="8.68462" fill="white" stroke="black"/>
<line x1="23" y1="73.8582" x2="106" y2="73.8582" stroke="#85953A" stroke-width="10" stroke-linecap="round"/>
<path d="M123.663 80.0525H122.923H122.685C122.464 80.0525 122.075 79.982 121.728 79.9051C121.367 79.8251 120.969 79.7195 120.711 79.622L120.711 79.622C118.5 78.7866 116.854 76.6304 115.902 73.5825C115.706 72.9525 115.493 72.0463 115.329 71.2118C115.168 70.3916 115.043 69.5809 115.042 69.1628C115.042 69.1628 115.042 69.1628 115.042 69.1627L115.542 69.1618C115.542 69.0212 115.693 69.0133 118 69.0343L123.663 80.0525ZM123.663 80.0525L123.387 79.3661L122.969 78.3251L123.663 80.0525ZM142.087 79.6238L142.087 79.6238C141.826 79.7214 141.428 79.8266 141.067 79.9062C140.719 79.9828 140.331 80.0525 140.11 80.0525H139.866H139.111L139.405 79.3575L139.72 78.6139C139.72 78.6139 139.72 78.6139 139.72 78.6139C140.728 76.2336 141.446 73.1945 141.739 70.0305L141.739 70.0304C141.763 69.7701 141.788 69.5248 141.81 69.3386C141.821 69.246 141.832 69.1649 141.841 69.1026C141.846 69.072 141.851 69.0414 141.856 69.0143C141.859 69.001 141.862 68.9835 141.867 68.9649C141.869 68.9579 141.881 68.9076 141.908 68.8528M142.087 79.6238L141.908 68.8528M142.087 79.6238C142.421 79.4989 142.84 79.2681 143.227 79.0192C143.616 78.7689 144.009 78.4769 144.283 78.2135C145.592 76.9565 146.611 74.8921 147.215 72.4079L146.73 72.2896M142.087 79.6238L146.73 72.2896M141.908 68.8528C141.964 68.7435 142.043 68.6847 142.077 68.662M141.908 68.8528L142.077 68.662M146.73 72.2896L147.215 72.4079M146.73 72.2896L147.215 72.4079M147.215 72.4079C147.332 71.9277 147.467 71.2373 147.571 70.6196M147.215 72.4079L147.571 70.6196M147.571 70.6196C147.673 70.0216 147.758 69.4287 147.758 69.1757M147.571 70.6196L147.758 69.1757M147.758 69.1757V69.1745C147.758 69.1411 147.758 69.031 147.702 68.9121C147.637 68.7723 147.529 68.6864 147.43 68.6372C147.282 68.5634 147.097 68.5473 146.953 68.5377C146.616 68.5154 145.984 68.5142 144.822 68.5142C144.15 68.5142 143.533 68.5214 143.08 68.5331M147.758 69.1757L143.08 68.5331M143.08 68.5331C142.854 68.5389 142.666 68.546 142.53 68.5541M143.08 68.5331L142.53 68.5541M142.53 68.5541C142.463 68.5581 142.401 68.5627 142.352 68.5687M142.53 68.5541L142.352 68.5687M142.352 68.5687C142.329 68.5714 142.295 68.5759 142.26 68.5838M142.352 68.5687L142.26 68.5838M142.26 68.5838C142.245 68.5873 142.211 68.5955 142.171 68.6115M142.26 68.5838L142.171 68.6115M142.171 68.6115C142.152 68.6195 142.116 68.6352 142.077 68.662M142.171 68.6115L142.077 68.662M120.317 66.6671L120.805 66.6642L120.814 66.1764L120.834 65.0928L120.845 64.5H131.4H141.955L141.966 65.0928L141.986 66.1764L141.995 66.6642L142.483 66.6671L146.125 66.6892L149.269 66.7082V67.173C149.269 69.9954 148.648 73.3402 147.702 75.654C147.156 76.9875 146.558 77.9984 145.766 78.9407C144.717 80.1891 143.812 80.8594 142.517 81.3729C141.561 81.7519 140.857 81.8795 139.567 81.8899L138.374 81.8995L138.112 81.9016L137.965 82.1175L137.5 82.7974L137.913 83.0794L137.5 82.7974C136.459 84.3225 135.119 85.603 133.912 86.2635L133.313 86.5912L133.053 86.7334V87.0298V90.1326V93.2352V93.7352H133.553H136.208H138.362V95.1899V97.1446V97.6446H138.862H139.759H140.156V98.2494V98.8542H131.4H122.644V98.2494V97.6446H123.041H123.937H124.437V97.1446V95.1899V93.7352H126.592H129.247H129.747V93.2352V90.1326V87.0298V86.7334L129.487 86.5912L128.888 86.2635C128.888 86.2635 128.888 86.2635 128.888 86.2635C127.681 85.603 126.341 84.3225 125.3 82.7974L124.887 83.0794L125.3 82.7974L124.835 82.1175L124.688 81.9016L124.426 81.8995L123.233 81.8899C121.945 81.8796 121.241 81.7522 120.283 81.3736C118.07 80.4993 116.298 78.5871 115.098 75.6541C114.152 73.3402 113.531 69.9955 113.531 67.173V66.7082L116.675 66.6892L120.317 66.6671Z" fill="#FCE4A8" stroke="black"/>
<path d="M34.5 67.809L35.7216 71.5686L35.7777 71.7414H35.9593H39.9124L36.7143 74.065L36.5674 74.1717L36.6235 74.3445L37.8451 78.1041L34.6469 75.7805L34.5 75.6738L34.3531 75.7805L31.1549 78.1041L32.3765 74.3445L32.4326 74.1717L32.2857 74.065L29.0876 71.7414H33.0407H33.2223L33.2784 71.5686L34.5 67.809Z" fill="#F1BF3C" stroke="black" stroke-width="0.5"/>
<path d="M65 67.7569L66.3356 71.574L66.3942 71.7414H66.5716H70.8398L67.4031 74.06L67.2432 74.1678L67.3069 74.3498L68.6297 78.1299L65.1398 75.7755L65 75.6812L64.8602 75.7755L61.3703 78.1299L62.6931 74.3498L62.7568 74.1678L62.5969 74.06L59.1602 71.7414H63.4284H63.6058L63.6644 71.574L65 67.7569Z" fill="#F1BF3C" stroke="black" stroke-width="0.5"/>
<path d="M94.5 67.809L95.7216 71.5686L95.7777 71.7414H95.9593H99.9124L96.7143 74.065L96.5674 74.1717L96.6235 74.3445L97.8451 78.1041L94.6469 75.7805L94.5 75.6738L94.3531 75.7805L91.1549 78.1041L92.3765 74.3445L92.4326 74.1717L92.2857 74.065L89.0876 71.7414H93.0407H93.2223L93.2784 71.5686L94.5 67.809Z" fill="#F1BF3C" stroke="black" stroke-width="0.5"/>
</svg>
