<svg xmlns="http://www.w3.org/2000/svg" width="330.172" height="330.172" viewBox="0 0 330.172 330.172">
  <g id="Group_114" data-name="Group 114" transform="translate(-740.486 -581)">
    <path id="Path_49" data-name="Path 49" d="M165.086,0A165.086,165.086,0,1,1,0,165.086,165.086,165.086,0,0,1,165.086,0Z" transform="translate(740.486 581)" fill="#e2b171"/>
    <g id="Group_113" data-name="Group 113" transform="translate(749.519 686.454)">
      <g id="Group_99" data-name="Group 99" transform="translate(85.29 55.136)">
        <g id="Group_100" data-name="Group 100" transform="translate(0 32.064)">
          <g id="Group_123" data-name="Group 123" transform="translate(0)">
            <line id="Line_82" data-name="Line 82" x2="19.418" fill="none" stroke="#707070" stroke-linecap="round" stroke-width="3"/>
          </g>
          <line id="Line_82-2" data-name="Line 82" x2="19.418" transform="translate(114.513)" fill="none" stroke="#707070" stroke-linecap="round" stroke-width="3"/>
        </g>
        <g id="Group_82" data-name="Group 82" transform="translate(18.322 0)">
          <g id="Path_47" data-name="Path 47" transform="translate(0)" fill="#fff">
            <path d="M 48.09560012817383 62.62746810913086 C 41.74038696289062 62.62746810913086 35.57869338989258 61.79865646362305 29.78170585632324 60.16404342651367 C 24.20576095581055 58.59175109863281 19.2052001953125 56.34565734863281 14.91892051696777 53.48813629150391 C 10.67732048034668 50.66040420532227 7.355639934539795 47.38092422485352 5.046186923980713 43.74080276489258 C 2.693106889724731 40.03193664550781 1.50000011920929 36.10320281982422 1.50000011920929 32.06373596191406 C 1.50000011920929 28.02426910400391 2.693106889724731 24.09553527832031 5.046186923980713 20.38666915893555 C 7.355639934539795 16.74654960632324 10.67732048034668 13.46706962585449 14.91892051696777 10.63933563232422 C 19.2052001953125 7.781816005706787 24.20576095581055 5.535722732543945 29.78170585632324 3.96342921257019 C 35.57869338989258 2.328815937042236 41.74038696289062 1.50000262260437 48.09560012817383 1.50000262260437 C 54.45082855224609 1.50000262260437 60.61250686645508 2.328815937042236 66.40949249267578 3.96342921257019 C 71.98544311523438 5.535722732543945 76.98601531982422 7.781816005706787 81.27227783203125 10.63933563232422 C 85.51389312744141 13.46706962585449 88.83556365966797 16.74654960632324 91.14502716064453 20.38666915893555 C 93.49809265136719 24.09553527832031 94.69120025634766 28.02425575256348 94.69120025634766 32.06373596191406 C 94.69120025634766 36.10321426391602 93.49809265136719 40.03193664550781 91.14502716064453 43.74080276489258 C 88.83556365966797 47.38092422485352 85.51389312744141 50.66040420532227 81.27227783203125 53.48813629150391 C 76.98601531982422 56.34565734863281 71.98544311523438 58.59175109863281 66.40949249267578 60.16404342651367 C 60.61250686645508 61.79865646362305 54.45082855224609 62.62746810913086 48.09560012817383 62.62746810913086 Z" stroke="none"/>
            <path d="M 48.09560012817383 2.999996185302734 C 41.87803268432617 2.999996185302734 35.85330963134766 3.80987548828125 30.18879699707031 5.407135009765625 C 24.76409149169922 6.936767578125 19.90650939941406 9.117042541503906 15.75098419189453 11.88739776611328 C 11.68476867675781 14.59821319580078 8.509292602539062 17.72813415527344 6.312767028808594 21.19025802612305 C 4.114585876464844 24.65499877929688 3 28.3133659362793 3 32.06373596191406 C 3 35.81410598754883 4.114585876464844 39.47247314453125 6.312767028808594 42.93721008300781 C 8.509292602539062 46.39933776855469 11.68476867675781 49.52925872802734 15.75098419189453 52.24007415771484 C 19.90650939941406 55.01042938232422 24.76409149169922 57.19070434570312 30.18879699707031 58.7203369140625 C 35.85330963134766 60.31759643554688 41.87803268432617 61.12747573852539 48.09560012817383 61.12747573852539 C 54.31316757202148 61.12747573852539 60.337890625 60.31759643554688 66.00239562988281 58.7203369140625 C 71.4271240234375 57.19070434570312 76.28470611572266 55.01042938232422 80.44023132324219 52.24007415771484 C 84.50643157958984 49.52925872802734 87.68190765380859 46.39933776855469 89.87843322753906 42.93721008300781 C 92.07661437988281 39.47247314453125 93.19120025634766 35.81410598754883 93.19120025634766 32.06373596191406 C 93.19120025634766 28.3133659362793 92.07661437988281 24.65499877929688 89.87843322753906 21.19025802612305 C 87.68190765380859 17.72813415527344 84.50643157958984 14.59821319580078 80.44023132324219 11.88739776611328 C 76.28470611572266 9.117042541503906 71.4271240234375 6.936767578125 66.00239562988281 5.407135009765625 C 60.337890625 3.80987548828125 54.31316757202148 2.999996185302734 48.09560012817383 2.999996185302734 M 48.09560012817383 0 C 74.6580810546875 0 96.19120025634766 14.35542678833008 96.19120025634766 32.06373596191406 C 96.19120025634766 49.77204132080078 74.6580810546875 64.12747192382812 48.09560012817383 64.12747192382812 C 21.53314208984375 64.12747192382812 0 49.77204132080078 0 32.06373596191406 C 0 14.35542678833008 21.53314208984375 0 48.09560012817383 0 Z" stroke="none" fill="#a382ff"/>
          </g>
        </g>
      </g>
      <g id="Group_112" data-name="Group 112" transform="translate(136.249 71.74)">
        <path id="Icon_awesome-lightbulb" data-name="Icon awesome-lightbulb" d="M3.867,18.291A1.289,1.289,0,0,0,4.083,19l.688,1.034a1.288,1.288,0,0,0,1.072.575H8.328A1.288,1.288,0,0,0,9.4,20.038L10.088,19a1.288,1.288,0,0,0,.216-.712l0-1.544H3.865l0,1.544ZM0,7.085a7.046,7.046,0,0,0,1.754,4.661,11.569,11.569,0,0,1,2.1,3.682l0,.031h6.451l0-.031a11.569,11.569,0,0,1,2.1-3.682A7.084,7.084,0,1,0,0,7.085ZM7.086,3.865A3.224,3.224,0,0,0,3.865,7.085a.644.644,0,1,1-1.288,0A4.514,4.514,0,0,1,7.086,2.577a.644.644,0,1,1,0,1.288Z" transform="translate(8.374 11.04)" fill="#f9e634" stroke="#8d8d8d" stroke-width="0.5"/>
        <line id="Line_29" data-name="Line 29" y1="6.871" transform="translate(16.032 0)" fill="none" stroke="#f9e634" stroke-width="1"/>
        <line id="Line_30" data-name="Line 30" x1="5.726" y1="5.726" transform="translate(0 4.581)" fill="none" stroke="#f9e634" stroke-width="1"/>
        <line id="Line_31" data-name="Line 31" y1="5.726" x2="4.581" transform="translate(26.338 4.581)" fill="none" stroke="#f9e634" stroke-width="1"/>
      </g>
      <g id="Group_122" data-name="Group 122" transform="translate(0)">
        <g id="Group_104" data-name="Group 104" transform="matrix(0.53, 0.848, -0.848, 0.53, 40.71, 29.591)">
          <g id="Group_98" data-name="Group 98">
            <path id="Path_48" data-name="Path 48" d="M46.877,0,0,15.522" transform="translate(0 0)" fill="none" stroke="#707070" stroke-linecap="round" stroke-width="3"/>
          </g>
        </g>
        <g id="Group_105" data-name="Group 105" transform="matrix(-0.485, 0.875, -0.875, -0.485, 107.679, 40.08)">
          <g id="Group_98-2" data-name="Group 98" transform="translate(0 0)">
            <line id="Line_82-3" data-name="Line 82" x1="46.801" y1="24.415" transform="translate(0 0)" fill="none" stroke="#707070" stroke-linecap="round" stroke-width="3"/>
          </g>
        </g>
        <g id="Group_121" data-name="Group 121" transform="translate(33.862 67.458)">
          <g id="Group_101" data-name="Group 101">
            <g id="Ellipse_34" data-name="Ellipse 34" transform="translate(0 0)" fill="#fff" stroke="#9fff8d" stroke-width="3">
              <ellipse cx="30.06" cy="20.04" rx="30.06" ry="20.04" stroke="none"/>
              <ellipse cx="30.06" cy="20.04" rx="28.56" ry="18.54" fill="none"/>
            </g>
          </g>
          <path id="Icon_material-nature" data-name="Icon material-nature" d="M16.311,18.62a7.753,7.753,0,1,0-2.2-.066v4.34H7.5v2.2H22.92v-2.2H16.311Z" transform="translate(14.759 5.864)" fill="#61b252"/>
        </g>
        <g id="Group_119" data-name="Group 119" transform="translate(76.129 1.145)">
          <g id="Group_111" data-name="Group 111">
            <g id="Ellipse_34-2" data-name="Ellipse 34" fill="#fff" stroke="#9fff8d" stroke-width="3">
              <ellipse cx="30.06" cy="20.04" rx="30.06" ry="20.04" stroke="none"/>
              <ellipse cx="30.06" cy="20.04" rx="28.56" ry="18.54" fill="none"/>
            </g>
          </g>
          <path id="Icon_awesome-sun" data-name="Icon awesome-sun" d="M11.849,7.406a4.443,4.443,0,1,0,4.443,4.443A4.451,4.451,0,0,0,11.849,7.406Zm11.4,3.726L18.871,8.943,20.422,4.3a.8.8,0,0,0-1.014-1.014L14.761,4.832,12.567.444a.8.8,0,0,0-1.435,0L8.943,4.828,4.291,3.277A.8.8,0,0,0,3.277,4.291L4.828,8.938.444,11.132a.8.8,0,0,0,0,1.435l4.383,2.189L3.277,19.408a.8.8,0,0,0,1.014,1.014l4.647-1.551,2.189,4.383a.8.8,0,0,0,1.435,0l2.189-4.383L19.4,20.422a.8.8,0,0,0,1.014-1.014l-1.551-4.647,4.383-2.189a.8.8,0,0,0,.009-1.44Zm-7.216,4.906a5.924,5.924,0,1,1,0-8.378A5.931,5.931,0,0,1,16.038,16.038Z" transform="translate(18.21 8.191)" fill="#61b252"/>
        </g>
        <g id="Group_120" data-name="Group 120">
          <g id="Group_110" data-name="Group 110">
            <g id="Ellipse_34-3" data-name="Ellipse 34" transform="translate(0)" fill="#fff" stroke="#9fff8d" stroke-width="3">
              <ellipse cx="30.06" cy="20.04" rx="30.06" ry="20.04" stroke="none"/>
              <ellipse cx="30.06" cy="20.04" rx="28.56" ry="18.54" fill="none"/>
            </g>
          </g>
          <path id="Icon_awesome-seedling" data-name="Icon awesome-seedling" d="M3.208,3.213H0A11.238,11.238,0,0,0,11.227,14.46v7.23a.8.8,0,0,0,.8.8h1.6a.8.8,0,0,0,.8-.8V14.46A11.238,11.238,0,0,0,3.208,3.213ZM22.455,0a11.215,11.215,0,0,0-9.809,5.784,12.878,12.878,0,0,1,2.957,5.4A11.243,11.243,0,0,0,25.663,0Z" transform="translate(17.228 8.793)" fill="#61b252"/>
        </g>
      </g>
      <g id="Group_118" data-name="Group 118" transform="translate(175.858)">
        <g id="Group_106" data-name="Group 106" transform="matrix(0.53, 0.848, -0.848, 0.53, 41.419, 29.957)">
          <g id="Group_98-3" data-name="Group 98" transform="translate(0)">
            <line id="Line_82-4" data-name="Line 82" x1="46.246" y2="15.663" transform="translate(0)" fill="none" stroke="#707070" stroke-linecap="round" stroke-width="3"/>
          </g>
          <path id="Path_46" data-name="Path 46" d="M0,0" transform="translate(13.251 19.047)" fill="none" stroke="#707070" stroke-linecap="round" stroke-width="3"/>
        </g>
        <g id="Group_107" data-name="Group 107" transform="matrix(-0.485, 0.875, -0.875, -0.485, 107.151, 39.402)">
          <g id="Group_98-4" data-name="Group 98" transform="translate(0 0)">
            <line id="Line_82-5" data-name="Line 82" x1="48.139" y1="23.07" transform="translate(0 0)" fill="none" stroke="#707070" stroke-linecap="round" stroke-width="3"/>
          </g>
        </g>
        <g id="Group_115" data-name="Group 115" transform="translate(34.354 67.458)">
          <g id="Group_102" data-name="Group 102">
            <g id="Ellipse_34-4" data-name="Ellipse 34" transform="translate(0 0)" fill="#fff" stroke="#4de5eb" stroke-width="3">
              <ellipse cx="30.06" cy="20.04" rx="30.06" ry="20.04" stroke="none"/>
              <ellipse cx="30.06" cy="20.04" rx="28.56" ry="18.54" fill="none"/>
            </g>
          </g>
          <path id="Icon_ionic-md-car" data-name="Icon ionic-md-car" d="M22.4,7.876A1.64,1.64,0,0,0,20.828,6.75H8.441A1.64,1.64,0,0,0,6.864,7.876L4.5,14.069v8.445a1.13,1.13,0,0,0,1.126,1.126H6.752a1.13,1.13,0,0,0,1.126-1.126v-.563H21.391v.563a1.13,1.13,0,0,0,1.126,1.126h1.126a1.13,1.13,0,0,0,1.126-1.126V14.069ZM8.441,18.574a1.689,1.689,0,1,1,1.689-1.689A1.659,1.659,0,0,1,8.441,18.574Zm12.386,0a1.689,1.689,0,1,1,1.689-1.689A1.659,1.659,0,0,1,20.828,18.574ZM6.752,12.943l1.689-4.5H20.828l1.689,4.5Z" transform="translate(15.426 4.272)" fill="#888"/>
        </g>
        <g id="Group_116" data-name="Group 116">
          <g id="Group_108" data-name="Group 108">
            <g id="Ellipse_34-5" data-name="Ellipse 34" transform="translate(0)" fill="#fff" stroke="#4de5eb" stroke-width="3">
              <ellipse cx="30.06" cy="20.04" rx="30.06" ry="20.04" stroke="none"/>
              <ellipse cx="30.06" cy="20.04" rx="28.56" ry="18.54" fill="none"/>
            </g>
          </g>
          <path id="Icon_awesome-truck-moving" data-name="Icon awesome-truck-moving" d="M20.161,6.662l-1.9-1.9a2.077,2.077,0,0,0-1.47-.607H15.576V1.038A1.037,1.037,0,0,0,14.537,0H1.038A1.037,1.037,0,0,0,0,1.038v10.9a2.59,2.59,0,0,0,4.673,1.545,2.59,2.59,0,0,0,4.673-1.545,2.735,2.735,0,0,0-.052-.519h5.3a2.494,2.494,0,0,0-.052.519,2.6,2.6,0,1,0,5.192,0,2.735,2.735,0,0,0-.052-.519h.571a.521.521,0,0,0,.519-.519V8.129A2.07,2.07,0,0,0,20.161,6.662ZM2.6,12.98a1.038,1.038,0,1,1,1.038-1.038A1.041,1.041,0,0,1,2.6,12.98Zm4.154,0a1.038,1.038,0,1,1,1.038-1.038A1.041,1.041,0,0,1,6.75,12.98Zm8.826-7.269h1.217a.515.515,0,0,1,.367.153l1.405,1.405H15.576Zm1.558,7.269a1.038,1.038,0,1,1,1.038-1.038A1.041,1.041,0,0,1,17.133,12.98Z" transform="translate(19.678 12.771)" fill="#888"/>
        </g>
        <g id="Group_117" data-name="Group 117" transform="translate(76.129 1.145)">
          <g id="Group_109" data-name="Group 109">
            <g id="Ellipse_34-6" data-name="Ellipse 34" transform="translate(0)" fill="#fff" stroke="#4de5eb" stroke-width="3">
              <ellipse cx="30.06" cy="20.04" rx="30.06" ry="20.04" stroke="none"/>
              <ellipse cx="30.06" cy="20.04" rx="28.56" ry="18.54" fill="none"/>
            </g>
          </g>
          <path id="Icon_awesome-screwdriver" data-name="Icon awesome-screwdriver" d="M18.036,0,12.883,3.865v2.5L9.54,9.706a3.964,3.964,0,0,1,1.366,1.366L14.249,7.73h2.5l3.865-5.153ZM5.153,11.215.44,15.929a1.5,1.5,0,0,0,0,2.122l2.122,2.122a1.5,1.5,0,0,0,2.122,0L9.4,15.459a3,3,0,1,0-4.244-4.244Z" transform="translate(19.754 9.734)" fill="#888"/>
        </g>
      </g>
    </g>
  </g>
</svg>
