<svg width="39" height="39" viewBox="0 0 39 39" fill="none" xmlns="http://www.w3.org/2000/svg">
<path d="M27.5833 24.3333H25.8717L25.265 23.7483C27.3883 21.2783 28.6667 18.0717 28.6667 14.5833C28.6667 6.805 22.3617 0.5 14.5833 0.5C6.805 0.5 0.5 6.805 0.5 14.5833C0.5 22.3617 6.805 28.6667 14.5833 28.6667C18.0717 28.6667 21.2783 27.3883 23.7483 25.265L24.3333 25.8717V27.5833L35.1667 38.395L38.395 35.1667L27.5833 24.3333ZM14.5833 24.3333C9.18833 24.3333 4.83333 19.9783 4.83333 14.5833C4.83333 9.18833 9.18833 4.83333 14.5833 4.83333C19.9783 4.83333 24.3333 9.18833 24.3333 14.5833C24.3333 19.9783 19.9783 24.3333 14.5833 24.3333Z" fill="white"/>
</svg>
