<svg width="151" height="51" viewBox="0 0 151 51" fill="none" xmlns="http://www.w3.org/2000/svg">
<rect width="151" height="51" rx="25.5" fill="#EE6C4D"/>
<path d="M46.634 31.216C45.638 31.216 44.672 31.084 43.736 30.82C42.812 30.544 42.068 30.19 41.504 29.758L42.494 27.562C43.034 27.958 43.676 28.276 44.42 28.516C45.164 28.756 45.908 28.876 46.652 28.876C47.48 28.876 48.092 28.756 48.488 28.516C48.884 28.264 49.082 27.934 49.082 27.526C49.082 27.226 48.962 26.98 48.722 26.788C48.494 26.584 48.194 26.422 47.822 26.302C47.462 26.182 46.97 26.05 46.346 25.906C45.386 25.678 44.6 25.45 43.988 25.222C43.376 24.994 42.848 24.628 42.404 24.124C41.972 23.62 41.756 22.948 41.756 22.108C41.756 21.376 41.954 20.716 42.35 20.128C42.746 19.528 43.34 19.054 44.132 18.706C44.936 18.358 45.914 18.184 47.066 18.184C47.87 18.184 48.656 18.28 49.424 18.472C50.192 18.664 50.864 18.94 51.44 19.3L50.54 21.514C49.376 20.854 48.212 20.524 47.048 20.524C46.232 20.524 45.626 20.656 45.23 20.92C44.846 21.184 44.654 21.532 44.654 21.964C44.654 22.396 44.876 22.72 45.32 22.936C45.776 23.14 46.466 23.344 47.39 23.548C48.35 23.776 49.136 24.004 49.748 24.232C50.36 24.46 50.882 24.82 51.314 25.312C51.758 25.804 51.98 26.47 51.98 27.31C51.98 28.03 51.776 28.69 51.368 29.29C50.972 29.878 50.372 30.346 49.568 30.694C48.764 31.042 47.786 31.216 46.634 31.216ZM53.7745 21.316H56.5825V31H53.7745V21.316ZM55.1785 19.966C54.6625 19.966 54.2425 19.816 53.9185 19.516C53.5945 19.216 53.4325 18.844 53.4325 18.4C53.4325 17.956 53.5945 17.584 53.9185 17.284C54.2425 16.984 54.6625 16.834 55.1785 16.834C55.6945 16.834 56.1145 16.978 56.4385 17.266C56.7625 17.554 56.9245 17.914 56.9245 18.346C56.9245 18.814 56.7625 19.204 56.4385 19.516C56.1145 19.816 55.6945 19.966 55.1785 19.966ZM69.1786 21.316V29.38C69.1786 31.156 68.7166 32.476 67.7926 33.34C66.8686 34.204 65.5186 34.636 63.7426 34.636C62.8066 34.636 61.9186 34.522 61.0786 34.294C60.2386 34.066 59.5426 33.736 58.9906 33.304L60.1066 31.288C60.5146 31.624 61.0306 31.888 61.6546 32.08C62.2786 32.284 62.9026 32.386 63.5266 32.386C64.4986 32.386 65.2126 32.164 65.6686 31.72C66.1366 31.288 66.3706 30.628 66.3706 29.74V29.326C65.6386 30.13 64.6186 30.532 63.3106 30.532C62.4226 30.532 61.6066 30.34 60.8626 29.956C60.1306 29.56 59.5486 29.008 59.1166 28.3C58.6846 27.592 58.4686 26.776 58.4686 25.852C58.4686 24.928 58.6846 24.112 59.1166 23.404C59.5486 22.696 60.1306 22.15 60.8626 21.766C61.6066 21.37 62.4226 21.172 63.3106 21.172C64.7146 21.172 65.7826 21.634 66.5146 22.558V21.316H69.1786ZM63.8686 28.228C64.6126 28.228 65.2186 28.012 65.6866 27.58C66.1666 27.136 66.4066 26.56 66.4066 25.852C66.4066 25.144 66.1666 24.574 65.6866 24.142C65.2186 23.698 64.6126 23.476 63.8686 23.476C63.1246 23.476 62.5126 23.698 62.0326 24.142C61.5526 24.574 61.3126 25.144 61.3126 25.852C61.3126 26.56 61.5526 27.136 62.0326 27.58C62.5126 28.012 63.1246 28.228 63.8686 28.228ZM77.6781 21.172C78.8781 21.172 79.8441 21.532 80.5761 22.252C81.3201 22.972 81.6921 24.04 81.6921 25.456V31H78.8841V25.888C78.8841 25.12 78.7161 24.55 78.3801 24.178C78.0441 23.794 77.5581 23.602 76.9221 23.602C76.2141 23.602 75.6501 23.824 75.2301 24.268C74.8101 24.7 74.6001 25.348 74.6001 26.212V31H71.7921V21.316H74.4741V22.45C74.8461 22.042 75.3081 21.73 75.8601 21.514C76.4121 21.286 77.0181 21.172 77.6781 21.172ZM89.3351 21.316H92.1431V31H89.3351V21.316ZM90.7391 19.966C90.2231 19.966 89.8031 19.816 89.4791 19.516C89.1551 19.216 88.9931 18.844 88.9931 18.4C88.9931 17.956 89.1551 17.584 89.4791 17.284C89.8031 16.984 90.2231 16.834 90.7391 16.834C91.2551 16.834 91.6751 16.978 91.9991 17.266C92.3231 17.554 92.4851 17.914 92.4851 18.346C92.4851 18.814 92.3231 19.204 91.9991 19.516C91.6751 19.816 91.2551 19.966 90.7391 19.966ZM100.635 21.172C101.835 21.172 102.801 21.532 103.533 22.252C104.277 22.972 104.649 24.04 104.649 25.456V31H101.841V25.888C101.841 25.12 101.673 24.55 101.337 24.178C101.001 23.794 100.515 23.602 99.8791 23.602C99.1711 23.602 98.6071 23.824 98.1871 24.268C97.7671 24.7 97.5571 25.348 97.5571 26.212V31H94.7491V21.316H97.4311V22.45C97.8031 22.042 98.2651 21.73 98.8171 21.514C99.3691 21.286 99.9751 21.172 100.635 21.172Z" fill="white"/>
</svg>
