<svg xmlns="http://www.w3.org/2000/svg" width="180.445" height="180.445" viewBox="0 0 180.445 180.445">
  <g id="Group_124" data-name="Group 124" transform="translate(-1113.744 -552.681)">
    <path id="Path_50" data-name="Path 50" d="M90.223,0A90.223,90.223,0,1,1,0,90.223,90.223,90.223,0,0,1,90.223,0Z" transform="translate(1113.744 552.681)" fill="#9eb3ee"/>
    <g id="Group_83" data-name="Group 83" transform="translate(115.967 55.25)">
      <g id="Rectangle_65" data-name="Rectangle 65" transform="translate(1068 613.511)" fill="#fff" stroke="#707070" stroke-width="1">
        <rect width="41" height="58" stroke="none"/>
        <rect x="0.5" y="0.5" width="40" height="57" fill="none"/>
      </g>
      <g id="Rectangle_68" data-name="Rectangle 68" transform="translate(1067 526.511)" fill="#fff" stroke="#707070" stroke-width="1">
        <rect width="41" height="58" stroke="none"/>
        <rect x="0.5" y="0.5" width="40" height="57" fill="none"/>
      </g>
      <path id="Icon_ionic-ios-star" data-name="Icon ionic-ios-star" d="M21.713,9.878H15.071L13.052,3.854a.731.731,0,0,0-1.373,0L9.661,9.878H2.973a.725.725,0,0,0-.723.723.531.531,0,0,0,.014.122.694.694,0,0,0,.3.51l5.46,3.848-2.1,6.092a.725.725,0,0,0,.248.813.7.7,0,0,0,.406.176A.885.885,0,0,0,7.037,22l5.329-3.8L17.694,22a.846.846,0,0,0,.452.163.649.649,0,0,0,.4-.176.716.716,0,0,0,.248-.813L16.7,15.08,22.115,11.2l.131-.113a.758.758,0,0,0,.235-.483A.765.765,0,0,0,21.713,9.878Z" transform="translate(1076.135 500.35)" fill="#c9e243"/>
      <g id="Ellipse_35" data-name="Ellipse 35" transform="translate(1074 624.511)" fill="none" stroke="#707070" stroke-width="2">
        <circle cx="2" cy="2" r="2" stroke="none"/>
        <circle cx="2" cy="2" r="1" fill="none"/>
      </g>
      <line id="Line_38" data-name="Line 38" x2="15" transform="translate(1080 626.511)" fill="none" stroke="#707070" stroke-linecap="round" stroke-width="2"/>
      <line id="Line_39" data-name="Line 39" x2="7" transform="translate(1080 629.511)" fill="none" stroke="#707070" stroke-linecap="round" stroke-width="2"/>
      <g id="Rectangle_69" data-name="Rectangle 69" transform="translate(1073 641.511)" fill="#fff" stroke="#707070" stroke-width="1.5">
        <rect width="13" height="17" stroke="none"/>
        <rect x="0.75" y="0.75" width="11.5" height="15.5" fill="none"/>
      </g>
      <g id="Polygon_8" data-name="Polygon 8" transform="translate(1078 644.511)" fill="#fff">
        <path d="M 1.991976976394653 4.25 L 1.008023023605347 4.25 L 1.5 2.610076665878296 L 1.991976976394653 4.25 Z" stroke="none"/>
        <path d="M 1.5 0 L 3 5 L 0 5 L 1.5 0 Z" stroke="none" fill="#707070"/>
      </g>
      <g id="Ellipse_39" data-name="Ellipse 39" transform="translate(1071 535.511)" fill="#fff" stroke="#707070" stroke-width="3">
        <circle cx="2.5" cy="2.5" r="2.5" stroke="none"/>
        <circle cx="2.5" cy="2.5" r="1" fill="none"/>
      </g>
      <line id="Line_44" data-name="Line 44" x2="15" transform="translate(1078 538.011)" fill="none" stroke="#707070" stroke-linecap="round" stroke-width="2"/>
      <line id="Line_45" data-name="Line 45" x2="6" transform="translate(1078 541.011)" fill="none" stroke="#707070" stroke-linecap="round" stroke-width="2"/>
      <line id="Line_46" data-name="Line 46" x2="18" transform="translate(1078 545.011)" fill="none" stroke="#707070" stroke-linecap="round" stroke-width="2"/>
      <line id="Line_47" data-name="Line 47" x2="15" transform="translate(1078 548.011)" fill="none" stroke="#707070" stroke-linecap="round" stroke-width="2"/>
      <line id="Line_48" data-name="Line 48" x2="21" transform="translate(1078 551.011)" fill="none" stroke="#707070" stroke-linecap="round" stroke-width="2"/>
      <g id="Rectangle_72" data-name="Rectangle 72" transform="translate(1072 557.511)" fill="#fff" stroke="#707070" stroke-width="1.5">
        <rect width="33" height="17" stroke="none"/>
        <rect x="0.75" y="0.75" width="31.5" height="15.5" fill="none"/>
      </g>
      <g id="Polygon_9" data-name="Polygon 9" transform="translate(1075 561.511)" fill="#fff">
        <path d="M 3.979855537414551 7.25 L 1.02014434337616 7.25 L 2.5 2.514461994171143 L 3.979855537414551 7.25 Z" stroke="none"/>
        <path d="M 2.5 5.028913974761963 L 2.040285587310791 6.5 L 2.959714412689209 6.5 L 2.5 5.028913974761963 M 2.5 0 L 5 8 L 0 8 L 2.5 0 Z" stroke="none" fill="#707070"/>
      </g>
      <g id="Rectangle_73" data-name="Rectangle 73" transform="translate(1089.517 561.043) rotate(43)" fill="#fff" stroke="#707070" stroke-width="1.5">
        <rect width="4.973" height="11.604" rx="2" stroke="none"/>
        <rect x="0.75" y="0.75" width="3.473" height="10.104" rx="1.25" fill="none"/>
      </g>
      <path id="Path_36" data-name="Path 36" d="M.135,0a2.056,2.056,0,0,0,0,2.289c.323.521,2.189,1.469,2.189,2.789C2.324,7.565.135,9.947.135,9.947" transform="translate(1097.191 562.009)" fill="none" stroke="#707070" stroke-width="1.5"/>
      <line id="Line_79" data-name="Line 79" y2="19.06" transform="translate(1087.723 590.19)" fill="none" stroke="#707070" stroke-linecap="round" stroke-width="4"/>
      <line id="Line_80" data-name="Line 80" y1="3.316" x2="4.973" transform="translate(1082.749 590.19)" fill="none" stroke="#707070" stroke-linecap="round" stroke-width="4"/>
      <line id="Line_81" data-name="Line 81" x1="4.973" y1="3.316" transform="translate(1087.722 590.19)" fill="none" stroke="#707070" stroke-linecap="round" stroke-width="4"/>
      <line id="Line_83" data-name="Line 83" x2="13.086" transform="translate(1080 632.511)" fill="none" stroke="#707070" stroke-linecap="round" stroke-width="2"/>
    </g>
  </g>
</svg>
