<svg width="163" height="163" viewBox="0 0 163 163" fill="none" xmlns="http://www.w3.org/2000/svg">
<path d="M163 81.5C163 126.511 126.511 163 81.5 163C36.4888 163 0 126.511 0 81.5C0 36.4888 36.4888 0 81.5 0C126.511 0 163 36.4888 163 81.5Z" fill="#839B70"/>
<rect x="9.5" y="55.5" width="38.4722" height="36.8611" rx="3.5" fill="#3AB2B6" stroke="black"/>
<rect x="9.5" y="95.7778" width="38.4722" height="11.0833" rx="3.5" fill="#75C259" stroke="black"/>
<rect x="62.6667" y="55.5" width="37.6667" height="36.8611" rx="3.5" fill="#82DDE0" stroke="black"/>
<rect x="62.6667" y="95.7778" width="37.6667" height="11.0833" rx="3.5" fill="#75C259" stroke="black"/>
<rect x="115.028" y="55.5" width="38.4722" height="36.8611" rx="3.5" fill="#B7F7F9" stroke="black"/>
<rect x="115.028" y="95.7778" width="38.4722" height="11.0833" rx="3.5" fill="#75C259" stroke="black"/>
<path d="M44.6882 67.6111H43.5983V60.3865L41.4128 61.1892V60.2049L44.5182 59.0388H44.6882V67.6111Z" fill="black"/>
<path d="M98.8821 67.6111H93.2923V66.8318L96.2454 63.5506C96.6829 63.0545 96.9837 62.6521 97.1478 62.3435C97.3157 62.031 97.3997 61.7088 97.3997 61.3767C97.3997 60.9314 97.265 60.5662 96.9954 60.281C96.7259 59.9959 96.3665 59.8533 95.9173 59.8533C95.3782 59.8533 94.9583 60.0076 94.6575 60.3162C94.3607 60.6209 94.2122 61.0467 94.2122 61.5935H93.1282C93.1282 60.8084 93.3802 60.1736 93.8841 59.6892C94.3919 59.2049 95.0696 58.9627 95.9173 58.9627C96.7103 58.9627 97.3372 59.1717 97.7982 59.5896C98.2591 60.0037 98.4896 60.5564 98.4896 61.2478C98.4896 62.0877 97.9544 63.0877 96.8841 64.2478L94.5989 66.7263H98.8821V67.6111Z" fill="black"/>
<path d="M148.841 62.8181H149.655C150.167 62.8103 150.569 62.6756 150.862 62.4138C151.155 62.1521 151.302 61.7986 151.302 61.3533C151.302 60.3533 150.804 59.8533 149.807 59.8533C149.339 59.8533 148.964 59.9881 148.682 60.2576C148.405 60.5232 148.266 60.8767 148.266 61.3181H147.182C147.182 60.6424 147.429 60.0818 147.921 59.6365C148.417 59.1873 149.046 58.9627 149.807 58.9627C150.612 58.9627 151.243 59.1756 151.7 59.6013C152.157 60.0271 152.386 60.6189 152.386 61.3767C152.386 61.7478 152.265 62.1072 152.022 62.4549C151.784 62.8025 151.458 63.0623 151.044 63.2342C151.513 63.3826 151.874 63.6287 152.128 63.9724C152.386 64.3162 152.515 64.7361 152.515 65.2322C152.515 65.9978 152.265 66.6053 151.765 67.0545C151.265 67.5037 150.614 67.7283 149.813 67.7283C149.013 67.7283 148.36 67.5115 147.856 67.0779C147.356 66.6443 147.106 66.0721 147.106 65.3611H148.196C148.196 65.8103 148.343 66.1697 148.636 66.4392C148.929 66.7088 149.321 66.8435 149.813 66.8435C150.337 66.8435 150.737 66.7068 151.015 66.4334C151.292 66.1599 151.431 65.7674 151.431 65.2556C151.431 64.7596 151.278 64.3787 150.974 64.1131C150.669 63.8474 150.229 63.7107 149.655 63.7029H148.841V62.8181Z" fill="black"/>
<path d="M60.9091 74.6869C61.1044 74.4916 61.1044 74.175 60.9091 73.9798L57.7271 70.7978C57.5318 70.6025 57.2153 70.6025 57.02 70.7978C56.8247 70.9931 56.8247 71.3096 57.02 71.5049L59.8484 74.3333L57.02 77.1618C56.8247 77.357 56.8247 77.6736 57.02 77.8689C57.2153 78.0641 57.5318 78.0641 57.7271 77.8689L60.9091 74.6869ZM50.0833 74.8333H60.5555V73.8333H50.0833V74.8333Z" fill="black"/>
<path d="M114.076 74.6869C114.271 74.4916 114.271 74.175 114.076 73.9798L110.894 70.7978C110.699 70.6025 110.382 70.6025 110.187 70.7978C109.991 70.9931 109.991 71.3096 110.187 71.5049L113.015 74.3333L110.187 77.1618C109.991 77.357 109.991 77.6736 110.187 77.8689C110.382 78.0641 110.699 78.0641 110.894 77.8689L114.076 74.6869ZM103.25 74.8333H113.722V73.8333H103.25V74.8333Z" fill="black"/>
</svg>
