<svg width="220" height="220" viewBox="0 0 220 220" fill="none" xmlns="http://www.w3.org/2000/svg">
<path d="M220 110C220 170.751 170.751 220 110 220C49.2487 220 0 170.751 0 110C0 49.2487 49.2487 0 110 0C170.751 0 220 49.2487 220 110Z" fill="#A4C2E4"/>
<path d="M183 36H109V111H183V36Z" fill="white"/>
<path d="M181.5 37.5H110.5V109.5H181.5V37.5Z" stroke="black" stroke-width="3"/>
<path d="M110 110H36V185H110V110Z" fill="white"/>
<path d="M108.5 111.5H37.5V183.5H108.5V111.5Z" stroke="black" stroke-width="3"/>
<path d="M183 110H109V185H183V110Z" fill="white"/>
<path d="M181.5 111.5H110.5V183.5H181.5V111.5Z" stroke="black" stroke-width="3"/>
<path d="M107.5 37H38.5C37.9477 37 38 39 37 38V109C37 109.552 38.4477 109 39 109L107 110C107.552 110 108.5 108.552 108.5 108L109 38C109 37.4477 106 38.5 107.5 37Z" fill="white"/>
<path d="M108 37.5H38C37.7239 37.5 37.5 37.7239 37.5 38V109C37.5 109.276 37.7239 109.5 38 109.5H108C108.276 109.5 108.5 109.276 108.5 109V38C108.5 37.7239 108.276 37.5 108 37.5Z" stroke="black" stroke-width="3"/>
<path d="M80.8818 140.024C80.8818 142.114 80.5303 143.94 79.8271 145.503C79.124 147.056 78.1279 148.242 76.8389 149.062C75.5498 149.883 74.0459 150.293 72.3271 150.293C70.6475 150.293 69.1582 149.883 67.8594 149.062C66.5605 148.232 65.5498 147.056 64.8271 145.532C64.1143 143.999 63.748 142.227 63.7285 140.215V138.677C63.7285 136.626 64.085 134.814 64.7979 133.242C65.5107 131.67 66.5166 130.469 67.8154 129.639C69.124 128.799 70.6182 128.379 72.2979 128.379C74.0068 128.379 75.5107 128.794 76.8096 129.624C78.1182 130.444 79.124 131.641 79.8271 133.213C80.5303 134.775 80.8818 136.597 80.8818 138.677V140.024ZM78.084 138.647C78.084 136.118 77.5762 134.18 76.5605 132.832C75.5449 131.475 74.124 130.796 72.2979 130.796C70.5205 130.796 69.1191 131.475 68.0938 132.832C67.0781 134.18 66.5557 136.055 66.5264 138.457V140.024C66.5264 142.476 67.0391 144.404 68.0645 145.811C69.0996 147.207 70.5205 147.905 72.3271 147.905C74.1436 147.905 75.5498 147.246 76.5459 145.928C77.542 144.6 78.0547 142.7 78.084 140.229V138.647Z" fill="#90AA8B"/>
<path d="M73.584 163.156L78.258 167.833C78.3349 167.909 78.3958 168 78.4375 168.1C78.4791 168.2 78.5005 168.307 78.5005 168.415C78.5005 168.524 78.4791 168.631 78.4375 168.731C78.3958 168.831 78.3349 168.922 78.258 168.998L77.481 169.775C77.4047 169.852 77.314 169.913 77.214 169.954C77.114 169.996 77.0068 170.017 76.8985 170.017C76.7903 170.017 76.683 169.996 76.5831 169.954C76.4831 169.913 76.3924 169.852 76.316 169.775L73.004 166.462L69.688 169.774C69.6117 169.851 69.521 169.912 69.421 169.953C69.321 169.995 69.2138 170.016 69.1055 170.016C68.9973 170.016 68.89 169.995 68.7901 169.953C68.6901 169.912 68.5994 169.851 68.523 169.774L67.743 168.997C67.6662 168.921 67.6052 168.83 67.5636 168.73C67.522 168.63 67.5006 168.523 67.5006 168.414C67.5006 168.306 67.522 168.199 67.5636 168.099C67.6052 167.999 67.6662 167.908 67.743 167.832L72.416 163.159C72.4923 163.082 72.5831 163.02 72.6832 162.978C72.7833 162.936 72.8908 162.914 72.9994 162.914C73.108 162.914 73.2156 162.935 73.316 162.976C73.4163 163.018 73.5074 163.079 73.584 163.156ZM72.416 156.556L67.743 161.233C67.6662 161.309 67.6052 161.4 67.5636 161.5C67.522 161.6 67.5006 161.707 67.5006 161.815C67.5006 161.924 67.522 162.031 67.5636 162.131C67.6052 162.231 67.6662 162.322 67.743 162.398L68.52 163.175C68.5964 163.252 68.6871 163.313 68.7871 163.354C68.887 163.396 68.9943 163.417 69.1025 163.417C69.2108 163.417 69.318 163.396 69.418 163.354C69.518 163.313 69.6087 163.252 69.685 163.175L72.997 159.861L76.309 163.173C76.3854 163.25 76.4761 163.311 76.5761 163.352C76.676 163.394 76.7833 163.415 76.8915 163.415C76.9998 163.415 77.107 163.394 77.207 163.352C77.307 163.311 77.3977 163.25 77.474 163.173L78.251 162.396C78.3279 162.32 78.3888 162.229 78.4305 162.129C78.4721 162.029 78.4935 161.922 78.4935 161.813C78.4935 161.705 78.4721 161.598 78.4305 161.498C78.3888 161.398 78.3279 161.307 78.251 161.231L73.578 156.558C73.5021 156.481 73.4117 156.42 73.312 156.379C73.2124 156.337 73.1055 156.316 72.9975 156.316C72.8896 156.316 72.7827 156.337 72.6831 156.379C72.5834 156.42 72.493 156.481 72.417 156.558L72.416 156.556Z" fill="#90AA8B"/>
<path d="M154.212 130.986H147.356V150H144.559V130.986H137.718V128.672H154.212V130.986Z" fill="#E2B171"/>
<path d="M146 156.204L153.127 170.404H138.874L146.001 156.204H146ZM146 154.663C145.78 154.685 145.571 154.765 145.393 154.895C145.215 155.026 145.075 155.202 144.989 155.405L137.726 169.873C137.17 170.862 137.643 171.673 138.777 171.673H153.22C154.354 171.673 154.828 170.864 154.271 169.873L147.012 155.405C146.926 155.202 146.786 155.026 146.608 154.895C146.43 154.765 146.221 154.685 146.001 154.663H146ZM147.063 168.482C147.063 168.692 147.001 168.898 146.884 169.073C146.767 169.247 146.601 169.384 146.407 169.464C146.213 169.545 145.999 169.566 145.793 169.525C145.586 169.484 145.397 169.382 145.248 169.234C145.1 169.085 144.998 168.896 144.957 168.689C144.916 168.483 144.937 168.269 145.018 168.075C145.098 167.881 145.235 167.715 145.409 167.598C145.584 167.481 145.79 167.419 146 167.419C146.14 167.419 146.278 167.446 146.407 167.5C146.536 167.553 146.653 167.632 146.752 167.73C146.85 167.829 146.929 167.946 146.982 168.075C147.035 168.204 147.063 168.342 147.063 168.482ZM146 166.356C145.718 166.356 145.448 166.244 145.248 166.045C145.049 165.845 144.937 165.575 144.937 165.293V162.104C144.937 161.822 145.049 161.552 145.248 161.352C145.448 161.153 145.718 161.041 146 161.041C146.282 161.041 146.552 161.153 146.752 161.352C146.951 161.552 147.063 161.822 147.063 162.104V165.293C147.063 165.575 146.951 165.845 146.752 166.045C146.552 166.244 146.282 166.356 146 166.356Z" fill="#E2B171"/>
<path d="M73.7598 64.4932C71.3477 63.7998 69.5898 62.9502 68.4863 61.9443C67.3926 60.9287 66.8457 59.6787 66.8457 58.1943C66.8457 56.5146 67.5146 55.1279 68.8525 54.0342C70.2002 52.9307 71.9482 52.3789 74.0967 52.3789C75.5615 52.3789 76.8652 52.6621 78.0078 53.2285C79.1602 53.7949 80.0488 54.5762 80.6738 55.5723C81.3086 56.5684 81.626 57.6572 81.626 58.8389H78.7988C78.7988 57.5498 78.3887 56.5391 77.5684 55.8066C76.748 55.0645 75.5908 54.6934 74.0967 54.6934C72.71 54.6934 71.626 55.001 70.8447 55.6162C70.0732 56.2217 69.6875 57.0664 69.6875 58.1504C69.6875 59.0195 70.0537 59.7568 70.7861 60.3623C71.5283 60.958 72.7832 61.5049 74.5508 62.0029C76.3281 62.501 77.7148 63.0527 78.7109 63.6582C79.7168 64.2539 80.459 64.9521 80.9375 65.7529C81.4258 66.5537 81.6699 67.4961 81.6699 68.5801C81.6699 70.3086 80.9961 71.6953 79.6484 72.7402C78.3008 73.7754 76.499 74.293 74.2432 74.293C72.7783 74.293 71.4111 74.0146 70.1416 73.458C68.8721 72.8916 67.8906 72.1201 67.1973 71.1436C66.5137 70.167 66.1719 69.0586 66.1719 67.8184H68.999C68.999 69.1074 69.4727 70.1279 70.4199 70.8799C71.377 71.6221 72.6514 71.9932 74.2432 71.9932C75.7275 71.9932 76.8652 71.6904 77.6562 71.085C78.4473 70.4795 78.8428 69.6543 78.8428 68.6094C78.8428 67.5645 78.4766 66.7588 77.7441 66.1924C77.0117 65.6162 75.6836 65.0498 73.7598 64.4932Z" fill="#32CBD1"/>
<path d="M81.3231 90.64C81.3231 92.2864 80.8348 93.8958 79.9201 95.2647C79.0054 96.6336 77.7053 97.7005 76.1843 98.3305C74.6632 98.9605 72.9895 99.1253 71.3748 98.804C69.76 98.4827 68.2768 97.6898 67.1127 96.5256C65.9486 95.3614 65.1559 93.8781 64.8349 92.2633C64.5138 90.6486 64.6788 88.9749 65.309 87.4539C65.9391 85.9329 67.0062 84.6329 68.3752 83.7184C69.7442 82.8038 71.3537 82.3158 73.0001 82.316C75.2075 82.3163 77.3245 83.1934 78.8854 84.7544C80.4462 86.3154 81.3231 88.4325 81.3231 90.64V90.64Z" stroke="#32CBD1" stroke-width="2" stroke-linecap="round" stroke-linejoin="round"/>
<path d="M73 87.31V93.969" stroke="#32CBD1" stroke-width="2" stroke-linecap="round" stroke-linejoin="round"/>
<path d="M69.67 90.64H76.329" stroke="#32CBD1" stroke-width="2" stroke-linecap="round" stroke-linejoin="round"/>
<path d="M138.075 68.2764L138.485 71.0889L139.086 68.5547L143.305 53.6719H145.678L149.794 68.5547L150.38 71.1328L150.834 68.2617L154.145 53.6719H156.972L151.801 75H149.237L144.843 59.458L144.506 57.832L144.169 59.458L139.613 75H137.05L131.894 53.6719H134.706L138.075 68.2764Z" fill="#B50B0B"/>
<path d="M154.325 88.64C154.325 90.2864 153.837 91.8958 152.922 93.2647C152.007 94.6336 150.707 95.7005 149.186 96.3305C147.665 96.9605 145.991 97.1253 144.377 96.804C142.762 96.4827 141.279 95.6898 140.115 94.5256C138.951 93.3614 138.158 91.8781 137.837 90.2633C137.516 88.6486 137.681 86.9749 138.311 85.4539C138.941 83.9329 140.008 82.6329 141.377 81.7184C142.746 80.8038 144.356 80.3158 146.002 80.316C148.209 80.3163 150.326 81.1934 151.887 82.7544C153.448 84.3154 154.325 86.4325 154.325 88.64V88.64Z" stroke="#B50B0B" stroke-width="2" stroke-linecap="round" stroke-linejoin="round"/>
<path d="M142.672 88.64H149.331" stroke="#B50B0B" stroke-width="2" stroke-linecap="round" stroke-linejoin="round"/>
</svg>
