<svg xmlns="http://www.w3.org/2000/svg" width="84.851" height="28.394" viewBox="0 0 84.851 28.394">
  <g id="diamond_icon" data-name="diamond icon" transform="translate(350.184 -459.22)">
    <g id="understand" transform="translate(-350.184 459.221)">
      <g id="Path_2" data-name="Path 2" transform="translate(28.394 14.197) rotate(135)" fill="#fff">
        <path d="M 0.6035653948783875 19.82762145996094 L 19.82762145996094 0.6035653948783875 L 19.82756423950195 19.82756423950195 L 0.6035653948783875 19.82762145996094 Z" stroke="none"/>
        <path d="M 19.5776195526123 1.207107543945312 L 1.207107543945312 19.5776195526123 L 19.57756423950195 19.57756423950195 L 19.5776195526123 1.207107543945312 M 20.07762336730957 3.814697265625e-06 L 20.07756423950195 20.07756423950195 L 3.814697265625e-06 20.07762336730957 L 20.07762336730957 3.814697265625e-06 Z" stroke="none" fill="#000"/>
      </g>
    </g>
    <g id="define" transform="translate(-321.79 487.615) rotate(180)">
      <g id="Path_2-2" data-name="Path 2" transform="translate(28.394 14.197) rotate(135)" fill="#fff">
        <path d="M 0.6035653948783875 19.82762145996094 L 19.82762145996094 0.6035653948783875 L 19.82756423950195 19.82756423950195 L 0.6035653948783875 19.82762145996094 Z" stroke="none"/>
        <path d="M 19.5776195526123 1.207107543945312 L 1.207107543945312 19.5776195526123 L 19.57756423950195 19.57756423950195 L 19.5776195526123 1.207107543945312 M 20.07762336730957 3.814697265625e-06 L 20.07756423950195 20.07756423950195 L 3.814697265625e-06 20.07762336730957 L 20.07762336730957 3.814697265625e-06 Z" stroke="none" fill="#000"/>
      </g>
    </g>
    <g id="sketch" transform="translate(-321.95 459.221)">
      <g id="Path_2-3" data-name="Path 2" transform="translate(28.394 14.197) rotate(135)" fill="#fff">
        <path d="M 0.6035653948783875 19.82762145996094 L 19.82762145996094 0.6035653948783875 L 19.82756423950195 19.82756423950195 L 0.6035653948783875 19.82762145996094 Z" stroke="none"/>
        <path d="M 19.5776195526123 1.207107543945312 L 1.207107543945312 19.5776195526123 L 19.57756423950195 19.57756423950195 L 19.5776195526123 1.207107543945312 M 20.07762336730957 3.814697265625e-06 L 20.07756423950195 20.07756423950195 L 3.814697265625e-06 20.07762336730957 L 20.07762336730957 3.814697265625e-06 Z" stroke="none" fill="#000"/>
      </g>
    </g>
    <g id="decide" transform="translate(-293.554 487.614) rotate(180)">
      <g id="Path_2-4" data-name="Path 2" transform="translate(28.394 14.197) rotate(135)" fill="#fff">
        <path d="M 0.6035653948783875 19.82762145996094 L 19.82762145996094 0.6035653948783875 L 19.82756423950195 19.82756423950195 L 0.6035653948783875 19.82762145996094 Z" stroke="none"/>
        <path d="M 19.5776195526123 1.207107543945312 L 1.207107543945312 19.5776195526123 L 19.57756423950195 19.57756423950195 L 19.5776195526123 1.207107543945312 M 20.07762336730957 3.814697265625e-06 L 20.07756423950195 20.07756423950195 L 3.814697265625e-06 20.07762336730957 L 20.07762336730957 3.814697265625e-06 Z" stroke="none" fill="#000"/>
      </g>
    </g>
    <g id="prototype" transform="translate(-293.728 459.22)">
      <g id="Path_2-5" data-name="Path 2" transform="translate(28.394 14.197) rotate(135)" fill="#fff">
        <path d="M 0.6035653948783875 19.82762145996094 L 19.82762145996094 0.6035653948783875 L 19.82756423950195 19.82756423950195 L 0.6035653948783875 19.82762145996094 Z" stroke="none"/>
        <path d="M 19.5776195526123 1.207107543945312 L 1.207107543945312 19.5776195526123 L 19.57756423950195 19.57756423950195 L 19.5776195526123 1.207107543945312 M 20.07762336730957 3.814697265625e-06 L 20.07756423950195 20.07756423950195 L 3.814697265625e-06 20.07762336730957 L 20.07762336730957 3.814697265625e-06 Z" stroke="none" fill="#000"/>
      </g>
    </g>
    <g id="validate" transform="translate(-265.417 487.615) rotate(180)">
      <g id="Path_2-6" data-name="Path 2" transform="translate(28.394 14.197) rotate(135)" fill="#fff">
        <path d="M 0.6035653948783875 19.82762145996094 L 19.82762145996094 0.6035653948783875 L 19.82756423950195 19.82756423950195 L 0.6035653948783875 19.82762145996094 Z" stroke="none"/>
        <path d="M 19.5776195526123 1.207107543945312 L 1.207107543945312 19.5776195526123 L 19.57756423950195 19.57756423950195 L 19.5776195526123 1.207107543945312 M 20.07762336730957 3.814697265625e-06 L 20.07756423950195 20.07756423950195 L 3.814697265625e-06 20.07762336730957 L 20.07762336730957 3.814697265625e-06 Z" stroke="none" fill="#000"/>
      </g>
    </g>
  </g>
</svg>
