<svg width="716" height="252" viewBox="0 0 716 252" fill="none" xmlns="http://www.w3.org/2000/svg">
<path d="M236.794 125.501L117.551 234.188L117.551 16.814L236.794 125.501Z" fill="#85953A"/>
<path d="M236.794 125.501L356.036 16.8139L356.036 234.187L236.794 125.501Z" fill="#3076DF"/>
<path d="M473.587 125.501L354.345 234.188L354.345 16.814L473.587 125.501Z" fill="#8C3A9D"/>
<path d="M473.587 125.501L592.83 16.8139L592.83 234.187L473.587 125.501Z" fill="#FF5F5F"/>
<path d="M710.381 125.501L591.139 234.188L591.139 16.814L710.381 125.501Z" fill="#E52525"/>
<path d="M9.77298e-06 125.501L119.243 16.8139L119.243 234.187L9.77298e-06 125.501Z" fill="#ABBF4A"/>
<path d="M44.0723 116.583C44.8337 116.583 45.4928 116.71 46.0495 116.964C46.6144 117.217 47.0484 117.578 47.3513 118.044C47.6542 118.511 47.8057 119.064 47.8057 119.702C47.8057 120.333 47.6542 120.885 47.3513 121.36C47.0484 121.827 46.6144 122.187 46.0495 122.441C45.4928 122.687 44.8337 122.809 44.0723 122.809H42.3407V125.18H40.3512V116.583H44.0723ZM43.9618 121.188C44.5594 121.188 45.0138 121.061 45.3249 120.808C45.6361 120.546 45.7916 120.177 45.7916 119.702C45.7916 119.219 45.6361 118.851 45.3249 118.597C45.0138 118.335 44.5594 118.204 43.9618 118.204H42.3407V121.188H43.9618ZM53.2268 118.474C54.0455 118.474 54.7046 118.72 55.204 119.211C55.7116 119.702 55.9654 120.431 55.9654 121.397V125.18H54.0496V121.692C54.0496 121.168 53.935 120.779 53.7057 120.525C53.4765 120.263 53.1449 120.132 52.711 120.132C52.2279 120.132 51.8431 120.284 51.5566 120.586C51.27 120.881 51.1267 121.323 51.1267 121.913V125.18H49.2109V116.067H51.1267V119.26C51.3805 119.006 51.6876 118.814 52.0478 118.683C52.408 118.544 52.801 118.474 53.2268 118.474ZM60.367 118.474C61.3904 118.474 62.1764 118.72 62.7249 119.211C63.2735 119.694 63.5477 120.427 63.5477 121.409V125.18H61.7547V124.357C61.3945 124.971 60.7231 125.278 59.7407 125.278C59.233 125.278 58.7909 125.192 58.4143 125.02C58.0459 124.848 57.7634 124.611 57.5669 124.308C57.3704 124.005 57.2722 123.661 57.2722 123.276C57.2722 122.662 57.5014 122.179 57.9599 121.827C58.4266 121.475 59.143 121.299 60.1091 121.299H61.6319C61.6319 120.881 61.505 120.562 61.2512 120.341C60.9974 120.112 60.6167 119.997 60.1091 119.997C59.757 119.997 59.4091 120.054 59.0652 120.169C58.7295 120.275 58.443 120.423 58.2055 120.611L57.5178 119.272C57.878 119.019 58.3079 118.822 58.8073 118.683C59.3149 118.544 59.8348 118.474 60.367 118.474ZM60.2196 123.988C60.5471 123.988 60.8378 123.915 61.0916 123.767C61.3454 123.612 61.5255 123.387 61.6319 123.092V122.416H60.3179C59.5319 122.416 59.1389 122.674 59.1389 123.19C59.1389 123.436 59.233 123.632 59.4214 123.78C59.6178 123.919 59.8839 123.988 60.2196 123.988ZM67.5045 125.278C66.956 125.278 66.4197 125.212 65.8957 125.081C65.3717 124.942 64.9542 124.77 64.6431 124.566L65.2817 123.19C65.5764 123.378 65.9326 123.534 66.3501 123.657C66.7677 123.771 67.177 123.829 67.5782 123.829C68.3887 123.829 68.794 123.628 68.794 123.227C68.794 123.039 68.6835 122.903 68.4624 122.822C68.2414 122.74 67.9016 122.67 67.4431 122.613C66.9027 122.531 66.4565 122.437 66.1045 122.33C65.7524 122.224 65.4454 122.036 65.1834 121.765C64.9296 121.495 64.8027 121.11 64.8027 120.611C64.8027 120.194 64.9214 119.825 65.1589 119.506C65.4045 119.178 65.7565 118.924 66.215 118.744C66.6817 118.564 67.2302 118.474 67.8607 118.474C68.3273 118.474 68.7899 118.527 69.2484 118.634C69.7151 118.732 70.0999 118.871 70.4028 119.051L69.7642 120.415C69.1829 120.087 68.5484 119.923 67.8607 119.923C67.4513 119.923 67.1443 119.981 66.9396 120.095C66.7349 120.21 66.6326 120.357 66.6326 120.537C66.6326 120.742 66.7431 120.885 66.9642 120.967C67.1852 121.049 67.5373 121.127 68.0203 121.201C68.5607 121.291 69.0028 121.389 69.3467 121.495C69.6905 121.594 69.9894 121.778 70.2432 122.048C70.497 122.318 70.6239 122.695 70.6239 123.178C70.6239 123.587 70.5011 123.951 70.2554 124.271C70.0098 124.59 69.6496 124.84 69.1747 125.02C68.708 125.192 68.1513 125.278 67.5045 125.278ZM78.278 121.901C78.278 121.925 78.2657 122.097 78.2411 122.416H73.2428C73.3328 122.826 73.5457 123.149 73.8814 123.387C74.2171 123.624 74.6346 123.743 75.134 123.743C75.4779 123.743 75.7808 123.694 76.0428 123.595C76.313 123.489 76.5627 123.325 76.792 123.104L77.8113 124.209C77.1891 124.922 76.2803 125.278 75.0849 125.278C74.3399 125.278 73.6808 125.135 73.1077 124.848C72.5346 124.553 72.0925 124.148 71.7814 123.632C71.4702 123.116 71.3147 122.531 71.3147 121.876C71.3147 121.229 71.4661 120.648 71.7691 120.132C72.0802 119.608 72.5018 119.203 73.034 118.916C73.5744 118.622 74.1761 118.474 74.8393 118.474C75.4861 118.474 76.0715 118.613 76.5955 118.892C77.1195 119.17 77.5288 119.571 77.8236 120.095C78.1265 120.611 78.278 121.213 78.278 121.901ZM74.8516 119.923C74.4177 119.923 74.0533 120.046 73.7586 120.292C73.4638 120.537 73.2837 120.873 73.2182 121.299H76.4727C76.4072 120.881 76.2271 120.55 75.9323 120.304C75.6376 120.05 75.2773 119.923 74.8516 119.923ZM85.942 116.583V125.18H83.9525V118.179H82.2332V116.583H85.942ZM44.1705 140.327C42.9424 140.327 41.9845 139.987 41.2968 139.308C40.6173 138.628 40.2775 137.658 40.2775 136.397V131.583H42.267V136.323C42.267 137.863 42.9056 138.632 44.1828 138.632C44.8051 138.632 45.2799 138.448 45.6074 138.08C45.9349 137.703 46.0986 137.118 46.0986 136.323V131.583H48.0636V136.397C48.0636 137.658 47.7197 138.628 47.032 139.308C46.3525 139.987 45.3986 140.327 44.1705 140.327ZM53.9104 133.474C54.7291 133.474 55.3882 133.72 55.8876 134.211C56.3952 134.702 56.649 135.431 56.649 136.397V140.18H54.7332V136.692C54.7332 136.168 54.6186 135.779 54.3893 135.525C54.1601 135.263 53.8285 135.132 53.3946 135.132C52.9115 135.132 52.5267 135.284 52.2402 135.586C51.9536 135.881 51.8103 136.323 51.8103 136.913V140.18H49.8945V133.572H51.7244V134.346C51.9782 134.068 52.2934 133.855 52.67 133.708C53.0466 133.552 53.4601 133.474 53.9104 133.474ZM65.1875 131.067V140.18H63.3577V139.418C62.8828 139.991 62.1951 140.278 61.2945 140.278C60.6723 140.278 60.1073 140.139 59.5997 139.86C59.1003 139.582 58.7073 139.185 58.4207 138.669C58.1342 138.153 57.9909 137.556 57.9909 136.876C57.9909 136.196 58.1342 135.599 58.4207 135.083C58.7073 134.567 59.1003 134.17 59.5997 133.892C60.1073 133.613 60.6723 133.474 61.2945 133.474C62.1378 133.474 62.7969 133.74 63.2717 134.272V131.067H65.1875ZM61.6261 138.706C62.1091 138.706 62.5103 138.542 62.8296 138.215C63.1489 137.879 63.3086 137.433 63.3086 136.876C63.3086 136.319 63.1489 135.877 62.8296 135.55C62.5103 135.214 62.1091 135.046 61.6261 135.046C61.1348 135.046 60.7296 135.214 60.4103 135.55C60.091 135.877 59.9313 136.319 59.9313 136.876C59.9313 137.433 60.091 137.879 60.4103 138.215C60.7296 138.542 61.1348 138.706 61.6261 138.706ZM73.4328 136.901C73.4328 136.925 73.4205 137.097 73.3959 137.416H68.3976C68.4876 137.826 68.7005 138.149 69.0362 138.387C69.3719 138.624 69.7894 138.743 70.2888 138.743C70.6327 138.743 70.9356 138.694 71.1976 138.595C71.4678 138.489 71.7175 138.325 71.9468 138.104L72.9661 139.209C72.3438 139.922 71.4351 140.278 70.2397 140.278C69.4947 140.278 68.8356 140.135 68.2625 139.848C67.6894 139.553 67.2473 139.148 66.9361 138.632C66.625 138.116 66.4695 137.531 66.4695 136.876C66.4695 136.229 66.6209 135.648 66.9239 135.132C67.235 134.608 67.6566 134.203 68.1888 133.916C68.7292 133.622 69.3309 133.474 69.9941 133.474C70.6409 133.474 71.2263 133.613 71.7503 133.892C72.2743 134.17 72.6836 134.571 72.9784 135.095C73.2813 135.611 73.4328 136.213 73.4328 136.901ZM70.0064 134.923C69.5724 134.923 69.2081 135.046 68.9134 135.292C68.6186 135.537 68.4385 135.873 68.373 136.299H71.6275C71.562 135.881 71.3818 135.55 71.0871 135.304C70.7924 135.05 70.4321 134.923 70.0064 134.923ZM76.5381 134.444C76.7673 134.125 77.0744 133.884 77.4592 133.72C77.8522 133.556 78.3025 133.474 78.8101 133.474V135.243C78.5972 135.226 78.4539 135.218 78.3802 135.218C77.8317 135.218 77.4019 135.374 77.0907 135.685C76.7796 135.988 76.6241 136.446 76.6241 137.06V140.18H74.7082V133.572H76.5381V134.444ZM82.1961 140.278C81.6475 140.278 81.1113 140.212 80.5873 140.081C80.0633 139.942 79.6457 139.77 79.3346 139.566L79.9732 138.19C80.268 138.378 80.6241 138.534 81.0417 138.657C81.4592 138.771 81.8686 138.829 82.2698 138.829C83.0803 138.829 83.4856 138.628 83.4856 138.227C83.4856 138.039 83.375 137.903 83.154 137.822C82.9329 137.74 82.5932 137.67 82.1347 137.613C81.5943 137.531 81.1481 137.437 80.796 137.33C80.444 137.224 80.137 137.036 79.875 136.765C79.6212 136.495 79.4943 136.11 79.4943 135.611C79.4943 135.194 79.613 134.825 79.8504 134.506C80.096 134.178 80.4481 133.924 80.9066 133.744C81.3732 133.564 81.9218 133.474 82.5522 133.474C83.0189 133.474 83.4815 133.527 83.94 133.634C84.4066 133.732 84.7914 133.871 85.0944 134.051L84.4558 135.415C83.8745 135.087 83.2399 134.923 82.5522 134.923C82.1428 134.923 81.8358 134.981 81.6311 135.095C81.4265 135.21 81.3241 135.357 81.3241 135.537C81.3241 135.742 81.4346 135.885 81.6557 135.967C81.8768 136.049 82.2288 136.127 82.7119 136.201C83.2522 136.291 83.6943 136.389 84.0382 136.495C84.3821 136.594 84.6809 136.778 84.9347 137.048C85.1885 137.318 85.3154 137.695 85.3154 138.178C85.3154 138.587 85.1926 138.951 84.947 139.271C84.7014 139.59 84.3411 139.84 83.8663 140.02C83.3996 140.192 82.8429 140.278 82.1961 140.278ZM90.759 139.86C90.5706 139.999 90.3373 140.106 90.0589 140.18C89.7888 140.245 89.5022 140.278 89.1993 140.278C88.4133 140.278 87.8033 140.077 87.3694 139.676C86.9437 139.275 86.7308 138.685 86.7308 137.908V135.194H85.7115V133.72H86.7308V132.111H88.6466V133.72H90.2923V135.194H88.6466V137.883C88.6466 138.161 88.7162 138.378 88.8554 138.534C89.0028 138.681 89.2075 138.755 89.4695 138.755C89.7724 138.755 90.0303 138.673 90.2432 138.509L90.759 139.86ZM94.4994 133.474C95.5228 133.474 96.3088 133.72 96.8573 134.211C97.4059 134.694 97.6801 135.427 97.6801 136.409V140.18H95.8871V139.357C95.5269 139.971 94.8555 140.278 93.873 140.278C93.3654 140.278 92.9233 140.192 92.5467 140.02C92.1783 139.848 91.8958 139.611 91.6993 139.308C91.5028 139.005 91.4046 138.661 91.4046 138.276C91.4046 137.662 91.6338 137.179 92.0923 136.827C92.559 136.475 93.2754 136.299 94.2415 136.299H95.7643C95.7643 135.881 95.6374 135.562 95.3836 135.341C95.1298 135.112 94.7491 134.997 94.2415 134.997C93.8894 134.997 93.5415 135.054 93.1976 135.169C92.8619 135.275 92.5754 135.423 92.3379 135.611L91.6502 134.272C92.0104 134.019 92.4403 133.822 92.9397 133.683C93.4473 133.544 93.9672 133.474 94.4994 133.474ZM94.352 138.988C94.6795 138.988 94.9701 138.915 95.2239 138.767C95.4777 138.612 95.6579 138.387 95.7643 138.092V137.416H94.4502C93.6643 137.416 93.2713 137.674 93.2713 138.19C93.2713 138.436 93.3654 138.632 93.5537 138.78C93.7502 138.919 94.0163 138.988 94.352 138.988ZM103.43 133.474C104.249 133.474 104.908 133.72 105.407 134.211C105.915 134.702 106.169 135.431 106.169 136.397V140.18H104.253V136.692C104.253 136.168 104.138 135.779 103.909 135.525C103.68 135.263 103.348 135.132 102.914 135.132C102.431 135.132 102.046 135.284 101.76 135.586C101.473 135.881 101.33 136.323 101.33 136.913V140.18H99.414V133.572H101.244V134.346C101.498 134.068 101.813 133.855 102.19 133.708C102.566 133.552 102.98 133.474 103.43 133.474ZM114.707 131.067V140.18H112.877V139.418C112.402 139.991 111.715 140.278 110.814 140.278C110.192 140.278 109.627 140.139 109.119 139.86C108.62 139.582 108.227 139.185 107.94 138.669C107.654 138.153 107.51 137.556 107.51 136.876C107.51 136.196 107.654 135.599 107.94 135.083C108.227 134.567 108.62 134.17 109.119 133.892C109.627 133.613 110.192 133.474 110.814 133.474C111.657 133.474 112.316 133.74 112.791 134.272V131.067H114.707ZM111.146 138.706C111.629 138.706 112.03 138.542 112.349 138.215C112.668 137.879 112.828 137.433 112.828 136.876C112.828 136.319 112.668 135.877 112.349 135.55C112.03 135.214 111.629 135.046 111.146 135.046C110.654 135.046 110.249 135.214 109.93 135.55C109.61 135.877 109.451 136.319 109.451 136.876C109.451 137.433 109.61 137.879 109.93 138.215C110.249 138.542 110.654 138.706 111.146 138.706Z" fill="white"/>
<path d="M144.409 116.583C145.17 116.583 145.829 116.71 146.386 116.964C146.951 117.217 147.385 117.578 147.688 118.044C147.991 118.511 148.142 119.064 148.142 119.702C148.142 120.333 147.991 120.885 147.688 121.36C147.385 121.827 146.951 122.187 146.386 122.441C145.829 122.687 145.17 122.809 144.409 122.809H142.677V125.18H140.688V116.583H144.409ZM144.298 121.188C144.896 121.188 145.35 121.061 145.661 120.808C145.972 120.546 146.128 120.177 146.128 119.702C146.128 119.219 145.972 118.851 145.661 118.597C145.35 118.335 144.896 118.204 144.298 118.204H142.677V121.188H144.298ZM153.563 118.474C154.382 118.474 155.041 118.72 155.54 119.211C156.048 119.702 156.302 120.431 156.302 121.397V125.18H154.386V121.692C154.386 121.168 154.271 120.779 154.042 120.525C153.813 120.263 153.481 120.132 153.047 120.132C152.564 120.132 152.179 120.284 151.893 120.586C151.606 120.881 151.463 121.323 151.463 121.913V125.18H149.547V116.067H151.463V119.26C151.717 119.006 152.024 118.814 152.384 118.683C152.744 118.544 153.137 118.474 153.563 118.474ZM160.703 118.474C161.727 118.474 162.513 118.72 163.061 119.211C163.61 119.694 163.884 120.427 163.884 121.409V125.18H162.091V124.357C161.731 124.971 161.059 125.278 160.077 125.278C159.569 125.278 159.127 125.192 158.751 125.02C158.382 124.848 158.1 124.611 157.903 124.308C157.707 124.005 157.609 123.661 157.609 123.276C157.609 122.662 157.838 122.179 158.296 121.827C158.763 121.475 159.479 121.299 160.445 121.299H161.968C161.968 120.881 161.841 120.562 161.588 120.341C161.334 120.112 160.953 119.997 160.445 119.997C160.093 119.997 159.745 120.054 159.402 120.169C159.066 120.275 158.779 120.423 158.542 120.611L157.854 119.272C158.214 119.019 158.644 118.822 159.144 118.683C159.651 118.544 160.171 118.474 160.703 118.474ZM160.556 123.988C160.883 123.988 161.174 123.915 161.428 123.767C161.682 123.612 161.862 123.387 161.968 123.092V122.416H160.654C159.868 122.416 159.475 122.674 159.475 123.19C159.475 123.436 159.569 123.632 159.758 123.78C159.954 123.919 160.22 123.988 160.556 123.988ZM167.841 125.278C167.292 125.278 166.756 125.212 166.232 125.081C165.708 124.942 165.291 124.77 164.979 124.566L165.618 123.19C165.913 123.378 166.269 123.534 166.686 123.657C167.104 123.771 167.513 123.829 167.915 123.829C168.725 123.829 169.13 123.628 169.13 123.227C169.13 123.039 169.02 122.903 168.799 122.822C168.578 122.74 168.238 122.67 167.779 122.613C167.239 122.531 166.793 122.437 166.441 122.33C166.089 122.224 165.782 122.036 165.52 121.765C165.266 121.495 165.139 121.11 165.139 120.611C165.139 120.194 165.258 119.825 165.495 119.506C165.741 119.178 166.093 118.924 166.551 118.744C167.018 118.564 167.567 118.474 168.197 118.474C168.664 118.474 169.126 118.527 169.585 118.634C170.051 118.732 170.436 118.871 170.739 119.051L170.101 120.415C169.519 120.087 168.885 119.923 168.197 119.923C167.788 119.923 167.481 119.981 167.276 120.095C167.071 120.21 166.969 120.357 166.969 120.537C166.969 120.742 167.079 120.885 167.3 120.967C167.522 121.049 167.874 121.127 168.357 121.201C168.897 121.291 169.339 121.389 169.683 121.495C170.027 121.594 170.326 121.778 170.579 122.048C170.833 122.318 170.96 122.695 170.96 123.178C170.96 123.587 170.837 123.951 170.592 124.271C170.346 124.59 169.986 124.84 169.511 125.02C169.044 125.192 168.488 125.278 167.841 125.278ZM178.614 121.901C178.614 121.925 178.602 122.097 178.577 122.416H173.579C173.669 122.826 173.882 123.149 174.218 123.387C174.553 123.624 174.971 123.743 175.47 123.743C175.814 123.743 176.117 123.694 176.379 123.595C176.649 123.489 176.899 123.325 177.128 123.104L178.148 124.209C177.525 124.922 176.617 125.278 175.421 125.278C174.676 125.278 174.017 125.135 173.444 124.848C172.871 124.553 172.429 124.148 172.118 123.632C171.807 123.116 171.651 122.531 171.651 121.876C171.651 121.229 171.802 120.648 172.105 120.132C172.417 119.608 172.838 119.203 173.37 118.916C173.911 118.622 174.512 118.474 175.176 118.474C175.822 118.474 176.408 118.613 176.932 118.892C177.456 119.17 177.865 119.571 178.16 120.095C178.463 120.611 178.614 121.213 178.614 121.901ZM175.188 119.923C174.754 119.923 174.39 120.046 174.095 120.292C173.8 120.537 173.62 120.873 173.555 121.299H176.809C176.744 120.881 176.563 120.55 176.269 120.304C175.974 120.05 175.614 119.923 175.188 119.923ZM189.385 123.558V125.18H182.889V123.89L186.205 120.758C186.557 120.423 186.794 120.136 186.917 119.899C187.04 119.653 187.101 119.412 187.101 119.174C187.101 118.83 186.982 118.568 186.745 118.388C186.516 118.2 186.176 118.106 185.726 118.106C185.349 118.106 185.009 118.179 184.706 118.327C184.403 118.466 184.15 118.679 183.945 118.965L182.496 118.032C182.832 117.533 183.294 117.144 183.884 116.865C184.473 116.579 185.149 116.436 185.91 116.436C186.549 116.436 187.105 116.542 187.58 116.755C188.063 116.96 188.436 117.254 188.698 117.639C188.968 118.016 189.103 118.462 189.103 118.978C189.103 119.444 189.005 119.882 188.808 120.292C188.612 120.701 188.231 121.168 187.666 121.692L185.689 123.558H189.385ZM140.688 131.583H144.593C145.526 131.583 146.349 131.763 147.061 132.123C147.782 132.475 148.339 132.975 148.732 133.622C149.133 134.268 149.333 135.022 149.333 135.881C149.333 136.741 149.133 137.494 148.732 138.141C148.339 138.788 147.782 139.291 147.061 139.651C146.349 140.004 145.526 140.18 144.593 140.18H140.688V131.583ZM144.495 138.546C145.354 138.546 146.038 138.309 146.546 137.834C147.061 137.351 147.319 136.7 147.319 135.881C147.319 135.063 147.061 134.416 146.546 133.941C146.038 133.458 145.354 133.216 144.495 133.216H142.677V138.546H144.495ZM157.171 136.901C157.171 136.925 157.158 137.097 157.134 137.416H152.135C152.226 137.826 152.438 138.149 152.774 138.387C153.11 138.624 153.527 138.743 154.027 138.743C154.371 138.743 154.674 138.694 154.936 138.595C155.206 138.489 155.455 138.325 155.685 138.104L156.704 139.209C156.082 139.922 155.173 140.278 153.978 140.278C153.233 140.278 152.573 140.135 152 139.848C151.427 139.553 150.985 139.148 150.674 138.632C150.363 138.116 150.207 137.531 150.207 136.876C150.207 136.229 150.359 135.648 150.662 135.132C150.973 134.608 151.394 134.203 151.927 133.916C152.467 133.622 153.069 133.474 153.732 133.474C154.379 133.474 154.964 133.613 155.488 133.892C156.012 134.17 156.421 134.571 156.716 135.095C157.019 135.611 157.171 136.213 157.171 136.901ZM153.744 134.923C153.31 134.923 152.946 135.046 152.651 135.292C152.357 135.537 152.176 135.873 152.111 136.299H155.365C155.3 135.881 155.12 135.55 154.825 135.304C154.53 135.05 154.17 134.923 153.744 134.923ZM160.546 133.72H162.241V135.194H160.595V140.18H158.679V135.194H157.66V133.72H158.679V133.425C158.679 132.672 158.901 132.074 159.343 131.632C159.793 131.19 160.423 130.969 161.234 130.969C161.52 130.969 161.791 131.002 162.044 131.067C162.306 131.124 162.523 131.21 162.695 131.325L162.192 132.713C161.971 132.557 161.713 132.479 161.418 132.479C160.837 132.479 160.546 132.799 160.546 133.437V133.72ZM164.181 133.572H166.097V140.18H164.181V133.572ZM165.139 132.651C164.787 132.651 164.501 132.549 164.28 132.344C164.059 132.14 163.948 131.886 163.948 131.583C163.948 131.28 164.059 131.026 164.28 130.821C164.501 130.617 164.787 130.514 165.139 130.514C165.491 130.514 165.778 130.613 165.999 130.809C166.22 131.006 166.33 131.251 166.33 131.546C166.33 131.865 166.22 132.131 165.999 132.344C165.778 132.549 165.491 132.651 165.139 132.651ZM171.889 133.474C172.707 133.474 173.366 133.72 173.866 134.211C174.373 134.702 174.627 135.431 174.627 136.397V140.18H172.711V136.692C172.711 136.168 172.597 135.779 172.368 135.525C172.138 135.263 171.807 135.132 171.373 135.132C170.89 135.132 170.505 135.284 170.218 135.586C169.932 135.881 169.789 136.323 169.789 136.913V140.18H167.873V133.572H169.703V134.346C169.956 134.068 170.272 133.855 170.648 133.708C171.025 133.552 171.438 133.474 171.889 133.474ZM182.908 136.901C182.908 136.925 182.896 137.097 182.871 137.416H177.873C177.963 137.826 178.176 138.149 178.511 138.387C178.847 138.624 179.264 138.743 179.764 138.743C180.108 138.743 180.411 138.694 180.673 138.595C180.943 138.489 181.193 138.325 181.422 138.104L182.441 139.209C181.819 139.922 180.91 140.278 179.715 140.278C178.97 140.278 178.311 140.135 177.738 139.848C177.164 139.553 176.722 139.148 176.411 138.632C176.1 138.116 175.945 137.531 175.945 136.876C175.945 136.229 176.096 135.648 176.399 135.132C176.71 134.608 177.132 134.203 177.664 133.916C178.204 133.622 178.806 133.474 179.469 133.474C180.116 133.474 180.701 133.613 181.225 133.892C181.749 134.17 182.159 134.571 182.453 135.095C182.756 135.611 182.908 136.213 182.908 136.901ZM179.481 134.923C179.048 134.923 178.683 135.046 178.388 135.292C178.094 135.537 177.914 135.873 177.848 136.299H181.103C181.037 135.881 180.857 135.55 180.562 135.304C180.267 135.05 179.907 134.923 179.481 134.923Z" fill="white"/>
<path d="M290.498 116.583C291.26 116.583 291.919 116.71 292.476 116.964C293.04 117.217 293.474 117.578 293.777 118.044C294.08 118.511 294.232 119.064 294.232 119.702C294.232 120.333 294.08 120.885 293.777 121.36C293.474 121.827 293.04 122.187 292.476 122.441C291.919 122.687 291.26 122.809 290.498 122.809H288.767V125.18H286.777V116.583H290.498ZM290.388 121.188C290.985 121.188 291.44 121.061 291.751 120.808C292.062 120.546 292.218 120.177 292.218 119.702C292.218 119.219 292.062 118.851 291.751 118.597C291.44 118.335 290.985 118.204 290.388 118.204H288.767V121.188H290.388ZM299.653 118.474C300.471 118.474 301.131 118.72 301.63 119.211C302.138 119.702 302.391 120.431 302.391 121.397V125.18H300.476V121.692C300.476 121.168 300.361 120.779 300.132 120.525C299.902 120.263 299.571 120.132 299.137 120.132C298.654 120.132 298.269 120.284 297.983 120.586C297.696 120.881 297.553 121.323 297.553 121.913V125.18H295.637V116.067H297.553V119.26C297.807 119.006 298.114 118.814 298.474 118.683C298.834 118.544 299.227 118.474 299.653 118.474ZM306.793 118.474C307.816 118.474 308.602 118.72 309.151 119.211C309.699 119.694 309.974 120.427 309.974 121.409V125.18H308.181V124.357C307.82 124.971 307.149 125.278 306.167 125.278C305.659 125.278 305.217 125.192 304.84 125.02C304.472 124.848 304.189 124.611 303.993 124.308C303.796 124.005 303.698 123.661 303.698 123.276C303.698 122.662 303.927 122.179 304.386 121.827C304.853 121.475 305.569 121.299 306.535 121.299H308.058C308.058 120.881 307.931 120.562 307.677 120.341C307.423 120.112 307.043 119.997 306.535 119.997C306.183 119.997 305.835 120.054 305.491 120.169C305.156 120.275 304.869 120.423 304.632 120.611L303.944 119.272C304.304 119.019 304.734 118.822 305.233 118.683C305.741 118.544 306.261 118.474 306.793 118.474ZM306.646 123.988C306.973 123.988 307.264 123.915 307.518 123.767C307.771 123.612 307.951 123.387 308.058 123.092V122.416H306.744C305.958 122.416 305.565 122.674 305.565 123.19C305.565 123.436 305.659 123.632 305.847 123.78C306.044 123.919 306.31 123.988 306.646 123.988ZM313.931 125.278C313.382 125.278 312.846 125.212 312.322 125.081C311.798 124.942 311.38 124.77 311.069 124.566L311.708 123.19C312.002 123.378 312.359 123.534 312.776 123.657C313.194 123.771 313.603 123.829 314.004 123.829C314.815 123.829 315.22 123.628 315.22 123.227C315.22 123.039 315.109 122.903 314.888 122.822C314.667 122.74 314.328 122.67 313.869 122.613C313.329 122.531 312.883 122.437 312.53 122.33C312.178 122.224 311.871 122.036 311.609 121.765C311.356 121.495 311.229 121.11 311.229 120.611C311.229 120.194 311.347 119.825 311.585 119.506C311.83 119.178 312.183 118.924 312.641 118.744C313.108 118.564 313.656 118.474 314.287 118.474C314.753 118.474 315.216 118.527 315.674 118.634C316.141 118.732 316.526 118.871 316.829 119.051L316.19 120.415C315.609 120.087 314.974 119.923 314.287 119.923C313.877 119.923 313.57 119.981 313.366 120.095C313.161 120.21 313.059 120.357 313.059 120.537C313.059 120.742 313.169 120.885 313.39 120.967C313.611 121.049 313.963 121.127 314.446 121.201C314.987 121.291 315.429 121.389 315.773 121.495C316.117 121.594 316.415 121.778 316.669 122.048C316.923 122.318 317.05 122.695 317.05 123.178C317.05 123.587 316.927 123.951 316.681 124.271C316.436 124.59 316.076 124.84 315.601 125.02C315.134 125.192 314.577 125.278 313.931 125.278ZM324.704 121.901C324.704 121.925 324.692 122.097 324.667 122.416H319.669C319.759 122.826 319.972 123.149 320.307 123.387C320.643 123.624 321.061 123.743 321.56 123.743C321.904 123.743 322.207 123.694 322.469 123.595C322.739 123.489 322.989 123.325 323.218 123.104L324.237 124.209C323.615 124.922 322.706 125.278 321.511 125.278C320.766 125.278 320.107 125.135 319.534 124.848C318.961 124.553 318.518 124.148 318.207 123.632C317.896 123.116 317.741 122.531 317.741 121.876C317.741 121.229 317.892 120.648 318.195 120.132C318.506 119.608 318.928 119.203 319.46 118.916C320 118.622 320.602 118.474 321.265 118.474C321.912 118.474 322.497 118.613 323.021 118.892C323.545 119.17 323.955 119.571 324.25 120.095C324.552 120.611 324.704 121.213 324.704 121.901ZM321.278 119.923C320.844 119.923 320.479 120.046 320.185 120.292C319.89 120.537 319.71 120.873 319.644 121.299H322.899C322.833 120.881 322.653 120.55 322.358 120.304C322.064 120.05 321.703 119.923 321.278 119.923ZM333.068 120.083C333.821 120.206 334.398 120.488 334.8 120.93C335.201 121.364 335.401 121.905 335.401 122.551C335.401 123.051 335.27 123.513 335.008 123.939C334.746 124.357 334.345 124.692 333.805 124.946C333.273 125.2 332.618 125.327 331.84 125.327C331.234 125.327 330.636 125.249 330.047 125.094C329.466 124.93 328.97 124.701 328.561 124.406L329.335 122.883C329.662 123.129 330.039 123.321 330.464 123.46C330.898 123.591 331.341 123.657 331.791 123.657C332.29 123.657 332.683 123.563 332.97 123.374C333.256 123.178 333.4 122.903 333.4 122.551C333.4 121.847 332.863 121.495 331.791 121.495H330.882V120.181L332.65 118.179H328.991V116.583H335.008V117.872L333.068 120.083ZM289.602 140.327C288.922 140.327 288.263 140.237 287.625 140.057C286.994 139.868 286.487 139.627 286.102 139.332L286.777 137.834C287.146 138.104 287.584 138.321 288.091 138.485C288.599 138.649 289.106 138.73 289.614 138.73C290.179 138.73 290.597 138.649 290.867 138.485C291.137 138.313 291.272 138.088 291.272 137.809C291.272 137.605 291.19 137.437 291.026 137.306C290.871 137.167 290.666 137.056 290.412 136.974C290.167 136.892 289.831 136.802 289.405 136.704C288.75 136.549 288.214 136.393 287.796 136.237C287.379 136.082 287.019 135.832 286.716 135.488C286.421 135.144 286.274 134.686 286.274 134.113C286.274 133.613 286.409 133.163 286.679 132.762C286.949 132.353 287.354 132.029 287.895 131.792C288.443 131.554 289.111 131.436 289.897 131.436C290.445 131.436 290.981 131.501 291.505 131.632C292.029 131.763 292.488 131.951 292.881 132.197L292.267 133.708C291.473 133.257 290.678 133.032 289.884 133.032C289.328 133.032 288.914 133.122 288.644 133.302C288.382 133.482 288.251 133.72 288.251 134.015C288.251 134.309 288.402 134.53 288.705 134.678C289.016 134.817 289.487 134.956 290.118 135.095C290.773 135.251 291.309 135.406 291.726 135.562C292.144 135.717 292.5 135.963 292.795 136.299C293.098 136.634 293.249 137.089 293.249 137.662C293.249 138.153 293.11 138.604 292.832 139.013C292.561 139.414 292.152 139.733 291.604 139.971C291.055 140.208 290.388 140.327 289.602 140.327ZM297.31 137.588L296.389 138.497V140.18H294.474V131.067H296.389V136.225L299.189 133.572H301.474L298.723 136.372L301.719 140.18H299.398L297.31 137.588ZM308.765 136.901C308.765 136.925 308.753 137.097 308.728 137.416H303.73C303.82 137.826 304.033 138.149 304.369 138.387C304.704 138.624 305.122 138.743 305.621 138.743C305.965 138.743 306.268 138.694 306.53 138.595C306.8 138.489 307.05 138.325 307.279 138.104L308.298 139.209C307.676 139.922 306.767 140.278 305.572 140.278C304.827 140.278 304.168 140.135 303.595 139.848C303.022 139.553 302.58 139.148 302.269 138.632C301.957 138.116 301.802 137.531 301.802 136.876C301.802 136.229 301.953 135.648 302.256 135.132C302.567 134.608 302.989 134.203 303.521 133.916C304.062 133.622 304.663 133.474 305.326 133.474C305.973 133.474 306.559 133.613 307.083 133.892C307.607 134.17 308.016 134.571 308.311 135.095C308.614 135.611 308.765 136.213 308.765 136.901ZM305.339 134.923C304.905 134.923 304.54 135.046 304.246 135.292C303.951 135.537 303.771 135.873 303.705 136.299H306.96C306.894 135.881 306.714 135.55 306.419 135.304C306.125 135.05 305.764 134.923 305.339 134.923ZM314.302 139.86C314.114 139.999 313.88 140.106 313.602 140.18C313.332 140.245 313.045 140.278 312.742 140.278C311.956 140.278 311.346 140.077 310.913 139.676C310.487 139.275 310.274 138.685 310.274 137.908V135.194H309.255V133.72H310.274V132.111H312.19V133.72H313.835V135.194H312.19V137.883C312.19 138.161 312.259 138.378 312.399 138.534C312.546 138.681 312.751 138.755 313.013 138.755C313.316 138.755 313.573 138.673 313.786 138.509L314.302 139.86ZM318.367 140.278C317.663 140.278 317.028 140.135 316.463 139.848C315.906 139.553 315.468 139.148 315.149 138.632C314.838 138.116 314.682 137.531 314.682 136.876C314.682 136.221 314.838 135.636 315.149 135.12C315.468 134.604 315.906 134.203 316.463 133.916C317.028 133.622 317.663 133.474 318.367 133.474C319.063 133.474 319.668 133.622 320.184 133.916C320.708 134.203 321.089 134.616 321.326 135.157L319.84 135.955C319.497 135.349 319.001 135.046 318.354 135.046C317.855 135.046 317.442 135.21 317.114 135.537C316.787 135.865 316.623 136.311 316.623 136.876C316.623 137.441 316.787 137.887 317.114 138.215C317.442 138.542 317.855 138.706 318.354 138.706C319.009 138.706 319.505 138.403 319.84 137.797L321.326 138.608C321.089 139.132 320.708 139.541 320.184 139.836C319.668 140.13 319.063 140.278 318.367 140.278ZM326.397 133.474C327.216 133.474 327.875 133.72 328.375 134.211C328.882 134.702 329.136 135.431 329.136 136.397V140.18H327.22V136.692C327.22 136.168 327.106 135.779 326.876 135.525C326.647 135.263 326.316 135.132 325.882 135.132C325.399 135.132 325.014 135.284 324.727 135.586C324.441 135.881 324.297 136.323 324.297 136.913V140.18H322.382V131.067H324.297V134.26C324.551 134.006 324.858 133.814 325.218 133.683C325.579 133.544 325.972 133.474 326.397 133.474Z" fill="white"/>
<path d="M390.835 116.583C391.596 116.583 392.255 116.71 392.812 116.964C393.377 117.217 393.811 117.578 394.114 118.044C394.417 118.511 394.568 119.064 394.568 119.702C394.568 120.333 394.417 120.885 394.114 121.36C393.811 121.827 393.377 122.187 392.812 122.441C392.255 122.687 391.596 122.809 390.835 122.809H389.103V125.18H387.113V116.583H390.835ZM390.724 121.188C391.322 121.188 391.776 121.061 392.087 120.808C392.398 120.546 392.554 120.177 392.554 119.702C392.554 119.219 392.398 118.851 392.087 118.597C391.776 118.335 391.322 118.204 390.724 118.204H389.103V121.188H390.724ZM399.989 118.474C400.808 118.474 401.467 118.72 401.966 119.211C402.474 119.702 402.728 120.431 402.728 121.397V125.18H400.812V121.692C400.812 121.168 400.697 120.779 400.468 120.525C400.239 120.263 399.907 120.132 399.473 120.132C398.99 120.132 398.605 120.284 398.319 120.586C398.032 120.881 397.889 121.323 397.889 121.913V125.18H395.973V116.067H397.889V119.26C398.143 119.006 398.45 118.814 398.81 118.683C399.17 118.544 399.563 118.474 399.989 118.474ZM407.129 118.474C408.153 118.474 408.939 118.72 409.487 119.211C410.036 119.694 410.31 120.427 410.31 121.409V125.18H408.517V124.357C408.157 124.971 407.485 125.278 406.503 125.278C405.995 125.278 405.553 125.192 405.177 125.02C404.808 124.848 404.526 124.611 404.329 124.308C404.133 124.005 404.035 123.661 404.035 123.276C404.035 122.662 404.264 122.179 404.722 121.827C405.189 121.475 405.905 121.299 406.871 121.299H408.394C408.394 120.881 408.267 120.562 408.014 120.341C407.76 120.112 407.379 119.997 406.871 119.997C406.519 119.997 406.171 120.054 405.828 120.169C405.492 120.275 405.205 120.423 404.968 120.611L404.28 119.272C404.64 119.019 405.07 118.822 405.57 118.683C406.077 118.544 406.597 118.474 407.129 118.474ZM406.982 123.988C407.309 123.988 407.6 123.915 407.854 123.767C408.108 123.612 408.288 123.387 408.394 123.092V122.416H407.08C406.294 122.416 405.901 122.674 405.901 123.19C405.901 123.436 405.995 123.632 406.184 123.78C406.38 123.919 406.646 123.988 406.982 123.988ZM414.267 125.278C413.718 125.278 413.182 125.212 412.658 125.081C412.134 124.942 411.717 124.77 411.405 124.566L412.044 123.19C412.339 123.378 412.695 123.534 413.112 123.657C413.53 123.771 413.939 123.829 414.341 123.829C415.151 123.829 415.556 123.628 415.556 123.227C415.556 123.039 415.446 122.903 415.225 122.822C415.004 122.74 414.664 122.67 414.205 122.613C413.665 122.531 413.219 122.437 412.867 122.33C412.515 122.224 412.208 122.036 411.946 121.765C411.692 121.495 411.565 121.11 411.565 120.611C411.565 120.194 411.684 119.825 411.921 119.506C412.167 119.178 412.519 118.924 412.977 118.744C413.444 118.564 413.993 118.474 414.623 118.474C415.09 118.474 415.552 118.527 416.011 118.634C416.477 118.732 416.862 118.871 417.165 119.051L416.527 120.415C415.945 120.087 415.311 119.923 414.623 119.923C414.214 119.923 413.907 119.981 413.702 120.095C413.497 120.21 413.395 120.357 413.395 120.537C413.395 120.742 413.505 120.885 413.726 120.967C413.948 121.049 414.3 121.127 414.783 121.201C415.323 121.291 415.765 121.389 416.109 121.495C416.453 121.594 416.752 121.778 417.005 122.048C417.259 122.318 417.386 122.695 417.386 123.178C417.386 123.587 417.263 123.951 417.018 124.271C416.772 124.59 416.412 124.84 415.937 125.02C415.47 125.192 414.914 125.278 414.267 125.278ZM425.04 121.901C425.04 121.925 425.028 122.097 425.003 122.416H420.005C420.095 122.826 420.308 123.149 420.644 123.387C420.979 123.624 421.397 123.743 421.896 123.743C422.24 123.743 422.543 123.694 422.805 123.595C423.075 123.489 423.325 123.325 423.554 123.104L424.574 124.209C423.951 124.922 423.043 125.278 421.847 125.278C421.102 125.278 420.443 125.135 419.87 124.848C419.297 124.553 418.855 124.148 418.544 123.632C418.233 123.116 418.077 122.531 418.077 121.876C418.077 121.229 418.228 120.648 418.531 120.132C418.843 119.608 419.264 119.203 419.796 118.916C420.337 118.622 420.938 118.474 421.602 118.474C422.248 118.474 422.834 118.613 423.358 118.892C423.882 119.17 424.291 119.571 424.586 120.095C424.889 120.611 425.04 121.213 425.04 121.901ZM421.614 119.923C421.18 119.923 420.816 120.046 420.521 120.292C420.226 120.537 420.046 120.873 419.981 121.299H423.235C423.17 120.881 422.989 120.55 422.695 120.304C422.4 120.05 422.04 119.923 421.614 119.923ZM437.261 123.374H435.861V125.18H433.92V123.374H429.29V122.036L433.343 116.583H435.431L431.673 121.753H433.982V120.144H435.861V121.753H437.261V123.374ZM387.113 131.583H391.019C391.952 131.583 392.775 131.763 393.487 132.123C394.208 132.475 394.765 132.975 395.158 133.622C395.559 134.268 395.759 135.022 395.759 135.881C395.759 136.741 395.559 137.494 395.158 138.141C394.765 138.788 394.208 139.291 393.487 139.651C392.775 140.004 391.952 140.18 391.019 140.18H387.113V131.583ZM390.921 138.546C391.78 138.546 392.464 138.309 392.972 137.834C393.487 137.351 393.745 136.7 393.745 135.881C393.745 135.063 393.487 134.416 392.972 133.941C392.464 133.458 391.78 133.216 390.921 133.216H389.103V138.546H390.921ZM403.597 136.901C403.597 136.925 403.584 137.097 403.56 137.416H398.561C398.652 137.826 398.864 138.149 399.2 138.387C399.536 138.624 399.953 138.743 400.453 138.743C400.797 138.743 401.1 138.694 401.361 138.595C401.632 138.489 401.881 138.325 402.111 138.104L403.13 139.209C402.508 139.922 401.599 140.278 400.404 140.278C399.659 140.278 398.999 140.135 398.426 139.848C397.853 139.553 397.411 139.148 397.1 138.632C396.789 138.116 396.633 137.531 396.633 136.876C396.633 136.229 396.785 135.648 397.088 135.132C397.399 134.608 397.82 134.203 398.353 133.916C398.893 133.622 399.495 133.474 400.158 133.474C400.805 133.474 401.39 133.613 401.914 133.892C402.438 134.17 402.847 134.571 403.142 135.095C403.445 135.611 403.597 136.213 403.597 136.901ZM400.17 134.923C399.736 134.923 399.372 135.046 399.077 135.292C398.782 135.537 398.602 135.873 398.537 136.299H401.791C401.726 135.881 401.546 135.55 401.251 135.304C400.956 135.05 400.596 134.923 400.17 134.923ZM408.065 140.278C407.361 140.278 406.727 140.135 406.162 139.848C405.605 139.553 405.167 139.148 404.848 138.632C404.536 138.116 404.381 137.531 404.381 136.876C404.381 136.221 404.536 135.636 404.848 135.12C405.167 134.604 405.605 134.203 406.162 133.916C406.727 133.622 407.361 133.474 408.065 133.474C408.761 133.474 409.367 133.622 409.883 133.916C410.407 134.203 410.787 134.616 411.025 135.157L409.539 135.955C409.195 135.349 408.7 135.046 408.053 135.046C407.553 135.046 407.14 135.21 406.813 135.537C406.485 135.865 406.321 136.311 406.321 136.876C406.321 137.441 406.485 137.887 406.813 138.215C407.14 138.542 407.553 138.706 408.053 138.706C408.708 138.706 409.203 138.403 409.539 137.797L411.025 138.608C410.787 139.132 410.407 139.541 409.883 139.836C409.367 140.13 408.761 140.278 408.065 140.278ZM412.128 133.572H414.044V140.18H412.128V133.572ZM413.086 132.651C412.734 132.651 412.447 132.549 412.226 132.344C412.005 132.14 411.895 131.886 411.895 131.583C411.895 131.28 412.005 131.026 412.226 130.821C412.447 130.617 412.734 130.514 413.086 130.514C413.438 130.514 413.724 130.613 413.946 130.809C414.167 131.006 414.277 131.251 414.277 131.546C414.277 131.865 414.167 132.131 413.946 132.344C413.724 132.549 413.438 132.651 413.086 132.651ZM422.552 131.067V140.18H420.722V139.418C420.247 139.991 419.559 140.278 418.659 140.278C418.036 140.278 417.472 140.139 416.964 139.86C416.465 139.582 416.072 139.185 415.785 138.669C415.498 138.153 415.355 137.556 415.355 136.876C415.355 136.196 415.498 135.599 415.785 135.083C416.072 134.567 416.465 134.17 416.964 133.892C417.472 133.613 418.036 133.474 418.659 133.474C419.502 133.474 420.161 133.74 420.636 134.272V131.067H422.552ZM418.99 138.706C419.473 138.706 419.875 138.542 420.194 138.215C420.513 137.879 420.673 137.433 420.673 136.876C420.673 136.319 420.513 135.877 420.194 135.55C419.875 135.214 419.473 135.046 418.99 135.046C418.499 135.046 418.094 135.214 417.774 135.55C417.455 135.877 417.296 136.319 417.296 136.876C417.296 137.433 417.455 137.879 417.774 138.215C418.094 138.542 418.499 138.706 418.99 138.706ZM430.797 136.901C430.797 136.925 430.785 137.097 430.76 137.416H425.762C425.852 137.826 426.065 138.149 426.4 138.387C426.736 138.624 427.154 138.743 427.653 138.743C427.997 138.743 428.3 138.694 428.562 138.595C428.832 138.489 429.082 138.325 429.311 138.104L430.33 139.209C429.708 139.922 428.799 140.278 427.604 140.278C426.859 140.278 426.2 140.135 425.627 139.848C425.054 139.553 424.611 139.148 424.3 138.632C423.989 138.116 423.834 137.531 423.834 136.876C423.834 136.229 423.985 135.648 424.288 135.132C424.599 134.608 425.021 134.203 425.553 133.916C426.093 133.622 426.695 133.474 427.358 133.474C428.005 133.474 428.591 133.613 429.114 133.892C429.638 134.17 430.048 134.571 430.343 135.095C430.646 135.611 430.797 136.213 430.797 136.901ZM427.371 134.923C426.937 134.923 426.572 135.046 426.278 135.292C425.983 135.537 425.803 135.873 425.737 136.299H428.992C428.926 135.881 428.746 135.55 428.451 135.304C428.157 135.05 427.796 134.923 427.371 134.923Z" fill="white"/>
<path d="M525.687 116.583C526.448 116.583 527.107 116.71 527.664 116.964C528.229 117.217 528.663 117.578 528.966 118.044C529.269 118.511 529.42 119.064 529.42 119.702C529.42 120.333 529.269 120.885 528.966 121.36C528.663 121.827 528.229 122.187 527.664 122.441C527.107 122.687 526.448 122.809 525.687 122.809H523.955V125.18H521.965V116.583H525.687ZM525.576 121.188C526.174 121.188 526.628 121.061 526.939 120.808C527.25 120.546 527.406 120.177 527.406 119.702C527.406 119.219 527.25 118.851 526.939 118.597C526.628 118.335 526.174 118.204 525.576 118.204H523.955V121.188H525.576ZM534.841 118.474C535.66 118.474 536.319 118.72 536.818 119.211C537.326 119.702 537.58 120.431 537.58 121.397V125.18H535.664V121.692C535.664 121.168 535.549 120.779 535.32 120.525C535.091 120.263 534.759 120.132 534.325 120.132C533.842 120.132 533.457 120.284 533.171 120.586C532.884 120.881 532.741 121.323 532.741 121.913V125.18H530.825V116.067H532.741V119.26C532.995 119.006 533.302 118.814 533.662 118.683C534.022 118.544 534.415 118.474 534.841 118.474ZM541.981 118.474C543.005 118.474 543.791 118.72 544.339 119.211C544.888 119.694 545.162 120.427 545.162 121.409V125.18H543.369V124.357C543.009 124.971 542.337 125.278 541.355 125.278C540.847 125.278 540.405 125.192 540.029 125.02C539.66 124.848 539.378 124.611 539.181 124.308C538.985 124.005 538.887 123.661 538.887 123.276C538.887 122.662 539.116 122.179 539.574 121.827C540.041 121.475 540.757 121.299 541.723 121.299H543.246C543.246 120.881 543.119 120.562 542.866 120.341C542.612 120.112 542.231 119.997 541.723 119.997C541.371 119.997 541.023 120.054 540.68 120.169C540.344 120.275 540.057 120.423 539.82 120.611L539.132 119.272C539.492 119.019 539.922 118.822 540.422 118.683C540.929 118.544 541.449 118.474 541.981 118.474ZM541.834 123.988C542.161 123.988 542.452 123.915 542.706 123.767C542.96 123.612 543.14 123.387 543.246 123.092V122.416H541.932C541.146 122.416 540.753 122.674 540.753 123.19C540.753 123.436 540.847 123.632 541.036 123.78C541.232 123.919 541.498 123.988 541.834 123.988ZM549.119 125.278C548.57 125.278 548.034 125.212 547.51 125.081C546.986 124.942 546.568 124.77 546.257 124.566L546.896 123.19C547.191 123.378 547.547 123.534 547.964 123.657C548.382 123.771 548.791 123.829 549.193 123.829C550.003 123.829 550.408 123.628 550.408 123.227C550.408 123.039 550.298 122.903 550.077 122.822C549.856 122.74 549.516 122.67 549.057 122.613C548.517 122.531 548.071 122.437 547.719 122.33C547.367 122.224 547.06 122.036 546.798 121.765C546.544 121.495 546.417 121.11 546.417 120.611C546.417 120.194 546.536 119.825 546.773 119.506C547.019 119.178 547.371 118.924 547.829 118.744C548.296 118.564 548.845 118.474 549.475 118.474C549.942 118.474 550.404 118.527 550.863 118.634C551.329 118.732 551.714 118.871 552.017 119.051L551.379 120.415C550.797 120.087 550.163 119.923 549.475 119.923C549.066 119.923 548.759 119.981 548.554 120.095C548.349 120.21 548.247 120.357 548.247 120.537C548.247 120.742 548.357 120.885 548.578 120.967C548.8 121.049 549.152 121.127 549.635 121.201C550.175 121.291 550.617 121.389 550.961 121.495C551.305 121.594 551.604 121.778 551.857 122.048C552.111 122.318 552.238 122.695 552.238 123.178C552.238 123.587 552.115 123.951 551.87 124.271C551.624 124.59 551.264 124.84 550.789 125.02C550.322 125.192 549.766 125.278 549.119 125.278ZM559.892 121.901C559.892 121.925 559.88 122.097 559.855 122.416H554.857C554.947 122.826 555.16 123.149 555.496 123.387C555.831 123.624 556.249 123.743 556.748 123.743C557.092 123.743 557.395 123.694 557.657 123.595C557.927 123.489 558.177 123.325 558.406 123.104L559.426 124.209C558.803 124.922 557.895 125.278 556.699 125.278C555.954 125.278 555.295 125.135 554.722 124.848C554.149 124.553 553.707 124.148 553.396 123.632C553.085 123.116 552.929 122.531 552.929 121.876C552.929 121.229 553.08 120.648 553.383 120.132C553.695 119.608 554.116 119.203 554.648 118.916C555.189 118.622 555.79 118.474 556.454 118.474C557.1 118.474 557.686 118.613 558.21 118.892C558.734 119.17 559.143 119.571 559.438 120.095C559.741 120.611 559.892 121.213 559.892 121.901ZM556.466 119.923C556.032 119.923 555.668 120.046 555.373 120.292C555.078 120.537 554.898 120.873 554.833 121.299H558.087C558.021 120.881 557.841 120.55 557.547 120.304C557.252 120.05 556.892 119.923 556.466 119.923ZM567.188 119.813C568.4 119.813 569.292 120.054 569.865 120.537C570.446 121.02 570.737 121.667 570.737 122.478C570.737 123.002 570.606 123.481 570.344 123.915C570.082 124.34 569.681 124.684 569.141 124.946C568.608 125.2 567.949 125.327 567.163 125.327C566.558 125.327 565.96 125.249 565.37 125.094C564.789 124.93 564.294 124.701 563.884 124.406L564.67 122.883C564.998 123.129 565.374 123.321 565.8 123.46C566.226 123.591 566.664 123.657 567.114 123.657C567.614 123.657 568.007 123.558 568.293 123.362C568.58 123.165 568.723 122.891 568.723 122.539C568.723 122.171 568.572 121.892 568.269 121.704C567.974 121.516 567.458 121.422 566.721 121.422H564.523L564.965 116.583H570.209V118.179H566.623L566.488 119.813H567.188ZM525.687 131.583C526.448 131.583 527.107 131.71 527.664 131.964C528.229 132.217 528.663 132.578 528.966 133.044C529.269 133.511 529.42 134.064 529.42 134.702C529.42 135.333 529.269 135.885 528.966 136.36C528.663 136.827 528.229 137.187 527.664 137.441C527.107 137.687 526.448 137.809 525.687 137.809H523.955V140.18H521.965V131.583H525.687ZM525.576 136.188C526.174 136.188 526.628 136.061 526.939 135.808C527.25 135.546 527.406 135.177 527.406 134.702C527.406 134.219 527.25 133.851 526.939 133.597C526.628 133.335 526.174 133.204 525.576 133.204H523.955V136.188H525.576ZM532.535 134.444C532.764 134.125 533.071 133.884 533.456 133.72C533.849 133.556 534.3 133.474 534.807 133.474V135.243C534.594 135.226 534.451 135.218 534.377 135.218C533.829 135.218 533.399 135.374 533.088 135.685C532.777 135.988 532.621 136.446 532.621 137.06V140.18H530.705V133.572H532.535V134.444ZM539.03 140.278C538.334 140.278 537.708 140.135 537.151 139.848C536.603 139.553 536.173 139.148 535.862 138.632C535.551 138.116 535.395 137.531 535.395 136.876C535.395 136.221 535.551 135.636 535.862 135.12C536.173 134.604 536.603 134.203 537.151 133.916C537.708 133.622 538.334 133.474 539.03 133.474C539.726 133.474 540.348 133.622 540.897 133.916C541.445 134.203 541.875 134.604 542.186 135.12C542.498 135.636 542.653 136.221 542.653 136.876C542.653 137.531 542.498 138.116 542.186 138.632C541.875 139.148 541.445 139.553 540.897 139.848C540.348 140.135 539.726 140.278 539.03 140.278ZM539.03 138.706C539.521 138.706 539.923 138.542 540.234 138.215C540.553 137.879 540.713 137.433 540.713 136.876C540.713 136.319 540.553 135.877 540.234 135.55C539.923 135.214 539.521 135.046 539.03 135.046C538.539 135.046 538.134 135.214 537.814 135.55C537.495 135.877 537.335 136.319 537.335 136.876C537.335 137.433 537.495 137.879 537.814 138.215C538.134 138.542 538.539 138.706 539.03 138.706ZM548.195 139.86C548.007 139.999 547.774 140.106 547.495 140.18C547.225 140.245 546.938 140.278 546.635 140.278C545.85 140.278 545.24 140.077 544.806 139.676C544.38 139.275 544.167 138.685 544.167 137.908V135.194H543.148V133.72H544.167V132.111H546.083V133.72H547.728V135.194H546.083V137.883C546.083 138.161 546.152 138.378 546.292 138.534C546.439 138.681 546.644 138.755 546.906 138.755C547.209 138.755 547.467 138.673 547.679 138.509L548.195 139.86ZM552.211 140.278C551.515 140.278 550.888 140.135 550.332 139.848C549.783 139.553 549.353 139.148 549.042 138.632C548.731 138.116 548.575 137.531 548.575 136.876C548.575 136.221 548.731 135.636 549.042 135.12C549.353 134.604 549.783 134.203 550.332 133.916C550.888 133.622 551.515 133.474 552.211 133.474C552.907 133.474 553.529 133.622 554.077 133.916C554.626 134.203 555.056 134.604 555.367 135.12C555.678 135.636 555.834 136.221 555.834 136.876C555.834 137.531 555.678 138.116 555.367 138.632C555.056 139.148 554.626 139.553 554.077 139.848C553.529 140.135 552.907 140.278 552.211 140.278ZM552.211 138.706C552.702 138.706 553.103 138.542 553.414 138.215C553.733 137.879 553.893 137.433 553.893 136.876C553.893 136.319 553.733 135.877 553.414 135.55C553.103 135.214 552.702 135.046 552.211 135.046C551.719 135.046 551.314 135.214 550.995 135.55C550.676 135.877 550.516 136.319 550.516 136.876C550.516 137.433 550.676 137.879 550.995 138.215C551.314 138.542 551.719 138.706 552.211 138.706ZM561.376 139.86C561.187 139.999 560.954 140.106 560.676 140.18C560.405 140.245 560.119 140.278 559.816 140.278C559.03 140.278 558.42 140.077 557.986 139.676C557.56 139.275 557.347 138.685 557.347 137.908V135.194H556.328V133.72H557.347V132.111H559.263V133.72H560.909V135.194H559.263V137.883C559.263 138.161 559.333 138.378 559.472 138.534C559.619 138.681 559.824 138.755 560.086 138.755C560.389 138.755 560.647 138.673 560.86 138.509L561.376 139.86ZM568.889 133.572L565.905 140.585C565.602 141.346 565.225 141.883 564.775 142.194C564.333 142.505 563.797 142.66 563.166 142.66C562.822 142.66 562.483 142.607 562.147 142.501C561.811 142.394 561.537 142.247 561.324 142.059L562.024 140.695C562.171 140.826 562.339 140.929 562.528 141.002C562.724 141.076 562.916 141.113 563.105 141.113C563.367 141.113 563.58 141.047 563.743 140.916C563.907 140.794 564.055 140.585 564.186 140.29L564.21 140.229L561.349 133.572H563.326L565.18 138.055L567.047 133.572H568.889ZM573.576 133.474C574.19 133.474 574.747 133.617 575.246 133.904C575.754 134.182 576.151 134.579 576.438 135.095C576.724 135.603 576.868 136.196 576.868 136.876C576.868 137.556 576.724 138.153 576.438 138.669C576.151 139.177 575.754 139.574 575.246 139.86C574.747 140.139 574.19 140.278 573.576 140.278C572.733 140.278 572.07 140.012 571.587 139.48V142.562H569.671V133.572H571.501V134.334C571.976 133.761 572.667 133.474 573.576 133.474ZM573.245 138.706C573.736 138.706 574.137 138.542 574.448 138.215C574.767 137.879 574.927 137.433 574.927 136.876C574.927 136.319 574.767 135.877 574.448 135.55C574.137 135.214 573.736 135.046 573.245 135.046C572.753 135.046 572.348 135.214 572.029 135.55C571.718 135.877 571.562 136.319 571.562 136.876C571.562 137.433 571.718 137.879 572.029 138.215C572.348 138.542 572.753 138.706 573.245 138.706ZM584.622 136.901C584.622 136.925 584.61 137.097 584.585 137.416H579.587C579.677 137.826 579.89 138.149 580.225 138.387C580.561 138.624 580.979 138.743 581.478 138.743C581.822 138.743 582.125 138.694 582.387 138.595C582.657 138.489 582.907 138.325 583.136 138.104L584.155 139.209C583.533 139.922 582.624 140.278 581.429 140.278C580.684 140.278 580.025 140.135 579.452 139.848C578.879 139.553 578.437 139.148 578.125 138.632C577.814 138.116 577.659 137.531 577.659 136.876C577.659 136.229 577.81 135.648 578.113 135.132C578.424 134.608 578.846 134.203 579.378 133.916C579.918 133.622 580.52 133.474 581.183 133.474C581.83 133.474 582.416 133.613 582.94 133.892C583.464 134.17 583.873 134.571 584.168 135.095C584.471 135.611 584.622 136.213 584.622 136.901ZM581.196 134.923C580.762 134.923 580.397 135.046 580.103 135.292C579.808 135.537 579.628 135.873 579.562 136.299H582.817C582.751 135.881 582.571 135.55 582.276 135.304C581.982 135.05 581.621 134.923 581.196 134.923Z" fill="white"/>
<path d="M626.023 116.583C626.784 116.583 627.443 116.71 628 116.964C628.565 117.217 628.999 117.578 629.302 118.044C629.605 118.511 629.756 119.064 629.756 119.702C629.756 120.333 629.605 120.885 629.302 121.36C628.999 121.827 628.565 122.187 628 122.441C627.443 122.687 626.784 122.809 626.023 122.809H624.291V125.18H622.302V116.583H626.023ZM625.912 121.188C626.51 121.188 626.965 121.061 627.276 120.808C627.587 120.546 627.742 120.177 627.742 119.702C627.742 119.219 627.587 118.851 627.276 118.597C626.965 118.335 626.51 118.204 625.912 118.204H624.291V121.188H625.912ZM635.177 118.474C635.996 118.474 636.655 118.72 637.155 119.211C637.662 119.702 637.916 120.431 637.916 121.397V125.18H636V121.692C636 121.168 635.886 120.779 635.656 120.525C635.427 120.263 635.096 120.132 634.662 120.132C634.179 120.132 633.794 120.284 633.507 120.586C633.221 120.881 633.077 121.323 633.077 121.913V125.18H631.162V116.067H633.077V119.26C633.331 119.006 633.638 118.814 633.998 118.683C634.359 118.544 634.752 118.474 635.177 118.474ZM642.318 118.474C643.341 118.474 644.127 118.72 644.676 119.211C645.224 119.694 645.498 120.427 645.498 121.409V125.18H643.705V124.357C643.345 124.971 642.674 125.278 641.691 125.278C641.184 125.278 640.742 125.192 640.365 125.02C639.997 124.848 639.714 124.611 639.518 124.308C639.321 124.005 639.223 123.661 639.223 123.276C639.223 122.662 639.452 122.179 639.911 121.827C640.377 121.475 641.094 121.299 642.06 121.299H643.583C643.583 120.881 643.456 120.562 643.202 120.341C642.948 120.112 642.567 119.997 642.06 119.997C641.708 119.997 641.36 120.054 641.016 120.169C640.68 120.275 640.394 120.423 640.156 120.611L639.468 119.272C639.829 119.019 640.259 118.822 640.758 118.683C641.266 118.544 641.785 118.474 642.318 118.474ZM642.17 123.988C642.498 123.988 642.788 123.915 643.042 123.767C643.296 123.612 643.476 123.387 643.583 123.092V122.416H642.269C641.483 122.416 641.09 122.674 641.09 123.19C641.09 123.436 641.184 123.632 641.372 123.78C641.569 123.919 641.835 123.988 642.17 123.988ZM649.455 125.278C648.907 125.278 648.37 125.212 647.846 125.081C647.322 124.942 646.905 124.77 646.594 124.566L647.232 123.19C647.527 123.378 647.883 123.534 648.301 123.657C648.718 123.771 649.128 123.829 649.529 123.829C650.339 123.829 650.745 123.628 650.745 123.227C650.745 123.039 650.634 122.903 650.413 122.822C650.192 122.74 649.852 122.67 649.394 122.613C648.853 122.531 648.407 122.437 648.055 122.33C647.703 122.224 647.396 122.036 647.134 121.765C646.88 121.495 646.753 121.11 646.753 120.611C646.753 120.194 646.872 119.825 647.11 119.506C647.355 119.178 647.707 118.924 648.166 118.744C648.632 118.564 649.181 118.474 649.811 118.474C650.278 118.474 650.741 118.527 651.199 118.634C651.666 118.732 652.051 118.871 652.354 119.051L651.715 120.415C651.134 120.087 650.499 119.923 649.811 119.923C649.402 119.923 649.095 119.981 648.89 120.095C648.686 120.21 648.583 120.357 648.583 120.537C648.583 120.742 648.694 120.885 648.915 120.967C649.136 121.049 649.488 121.127 649.971 121.201C650.511 121.291 650.953 121.389 651.297 121.495C651.641 121.594 651.94 121.778 652.194 122.048C652.448 122.318 652.575 122.695 652.575 123.178C652.575 123.587 652.452 123.951 652.206 124.271C651.961 124.59 651.6 124.84 651.125 125.02C650.659 125.192 650.102 125.278 649.455 125.278ZM660.229 121.901C660.229 121.925 660.216 122.097 660.192 122.416H655.193C655.284 122.826 655.496 123.149 655.832 123.387C656.168 123.624 656.585 123.743 657.085 123.743C657.429 123.743 657.732 123.694 657.994 123.595C658.264 123.489 658.513 123.325 658.743 123.104L659.762 124.209C659.14 124.922 658.231 125.278 657.036 125.278C656.291 125.278 655.631 125.135 655.058 124.848C654.485 124.553 654.043 124.148 653.732 123.632C653.421 123.116 653.265 122.531 653.265 121.876C653.265 121.229 653.417 120.648 653.72 120.132C654.031 119.608 654.453 119.203 654.985 118.916C655.525 118.622 656.127 118.474 656.79 118.474C657.437 118.474 658.022 118.613 658.546 118.892C659.07 119.17 659.48 119.571 659.774 120.095C660.077 120.611 660.229 121.213 660.229 121.901ZM656.802 119.923C656.368 119.923 656.004 120.046 655.709 120.292C655.415 120.537 655.234 120.873 655.169 121.299H658.423C658.358 120.881 658.178 120.55 657.883 120.304C657.588 120.05 657.228 119.923 656.802 119.923ZM668.716 119.788C669.264 119.788 669.764 119.899 670.214 120.12C670.664 120.341 671.02 120.656 671.282 121.065C671.544 121.467 671.675 121.933 671.675 122.465C671.675 123.039 671.532 123.542 671.245 123.976C670.959 124.41 670.566 124.746 670.066 124.983C669.575 125.212 669.027 125.327 668.421 125.327C667.217 125.327 666.276 124.959 665.596 124.222C664.917 123.485 664.577 122.433 664.577 121.065C664.577 120.091 664.761 119.256 665.13 118.56C665.498 117.864 666.01 117.336 666.665 116.976C667.328 116.616 668.093 116.436 668.961 116.436C669.42 116.436 669.858 116.489 670.275 116.595C670.701 116.693 671.061 116.837 671.356 117.025L670.619 118.486C670.193 118.2 669.657 118.057 669.01 118.057C668.282 118.057 667.704 118.269 667.279 118.695C666.853 119.121 666.624 119.739 666.591 120.55C667.099 120.042 667.807 119.788 668.716 119.788ZM668.31 123.841C668.736 123.841 669.08 123.726 669.342 123.497C669.612 123.268 669.747 122.957 669.747 122.564C669.747 122.171 669.612 121.86 669.342 121.63C669.08 121.393 668.728 121.274 668.286 121.274C667.852 121.274 667.496 121.397 667.217 121.643C666.939 121.88 666.8 122.187 666.8 122.564C666.8 122.94 666.935 123.247 667.205 123.485C667.475 123.722 667.844 123.841 668.31 123.841ZM630.567 131.583L626.846 140.18H624.881L621.172 131.583H623.321L625.937 137.723L628.59 131.583H630.567ZM633.323 133.474C634.346 133.474 635.132 133.72 635.681 134.211C636.229 134.694 636.504 135.427 636.504 136.409V140.18H634.711V139.357C634.35 139.971 633.679 140.278 632.697 140.278C632.189 140.278 631.747 140.192 631.37 140.02C631.002 139.848 630.719 139.611 630.523 139.308C630.326 139.005 630.228 138.661 630.228 138.276C630.228 137.662 630.457 137.179 630.916 136.827C631.382 136.475 632.099 136.299 633.065 136.299H634.588C634.588 135.881 634.461 135.562 634.207 135.341C633.953 135.112 633.573 134.997 633.065 134.997C632.713 134.997 632.365 135.054 632.021 135.169C631.685 135.275 631.399 135.423 631.161 135.611L630.474 134.272C630.834 134.019 631.264 133.822 631.763 133.683C632.271 133.544 632.791 133.474 633.323 133.474ZM633.175 138.988C633.503 138.988 633.794 138.915 634.047 138.767C634.301 138.612 634.481 138.387 634.588 138.092V137.416H633.274C632.488 137.416 632.095 137.674 632.095 138.19C632.095 138.436 632.189 138.632 632.377 138.78C632.574 138.919 632.84 138.988 633.175 138.988ZM638.238 131.067H640.153V140.18H638.238V131.067ZM641.931 133.572H643.847V140.18H641.931V133.572ZM642.889 132.651C642.537 132.651 642.251 132.549 642.03 132.344C641.809 132.14 641.698 131.886 641.698 131.583C641.698 131.28 641.809 131.026 642.03 130.821C642.251 130.617 642.537 130.514 642.889 130.514C643.241 130.514 643.528 130.613 643.749 130.809C643.97 131.006 644.081 131.251 644.081 131.546C644.081 131.865 643.97 132.131 643.749 132.344C643.528 132.549 643.241 132.651 642.889 132.651ZM652.355 131.067V140.18H650.525V139.418C650.051 139.991 649.363 140.278 648.462 140.278C647.84 140.278 647.275 140.139 646.767 139.86C646.268 139.582 645.875 139.185 645.588 138.669C645.302 138.153 645.159 137.556 645.159 136.876C645.159 136.196 645.302 135.599 645.588 135.083C645.875 134.567 646.268 134.17 646.767 133.892C647.275 133.613 647.84 133.474 648.462 133.474C649.305 133.474 649.965 133.74 650.439 134.272V131.067H652.355ZM648.794 138.706C649.277 138.706 649.678 138.542 649.997 138.215C650.317 137.879 650.476 137.433 650.476 136.876C650.476 136.319 650.317 135.877 649.997 135.55C649.678 135.214 649.277 135.046 648.794 135.046C648.303 135.046 647.897 135.214 647.578 135.55C647.259 135.877 647.099 136.319 647.099 136.876C647.099 137.433 647.259 137.879 647.578 138.215C647.897 138.542 648.303 138.706 648.794 138.706ZM656.793 133.474C657.817 133.474 658.603 133.72 659.151 134.211C659.7 134.694 659.974 135.427 659.974 136.409V140.18H658.181V139.357C657.821 139.971 657.149 140.278 656.167 140.278C655.659 140.278 655.217 140.192 654.841 140.02C654.472 139.848 654.19 139.611 653.993 139.308C653.797 139.005 653.699 138.661 653.699 138.276C653.699 137.662 653.928 137.179 654.386 136.827C654.853 136.475 655.569 136.299 656.535 136.299H658.058C658.058 135.881 657.931 135.562 657.678 135.341C657.424 135.112 657.043 134.997 656.535 134.997C656.183 134.997 655.835 135.054 655.492 135.169C655.156 135.275 654.869 135.423 654.632 135.611L653.944 134.272C654.304 134.019 654.734 133.822 655.234 133.683C655.741 133.544 656.261 133.474 656.793 133.474ZM656.646 138.988C656.973 138.988 657.264 138.915 657.518 138.767C657.772 138.612 657.952 138.387 658.058 138.092V137.416H656.744C655.958 137.416 655.565 137.674 655.565 138.19C655.565 138.436 655.659 138.632 655.848 138.78C656.044 138.919 656.31 138.988 656.646 138.988ZM665.97 139.86C665.781 139.999 665.548 140.106 665.269 140.18C664.999 140.245 664.713 140.278 664.41 140.278C663.624 140.278 663.014 140.077 662.58 139.676C662.154 139.275 661.941 138.685 661.941 137.908V135.194H660.922V133.72H661.941V132.111H663.857V133.72H665.503V135.194H663.857V137.883C663.857 138.161 663.927 138.378 664.066 138.534C664.213 138.681 664.418 138.755 664.68 138.755C664.983 138.755 665.241 138.673 665.454 138.509L665.97 139.86ZM673.313 136.901C673.313 136.925 673.301 137.097 673.276 137.416H668.278C668.368 137.826 668.581 138.149 668.917 138.387C669.252 138.624 669.67 138.743 670.169 138.743C670.513 138.743 670.816 138.694 671.078 138.595C671.348 138.489 671.598 138.325 671.827 138.104L672.846 139.209C672.224 139.922 671.315 140.278 670.12 140.278C669.375 140.278 668.716 140.135 668.143 139.848C667.57 139.553 667.128 139.148 666.817 138.632C666.505 138.116 666.35 137.531 666.35 136.876C666.35 136.229 666.501 135.648 666.804 135.132C667.115 134.608 667.537 134.203 668.069 133.916C668.61 133.622 669.211 133.474 669.874 133.474C670.521 133.474 671.107 133.613 671.631 133.892C672.155 134.17 672.564 134.571 672.859 135.095C673.162 135.611 673.313 136.213 673.313 136.901ZM669.887 134.923C669.453 134.923 669.088 135.046 668.794 135.292C668.499 135.537 668.319 135.873 668.253 136.299H671.508C671.442 135.881 671.262 135.55 670.967 135.304C670.673 135.05 670.312 134.923 669.887 134.923Z" fill="white"/>
</svg>
