<svg width="43" height="15" viewBox="0 0 43 15" fill="none" xmlns="http://www.w3.org/2000/svg">
<mask id="path-1-inside-1_252_705" fill="white">
<path fill-rule="evenodd" clip-rule="evenodd" d="M14.3605 7.31564L7.18027 0L0 7.31564L7.18027 14.6313L14.3605 7.31564Z"/>
</mask>
<path fill-rule="evenodd" clip-rule="evenodd" d="M14.3605 7.31564L7.18027 0L0 7.31564L7.18027 14.6313L14.3605 7.31564Z" fill="white"/>
<path d="M7.18027 0L8.57254 -1.36651L7.18027 -2.78503L5.788 -1.36651L7.18027 0ZM14.3605 7.31564L15.7528 8.68215L17.094 7.31564L15.7528 5.94913L14.3605 7.31564ZM0 7.31564L-1.39227 5.94913L-2.73349 7.31564L-1.39227 8.68215L0 7.31564ZM7.18027 14.6313L5.78799 15.9978L7.18027 17.4163L8.57254 15.9978L7.18027 14.6313ZM5.788 1.36651L12.9683 8.68215L15.7528 5.94913L8.57254 -1.36651L5.788 1.36651ZM1.39227 8.68215L8.57254 1.36651L5.788 -1.36651L-1.39227 5.94913L1.39227 8.68215ZM8.57254 13.2648L1.39227 5.94913L-1.39227 8.68215L5.78799 15.9978L8.57254 13.2648ZM12.9683 5.94913L5.78799 13.2648L8.57254 15.9978L15.7528 8.68215L12.9683 5.94913Z" fill="black" mask="url(#path-1-inside-1_252_705)"/>
<mask id="path-3-inside-2_252_705" fill="white">
<path fill-rule="evenodd" clip-rule="evenodd" d="M28.8566 7.31564L21.6764 0L14.4961 7.31564L21.6764 14.6313L28.8566 7.31564Z"/>
</mask>
<path fill-rule="evenodd" clip-rule="evenodd" d="M28.8566 7.31564L21.6764 0L14.4961 7.31564L21.6764 14.6313L28.8566 7.31564Z" fill="white"/>
<path d="M21.6764 0L23.0686 -1.36651L21.6764 -2.78503L20.2841 -1.36651L21.6764 0ZM28.8566 7.31564L30.2489 8.68215L31.5901 7.31564L30.2489 5.94913L28.8566 7.31564ZM14.4961 7.31564L13.1038 5.94913L11.7626 7.31564L13.1038 8.68215L14.4961 7.31564ZM21.6764 14.6313L20.2841 15.9978L21.6764 17.4163L23.0686 15.9978L21.6764 14.6313ZM20.2841 1.36651L27.4644 8.68215L30.2489 5.94913L23.0686 -1.36651L20.2841 1.36651ZM15.8884 8.68215L23.0686 1.36651L20.2841 -1.36651L13.1038 5.94913L15.8884 8.68215ZM23.0686 13.2648L15.8884 5.94913L13.1038 8.68215L20.2841 15.9978L23.0686 13.2648ZM27.4644 5.94913L20.2841 13.2648L23.0686 15.9978L30.2489 8.68215L27.4644 5.94913Z" fill="black" mask="url(#path-3-inside-2_252_705)"/>
<mask id="path-5-inside-3_252_705" fill="white">
<path fill-rule="evenodd" clip-rule="evenodd" d="M43.0002 7.31564L35.8199 0L28.6396 7.31564L35.8199 14.6313L43.0002 7.31564Z"/>
</mask>
<path fill-rule="evenodd" clip-rule="evenodd" d="M43.0002 7.31564L35.8199 0L28.6396 7.31564L35.8199 14.6313L43.0002 7.31564Z" fill="white"/>
<path d="M35.8199 0L37.2122 -1.36651L35.8199 -2.78503L34.4276 -1.36651L35.8199 0ZM43.0002 7.31564L44.3925 8.68215L45.7337 7.31564L44.3925 5.94913L43.0002 7.31564ZM28.6396 7.31564L27.2474 5.94913L25.9062 7.31564L27.2474 8.68215L28.6396 7.31564ZM35.8199 14.6313L34.4276 15.9978L35.8199 17.4163L37.2122 15.9978L35.8199 14.6313ZM34.4276 1.36651L41.6079 8.68215L44.3925 5.94913L37.2122 -1.36651L34.4276 1.36651ZM30.0319 8.68215L37.2122 1.36651L34.4276 -1.36651L27.2474 5.94913L30.0319 8.68215ZM37.2122 13.2648L30.0319 5.94913L27.2474 8.68215L34.4276 15.9978L37.2122 13.2648ZM41.6079 5.94913L34.4276 13.2648L37.2122 15.9978L44.3925 8.68215L41.6079 5.94913Z" fill="black" mask="url(#path-5-inside-3_252_705)"/>
</svg>
