<svg width="1175" height="334" viewBox="0 0 1175 334" fill="none" xmlns="http://www.w3.org/2000/svg">
<path d="M398.435 156.35L213.909 291.753L213.909 20.9469L398.435 156.35Z" fill="#85953A"/>
<path d="M398.435 156.35L582.961 20.9469L582.961 291.753L398.435 156.35Z" fill="#3076DF"/>
<path d="M764.87 156.35L580.344 291.753L580.344 20.9469L764.87 156.35Z" fill="#8C3A9D"/>
<path d="M764.87 156.35L949.396 20.9469L949.396 291.753L764.87 156.35Z" fill="#FF5F5F"/>
<path d="M1131.3 156.35L946.778 291.753L946.778 20.9469L1131.3 156.35Z" fill="#E52525"/>
<path d="M32 156.35L216.526 20.9469L216.526 291.753L32 156.35Z" fill="#ABBF4A"/>
<path d="M96.176 137.8C97.168 137.8 98.0267 137.965 98.752 138.296C99.488 138.627 100.053 139.096 100.448 139.704C100.843 140.312 101.04 141.032 101.04 141.864C101.04 142.685 100.843 143.405 100.448 144.024C100.053 144.632 99.488 145.101 98.752 145.432C98.0267 145.752 97.168 145.912 96.176 145.912H93.92V149H91.328V137.8H96.176ZM96.032 143.8C96.8107 143.8 97.4027 143.635 97.808 143.304C98.2133 142.963 98.416 142.483 98.416 141.864C98.416 141.235 98.2133 140.755 97.808 140.424C97.4027 140.083 96.8107 139.912 96.032 139.912H93.92V143.8H96.032ZM108.103 140.264C109.169 140.264 110.028 140.584 110.679 141.224C111.34 141.864 111.671 142.813 111.671 144.072V149H109.175V144.456C109.175 143.773 109.025 143.267 108.727 142.936C108.428 142.595 107.996 142.424 107.431 142.424C106.801 142.424 106.3 142.621 105.927 143.016C105.553 143.4 105.367 143.976 105.367 144.744V149H102.871V137.128H105.367V141.288C105.697 140.957 106.097 140.707 106.567 140.536C107.036 140.355 107.548 140.264 108.103 140.264ZM117.405 140.264C118.739 140.264 119.763 140.584 120.477 141.224C121.192 141.853 121.549 142.808 121.549 144.088V149H119.213V147.928C118.744 148.728 117.869 149.128 116.589 149.128C115.928 149.128 115.352 149.016 114.861 148.792C114.381 148.568 114.013 148.259 113.757 147.864C113.501 147.469 113.373 147.021 113.373 146.52C113.373 145.72 113.672 145.091 114.269 144.632C114.877 144.173 115.811 143.944 117.069 143.944H119.053C119.053 143.4 118.888 142.984 118.557 142.696C118.227 142.397 117.731 142.248 117.069 142.248C116.611 142.248 116.157 142.323 115.709 142.472C115.272 142.611 114.899 142.803 114.589 143.048L113.693 141.304C114.163 140.973 114.723 140.717 115.373 140.536C116.035 140.355 116.712 140.264 117.405 140.264ZM117.213 147.448C117.64 147.448 118.019 147.352 118.349 147.16C118.68 146.957 118.915 146.664 119.053 146.28V145.4H117.341C116.317 145.4 115.805 145.736 115.805 146.408C115.805 146.728 115.928 146.984 116.173 147.176C116.429 147.357 116.776 147.448 117.213 147.448ZM126.704 149.128C125.99 149.128 125.291 149.043 124.608 148.872C123.926 148.691 123.382 148.467 122.976 148.2L123.808 146.408C124.192 146.653 124.656 146.856 125.2 147.016C125.744 147.165 126.278 147.24 126.8 147.24C127.856 147.24 128.384 146.979 128.384 146.456C128.384 146.211 128.24 146.035 127.952 145.928C127.664 145.821 127.222 145.731 126.624 145.656C125.92 145.549 125.339 145.427 124.88 145.288C124.422 145.149 124.022 144.904 123.68 144.552C123.35 144.2 123.184 143.699 123.184 143.048C123.184 142.504 123.339 142.024 123.648 141.608C123.968 141.181 124.427 140.851 125.024 140.616C125.632 140.381 126.347 140.264 127.168 140.264C127.776 140.264 128.379 140.333 128.976 140.472C129.584 140.6 130.086 140.781 130.48 141.016L129.648 142.792C128.891 142.365 128.064 142.152 127.168 142.152C126.635 142.152 126.235 142.227 125.968 142.376C125.702 142.525 125.568 142.717 125.568 142.952C125.568 143.219 125.712 143.405 126 143.512C126.288 143.619 126.747 143.72 127.376 143.816C128.08 143.933 128.656 144.061 129.104 144.2C129.552 144.328 129.942 144.568 130.272 144.92C130.603 145.272 130.768 145.763 130.768 146.392C130.768 146.925 130.608 147.4 130.288 147.816C129.968 148.232 129.499 148.557 128.88 148.792C128.272 149.016 127.547 149.128 126.704 149.128ZM140.74 144.728C140.74 144.76 140.724 144.984 140.692 145.4H134.18C134.298 145.933 134.575 146.355 135.012 146.664C135.45 146.973 135.994 147.128 136.644 147.128C137.092 147.128 137.487 147.064 137.828 146.936C138.18 146.797 138.506 146.584 138.804 146.296L140.132 147.736C139.322 148.664 138.138 149.128 136.58 149.128C135.61 149.128 134.751 148.941 134.004 148.568C133.258 148.184 132.682 147.656 132.276 146.984C131.871 146.312 131.668 145.549 131.668 144.696C131.668 143.853 131.866 143.096 132.26 142.424C132.666 141.741 133.215 141.213 133.908 140.84C134.612 140.456 135.396 140.264 136.26 140.264C137.103 140.264 137.866 140.445 138.548 140.808C139.231 141.171 139.764 141.693 140.148 142.376C140.543 143.048 140.74 143.832 140.74 144.728ZM136.276 142.152C135.711 142.152 135.236 142.312 134.852 142.632C134.468 142.952 134.234 143.389 134.148 143.944H138.388C138.303 143.4 138.068 142.968 137.684 142.648C137.3 142.317 136.831 142.152 136.276 142.152ZM150.725 137.8V149H148.133V139.88H145.893V137.8H150.725ZM96.304 169.192C94.704 169.192 93.456 168.749 92.56 167.864C91.6747 166.979 91.232 165.715 91.232 164.072V157.8H93.824V163.976C93.824 165.981 94.656 166.984 96.32 166.984C97.1307 166.984 97.7493 166.744 98.176 166.264C98.6027 165.773 98.816 165.011 98.816 163.976V157.8H101.376V164.072C101.376 165.715 100.928 166.979 100.032 167.864C99.1467 168.749 97.904 169.192 96.304 169.192ZM108.993 160.264C110.06 160.264 110.919 160.584 111.569 161.224C112.231 161.864 112.561 162.813 112.561 164.072V169H110.065V164.456C110.065 163.773 109.916 163.267 109.617 162.936C109.319 162.595 108.887 162.424 108.321 162.424C107.692 162.424 107.191 162.621 106.817 163.016C106.444 163.4 106.257 163.976 106.257 164.744V169H103.761V160.392H106.145V161.4C106.476 161.037 106.887 160.76 107.377 160.568C107.868 160.365 108.407 160.264 108.993 160.264ZM123.686 157.128V169H121.302V168.008C120.683 168.755 119.787 169.128 118.614 169.128C117.803 169.128 117.067 168.947 116.406 168.584C115.755 168.221 115.243 167.704 114.87 167.032C114.496 166.36 114.31 165.581 114.31 164.696C114.31 163.811 114.496 163.032 114.87 162.36C115.243 161.688 115.755 161.171 116.406 160.808C117.067 160.445 117.803 160.264 118.614 160.264C119.712 160.264 120.571 160.611 121.19 161.304V157.128H123.686ZM119.046 167.08C119.675 167.08 120.198 166.867 120.614 166.44C121.03 166.003 121.238 165.421 121.238 164.696C121.238 163.971 121.03 163.395 120.614 162.968C120.198 162.531 119.675 162.312 119.046 162.312C118.406 162.312 117.878 162.531 117.462 162.968C117.046 163.395 116.838 163.971 116.838 164.696C116.838 165.421 117.046 166.003 117.462 166.44C117.878 166.867 118.406 167.08 119.046 167.08ZM134.428 164.728C134.428 164.76 134.412 164.984 134.38 165.4H127.868C127.985 165.933 128.262 166.355 128.7 166.664C129.137 166.973 129.681 167.128 130.332 167.128C130.78 167.128 131.174 167.064 131.516 166.936C131.868 166.797 132.193 166.584 132.492 166.296L133.82 167.736C133.009 168.664 131.825 169.128 130.268 169.128C129.297 169.128 128.438 168.941 127.692 168.568C126.945 168.184 126.369 167.656 125.964 166.984C125.558 166.312 125.356 165.549 125.356 164.696C125.356 163.853 125.553 163.096 125.948 162.424C126.353 161.741 126.902 161.213 127.596 160.84C128.3 160.456 129.084 160.264 129.948 160.264C130.79 160.264 131.553 160.445 132.236 160.808C132.918 161.171 133.452 161.693 133.836 162.376C134.23 163.048 134.428 163.832 134.428 164.728ZM129.964 162.152C129.398 162.152 128.924 162.312 128.54 162.632C128.156 162.952 127.921 163.389 127.836 163.944H132.076C131.99 163.4 131.756 162.968 131.372 162.648C130.988 162.317 130.518 162.152 129.964 162.152ZM138.474 161.528C138.772 161.112 139.172 160.797 139.674 160.584C140.186 160.371 140.772 160.264 141.434 160.264V162.568C141.156 162.547 140.97 162.536 140.874 162.536C140.159 162.536 139.599 162.739 139.194 163.144C138.788 163.539 138.586 164.136 138.586 164.936V169H136.09V160.392H138.474V161.528ZM145.845 169.128C145.13 169.128 144.432 169.043 143.749 168.872C143.066 168.691 142.522 168.467 142.117 168.2L142.949 166.408C143.333 166.653 143.797 166.856 144.341 167.016C144.885 167.165 145.418 167.24 145.941 167.24C146.997 167.24 147.525 166.979 147.525 166.456C147.525 166.211 147.381 166.035 147.093 165.928C146.805 165.821 146.362 165.731 145.765 165.656C145.061 165.549 144.48 165.427 144.021 165.288C143.562 165.149 143.162 164.904 142.821 164.552C142.49 164.2 142.325 163.699 142.325 163.048C142.325 162.504 142.48 162.024 142.789 161.608C143.109 161.181 143.568 160.851 144.165 160.616C144.773 160.381 145.488 160.264 146.309 160.264C146.917 160.264 147.52 160.333 148.117 160.472C148.725 160.6 149.226 160.781 149.621 161.016L148.789 162.792C148.032 162.365 147.205 162.152 146.309 162.152C145.776 162.152 145.376 162.227 145.109 162.376C144.842 162.525 144.709 162.717 144.709 162.952C144.709 163.219 144.853 163.405 145.141 163.512C145.429 163.619 145.888 163.72 146.517 163.816C147.221 163.933 147.797 164.061 148.245 164.2C148.693 164.328 149.082 164.568 149.413 164.92C149.744 165.272 149.909 165.763 149.909 166.392C149.909 166.925 149.749 167.4 149.429 167.816C149.109 168.232 148.64 168.557 148.021 168.792C147.413 169.016 146.688 169.128 145.845 169.128ZM157.001 168.584C156.756 168.765 156.452 168.904 156.089 169C155.737 169.085 155.364 169.128 154.969 169.128C153.945 169.128 153.15 168.867 152.585 168.344C152.03 167.821 151.753 167.053 151.753 166.04V162.504H150.425V160.584H151.753V158.488H154.249V160.584H156.393V162.504H154.249V166.008C154.249 166.371 154.34 166.653 154.521 166.856C154.713 167.048 154.98 167.144 155.321 167.144C155.716 167.144 156.052 167.037 156.329 166.824L157.001 168.584ZM161.874 160.264C163.207 160.264 164.231 160.584 164.946 161.224C165.661 161.853 166.018 162.808 166.018 164.088V169H163.682V167.928C163.213 168.728 162.338 169.128 161.058 169.128C160.397 169.128 159.821 169.016 159.33 168.792C158.85 168.568 158.482 168.259 158.226 167.864C157.97 167.469 157.842 167.021 157.842 166.52C157.842 165.72 158.141 165.091 158.738 164.632C159.346 164.173 160.279 163.944 161.538 163.944H163.522C163.522 163.4 163.357 162.984 163.026 162.696C162.695 162.397 162.199 162.248 161.538 162.248C161.079 162.248 160.626 162.323 160.178 162.472C159.741 162.611 159.367 162.803 159.058 163.048L158.162 161.304C158.631 160.973 159.191 160.717 159.842 160.536C160.503 160.355 161.181 160.264 161.874 160.264ZM161.682 167.448C162.109 167.448 162.487 167.352 162.818 167.16C163.149 166.957 163.383 166.664 163.522 166.28V165.4H161.81C160.786 165.4 160.274 165.736 160.274 166.408C160.274 166.728 160.397 166.984 160.642 167.176C160.898 167.357 161.245 167.448 161.682 167.448ZM173.509 160.264C174.576 160.264 175.434 160.584 176.085 161.224C176.746 161.864 177.077 162.813 177.077 164.072V169H174.581V164.456C174.581 163.773 174.432 163.267 174.133 162.936C173.834 162.595 173.402 162.424 172.837 162.424C172.208 162.424 171.706 162.621 171.333 163.016C170.96 163.4 170.773 163.976 170.773 164.744V169H168.277V160.392H170.661V161.4C170.992 161.037 171.402 160.76 171.893 160.568C172.384 160.365 172.922 160.264 173.509 160.264ZM188.201 157.128V169H185.817V168.008C185.199 168.755 184.303 169.128 183.129 169.128C182.319 169.128 181.583 168.947 180.921 168.584C180.271 168.221 179.759 167.704 179.385 167.032C179.012 166.36 178.825 165.581 178.825 164.696C178.825 163.811 179.012 163.032 179.385 162.36C179.759 161.688 180.271 161.171 180.921 160.808C181.583 160.445 182.319 160.264 183.129 160.264C184.228 160.264 185.087 160.611 185.705 161.304V157.128H188.201ZM183.561 167.08C184.191 167.08 184.713 166.867 185.129 166.44C185.545 166.003 185.753 165.421 185.753 164.696C185.753 163.971 185.545 163.395 185.129 162.968C184.713 162.531 184.191 162.312 183.561 162.312C182.921 162.312 182.393 162.531 181.977 162.968C181.561 163.395 181.353 163.971 181.353 164.696C181.353 165.421 181.561 166.003 181.977 166.44C182.393 166.867 182.921 167.08 183.561 167.08Z" fill="white"/>
<path d="M257.176 137.8C258.168 137.8 259.027 137.965 259.752 138.296C260.488 138.627 261.053 139.096 261.448 139.704C261.843 140.312 262.04 141.032 262.04 141.864C262.04 142.685 261.843 143.405 261.448 144.024C261.053 144.632 260.488 145.101 259.752 145.432C259.027 145.752 258.168 145.912 257.176 145.912H254.92V149H252.328V137.8H257.176ZM257.032 143.8C257.811 143.8 258.403 143.635 258.808 143.304C259.213 142.963 259.416 142.483 259.416 141.864C259.416 141.235 259.213 140.755 258.808 140.424C258.403 140.083 257.811 139.912 257.032 139.912H254.92V143.8H257.032ZM269.103 140.264C270.169 140.264 271.028 140.584 271.679 141.224C272.34 141.864 272.671 142.813 272.671 144.072V149H270.175V144.456C270.175 143.773 270.025 143.267 269.727 142.936C269.428 142.595 268.996 142.424 268.431 142.424C267.801 142.424 267.3 142.621 266.927 143.016C266.553 143.4 266.367 143.976 266.367 144.744V149H263.871V137.128H266.367V141.288C266.697 140.957 267.097 140.707 267.567 140.536C268.036 140.355 268.548 140.264 269.103 140.264ZM278.405 140.264C279.739 140.264 280.763 140.584 281.477 141.224C282.192 141.853 282.549 142.808 282.549 144.088V149H280.213V147.928C279.744 148.728 278.869 149.128 277.589 149.128C276.928 149.128 276.352 149.016 275.861 148.792C275.381 148.568 275.013 148.259 274.757 147.864C274.501 147.469 274.373 147.021 274.373 146.52C274.373 145.72 274.672 145.091 275.269 144.632C275.877 144.173 276.811 143.944 278.069 143.944H280.053C280.053 143.4 279.888 142.984 279.557 142.696C279.227 142.397 278.731 142.248 278.069 142.248C277.611 142.248 277.157 142.323 276.709 142.472C276.272 142.611 275.899 142.803 275.589 143.048L274.693 141.304C275.163 140.973 275.723 140.717 276.373 140.536C277.035 140.355 277.712 140.264 278.405 140.264ZM278.213 147.448C278.64 147.448 279.019 147.352 279.349 147.16C279.68 146.957 279.915 146.664 280.053 146.28V145.4H278.341C277.317 145.4 276.805 145.736 276.805 146.408C276.805 146.728 276.928 146.984 277.173 147.176C277.429 147.357 277.776 147.448 278.213 147.448ZM287.704 149.128C286.99 149.128 286.291 149.043 285.608 148.872C284.926 148.691 284.382 148.467 283.976 148.2L284.808 146.408C285.192 146.653 285.656 146.856 286.2 147.016C286.744 147.165 287.278 147.24 287.8 147.24C288.856 147.24 289.384 146.979 289.384 146.456C289.384 146.211 289.24 146.035 288.952 145.928C288.664 145.821 288.222 145.731 287.624 145.656C286.92 145.549 286.339 145.427 285.88 145.288C285.422 145.149 285.022 144.904 284.68 144.552C284.35 144.2 284.184 143.699 284.184 143.048C284.184 142.504 284.339 142.024 284.648 141.608C284.968 141.181 285.427 140.851 286.024 140.616C286.632 140.381 287.347 140.264 288.168 140.264C288.776 140.264 289.379 140.333 289.976 140.472C290.584 140.6 291.086 140.781 291.48 141.016L290.648 142.792C289.891 142.365 289.064 142.152 288.168 142.152C287.635 142.152 287.235 142.227 286.968 142.376C286.702 142.525 286.568 142.717 286.568 142.952C286.568 143.219 286.712 143.405 287 143.512C287.288 143.619 287.747 143.72 288.376 143.816C289.08 143.933 289.656 144.061 290.104 144.2C290.552 144.328 290.942 144.568 291.272 144.92C291.603 145.272 291.768 145.763 291.768 146.392C291.768 146.925 291.608 147.4 291.288 147.816C290.968 148.232 290.499 148.557 289.88 148.792C289.272 149.016 288.547 149.128 287.704 149.128ZM301.74 144.728C301.74 144.76 301.724 144.984 301.692 145.4H295.18C295.298 145.933 295.575 146.355 296.012 146.664C296.45 146.973 296.994 147.128 297.644 147.128C298.092 147.128 298.487 147.064 298.828 146.936C299.18 146.797 299.506 146.584 299.804 146.296L301.132 147.736C300.322 148.664 299.138 149.128 297.58 149.128C296.61 149.128 295.751 148.941 295.004 148.568C294.258 148.184 293.682 147.656 293.276 146.984C292.871 146.312 292.668 145.549 292.668 144.696C292.668 143.853 292.866 143.096 293.26 142.424C293.666 141.741 294.215 141.213 294.908 140.84C295.612 140.456 296.396 140.264 297.26 140.264C298.103 140.264 298.866 140.445 299.548 140.808C300.231 141.171 300.764 141.693 301.148 142.376C301.543 143.048 301.74 143.832 301.74 144.728ZM297.276 142.152C296.711 142.152 296.236 142.312 295.852 142.632C295.468 142.952 295.234 143.389 295.148 143.944H299.388C299.303 143.4 299.068 142.968 298.684 142.648C298.3 142.317 297.831 142.152 297.276 142.152ZM315.773 146.888V149H307.309V147.32L311.629 143.24C312.088 142.803 312.397 142.429 312.557 142.12C312.717 141.8 312.797 141.485 312.797 141.176C312.797 140.728 312.643 140.387 312.333 140.152C312.035 139.907 311.592 139.784 311.005 139.784C310.515 139.784 310.072 139.88 309.677 140.072C309.283 140.253 308.952 140.531 308.685 140.904L306.797 139.688C307.235 139.037 307.837 138.531 308.605 138.168C309.373 137.795 310.253 137.608 311.245 137.608C312.077 137.608 312.803 137.747 313.421 138.024C314.051 138.291 314.536 138.675 314.877 139.176C315.229 139.667 315.405 140.248 315.405 140.92C315.405 141.528 315.277 142.099 315.021 142.632C314.765 143.165 314.269 143.773 313.533 144.456L310.957 146.888H315.773ZM252.328 157.8H257.416C258.632 157.8 259.704 158.035 260.632 158.504C261.571 158.963 262.296 159.613 262.808 160.456C263.331 161.299 263.592 162.28 263.592 163.4C263.592 164.52 263.331 165.501 262.808 166.344C262.296 167.187 261.571 167.843 260.632 168.312C259.704 168.771 258.632 169 257.416 169H252.328V157.8ZM257.288 166.872C258.408 166.872 259.299 166.563 259.96 165.944C260.632 165.315 260.968 164.467 260.968 163.4C260.968 162.333 260.632 161.491 259.96 160.872C259.299 160.243 258.408 159.928 257.288 159.928H254.92V166.872H257.288ZM273.803 164.728C273.803 164.76 273.787 164.984 273.755 165.4H267.243C267.36 165.933 267.637 166.355 268.075 166.664C268.512 166.973 269.056 167.128 269.707 167.128C270.155 167.128 270.549 167.064 270.891 166.936C271.243 166.797 271.568 166.584 271.867 166.296L273.195 167.736C272.384 168.664 271.2 169.128 269.643 169.128C268.672 169.128 267.813 168.941 267.067 168.568C266.32 168.184 265.744 167.656 265.339 166.984C264.933 166.312 264.731 165.549 264.731 164.696C264.731 163.853 264.928 163.096 265.323 162.424C265.728 161.741 266.277 161.213 266.971 160.84C267.675 160.456 268.459 160.264 269.323 160.264C270.165 160.264 270.928 160.445 271.611 160.808C272.293 161.171 272.827 161.693 273.211 162.376C273.605 163.048 273.803 163.832 273.803 164.728ZM269.339 162.152C268.773 162.152 268.299 162.312 267.915 162.632C267.531 162.952 267.296 163.389 267.211 163.944H271.451C271.365 163.4 271.131 162.968 270.747 162.648C270.363 162.317 269.893 162.152 269.339 162.152ZM278.201 160.584H280.409V162.504H278.265V169H275.769V162.504H274.441V160.584H275.769V160.2C275.769 159.219 276.057 158.44 276.633 157.864C277.219 157.288 278.041 157 279.097 157C279.47 157 279.822 157.043 280.153 157.128C280.494 157.203 280.777 157.315 281.001 157.464L280.345 159.272C280.057 159.069 279.721 158.968 279.337 158.968C278.579 158.968 278.201 159.384 278.201 160.216V160.584ZM282.937 160.392H285.433V169H282.937V160.392ZM284.185 159.192C283.726 159.192 283.353 159.059 283.065 158.792C282.777 158.525 282.633 158.195 282.633 157.8C282.633 157.405 282.777 157.075 283.065 156.808C283.353 156.541 283.726 156.408 284.185 156.408C284.643 156.408 285.017 156.536 285.305 156.792C285.593 157.048 285.737 157.368 285.737 157.752C285.737 158.168 285.593 158.515 285.305 158.792C285.017 159.059 284.643 159.192 284.185 159.192ZM292.978 160.264C294.044 160.264 294.903 160.584 295.554 161.224C296.215 161.864 296.546 162.813 296.546 164.072V169H294.05V164.456C294.05 163.773 293.9 163.267 293.602 162.936C293.303 162.595 292.871 162.424 292.306 162.424C291.676 162.424 291.175 162.621 290.802 163.016C290.428 163.4 290.242 163.976 290.242 164.744V169H287.746V160.392H290.13V161.4C290.46 161.037 290.871 160.76 291.362 160.568C291.852 160.365 292.391 160.264 292.978 160.264ZM307.334 164.728C307.334 164.76 307.318 164.984 307.286 165.4H300.774C300.891 165.933 301.169 166.355 301.606 166.664C302.043 166.973 302.587 167.128 303.238 167.128C303.686 167.128 304.081 167.064 304.422 166.936C304.774 166.797 305.099 166.584 305.398 166.296L306.726 167.736C305.915 168.664 304.731 169.128 303.174 169.128C302.203 169.128 301.345 168.941 300.598 168.568C299.851 168.184 299.275 167.656 298.87 166.984C298.465 166.312 298.262 165.549 298.262 164.696C298.262 163.853 298.459 163.096 298.854 162.424C299.259 161.741 299.809 161.213 300.502 160.84C301.206 160.456 301.99 160.264 302.854 160.264C303.697 160.264 304.459 160.445 305.142 160.808C305.825 161.171 306.358 161.693 306.742 162.376C307.137 163.048 307.334 163.832 307.334 164.728ZM302.87 162.152C302.305 162.152 301.83 162.312 301.446 162.632C301.062 162.952 300.827 163.389 300.742 163.944H304.982C304.897 163.4 304.662 162.968 304.278 162.648C303.894 162.317 303.425 162.152 302.87 162.152Z" fill="white"/>
<path d="M480.176 137.8C481.168 137.8 482.027 137.965 482.752 138.296C483.488 138.627 484.053 139.096 484.448 139.704C484.843 140.312 485.04 141.032 485.04 141.864C485.04 142.685 484.843 143.405 484.448 144.024C484.053 144.632 483.488 145.101 482.752 145.432C482.027 145.752 481.168 145.912 480.176 145.912H477.92V149H475.328V137.8H480.176ZM480.032 143.8C480.811 143.8 481.403 143.635 481.808 143.304C482.213 142.963 482.416 142.483 482.416 141.864C482.416 141.235 482.213 140.755 481.808 140.424C481.403 140.083 480.811 139.912 480.032 139.912H477.92V143.8H480.032ZM492.103 140.264C493.169 140.264 494.028 140.584 494.679 141.224C495.34 141.864 495.671 142.813 495.671 144.072V149H493.175V144.456C493.175 143.773 493.025 143.267 492.727 142.936C492.428 142.595 491.996 142.424 491.431 142.424C490.801 142.424 490.3 142.621 489.927 143.016C489.553 143.4 489.367 143.976 489.367 144.744V149H486.871V137.128H489.367V141.288C489.697 140.957 490.097 140.707 490.567 140.536C491.036 140.355 491.548 140.264 492.103 140.264ZM501.405 140.264C502.739 140.264 503.763 140.584 504.477 141.224C505.192 141.853 505.549 142.808 505.549 144.088V149H503.213V147.928C502.744 148.728 501.869 149.128 500.589 149.128C499.928 149.128 499.352 149.016 498.861 148.792C498.381 148.568 498.013 148.259 497.757 147.864C497.501 147.469 497.373 147.021 497.373 146.52C497.373 145.72 497.672 145.091 498.269 144.632C498.877 144.173 499.811 143.944 501.069 143.944H503.053C503.053 143.4 502.888 142.984 502.557 142.696C502.227 142.397 501.731 142.248 501.069 142.248C500.611 142.248 500.157 142.323 499.709 142.472C499.272 142.611 498.899 142.803 498.589 143.048L497.693 141.304C498.163 140.973 498.723 140.717 499.373 140.536C500.035 140.355 500.712 140.264 501.405 140.264ZM501.213 147.448C501.64 147.448 502.019 147.352 502.349 147.16C502.68 146.957 502.915 146.664 503.053 146.28V145.4H501.341C500.317 145.4 499.805 145.736 499.805 146.408C499.805 146.728 499.928 146.984 500.173 147.176C500.429 147.357 500.776 147.448 501.213 147.448ZM510.704 149.128C509.99 149.128 509.291 149.043 508.608 148.872C507.926 148.691 507.382 148.467 506.976 148.2L507.808 146.408C508.192 146.653 508.656 146.856 509.2 147.016C509.744 147.165 510.278 147.24 510.8 147.24C511.856 147.24 512.384 146.979 512.384 146.456C512.384 146.211 512.24 146.035 511.952 145.928C511.664 145.821 511.222 145.731 510.624 145.656C509.92 145.549 509.339 145.427 508.88 145.288C508.422 145.149 508.022 144.904 507.68 144.552C507.35 144.2 507.184 143.699 507.184 143.048C507.184 142.504 507.339 142.024 507.648 141.608C507.968 141.181 508.427 140.851 509.024 140.616C509.632 140.381 510.347 140.264 511.168 140.264C511.776 140.264 512.379 140.333 512.976 140.472C513.584 140.6 514.086 140.781 514.48 141.016L513.648 142.792C512.891 142.365 512.064 142.152 511.168 142.152C510.635 142.152 510.235 142.227 509.968 142.376C509.702 142.525 509.568 142.717 509.568 142.952C509.568 143.219 509.712 143.405 510 143.512C510.288 143.619 510.747 143.72 511.376 143.816C512.08 143.933 512.656 144.061 513.104 144.2C513.552 144.328 513.942 144.568 514.272 144.92C514.603 145.272 514.768 145.763 514.768 146.392C514.768 146.925 514.608 147.4 514.288 147.816C513.968 148.232 513.499 148.557 512.88 148.792C512.272 149.016 511.547 149.128 510.704 149.128ZM524.74 144.728C524.74 144.76 524.724 144.984 524.692 145.4H518.18C518.298 145.933 518.575 146.355 519.012 146.664C519.45 146.973 519.994 147.128 520.644 147.128C521.092 147.128 521.487 147.064 521.828 146.936C522.18 146.797 522.506 146.584 522.804 146.296L524.132 147.736C523.322 148.664 522.138 149.128 520.58 149.128C519.61 149.128 518.751 148.941 518.004 148.568C517.258 148.184 516.682 147.656 516.276 146.984C515.871 146.312 515.668 145.549 515.668 144.696C515.668 143.853 515.866 143.096 516.26 142.424C516.666 141.741 517.215 141.213 517.908 140.84C518.612 140.456 519.396 140.264 520.26 140.264C521.103 140.264 521.866 140.445 522.548 140.808C523.231 141.171 523.764 141.693 524.148 142.376C524.543 143.048 524.74 143.832 524.74 144.728ZM520.276 142.152C519.711 142.152 519.236 142.312 518.852 142.632C518.468 142.952 518.234 143.389 518.148 143.944H522.388C522.303 143.4 522.068 142.968 521.684 142.648C521.3 142.317 520.831 142.152 520.276 142.152ZM535.637 142.36C536.619 142.52 537.371 142.888 537.893 143.464C538.416 144.029 538.677 144.733 538.677 145.576C538.677 146.227 538.507 146.829 538.165 147.384C537.824 147.928 537.301 148.365 536.597 148.696C535.904 149.027 535.051 149.192 534.037 149.192C533.248 149.192 532.469 149.091 531.701 148.888C530.944 148.675 530.299 148.376 529.765 147.992L530.773 146.008C531.2 146.328 531.691 146.579 532.245 146.76C532.811 146.931 533.387 147.016 533.973 147.016C534.624 147.016 535.136 146.893 535.509 146.648C535.883 146.392 536.069 146.035 536.069 145.576C536.069 144.659 535.371 144.2 533.973 144.2H532.789V142.488L535.093 139.88H530.325V137.8H538.165V139.48L535.637 142.36ZM479.008 169.192C478.123 169.192 477.264 169.075 476.432 168.84C475.611 168.595 474.949 168.28 474.448 167.896L475.328 165.944C475.808 166.296 476.379 166.579 477.04 166.792C477.701 167.005 478.363 167.112 479.024 167.112C479.76 167.112 480.304 167.005 480.656 166.792C481.008 166.568 481.184 166.275 481.184 165.912C481.184 165.645 481.077 165.427 480.864 165.256C480.661 165.075 480.395 164.931 480.064 164.824C479.744 164.717 479.307 164.6 478.752 164.472C477.899 164.269 477.2 164.067 476.656 163.864C476.112 163.661 475.643 163.336 475.248 162.888C474.864 162.44 474.672 161.843 474.672 161.096C474.672 160.445 474.848 159.859 475.2 159.336C475.552 158.803 476.08 158.381 476.784 158.072C477.499 157.763 478.368 157.608 479.392 157.608C480.107 157.608 480.805 157.693 481.488 157.864C482.171 158.035 482.768 158.28 483.28 158.6L482.48 160.568C481.445 159.981 480.411 159.688 479.376 159.688C478.651 159.688 478.112 159.805 477.76 160.04C477.419 160.275 477.248 160.584 477.248 160.968C477.248 161.352 477.445 161.64 477.84 161.832C478.245 162.013 478.859 162.195 479.68 162.376C480.533 162.579 481.232 162.781 481.776 162.984C482.32 163.187 482.784 163.507 483.168 163.944C483.563 164.381 483.76 164.973 483.76 165.72C483.76 166.36 483.579 166.947 483.216 167.48C482.864 168.003 482.331 168.419 481.616 168.728C480.901 169.037 480.032 169.192 479.008 169.192ZM489.051 165.624L487.851 166.808V169H485.355V157.128H487.851V163.848L491.499 160.392H494.475L490.891 164.04L494.795 169H491.771L489.051 165.624ZM503.975 164.728C503.975 164.76 503.959 164.984 503.927 165.4H497.415C497.532 165.933 497.809 166.355 498.247 166.664C498.684 166.973 499.228 167.128 499.879 167.128C500.327 167.128 500.721 167.064 501.063 166.936C501.415 166.797 501.74 166.584 502.039 166.296L503.367 167.736C502.556 168.664 501.372 169.128 499.815 169.128C498.844 169.128 497.985 168.941 497.239 168.568C496.492 168.184 495.916 167.656 495.511 166.984C495.105 166.312 494.903 165.549 494.903 164.696C494.903 163.853 495.1 163.096 495.495 162.424C495.9 161.741 496.449 161.213 497.143 160.84C497.847 160.456 498.631 160.264 499.495 160.264C500.337 160.264 501.1 160.445 501.783 160.808C502.465 161.171 502.999 161.693 503.383 162.376C503.777 163.048 503.975 163.832 503.975 164.728ZM499.511 162.152C498.945 162.152 498.471 162.312 498.087 162.632C497.703 162.952 497.468 163.389 497.383 163.944H501.623C501.537 163.4 501.303 162.968 500.919 162.648C500.535 162.317 500.065 162.152 499.511 162.152ZM511.188 168.584C510.943 168.765 510.639 168.904 510.276 169C509.924 169.085 509.551 169.128 509.156 169.128C508.132 169.128 507.338 168.867 506.772 168.344C506.218 167.821 505.94 167.053 505.94 166.04V162.504H504.612V160.584H505.94V158.488H508.436V160.584H510.58V162.504H508.436V166.008C508.436 166.371 508.527 166.653 508.708 166.856C508.9 167.048 509.167 167.144 509.508 167.144C509.903 167.144 510.239 167.037 510.516 166.824L511.188 168.584ZM516.484 169.128C515.567 169.128 514.74 168.941 514.004 168.568C513.279 168.184 512.708 167.656 512.292 166.984C511.887 166.312 511.684 165.549 511.684 164.696C511.684 163.843 511.887 163.08 512.292 162.408C512.708 161.736 513.279 161.213 514.004 160.84C514.74 160.456 515.567 160.264 516.484 160.264C517.391 160.264 518.18 160.456 518.852 160.84C519.535 161.213 520.031 161.752 520.34 162.456L518.404 163.496C517.956 162.707 517.311 162.312 516.468 162.312C515.817 162.312 515.279 162.525 514.852 162.952C514.425 163.379 514.212 163.96 514.212 164.696C514.212 165.432 514.425 166.013 514.852 166.44C515.279 166.867 515.817 167.08 516.468 167.08C517.321 167.08 517.967 166.685 518.404 165.896L520.34 166.952C520.031 167.635 519.535 168.168 518.852 168.552C518.18 168.936 517.391 169.128 516.484 169.128ZM526.947 160.264C528.013 160.264 528.872 160.584 529.523 161.224C530.184 161.864 530.515 162.813 530.515 164.072V169H528.019V164.456C528.019 163.773 527.869 163.267 527.571 162.936C527.272 162.595 526.84 162.424 526.275 162.424C525.645 162.424 525.144 162.621 524.771 163.016C524.397 163.4 524.211 163.976 524.211 164.744V169H521.715V157.128H524.211V161.288C524.541 160.957 524.941 160.707 525.411 160.536C525.88 160.355 526.392 160.264 526.947 160.264Z" fill="white"/>
<path d="M626.786 137.8C627.778 137.8 628.637 137.965 629.362 138.296C630.098 138.627 630.664 139.096 631.058 139.704C631.453 140.312 631.65 141.032 631.65 141.864C631.65 142.685 631.453 143.405 631.058 144.024C630.664 144.632 630.098 145.101 629.362 145.432C628.637 145.752 627.778 145.912 626.786 145.912H624.53V149H621.938V137.8H626.786ZM626.642 143.8C627.421 143.8 628.013 143.635 628.418 143.304C628.824 142.963 629.026 142.483 629.026 141.864C629.026 141.235 628.824 140.755 628.418 140.424C628.013 140.083 627.421 139.912 626.642 139.912H624.53V143.8H626.642ZM638.713 140.264C639.78 140.264 640.638 140.584 641.289 141.224C641.95 141.864 642.281 142.813 642.281 144.072V149H639.785V144.456C639.785 143.773 639.636 143.267 639.337 142.936C639.038 142.595 638.606 142.424 638.041 142.424C637.412 142.424 636.91 142.621 636.537 143.016C636.164 143.4 635.977 143.976 635.977 144.744V149H633.481V137.128H635.977V141.288C636.308 140.957 636.708 140.707 637.177 140.536C637.646 140.355 638.158 140.264 638.713 140.264ZM648.016 140.264C649.349 140.264 650.373 140.584 651.088 141.224C651.802 141.853 652.16 142.808 652.16 144.088V149H649.824V147.928C649.354 148.728 648.48 149.128 647.2 149.128C646.538 149.128 645.962 149.016 645.472 148.792C644.992 148.568 644.624 148.259 644.368 147.864C644.112 147.469 643.984 147.021 643.984 146.52C643.984 145.72 644.282 145.091 644.88 144.632C645.488 144.173 646.421 143.944 647.68 143.944H649.664C649.664 143.4 649.498 142.984 649.168 142.696C648.837 142.397 648.341 142.248 647.68 142.248C647.221 142.248 646.768 142.323 646.32 142.472C645.882 142.611 645.509 142.803 645.2 143.048L644.304 141.304C644.773 140.973 645.333 140.717 645.984 140.536C646.645 140.355 647.322 140.264 648.016 140.264ZM647.824 147.448C648.25 147.448 648.629 147.352 648.96 147.16C649.29 146.957 649.525 146.664 649.664 146.28V145.4H647.952C646.928 145.4 646.416 145.736 646.416 146.408C646.416 146.728 646.538 146.984 646.784 147.176C647.04 147.357 647.386 147.448 647.824 147.448ZM657.315 149.128C656.6 149.128 655.901 149.043 655.219 148.872C654.536 148.691 653.992 148.467 653.587 148.2L654.419 146.408C654.803 146.653 655.267 146.856 655.811 147.016C656.355 147.165 656.888 147.24 657.411 147.24C658.467 147.24 658.995 146.979 658.995 146.456C658.995 146.211 658.851 146.035 658.563 145.928C658.275 145.821 657.832 145.731 657.235 145.656C656.531 145.549 655.949 145.427 655.491 145.288C655.032 145.149 654.632 144.904 654.291 144.552C653.96 144.2 653.795 143.699 653.795 143.048C653.795 142.504 653.949 142.024 654.259 141.608C654.579 141.181 655.037 140.851 655.635 140.616C656.243 140.381 656.957 140.264 657.779 140.264C658.387 140.264 658.989 140.333 659.587 140.472C660.195 140.6 660.696 140.781 661.091 141.016L660.259 142.792C659.501 142.365 658.675 142.152 657.779 142.152C657.245 142.152 656.845 142.227 656.579 142.376C656.312 142.525 656.179 142.717 656.179 142.952C656.179 143.219 656.323 143.405 656.611 143.512C656.899 143.619 657.357 143.72 657.987 143.816C658.691 143.933 659.267 144.061 659.715 144.2C660.163 144.328 660.552 144.568 660.883 144.92C661.213 145.272 661.379 145.763 661.379 146.392C661.379 146.925 661.219 147.4 660.899 147.816C660.579 148.232 660.109 148.557 659.491 148.792C658.883 149.016 658.157 149.128 657.315 149.128ZM671.351 144.728C671.351 144.76 671.335 144.984 671.303 145.4H664.791C664.908 145.933 665.185 146.355 665.623 146.664C666.06 146.973 666.604 147.128 667.255 147.128C667.703 147.128 668.097 147.064 668.439 146.936C668.791 146.797 669.116 146.584 669.415 146.296L670.743 147.736C669.932 148.664 668.748 149.128 667.191 149.128C666.22 149.128 665.361 148.941 664.615 148.568C663.868 148.184 663.292 147.656 662.887 146.984C662.481 146.312 662.279 145.549 662.279 144.696C662.279 143.853 662.476 143.096 662.871 142.424C663.276 141.741 663.825 141.213 664.519 140.84C665.223 140.456 666.007 140.264 666.871 140.264C667.713 140.264 668.476 140.445 669.159 140.808C669.841 141.171 670.375 141.693 670.759 142.376C671.153 143.048 671.351 143.832 671.351 144.728ZM666.887 142.152C666.321 142.152 665.847 142.312 665.463 142.632C665.079 142.952 664.844 143.389 664.759 143.944H668.999C668.913 143.4 668.679 142.968 668.295 142.648C667.911 142.317 667.441 142.152 666.887 142.152ZM687.272 146.648H685.448V149H682.92V146.648H676.888V144.904L682.168 137.8H684.888L679.992 144.536H683V142.44H685.448V144.536H687.272V146.648ZM621.938 157.8H627.026C628.242 157.8 629.314 158.035 630.242 158.504C631.181 158.963 631.906 159.613 632.418 160.456C632.941 161.299 633.202 162.28 633.202 163.4C633.202 164.52 632.941 165.501 632.418 166.344C631.906 167.187 631.181 167.843 630.242 168.312C629.314 168.771 628.242 169 627.026 169H621.938V157.8ZM626.898 166.872C628.018 166.872 628.909 166.563 629.57 165.944C630.242 165.315 630.578 164.467 630.578 163.4C630.578 162.333 630.242 161.491 629.57 160.872C628.909 160.243 628.018 159.928 626.898 159.928H624.53V166.872H626.898ZM643.413 164.728C643.413 164.76 643.397 164.984 643.365 165.4H636.853C636.97 165.933 637.248 166.355 637.685 166.664C638.122 166.973 638.666 167.128 639.317 167.128C639.765 167.128 640.16 167.064 640.501 166.936C640.853 166.797 641.178 166.584 641.477 166.296L642.805 167.736C641.994 168.664 640.81 169.128 639.253 169.128C638.282 169.128 637.424 168.941 636.677 168.568C635.93 168.184 635.354 167.656 634.949 166.984C634.544 166.312 634.341 165.549 634.341 164.696C634.341 163.853 634.538 163.096 634.933 162.424C635.338 161.741 635.888 161.213 636.581 160.84C637.285 160.456 638.069 160.264 638.933 160.264C639.776 160.264 640.538 160.445 641.221 160.808C641.904 161.171 642.437 161.693 642.821 162.376C643.216 163.048 643.413 163.832 643.413 164.728ZM638.949 162.152C638.384 162.152 637.909 162.312 637.525 162.632C637.141 162.952 636.906 163.389 636.821 163.944H641.061C640.976 163.4 640.741 162.968 640.357 162.648C639.973 162.317 639.504 162.152 638.949 162.152ZM649.235 169.128C648.318 169.128 647.491 168.941 646.755 168.568C646.03 168.184 645.459 167.656 645.043 166.984C644.638 166.312 644.435 165.549 644.435 164.696C644.435 163.843 644.638 163.08 645.043 162.408C645.459 161.736 646.03 161.213 646.755 160.84C647.491 160.456 648.318 160.264 649.235 160.264C650.142 160.264 650.931 160.456 651.603 160.84C652.286 161.213 652.782 161.752 653.091 162.456L651.155 163.496C650.707 162.707 650.062 162.312 649.219 162.312C648.568 162.312 648.03 162.525 647.603 162.952C647.176 163.379 646.963 163.96 646.963 164.696C646.963 165.432 647.176 166.013 647.603 166.44C648.03 166.867 648.568 167.08 649.219 167.08C650.072 167.08 650.718 166.685 651.155 165.896L653.091 166.952C652.782 167.635 652.286 168.168 651.603 168.552C650.931 168.936 650.142 169.128 649.235 169.128ZM654.528 160.392H657.024V169H654.528V160.392ZM655.776 159.192C655.317 159.192 654.944 159.059 654.656 158.792C654.368 158.525 654.224 158.195 654.224 157.8C654.224 157.405 654.368 157.075 654.656 156.808C654.944 156.541 655.317 156.408 655.776 156.408C656.235 156.408 656.608 156.536 656.896 156.792C657.184 157.048 657.328 157.368 657.328 157.752C657.328 158.168 657.184 158.515 656.896 158.792C656.608 159.059 656.235 159.192 655.776 159.192ZM668.108 157.128V169H665.724V168.008C665.106 168.755 664.21 169.128 663.036 169.128C662.226 169.128 661.49 168.947 660.828 168.584C660.178 168.221 659.666 167.704 659.292 167.032C658.919 166.36 658.732 165.581 658.732 164.696C658.732 163.811 658.919 163.032 659.292 162.36C659.666 161.688 660.178 161.171 660.828 160.808C661.49 160.445 662.226 160.264 663.036 160.264C664.135 160.264 664.994 160.611 665.612 161.304V157.128H668.108ZM663.468 167.08C664.098 167.08 664.62 166.867 665.036 166.44C665.452 166.003 665.66 165.421 665.66 164.696C665.66 163.971 665.452 163.395 665.036 162.968C664.62 162.531 664.098 162.312 663.468 162.312C662.828 162.312 662.3 162.531 661.884 162.968C661.468 163.395 661.26 163.971 661.26 164.696C661.26 165.421 661.468 166.003 661.884 166.44C662.3 166.867 662.828 167.08 663.468 167.08ZM678.851 164.728C678.851 164.76 678.835 164.984 678.803 165.4H672.291C672.408 165.933 672.685 166.355 673.123 166.664C673.56 166.973 674.104 167.128 674.755 167.128C675.203 167.128 675.597 167.064 675.939 166.936C676.291 166.797 676.616 166.584 676.915 166.296L678.243 167.736C677.432 168.664 676.248 169.128 674.691 169.128C673.72 169.128 672.861 168.941 672.115 168.568C671.368 168.184 670.792 167.656 670.387 166.984C669.981 166.312 669.779 165.549 669.779 164.696C669.779 163.853 669.976 163.096 670.371 162.424C670.776 161.741 671.325 161.213 672.019 160.84C672.723 160.456 673.507 160.264 674.371 160.264C675.213 160.264 675.976 160.445 676.659 160.808C677.341 161.171 677.875 161.693 678.259 162.376C678.653 163.048 678.851 163.832 678.851 164.728ZM674.387 162.152C673.821 162.152 673.347 162.312 672.963 162.632C672.579 162.952 672.344 163.389 672.259 163.944H676.499C676.413 163.4 676.179 162.968 675.795 162.648C675.411 162.317 674.941 162.152 674.387 162.152Z" fill="white"/>
<path d="M835.468 137.8C836.46 137.8 837.318 137.965 838.044 138.296C838.78 138.627 839.345 139.096 839.74 139.704C840.134 140.312 840.332 141.032 840.332 141.864C840.332 142.685 840.134 143.405 839.74 144.024C839.345 144.632 838.78 145.101 838.044 145.432C837.318 145.752 836.46 145.912 835.468 145.912H833.212V149H830.62V137.8H835.468ZM835.324 143.8C836.102 143.8 836.694 143.635 837.1 143.304C837.505 142.963 837.708 142.483 837.708 141.864C837.708 141.235 837.505 140.755 837.1 140.424C836.694 140.083 836.102 139.912 835.324 139.912H833.212V143.8H835.324ZM847.394 140.264C848.461 140.264 849.32 140.584 849.97 141.224C850.632 141.864 850.962 142.813 850.962 144.072V149H848.466V144.456C848.466 143.773 848.317 143.267 848.018 142.936C847.72 142.595 847.288 142.424 846.722 142.424C846.093 142.424 845.592 142.621 845.218 143.016C844.845 143.4 844.658 143.976 844.658 144.744V149H842.162V137.128H844.658V141.288C844.989 140.957 845.389 140.707 845.858 140.536C846.328 140.355 846.84 140.264 847.394 140.264ZM856.697 140.264C858.03 140.264 859.054 140.584 859.769 141.224C860.483 141.853 860.841 142.808 860.841 144.088V149H858.505V147.928C858.035 148.728 857.161 149.128 855.881 149.128C855.219 149.128 854.643 149.016 854.153 148.792C853.673 148.568 853.305 148.259 853.049 147.864C852.793 147.469 852.665 147.021 852.665 146.52C852.665 145.72 852.963 145.091 853.561 144.632C854.169 144.173 855.102 143.944 856.361 143.944H858.345C858.345 143.4 858.179 142.984 857.849 142.696C857.518 142.397 857.022 142.248 856.361 142.248C855.902 142.248 855.449 142.323 855.001 142.472C854.563 142.611 854.19 142.803 853.881 143.048L852.985 141.304C853.454 140.973 854.014 140.717 854.665 140.536C855.326 140.355 856.003 140.264 856.697 140.264ZM856.505 147.448C856.931 147.448 857.31 147.352 857.641 147.16C857.971 146.957 858.206 146.664 858.345 146.28V145.4H856.633C855.609 145.4 855.097 145.736 855.097 146.408C855.097 146.728 855.219 146.984 855.465 147.176C855.721 147.357 856.067 147.448 856.505 147.448ZM865.996 149.128C865.281 149.128 864.582 149.043 863.9 148.872C863.217 148.691 862.673 148.467 862.268 148.2L863.1 146.408C863.484 146.653 863.948 146.856 864.492 147.016C865.036 147.165 865.569 147.24 866.092 147.24C867.148 147.24 867.676 146.979 867.676 146.456C867.676 146.211 867.532 146.035 867.244 145.928C866.956 145.821 866.513 145.731 865.916 145.656C865.212 145.549 864.63 145.427 864.172 145.288C863.713 145.149 863.313 144.904 862.972 144.552C862.641 144.2 862.476 143.699 862.476 143.048C862.476 142.504 862.63 142.024 862.94 141.608C863.26 141.181 863.718 140.851 864.316 140.616C864.924 140.381 865.638 140.264 866.46 140.264C867.068 140.264 867.67 140.333 868.268 140.472C868.876 140.6 869.377 140.781 869.772 141.016L868.94 142.792C868.182 142.365 867.356 142.152 866.46 142.152C865.926 142.152 865.526 142.227 865.26 142.376C864.993 142.525 864.86 142.717 864.86 142.952C864.86 143.219 865.004 143.405 865.292 143.512C865.58 143.619 866.038 143.72 866.668 143.816C867.372 143.933 867.948 144.061 868.396 144.2C868.844 144.328 869.233 144.568 869.564 144.92C869.894 145.272 870.06 145.763 870.06 146.392C870.06 146.925 869.9 147.4 869.58 147.816C869.26 148.232 868.79 148.557 868.172 148.792C867.564 149.016 866.838 149.128 865.996 149.128ZM880.032 144.728C880.032 144.76 880.016 144.984 879.984 145.4H873.472C873.589 145.933 873.866 146.355 874.304 146.664C874.741 146.973 875.285 147.128 875.936 147.128C876.384 147.128 876.778 147.064 877.12 146.936C877.472 146.797 877.797 146.584 878.096 146.296L879.424 147.736C878.613 148.664 877.429 149.128 875.872 149.128C874.901 149.128 874.042 148.941 873.296 148.568C872.549 148.184 871.973 147.656 871.568 146.984C871.162 146.312 870.96 145.549 870.96 144.696C870.96 143.853 871.157 143.096 871.552 142.424C871.957 141.741 872.506 141.213 873.2 140.84C873.904 140.456 874.688 140.264 875.552 140.264C876.394 140.264 877.157 140.445 877.84 140.808C878.522 141.171 879.056 141.693 879.44 142.376C879.834 143.048 880.032 143.832 880.032 144.728ZM875.568 142.152C875.002 142.152 874.528 142.312 874.144 142.632C873.76 142.952 873.525 143.389 873.44 143.944H877.68C877.594 143.4 877.36 142.968 876.976 142.648C876.592 142.317 876.122 142.152 875.568 142.152ZM889.537 142.008C891.115 142.008 892.278 142.323 893.025 142.952C893.782 143.581 894.161 144.424 894.161 145.48C894.161 146.163 893.99 146.787 893.649 147.352C893.307 147.907 892.785 148.355 892.081 148.696C891.387 149.027 890.529 149.192 889.505 149.192C888.715 149.192 887.937 149.091 887.169 148.888C886.411 148.675 885.766 148.376 885.233 147.992L886.257 146.008C886.683 146.328 887.174 146.579 887.729 146.76C888.283 146.931 888.854 147.016 889.441 147.016C890.091 147.016 890.603 146.888 890.977 146.632C891.35 146.376 891.537 146.019 891.537 145.56C891.537 145.08 891.339 144.717 890.945 144.472C890.561 144.227 889.889 144.104 888.929 144.104H886.065L886.641 137.8H893.473V139.88H888.801L888.625 142.008H889.537ZM835.468 157.8C836.46 157.8 837.318 157.965 838.044 158.296C838.78 158.627 839.345 159.096 839.74 159.704C840.134 160.312 840.332 161.032 840.332 161.864C840.332 162.685 840.134 163.405 839.74 164.024C839.345 164.632 838.78 165.101 838.044 165.432C837.318 165.752 836.46 165.912 835.468 165.912H833.212V169H830.62V157.8H835.468ZM835.324 163.8C836.102 163.8 836.694 163.635 837.1 163.304C837.505 162.963 837.708 162.483 837.708 161.864C837.708 161.235 837.505 160.755 837.1 160.424C836.694 160.083 836.102 159.912 835.324 159.912H833.212V163.8H835.324ZM844.39 161.528C844.689 161.112 845.089 160.797 845.59 160.584C846.102 160.371 846.689 160.264 847.35 160.264V162.568C847.073 162.547 846.886 162.536 846.79 162.536C846.075 162.536 845.515 162.739 845.11 163.144C844.705 163.539 844.502 164.136 844.502 164.936V169H842.006V160.392H844.39V161.528ZM852.852 169.128C851.945 169.128 851.129 168.941 850.404 168.568C849.689 168.184 849.129 167.656 848.724 166.984C848.319 166.312 848.116 165.549 848.116 164.696C848.116 163.843 848.319 163.08 848.724 162.408C849.129 161.736 849.689 161.213 850.404 160.84C851.129 160.456 851.945 160.264 852.852 160.264C853.759 160.264 854.569 160.456 855.284 160.84C855.999 161.213 856.559 161.736 856.964 162.408C857.369 163.08 857.572 163.843 857.572 164.696C857.572 165.549 857.369 166.312 856.964 166.984C856.559 167.656 855.999 168.184 855.284 168.568C854.569 168.941 853.759 169.128 852.852 169.128ZM852.852 167.08C853.492 167.08 854.015 166.867 854.42 166.44C854.836 166.003 855.044 165.421 855.044 164.696C855.044 163.971 854.836 163.395 854.42 162.968C854.015 162.531 853.492 162.312 852.852 162.312C852.212 162.312 851.684 162.531 851.268 162.968C850.852 163.395 850.644 163.971 850.644 164.696C850.644 165.421 850.852 166.003 851.268 166.44C851.684 166.867 852.212 167.08 852.852 167.08ZM864.792 168.584C864.547 168.765 864.243 168.904 863.88 169C863.528 169.085 863.155 169.128 862.76 169.128C861.736 169.128 860.942 168.867 860.376 168.344C859.822 167.821 859.544 167.053 859.544 166.04V162.504H858.216V160.584H859.544V158.488H862.04V160.584H864.184V162.504H862.04V166.008C862.04 166.371 862.131 166.653 862.312 166.856C862.504 167.048 862.771 167.144 863.112 167.144C863.507 167.144 863.843 167.037 864.12 166.824L864.792 168.584ZM870.024 169.128C869.117 169.128 868.301 168.941 867.576 168.568C866.861 168.184 866.301 167.656 865.896 166.984C865.491 166.312 865.288 165.549 865.288 164.696C865.288 163.843 865.491 163.08 865.896 162.408C866.301 161.736 866.861 161.213 867.576 160.84C868.301 160.456 869.117 160.264 870.024 160.264C870.931 160.264 871.741 160.456 872.456 160.84C873.171 161.213 873.731 161.736 874.136 162.408C874.541 163.08 874.744 163.843 874.744 164.696C874.744 165.549 874.541 166.312 874.136 166.984C873.731 167.656 873.171 168.184 872.456 168.568C871.741 168.941 870.931 169.128 870.024 169.128ZM870.024 167.08C870.664 167.08 871.187 166.867 871.592 166.44C872.008 166.003 872.216 165.421 872.216 164.696C872.216 163.971 872.008 163.395 871.592 162.968C871.187 162.531 870.664 162.312 870.024 162.312C869.384 162.312 868.856 162.531 868.44 162.968C868.024 163.395 867.816 163.971 867.816 164.696C867.816 165.421 868.024 166.003 868.44 166.44C868.856 166.867 869.384 167.08 870.024 167.08ZM881.964 168.584C881.719 168.765 881.415 168.904 881.052 169C880.7 169.085 880.327 169.128 879.932 169.128C878.908 169.128 878.114 168.867 877.548 168.344C876.994 167.821 876.716 167.053 876.716 166.04V162.504H875.388V160.584H876.716V158.488H879.212V160.584H881.356V162.504H879.212V166.008C879.212 166.371 879.303 166.653 879.484 166.856C879.676 167.048 879.943 167.144 880.284 167.144C880.679 167.144 881.015 167.037 881.292 166.824L881.964 168.584ZM891.753 160.392L887.865 169.528C887.47 170.52 886.98 171.219 886.393 171.624C885.817 172.029 885.118 172.232 884.297 172.232C883.849 172.232 883.406 172.163 882.969 172.024C882.532 171.885 882.174 171.693 881.897 171.448L882.809 169.672C883.001 169.843 883.22 169.976 883.465 170.072C883.721 170.168 883.972 170.216 884.217 170.216C884.558 170.216 884.836 170.131 885.049 169.96C885.262 169.8 885.454 169.528 885.625 169.144L885.657 169.064L881.929 160.392H884.505L886.921 166.232L889.353 160.392H891.753ZM897.86 160.264C898.66 160.264 899.385 160.451 900.036 160.824C900.697 161.187 901.214 161.704 901.588 162.376C901.961 163.037 902.148 163.811 902.148 164.696C902.148 165.581 901.961 166.36 901.588 167.032C901.214 167.693 900.697 168.211 900.036 168.584C899.385 168.947 898.66 169.128 897.86 169.128C896.761 169.128 895.897 168.781 895.268 168.088V172.104H892.772V160.392H895.156V161.384C895.774 160.637 896.676 160.264 897.86 160.264ZM897.428 167.08C898.068 167.08 898.59 166.867 898.996 166.44C899.412 166.003 899.62 165.421 899.62 164.696C899.62 163.971 899.412 163.395 898.996 162.968C898.59 162.531 898.068 162.312 897.428 162.312C896.788 162.312 896.26 162.531 895.844 162.968C895.438 163.395 895.236 163.971 895.236 164.696C895.236 165.421 895.438 166.003 895.844 166.44C896.26 166.867 896.788 167.08 897.428 167.08ZM912.251 164.728C912.251 164.76 912.235 164.984 912.203 165.4H905.691C905.808 165.933 906.085 166.355 906.523 166.664C906.96 166.973 907.504 167.128 908.155 167.128C908.603 167.128 908.997 167.064 909.339 166.936C909.691 166.797 910.016 166.584 910.315 166.296L911.643 167.736C910.832 168.664 909.648 169.128 908.091 169.128C907.12 169.128 906.261 168.941 905.515 168.568C904.768 168.184 904.192 167.656 903.787 166.984C903.381 166.312 903.179 165.549 903.179 164.696C903.179 163.853 903.376 163.096 903.771 162.424C904.176 161.741 904.725 161.213 905.419 160.84C906.123 160.456 906.907 160.264 907.771 160.264C908.613 160.264 909.376 160.445 910.059 160.808C910.741 161.171 911.275 161.693 911.659 162.376C912.053 163.048 912.251 163.832 912.251 164.728ZM907.787 162.152C907.221 162.152 906.747 162.312 906.363 162.632C905.979 162.952 905.744 163.389 905.659 163.944H909.899C909.813 163.4 909.579 162.968 909.195 162.648C908.811 162.317 908.341 162.152 907.787 162.152Z" fill="white"/>
<path d="M990.737 137.8C991.729 137.8 992.587 137.965 993.313 138.296C994.049 138.627 994.614 139.096 995.009 139.704C995.403 140.312 995.601 141.032 995.601 141.864C995.601 142.685 995.403 143.405 995.009 144.024C994.614 144.632 994.049 145.101 993.313 145.432C992.587 145.752 991.729 145.912 990.737 145.912H988.481V149H985.889V137.8H990.737ZM990.593 143.8C991.371 143.8 991.963 143.635 992.369 143.304C992.774 142.963 992.977 142.483 992.977 141.864C992.977 141.235 992.774 140.755 992.369 140.424C991.963 140.083 991.371 139.912 990.593 139.912H988.481V143.8H990.593ZM1002.66 140.264C1003.73 140.264 1004.59 140.584 1005.24 141.224C1005.9 141.864 1006.23 142.813 1006.23 144.072V149H1003.74V144.456C1003.74 143.773 1003.59 143.267 1003.29 142.936C1002.99 142.595 1002.56 142.424 1001.99 142.424C1001.36 142.424 1000.86 142.621 1000.49 143.016C1000.11 143.4 999.927 143.976 999.927 144.744V149H997.431V137.128H999.927V141.288C1000.26 140.957 1000.66 140.707 1001.13 140.536C1001.6 140.355 1002.11 140.264 1002.66 140.264ZM1011.97 140.264C1013.3 140.264 1014.32 140.584 1015.04 141.224C1015.75 141.853 1016.11 142.808 1016.11 144.088V149H1013.77V147.928C1013.3 148.728 1012.43 149.128 1011.15 149.128C1010.49 149.128 1009.91 149.016 1009.42 148.792C1008.94 148.568 1008.57 148.259 1008.32 147.864C1008.06 147.469 1007.93 147.021 1007.93 146.52C1007.93 145.72 1008.23 145.091 1008.83 144.632C1009.44 144.173 1010.37 143.944 1011.63 143.944H1013.61C1013.61 143.4 1013.45 142.984 1013.12 142.696C1012.79 142.397 1012.29 142.248 1011.63 142.248C1011.17 142.248 1010.72 142.323 1010.27 142.472C1009.83 142.611 1009.46 142.803 1009.15 143.048L1008.25 141.304C1008.72 140.973 1009.28 140.717 1009.93 140.536C1010.6 140.355 1011.27 140.264 1011.97 140.264ZM1011.77 147.448C1012.2 147.448 1012.58 147.352 1012.91 147.16C1013.24 146.957 1013.48 146.664 1013.61 146.28V145.4H1011.9C1010.88 145.4 1010.37 145.736 1010.37 146.408C1010.37 146.728 1010.49 146.984 1010.73 147.176C1010.99 147.357 1011.34 147.448 1011.77 147.448ZM1021.26 149.128C1020.55 149.128 1019.85 149.043 1019.17 148.872C1018.49 148.691 1017.94 148.467 1017.54 148.2L1018.37 146.408C1018.75 146.653 1019.22 146.856 1019.76 147.016C1020.3 147.165 1020.84 147.24 1021.36 147.24C1022.42 147.24 1022.94 146.979 1022.94 146.456C1022.94 146.211 1022.8 146.035 1022.51 145.928C1022.22 145.821 1021.78 145.731 1021.18 145.656C1020.48 145.549 1019.9 145.427 1019.44 145.288C1018.98 145.149 1018.58 144.904 1018.24 144.552C1017.91 144.2 1017.74 143.699 1017.74 143.048C1017.74 142.504 1017.9 142.024 1018.21 141.608C1018.53 141.181 1018.99 140.851 1019.58 140.616C1020.19 140.381 1020.91 140.264 1021.73 140.264C1022.34 140.264 1022.94 140.333 1023.54 140.472C1024.14 140.6 1024.65 140.781 1025.04 141.016L1024.21 142.792C1023.45 142.365 1022.62 142.152 1021.73 142.152C1021.2 142.152 1020.8 142.227 1020.53 142.376C1020.26 142.525 1020.13 142.717 1020.13 142.952C1020.13 143.219 1020.27 143.405 1020.56 143.512C1020.85 143.619 1021.31 143.72 1021.94 143.816C1022.64 143.933 1023.22 144.061 1023.66 144.2C1024.11 144.328 1024.5 144.568 1024.83 144.92C1025.16 145.272 1025.33 145.763 1025.33 146.392C1025.33 146.925 1025.17 147.4 1024.85 147.816C1024.53 148.232 1024.06 148.557 1023.44 148.792C1022.83 149.016 1022.11 149.128 1021.26 149.128ZM1035.3 144.728C1035.3 144.76 1035.28 144.984 1035.25 145.4H1028.74C1028.86 145.933 1029.14 146.355 1029.57 146.664C1030.01 146.973 1030.55 147.128 1031.2 147.128C1031.65 147.128 1032.05 147.064 1032.39 146.936C1032.74 146.797 1033.07 146.584 1033.36 146.296L1034.69 147.736C1033.88 148.664 1032.7 149.128 1031.14 149.128C1030.17 149.128 1029.31 148.941 1028.56 148.568C1027.82 148.184 1027.24 147.656 1026.84 146.984C1026.43 146.312 1026.23 145.549 1026.23 144.696C1026.23 143.853 1026.43 143.096 1026.82 142.424C1027.23 141.741 1027.78 141.213 1028.47 140.84C1029.17 140.456 1029.96 140.264 1030.82 140.264C1031.66 140.264 1032.43 140.445 1033.11 140.808C1033.79 141.171 1034.32 141.693 1034.71 142.376C1035.1 143.048 1035.3 143.832 1035.3 144.728ZM1030.84 142.152C1030.27 142.152 1029.8 142.312 1029.41 142.632C1029.03 142.952 1028.79 143.389 1028.71 143.944H1032.95C1032.86 143.4 1032.63 142.968 1032.24 142.648C1031.86 142.317 1031.39 142.152 1030.84 142.152ZM1046.36 141.976C1047.07 141.976 1047.72 142.12 1048.31 142.408C1048.9 142.696 1049.36 143.107 1049.7 143.64C1050.04 144.163 1050.21 144.771 1050.21 145.464C1050.21 146.211 1050.03 146.867 1049.65 147.432C1049.28 147.997 1048.77 148.435 1048.12 148.744C1047.48 149.043 1046.76 149.192 1045.97 149.192C1044.41 149.192 1043.18 148.712 1042.29 147.752C1041.41 146.792 1040.97 145.421 1040.97 143.64C1040.97 142.371 1041.21 141.283 1041.69 140.376C1042.17 139.469 1042.83 138.781 1043.69 138.312C1044.55 137.843 1045.55 137.608 1046.68 137.608C1047.28 137.608 1047.85 137.677 1048.39 137.816C1048.94 137.944 1049.41 138.131 1049.8 138.376L1048.84 140.28C1048.28 139.907 1047.58 139.72 1046.74 139.72C1045.79 139.72 1045.04 139.997 1044.49 140.552C1043.93 141.107 1043.63 141.912 1043.59 142.968C1044.25 142.307 1045.17 141.976 1046.36 141.976ZM1045.83 147.256C1046.38 147.256 1046.83 147.107 1047.17 146.808C1047.53 146.509 1047.7 146.104 1047.7 145.592C1047.7 145.08 1047.53 144.675 1047.17 144.376C1046.83 144.067 1046.37 143.912 1045.8 143.912C1045.23 143.912 1044.77 144.072 1044.41 144.392C1044.04 144.701 1043.86 145.101 1043.86 145.592C1043.86 146.083 1044.04 146.483 1044.39 146.792C1044.74 147.101 1045.22 147.256 1045.83 147.256ZM996.657 157.8L991.809 169H989.249L984.417 157.8H987.217L990.625 165.8L994.081 157.8H996.657ZM1000.25 160.264C1001.58 160.264 1002.6 160.584 1003.32 161.224C1004.03 161.853 1004.39 162.808 1004.39 164.088V169H1002.06V167.928C1001.59 168.728 1000.71 169.128 999.431 169.128C998.77 169.128 998.194 169.016 997.703 168.792C997.223 168.568 996.855 168.259 996.599 167.864C996.343 167.469 996.215 167.021 996.215 166.52C996.215 165.72 996.514 165.091 997.111 164.632C997.719 164.173 998.652 163.944 999.911 163.944H1001.9C1001.9 163.4 1001.73 162.984 1001.4 162.696C1001.07 162.397 1000.57 162.248 999.911 162.248C999.452 162.248 998.999 162.323 998.551 162.472C998.114 162.611 997.74 162.803 997.431 163.048L996.535 161.304C997.004 160.973 997.564 160.717 998.215 160.536C998.876 160.355 999.554 160.264 1000.25 160.264ZM1000.06 167.448C1000.48 167.448 1000.86 167.352 1001.19 167.16C1001.52 166.957 1001.76 166.664 1001.9 166.28V165.4H1000.18C999.159 165.4 998.647 165.736 998.647 166.408C998.647 166.728 998.77 166.984 999.015 167.176C999.271 167.357 999.618 167.448 1000.06 167.448ZM1006.65 157.128H1009.15V169H1006.65V157.128ZM1011.46 160.392H1013.96V169H1011.46V160.392ZM1012.71 159.192C1012.25 159.192 1011.88 159.059 1011.59 158.792C1011.3 158.525 1011.16 158.195 1011.16 157.8C1011.16 157.405 1011.3 157.075 1011.59 156.808C1011.88 156.541 1012.25 156.408 1012.71 156.408C1013.17 156.408 1013.54 156.536 1013.83 156.792C1014.12 157.048 1014.26 157.368 1014.26 157.752C1014.26 158.168 1014.12 158.515 1013.83 158.792C1013.54 159.059 1013.17 159.192 1012.71 159.192ZM1025.04 157.128V169H1022.66V168.008C1022.04 168.755 1021.14 169.128 1019.97 169.128C1019.16 169.128 1018.42 168.947 1017.76 168.584C1017.11 168.221 1016.6 167.704 1016.23 167.032C1015.85 166.36 1015.67 165.581 1015.67 164.696C1015.67 163.811 1015.85 163.032 1016.23 162.36C1016.6 161.688 1017.11 161.171 1017.76 160.808C1018.42 160.445 1019.16 160.264 1019.97 160.264C1021.07 160.264 1021.93 160.611 1022.55 161.304V157.128H1025.04ZM1020.4 167.08C1021.03 167.08 1021.56 166.867 1021.97 166.44C1022.39 166.003 1022.6 165.421 1022.6 164.696C1022.6 163.971 1022.39 163.395 1021.97 162.968C1021.56 162.531 1021.03 162.312 1020.4 162.312C1019.76 162.312 1019.24 162.531 1018.82 162.968C1018.4 163.395 1018.2 163.971 1018.2 164.696C1018.2 165.421 1018.4 166.003 1018.82 166.44C1019.24 166.867 1019.76 167.08 1020.4 167.08ZM1030.83 160.264C1032.16 160.264 1033.18 160.584 1033.9 161.224C1034.61 161.853 1034.97 162.808 1034.97 164.088V169H1032.63V167.928C1032.16 168.728 1031.29 169.128 1030.01 169.128C1029.35 169.128 1028.77 169.016 1028.28 168.792C1027.8 168.568 1027.43 168.259 1027.18 167.864C1026.92 167.469 1026.79 167.021 1026.79 166.52C1026.79 165.72 1027.09 165.091 1027.69 164.632C1028.3 164.173 1029.23 163.944 1030.49 163.944H1032.47C1032.47 163.4 1032.31 162.984 1031.98 162.696C1031.65 162.397 1031.15 162.248 1030.49 162.248C1030.03 162.248 1029.58 162.323 1029.13 162.472C1028.69 162.611 1028.32 162.803 1028.01 163.048L1027.11 161.304C1027.58 160.973 1028.14 160.717 1028.79 160.536C1029.45 160.355 1030.13 160.264 1030.83 160.264ZM1030.63 167.448C1031.06 167.448 1031.44 167.352 1031.77 167.16C1032.1 166.957 1032.33 166.664 1032.47 166.28V165.4H1030.76C1029.74 165.4 1029.23 165.736 1029.23 166.408C1029.23 166.728 1029.35 166.984 1029.59 167.176C1029.85 167.357 1030.2 167.448 1030.63 167.448ZM1042.78 168.584C1042.53 168.765 1042.23 168.904 1041.87 169C1041.52 169.085 1041.14 169.128 1040.75 169.128C1039.72 169.128 1038.93 168.867 1038.36 168.344C1037.81 167.821 1037.53 167.053 1037.53 166.04V162.504H1036.2V160.584H1037.53V158.488H1040.03V160.584H1042.17V162.504H1040.03V166.008C1040.03 166.371 1040.12 166.653 1040.3 166.856C1040.49 167.048 1040.76 167.144 1041.1 167.144C1041.49 167.144 1041.83 167.037 1042.11 166.824L1042.78 168.584ZM1052.35 164.728C1052.35 164.76 1052.33 164.984 1052.3 165.4H1045.79C1045.91 165.933 1046.18 166.355 1046.62 166.664C1047.06 166.973 1047.6 167.128 1048.25 167.128C1048.7 167.128 1049.09 167.064 1049.44 166.936C1049.79 166.797 1050.11 166.584 1050.41 166.296L1051.74 167.736C1050.93 168.664 1049.75 169.128 1048.19 169.128C1047.22 169.128 1046.36 168.941 1045.61 168.568C1044.87 168.184 1044.29 167.656 1043.88 166.984C1043.48 166.312 1043.28 165.549 1043.28 164.696C1043.28 163.853 1043.47 163.096 1043.87 162.424C1044.27 161.741 1044.82 161.213 1045.52 160.84C1046.22 160.456 1047 160.264 1047.87 160.264C1048.71 160.264 1049.47 160.445 1050.16 160.808C1050.84 161.171 1051.37 161.693 1051.76 162.376C1052.15 163.048 1052.35 163.832 1052.35 164.728ZM1047.88 162.152C1047.32 162.152 1046.84 162.312 1046.46 162.632C1046.08 162.952 1045.84 163.389 1045.76 163.944H1050C1049.91 163.4 1049.68 162.968 1049.29 162.648C1048.91 162.317 1048.44 162.152 1047.88 162.152Z" fill="white"/>
</svg>
