<svg width="33" height="33" viewBox="0 0 33 33" fill="none" xmlns="http://www.w3.org/2000/svg">
<mask id="path-1-inside-1_567_29" fill="white">
<path fill-rule="evenodd" clip-rule="evenodd" d="M10.6872 16.4579L5.34377 11L0.000365947 16.4579H0L5.34345 21.9158L10.6869 16.4579H10.6872Z"/>
</mask>
<path fill-rule="evenodd" clip-rule="evenodd" d="M10.6872 16.4579L5.34377 11L0.000365947 16.4579H0L5.34345 21.9158L10.6869 16.4579H10.6872Z" fill="white"/>
<path d="M5.34377 11L6.41562 9.95064L5.34377 8.85583L4.27193 9.95064L5.34377 11ZM10.6872 16.4579V17.9579H14.2549L11.7591 15.4086L10.6872 16.4579ZM0.000365947 16.4579V17.9579H0.631021L1.07221 17.5073L0.000365947 16.4579ZM0 16.4579V14.9579H-3.56772L-1.07184 17.5073L0 16.4579ZM5.34345 21.9158L4.2716 22.9652L5.34345 24.06L6.41529 22.9652L5.34345 21.9158ZM10.6869 16.4579V14.9579H10.0562L9.61501 15.4086L10.6869 16.4579ZM4.27193 12.0494L9.61538 17.5073L11.7591 15.4086L6.41562 9.95064L4.27193 12.0494ZM1.07221 17.5073L6.41562 12.0494L4.27193 9.95064L-1.07148 15.4085L1.07221 17.5073ZM0 17.9579H0.000365947V14.9579H0V17.9579ZM6.41529 20.8665L1.07184 15.4085L-1.07184 17.5073L4.2716 22.9652L6.41529 20.8665ZM9.61501 15.4086L4.2716 20.8665L6.41529 22.9652L11.7587 17.5073L9.61501 15.4086ZM10.6872 14.9579H10.6869V17.9579H10.6872V14.9579Z" fill="black" mask="url(#path-1-inside-1_567_29)"/>
<mask id="path-3-inside-2_567_29" fill="white">
<path fill-rule="evenodd" clip-rule="evenodd" d="M21.4748 16.4581L16.1314 11.0001L10.788 16.458H10.7876L16.131 21.916L21.4744 16.4581H21.4748Z"/>
</mask>
<path fill-rule="evenodd" clip-rule="evenodd" d="M21.4748 16.4581L16.1314 11.0001L10.788 16.458H10.7876L16.131 21.916L21.4744 16.4581H21.4748Z" fill="white"/>
<path d="M16.1314 11.0001L17.2032 9.95076L16.1314 8.85595L15.0595 9.95076L16.1314 11.0001ZM21.4748 16.4581V17.9581H25.0425L22.5467 15.4087L21.4748 16.4581ZM10.788 16.458V17.958H11.4186L11.8598 17.5074L10.788 16.458ZM10.7876 16.458V14.958H7.21988L9.71575 17.5074L10.7876 16.458ZM16.131 21.916L15.0592 22.9653L16.131 24.0601L17.2029 22.9653L16.131 21.916ZM21.4744 16.4581V14.9581H20.8438L20.4026 15.4087L21.4744 16.4581ZM15.0595 12.0495L20.403 17.5074L22.5467 15.4087L17.2032 9.95076L15.0595 12.0495ZM11.8598 17.5074L17.2032 12.0495L15.0595 9.95076L9.71612 15.4087L11.8598 17.5074ZM10.7876 17.958H10.788V14.958H10.7876V17.958ZM17.2029 20.8666L11.8594 15.4087L9.71575 17.5074L15.0592 22.9653L17.2029 20.8666ZM20.4026 15.4087L15.0592 20.8666L17.2029 22.9653L22.5463 17.5074L20.4026 15.4087ZM21.4748 14.9581H21.4744V17.9581H21.4748V14.9581Z" fill="black" mask="url(#path-3-inside-2_567_29)"/>
<mask id="path-5-inside-3_567_29" fill="white">
<path fill-rule="evenodd" clip-rule="evenodd" d="M32.0007 16.4581L26.6573 11.0001L21.3138 16.458H21.3135L26.6569 21.916L32.0003 16.4581H32.0007Z"/>
</mask>
<path fill-rule="evenodd" clip-rule="evenodd" d="M32.0007 16.4581L26.6573 11.0001L21.3138 16.458H21.3135L26.6569 21.916L32.0003 16.4581H32.0007Z" fill="white"/>
<path d="M26.6573 11.0001L27.7291 9.95076L26.6573 8.85595L25.5854 9.95076L26.6573 11.0001ZM32.0007 16.4581V17.9581H35.5684L33.0725 15.4087L32.0007 16.4581ZM21.3138 16.458V17.958H21.9445L22.3857 17.5074L21.3138 16.458ZM21.3135 16.458V14.958H17.7458L20.2416 17.5074L21.3135 16.458ZM26.6569 21.916L25.5851 22.9653L26.6569 24.0601L27.7288 22.9653L26.6569 21.916ZM32.0003 16.4581V14.9581H31.3697L30.9285 15.4087L32.0003 16.4581ZM25.5854 12.0495L30.9289 17.5074L33.0725 15.4087L27.7291 9.95076L25.5854 12.0495ZM22.3857 17.5074L27.7291 12.0495L25.5854 9.95076L20.242 15.4087L22.3857 17.5074ZM21.3135 17.958H21.3138V14.958H21.3135V17.958ZM27.7288 20.8666L22.3853 15.4087L20.2416 17.5074L25.5851 22.9653L27.7288 20.8666ZM30.9285 15.4087L25.5851 20.8666L27.7288 22.9653L33.0722 17.5074L30.9285 15.4087ZM32.0007 14.9581H32.0003V17.9581H32.0007V14.9581Z" fill="black" mask="url(#path-5-inside-3_567_29)"/>
</svg>
