<svg width="143" height="143" viewBox="0 0 143 143" fill="none" xmlns="http://www.w3.org/2000/svg">
<path d="M143 71.5C143 110.988 110.988 143 71.5 143C32.0116 143 0 110.988 0 71.5C0 32.0116 32.0116 0 71.5 0C110.988 0 143 32.0116 143 71.5Z" fill="#A0A0A0"/>
<path d="M22.1111 65C22.7094 65 23.1944 64.515 23.1944 63.9167C23.1944 63.3184 22.7094 62.8333 22.1111 62.8333C21.5128 62.8333 21.0278 63.3184 21.0278 63.9167C21.0278 64.515 21.5128 65 22.1111 65Z" fill="black"/>
<path d="M17.0556 65C17.6539 65 18.1389 64.515 18.1389 63.9167C18.1389 63.3184 17.6539 62.8333 17.0556 62.8333C16.4572 62.8333 15.9722 63.3184 15.9722 63.9167C15.9722 64.515 16.4572 65 17.0556 65Z" fill="black"/>
<circle cx="19.5" cy="65.5" r="6.5" fill="#3AB2B6"/>
<path d="M22.1111 65C22.7094 65 23.1944 64.515 23.1944 63.9167C23.1944 63.3184 22.7094 62.8333 22.1111 62.8333C21.5128 62.8333 21.0278 63.3184 21.0278 63.9167C21.0278 64.515 21.5128 65 22.1111 65Z" fill="black"/>
<path d="M17.0556 65C17.6539 65 18.1389 64.515 18.1389 63.9167C18.1389 63.3184 17.6539 62.8333 17.0556 62.8333C16.4572 62.8333 15.9722 63.3184 15.9722 63.9167C15.9722 64.515 16.4572 65 17.0556 65Z" fill="black"/>
<path d="M19.5761 58.5C15.5894 58.5 12.3611 61.7355 12.3611 65.7222C12.3611 69.7089 15.5894 72.9444 19.5761 72.9444C23.57 72.9444 26.8056 69.7089 26.8056 65.7222C26.8056 61.7355 23.57 58.5 19.5761 58.5ZM19.5833 71.5C16.3911 71.5 13.8056 68.9144 13.8056 65.7222C13.8056 62.53 16.3911 59.9444 19.5833 59.9444C22.7756 59.9444 25.3611 62.53 25.3611 65.7222C25.3611 68.9144 22.7756 71.5 19.5833 71.5ZM19.5833 69.6944C21.2661 69.6944 22.7033 68.6472 23.2811 67.1667H22.075C21.5767 68.0261 20.6522 68.6111 19.5833 68.6111C18.5144 68.6111 17.5972 68.0261 17.0917 67.1667H15.8856C16.4633 68.6472 17.9006 69.6944 19.5833 69.6944Z" fill="black"/>
<g clip-path="url(#clip0_722_2)">
<circle cx="124.5" cy="85.5" r="6.5" fill="#3AB2B6"/>
<path d="M126.833 85.2222C127.432 85.2222 127.917 84.7372 127.917 84.1389C127.917 83.5406 127.432 83.0556 126.833 83.0556C126.235 83.0556 125.75 83.5406 125.75 84.1389C125.75 84.7372 126.235 85.2222 126.833 85.2222Z" fill="black"/>
<path d="M121.778 85.2222C122.376 85.2222 122.861 84.7372 122.861 84.1389C122.861 83.5406 122.376 83.0556 121.778 83.0556C121.179 83.0556 120.694 83.5406 120.694 84.1389C120.694 84.7372 121.179 85.2222 121.778 85.2222Z" fill="black"/>
<path d="M124.298 78.7222C120.312 78.7222 117.083 81.9578 117.083 85.9445C117.083 89.9311 120.312 93.1667 124.298 93.1667C128.292 93.1667 131.528 89.9311 131.528 85.9445C131.528 81.9578 128.292 78.7222 124.298 78.7222ZM124.306 91.7222C121.113 91.7222 118.528 89.1367 118.528 85.9445C118.528 82.7522 121.113 80.1667 124.306 80.1667C127.498 80.1667 130.083 82.7522 130.083 85.9445C130.083 89.1367 127.498 91.7222 124.306 91.7222ZM124.306 88.8333C123.778 88.8333 123.309 88.7033 122.89 88.4578C122.803 88.5589 122.269 89.1656 122.161 89.2883C122.782 89.6856 123.511 89.9167 124.306 89.9167C125.107 89.9167 125.837 89.6783 126.458 89.2811C125.757 88.4939 126.451 89.2667 125.728 88.4506C125.302 88.7033 124.833 88.8333 124.306 88.8333Z" fill="black"/>
</g>
<g clip-path="url(#clip1_722_2)">
<circle cx="65.5" cy="91.5" r="6.5" fill="#3AB2B6"/>
<path d="M67.6111 90.2778C68.2094 90.2778 68.6944 89.7928 68.6944 89.1945C68.6944 88.5961 68.2094 88.1111 67.6111 88.1111C67.0128 88.1111 66.5278 88.5961 66.5278 89.1945C66.5278 89.7928 67.0128 90.2778 67.6111 90.2778Z" fill="black"/>
<path d="M62.5556 90.2778C63.1539 90.2778 63.6389 89.7928 63.6389 89.1945C63.6389 88.5961 63.1539 88.1111 62.5556 88.1111C61.9572 88.1111 61.4722 88.5961 61.4722 89.1945C61.4722 89.7928 61.9572 90.2778 62.5556 90.2778Z" fill="black"/>
<path d="M65.0761 83.7778C61.0894 83.7778 57.8611 87.0133 57.8611 91C57.8611 94.9867 61.0894 98.2222 65.0761 98.2222C69.07 98.2222 72.3056 94.9867 72.3056 91C72.3056 87.0133 69.07 83.7778 65.0761 83.7778ZM65.0833 96.7778C61.8911 96.7778 59.3056 94.1922 59.3056 91C59.3056 87.8078 61.8911 85.2222 65.0833 85.2222C68.2756 85.2222 70.8611 87.8078 70.8611 91C70.8611 94.1922 68.2756 96.7778 65.0833 96.7778ZM65.0833 92.4445C63.4006 92.4445 61.9633 93.4917 61.3856 94.9722H62.5917C63.09 94.1128 64.0144 93.5278 65.0833 93.5278C66.1522 93.5278 67.0694 94.1128 67.575 94.9722H68.7811C68.2033 93.4917 66.7661 92.4445 65.0833 92.4445Z" fill="black"/>
</g>
<path d="M10.5556 85.5833C26.0833 69.6944 36.9167 80.1667 41.25 85.5833C45.3563 90.7162 53.0954 104.722 63.6389 104.722C76.6389 104.722 84.9444 93.8889 91.4444 85.2222C97.9444 76.5555 106.438 77.9505 110.944 84.8611C116.361 93.1667 114.676 90.3981 118.889 97.5" stroke="black" stroke-width="2" stroke-linecap="round"/>
<rect x="10" y="41" width="30" height="13" rx="2" fill="white" stroke="black" stroke-width="2"/>
<rect x="51" y="66" width="30" height="13" rx="2" fill="white" stroke="black" stroke-width="2"/>
<rect x="109" y="61" width="30" height="13" rx="2" fill="white" stroke="black" stroke-width="2"/>
<defs>
<clipPath id="clip0_722_2">
<rect width="17.3333" height="17.3333" fill="white" transform="translate(115.639 77.2778)"/>
</clipPath>
<clipPath id="clip1_722_2">
<rect width="17.3333" height="17.3333" fill="white" transform="translate(56.4167 82.3333)"/>
</clipPath>
</defs>
</svg>
