<svg width="171" height="171" viewBox="0 0 171 171" fill="none" xmlns="http://www.w3.org/2000/svg">
<path d="M171 85.5C171 132.72 132.72 171 85.5 171C38.2796 171 0 132.72 0 85.5C0 38.2796 38.2796 0 85.5 0C132.72 0 171 38.2796 171 85.5Z" fill="#D9EAFE"/>
<rect x="32.5051" y="82.4492" width="30.6345" height="12.8883" rx="3.5" fill="#EE6C4D" stroke="black"/>
<rect x="77.2563" y="62.3883" width="30.6345" height="12.8883" rx="3.5" fill="#F69B86" stroke="black"/>
<rect x="77.2563" y="96.3376" width="30.6345" height="12.8883" rx="3.5" fill="#F79B85" stroke="black"/>
<rect x="125.865" y="48.5" width="30.6345" height="12.8883" rx="3.5" fill="#FFD4B7" stroke="black"/>
<rect x="125.865" y="76.2766" width="30.6345" height="12.8883" rx="3.5" fill="#FFD4B7" stroke="black"/>
<rect x="125.865" y="110.226" width="30.6345" height="12.8883" rx="3.5" fill="#FFD4B7" stroke="black"/>
<ellipse cx="21.5888" cy="68.4467" rx="11.9594" ry="10.4162" fill="white"/>
<path d="M24.5787 68.4949C25.5108 68.4949 26.2665 67.7393 26.2665 66.8071C26.2665 65.875 25.5108 65.1193 24.5787 65.1193C23.6465 65.1193 22.8909 65.875 22.8909 66.8071C22.8909 67.7393 23.6465 68.4949 24.5787 68.4949Z" fill="black"/>
<path d="M17.8274 68.4949C18.7596 68.4949 19.5152 67.7393 19.5152 66.8071C19.5152 65.875 18.7596 65.1193 17.8274 65.1193C16.8953 65.1193 16.1396 65.875 16.1396 66.8071C16.1396 67.7393 16.8953 68.4949 17.8274 68.4949Z" fill="black"/>
<path d="M35.9748 69.7237C36.0288 69.4401 36.0558 69.143 36.0558 68.8325C36.0558 68.5219 36.0288 68.2249 35.9748 67.9413C35.6373 65.9024 34.1385 64.2416 32.1806 63.661C31.465 62.1487 30.4523 60.8255 29.2236 59.7318C27.0901 57.8279 24.2816 56.6802 21.203 56.6802C18.1245 56.6802 15.3159 57.8279 13.1825 59.7318C11.9403 60.8255 10.9276 62.1622 10.2255 63.661C8.26761 64.2416 6.76883 65.8889 6.43127 67.9413C6.37726 68.2249 6.35025 68.5219 6.35025 68.8325C6.35025 69.143 6.37726 69.4401 6.43127 69.7237C6.76883 71.7625 8.26761 73.4234 10.2255 74.004C10.9276 75.5027 11.9403 76.826 13.1555 77.9062C15.2889 79.8236 18.111 80.9848 21.203 80.9848C24.2951 80.9848 27.1172 79.8236 29.2641 77.9062C30.4793 76.826 31.492 75.4892 32.1941 74.004C34.1385 73.4234 35.6373 71.776 35.9748 69.7237ZM30.6548 71.533C30.5198 71.533 30.3983 71.506 30.2632 71.4925C29.9932 72.3972 29.6016 73.2343 29.102 74.004C27.4142 76.5829 24.5112 78.2843 21.203 78.2843C17.8949 78.2843 14.9919 76.5829 13.3041 74.004C12.8045 73.2343 12.4129 72.3972 12.1428 71.4925C12.0078 71.506 11.8863 71.533 11.7513 71.533C10.266 71.533 9.05076 70.3178 9.05076 68.8325C9.05076 67.3472 10.266 66.132 11.7513 66.132C11.8863 66.132 12.0078 66.159 12.1428 66.1725C12.4129 65.2678 12.8045 64.4307 13.3041 63.661C14.9919 61.082 17.8949 59.3807 21.203 59.3807C24.5112 59.3807 27.4142 61.082 29.102 63.661C29.6016 64.4307 29.9932 65.2678 30.2632 66.1725C30.3983 66.159 30.5198 66.132 30.6548 66.132C32.1401 66.132 33.3553 67.3472 33.3553 68.8325C33.3553 70.3178 32.1401 71.533 30.6548 71.533ZM15.1269 71.533C16.1531 73.9229 18.489 75.5838 21.203 75.5838C23.9171 75.5838 26.253 73.9229 27.2792 71.533H15.1269Z" fill="black"/>
<line x1="64.1396" y1="88.3934" x2="70.0838" y2="88.3934" stroke="black" stroke-linecap="round"/>
<line x1="70.3122" y1="68.3325" x2="76.2563" y2="68.3325" stroke="black" stroke-linecap="round"/>
<line x1="70.3122" y1="102.282" x2="76.2563" y2="102.282" stroke="black" stroke-linecap="round"/>
<line x1="70.3122" y1="68.5609" x2="70.3122" y2="102.282" stroke="black" stroke-linecap="round"/>
<line x1="108.891" y1="68.3325" x2="118.693" y2="68.3325" stroke="black" stroke-linecap="round"/>
<line x1="118.921" y1="51.3579" x2="124.865" y2="51.3579" stroke="black" stroke-linecap="round"/>
<line x1="118.921" y1="85.3071" x2="124.865" y2="85.3071" stroke="black" stroke-linecap="round"/>
<line x1="118.921" y1="51.5863" x2="118.921" y2="85.3071" stroke="black" stroke-linecap="round"/>
<line x1="108.891" y1="102.282" x2="118.693" y2="102.282" stroke="black" stroke-linecap="round"/>
<line x1="118.921" y1="119.256" x2="124.865" y2="119.256" stroke="black" stroke-linecap="round"/>
<line x1="118.921" y1="102.51" x2="118.921" y2="119.256" stroke="black" stroke-linecap="round"/>
</svg>
