<svg width="129" height="129" viewBox="0 0 129 129" fill="none" xmlns="http://www.w3.org/2000/svg">
<circle cx="64.5" cy="64.5" r="64.5" fill="#E9AD75"/>
<circle cx="38.5" cy="36.5" r="12.5" fill="white"/>
<path d="M34.375 37.1562C33.4263 37.1562 32.6562 37.9263 32.6562 38.875C32.6562 39.8237 33.4263 40.5938 34.375 40.5938C35.3237 40.5938 36.0938 39.8237 36.0938 38.875C36.0938 37.9263 35.3237 37.1562 34.375 37.1562ZM42.625 37.1562C41.6763 37.1562 40.9062 37.9263 40.9062 38.875C40.9062 39.8237 41.6763 40.5938 42.625 40.5938C43.5737 40.5938 44.3438 39.8237 44.3438 38.875C44.3438 37.9263 43.5737 37.1562 42.625 37.1562ZM38.5 23.75C30.91 23.75 24.75 29.91 24.75 37.5C24.75 45.09 30.91 51.25 38.5 51.25C46.09 51.25 52.25 45.09 52.25 37.5C52.25 29.91 46.09 23.75 38.5 23.75ZM38.5 48.5C32.4363 48.5 27.5 43.5637 27.5 37.5C27.5 37.1012 27.5275 36.7025 27.5688 36.3175C30.8138 34.8738 33.385 32.22 34.7325 28.9338C37.2213 32.4538 41.3187 34.75 45.9525 34.75C47.025 34.75 48.0562 34.6263 49.0462 34.3925C49.335 35.3687 49.5 36.4137 49.5 37.5C49.5 43.5637 44.5637 48.5 38.5 48.5Z" fill="black"/>
<rect x="56" y="38" width="51" height="29" rx="4" fill="white" stroke="#2B86C2" stroke-width="2"/>
<path d="M34.625 78.4062C33.6763 78.4062 32.9062 79.1763 32.9062 80.125C32.9062 81.0737 33.6763 81.8438 34.625 81.8438C35.5737 81.8438 36.3438 81.0737 36.3438 80.125C36.3438 79.1763 35.5737 78.4062 34.625 78.4062ZM42.875 78.4062C41.9263 78.4062 41.1562 79.1763 41.1562 80.125C41.1562 81.0737 41.9263 81.8438 42.875 81.8438C43.8237 81.8438 44.5938 81.0737 44.5938 80.125C44.5938 79.1763 43.8237 78.4062 42.875 78.4062ZM38.75 65C31.16 65 25 71.16 25 78.75C25 86.34 31.16 92.5 38.75 92.5C46.34 92.5 52.5 86.34 52.5 78.75C52.5 71.16 46.34 65 38.75 65ZM38.75 89.75C32.6863 89.75 27.75 84.8137 27.75 78.75C27.75 78.3512 27.7775 77.9525 27.8188 77.5675C31.0638 76.1238 33.635 73.47 34.9825 70.1838C37.4713 73.7038 41.5687 76 46.2025 76C47.275 76 48.3062 75.8763 49.2962 75.6425C49.585 76.6187 49.75 77.6637 49.75 78.75C49.75 84.8137 44.8137 89.75 38.75 89.75Z" fill="black"/>
<rect x="56.25" y="79.25" width="51" height="29" rx="4" fill="white" stroke="#323537" stroke-width="2"/>
<rect x="56.25" y="79.25" width="51" height="29" rx="4" fill="white" stroke="#2B86C2" stroke-width="2"/>
<rect x="59" y="42" width="16" height="3" rx="1.5" fill="#323537"/>
<rect x="59" y="49" width="36" height="3" rx="1.5" fill="#323537"/>
<rect x="59" y="54" width="28" height="3" rx="1.5" fill="#323537"/>
<rect x="59" y="59" width="33" height="3" rx="1.5" fill="#323537"/>
<rect x="59" y="84" width="23" height="3" rx="1.5" fill="#323537"/>
<rect x="59" y="91" width="18" height="3" rx="1.5" fill="#323537"/>
<rect x="59" y="96" width="34" height="3" rx="1.5" fill="#323537"/>
<rect x="59" y="101" width="38" height="3" rx="1.5" fill="#323537"/>
<circle cx="38.5" cy="77.5" r="12.5" fill="white"/>
<path d="M34.375 78.1562C33.4263 78.1562 32.6562 78.9263 32.6562 79.875C32.6562 80.8237 33.4263 81.5938 34.375 81.5938C35.3237 81.5938 36.0938 80.8237 36.0938 79.875C36.0938 78.9263 35.3237 78.1562 34.375 78.1562ZM42.625 78.1562C41.6763 78.1562 40.9062 78.9263 40.9062 79.875C40.9062 80.8237 41.6763 81.5938 42.625 81.5938C43.5737 81.5938 44.3438 80.8237 44.3438 79.875C44.3438 78.9263 43.5737 78.1562 42.625 78.1562ZM38.5 64.75C30.91 64.75 24.75 70.91 24.75 78.5C24.75 86.09 30.91 92.25 38.5 92.25C46.09 92.25 52.25 86.09 52.25 78.5C52.25 70.91 46.09 64.75 38.5 64.75ZM38.5 89.5C32.4363 89.5 27.5 84.5637 27.5 78.5C27.5 78.1012 27.5275 77.7025 27.5688 77.3175C30.8138 75.8738 33.385 73.22 34.7325 69.9338C37.2213 73.4538 41.3187 75.75 45.9525 75.75C47.025 75.75 48.0562 75.6263 49.0462 75.3925C49.335 76.3687 49.5 77.4137 49.5 78.5C49.5 84.5637 44.5637 89.5 38.5 89.5Z" fill="black"/>
</svg>
