<svg width="138" height="138" viewBox="0 0 138 138" fill="none" xmlns="http://www.w3.org/2000/svg">
<path d="M138 69C138 107.108 107.108 138 69 138C30.8923 138 0 107.108 0 69C0 30.8923 30.8923 0 69 0C107.108 0 138 30.8923 138 69Z" fill="#F69B86"/>
<circle cx="34.5" cy="80.5" r="12.5" fill="white"/>
<path d="M30.375 81.1562C29.4263 81.1562 28.6562 81.9263 28.6562 82.875C28.6562 83.8237 29.4263 84.5938 30.375 84.5938C31.3237 84.5938 32.0938 83.8237 32.0938 82.875C32.0938 81.9263 31.3237 81.1562 30.375 81.1562ZM38.625 81.1562C37.6763 81.1562 36.9062 81.9263 36.9062 82.875C36.9062 83.8237 37.6763 84.5938 38.625 84.5938C39.5737 84.5938 40.3438 83.8237 40.3438 82.875C40.3438 81.9263 39.5737 81.1562 38.625 81.1562ZM34.5 67.75C26.91 67.75 20.75 73.91 20.75 81.5C20.75 89.09 26.91 95.25 34.5 95.25C42.09 95.25 48.25 89.09 48.25 81.5C48.25 73.91 42.09 67.75 34.5 67.75ZM34.5 92.5C28.4363 92.5 23.5 87.5637 23.5 81.5C23.5 81.1012 23.5275 80.7025 23.5688 80.3175C26.8138 78.8738 29.385 76.22 30.7325 72.9338C33.2213 76.4538 37.3187 78.75 41.9525 78.75C43.025 78.75 44.0562 78.6263 45.0462 78.3925C45.335 79.3687 45.5 80.4137 45.5 81.5C45.5 87.5637 40.5637 92.5 34.5 92.5Z" fill="black"/>
<path d="M23.5332 51.4259L18.5 55.8885V51.8V27.5H79.5V51.3H23.8649H23.6751L23.5332 51.4259Z" fill="#CADD6F" stroke="black"/>
<rect x="29" y="38" width="4" height="4" fill="black"/>
<rect x="39" y="38" width="4" height="4" fill="black"/>
<rect x="49" y="38" width="4" height="4" fill="black"/>
<rect x="59" y="38" width="4" height="4" fill="black"/>
<rect x="69" y="38" width="4" height="4" fill="black"/>
<circle cx="102.5" cy="105.5" r="12.5" fill="white"/>
<path d="M106.625 106.156C107.574 106.156 108.344 106.926 108.344 107.875C108.344 108.824 107.574 109.594 106.625 109.594C105.676 109.594 104.906 108.824 104.906 107.875C104.906 106.926 105.676 106.156 106.625 106.156ZM98.375 106.156C99.3237 106.156 100.094 106.926 100.094 107.875C100.094 108.824 99.3237 109.594 98.375 109.594C97.4263 109.594 96.6562 108.824 96.6562 107.875C96.6562 106.926 97.4263 106.156 98.375 106.156ZM102.5 92.75C110.09 92.75 116.25 98.91 116.25 106.5C116.25 114.09 110.09 120.25 102.5 120.25C94.91 120.25 88.75 114.09 88.75 106.5C88.75 98.91 94.91 92.75 102.5 92.75ZM102.5 117.5C108.564 117.5 113.5 112.564 113.5 106.5C113.5 106.101 113.472 105.703 113.431 105.318C110.186 103.874 107.615 101.22 106.267 97.9338C103.779 101.454 99.6813 103.75 95.0475 103.75C93.975 103.75 92.9438 103.626 91.9538 103.392C91.665 104.369 91.5 105.414 91.5 106.5C91.5 112.564 96.4363 117.5 102.5 117.5Z" fill="black"/>
<path d="M113.467 79.4259L118.5 83.8885V79.8V55.5H57.5V79.3H113.135H113.325L113.467 79.4259Z" fill="#85953A" stroke="black"/>
<rect width="4" height="4" transform="matrix(-1 0 0 1 108 66)" fill="black"/>
<rect width="4" height="4" transform="matrix(-1 0 0 1 98 66)" fill="black"/>
<rect width="4" height="4" transform="matrix(-1 0 0 1 88 66)" fill="black"/>
<rect width="4" height="4" transform="matrix(-1 0 0 1 78 66)" fill="black"/>
<rect width="4" height="4" transform="matrix(-1 0 0 1 68 66)" fill="black"/>
</svg>
