<svg width="160" height="160" viewBox="0 0 160 160" fill="none" xmlns="http://www.w3.org/2000/svg">
<path d="M160 80C160 124.183 124.183 160 80 160C35.8172 160 0 124.183 0 80C0 35.8172 35.8172 0 80 0C124.183 0 160 35.8172 160 80Z" fill="#F69B86"/>
<path d="M146.936 72.0757H115.009C114.727 72.0757 114.457 72.187 114.257 72.3851C114.058 72.5832 113.946 72.8519 113.946 73.1321V75.245C113.946 75.5252 114.058 75.7939 114.257 75.992C114.457 76.1901 114.727 76.3014 115.009 76.3014H146.936C147.218 76.3014 147.488 76.1901 147.688 75.992C147.887 75.7939 147.999 75.5252 147.999 75.245V73.1321C147.999 72.8519 147.887 72.5832 147.688 72.3851C147.488 72.187 147.218 72.0757 146.936 72.0757ZM126.716 67.8449L122.459 65.732L126.716 63.6191L128.842 59.3888L130.968 63.6191L135.225 65.732L130.968 67.8449L129.905 69.9578H143.743L137.996 56.6325C137.585 55.6802 137.54 54.6111 137.871 53.6282L141.615 42.4621L129.139 49.5473C127.565 50.4411 126.319 51.8109 125.583 53.4572L118.203 69.9578H127.781L126.716 67.8449ZM130.973 53.0381L132.036 50.9252L133.099 53.0381L135.225 54.0945L133.099 55.151L132.036 57.2639L130.973 55.151L128.847 54.0945L130.973 53.0381Z" fill="#624BFF"/>
<path d="M111.143 96.1475L108.729 93.7478H107.521V94.9486L109.936 97.3483L111.143 96.1475ZM112.352 92.548H113.56V94.9486H112.352V92.548ZM117.181 98.5471H119.596V99.7469H117.181V98.5471ZM118.387 94.9486V93.7478H117.179L114.765 96.1475L115.972 97.3473L118.387 94.9486ZM106.314 98.5471H108.729V99.7469H106.314V98.5471ZM112.352 103.346H113.56V105.746H112.352V103.346ZM107.523 103.346V104.546H108.729L111.143 102.147L109.936 100.947L107.523 103.346ZM125.366 109.085L113.365 97.1576C113.195 96.9895 112.964 96.8951 112.724 96.8951C112.484 96.8951 112.254 96.9895 112.084 97.1576L110.95 98.2845C110.781 98.4536 110.686 98.6824 110.686 98.9209C110.686 99.1594 110.781 99.3881 110.95 99.5572L122.952 111.483C123.122 111.651 123.352 111.746 123.592 111.746C123.832 111.746 124.062 111.651 124.232 111.483L125.366 110.356C125.535 110.187 125.63 109.959 125.63 109.72C125.63 109.482 125.535 109.254 125.366 109.085ZM115.368 102.746L111.745 99.1472L112.952 97.9474L116.574 101.547L115.368 102.746Z" fill="#462165"/>
<path d="M95.1772 39H87.0781V121H95.1772V39Z" fill="black"/>
<path d="M28.2665 87.8962C36.9967 87.8962 44.0739 80.8367 44.0739 72.1285C44.0739 63.4203 36.9967 56.3609 28.2665 56.3609C19.5363 56.3609 12.4591 63.4203 12.4591 72.1285C12.4591 80.8367 19.5363 87.8962 28.2665 87.8962Z" fill="white"/>
<path d="M33.1463 72.0883C33.5501 72.0869 33.9453 72.2046 34.2818 72.4266C34.6183 72.6486 34.8809 72.9648 35.0364 73.3352C35.192 73.7056 35.2334 74.1136 35.1555 74.5074C35.0775 74.9012 34.8838 75.2632 34.5987 75.5475C34.3136 75.8318 33.95 76.0257 33.554 76.1045C33.158 76.1833 32.7474 76.1436 32.3741 75.9903C32.0009 75.837 31.6818 75.5771 31.4573 75.2435C31.2327 74.9098 31.1129 74.5175 31.1129 74.1161C31.1122 73.5793 31.326 73.0642 31.7073 72.684C32.0885 72.3037 32.6061 72.0895 33.1463 72.0883ZM23.3863 72.0883C23.7902 72.0869 24.1854 72.2046 24.5219 72.4266C24.8584 72.6486 25.121 72.9648 25.2765 73.3352C25.4321 73.7056 25.4735 74.1136 25.3955 74.5074C25.3176 74.9012 25.1238 75.2632 24.8388 75.5475C24.5537 75.8318 24.1901 76.0257 23.7941 76.1045C23.3981 76.1833 22.9875 76.1436 22.6142 75.9903C22.241 75.837 21.9219 75.5771 21.6973 75.2435C21.4728 74.9098 21.353 74.5175 21.353 74.1161C21.3523 73.5793 21.5661 73.0642 21.9473 72.684C22.3286 72.3037 22.8462 72.0895 23.3863 72.0883ZM28.2665 56.2698C31.4977 56.2584 34.6597 57.2001 37.3519 58.9759C40.0441 60.7516 42.1456 63.2814 43.3901 66.2449C44.6346 69.2084 44.9662 72.4723 44.3429 75.6232C43.7196 78.7742 42.1694 81.6704 39.8887 83.9452C37.608 86.2199 34.6993 87.7708 31.531 88.4016C28.3628 89.0323 25.0774 88.7144 22.0911 87.4881C19.1047 86.2619 16.5517 84.1825 14.7553 81.5132C12.959 78.844 12 75.705 12 72.4937C11.9933 68.1989 13.7031 64.0771 16.7534 61.0348C19.8038 57.9924 23.945 56.2785 28.2665 56.2698ZM28.2665 85.4729C31.7226 85.4622 35.0334 84.0899 37.4729 81.6568C39.9124 79.2237 41.2814 75.9285 41.2798 72.4937C41.2774 72.0276 41.2502 71.562 41.1983 71.0987C37.3517 69.3848 34.3168 66.2648 32.7236 62.3861C31.2288 64.5058 29.242 66.2363 26.9315 67.4309C24.6209 68.6256 22.0547 69.2492 19.4502 69.2489C18.2179 69.2504 16.9896 69.1087 15.7904 68.8269C15.2149 70.7585 15.1002 72.7968 15.4555 74.7801C15.8107 76.7634 16.6261 78.6371 17.837 80.2527C19.0478 81.8683 20.6209 83.1812 22.4312 84.0873C24.2416 84.9934 26.2395 85.4678 28.2665 85.4729Z" fill="black"/>
<path d="M78.7788 93.9601H56.0001V96.9785H78.7788V93.9601Z" fill="#585858"/>
<path d="M78.5257 94.2116H56.2532V96.727H78.5257V94.2116Z" stroke="#585858"/>
<path d="M68.3613 93.9601H43.0517C42.213 93.9601 41.5331 94.6358 41.5331 95.4693C41.5331 96.3028 42.213 96.9785 43.0517 96.9785H68.3613C69.2 96.9785 69.8799 96.3028 69.8799 95.4693C69.8799 94.6358 69.2 93.9601 68.3613 93.9601Z" fill="#585858"/>
<path d="M68.3614 94.2116H43.0517C42.3528 94.2116 41.7862 94.7747 41.7862 95.4693C41.7862 96.1639 42.3528 96.727 43.0517 96.727H68.3614C69.0603 96.727 69.6268 96.1639 69.6268 95.4693C69.6268 94.7747 69.0603 94.2116 68.3614 94.2116Z" stroke="#585858"/>
<path d="M79.5001 95.2321L79.5001 65.7679C79.5001 64.7915 79.0523 64 78.5001 64C77.9478 64 77.5001 64.7915 77.5001 65.7679L77.5001 95.2321C77.5001 96.2085 77.9478 97 78.5001 97C79.0523 97 79.5001 96.2085 79.5001 95.2321Z" fill="#585858"/>
<path d="M79.3334 95.2321L79.3334 65.7679C79.3334 64.9542 78.9603 64.2946 78.5 64.2946C78.0398 64.2946 77.6667 64.9542 77.6667 65.7679L77.6667 95.2321C77.6667 96.0458 78.0398 96.7054 78.5 96.7054C78.9603 96.7054 79.3334 96.0458 79.3334 95.2321Z" stroke="#585858"/>
<path d="M66.5772 77.6104H58.4781" stroke="#00FF33" stroke-width="2"/>
<path d="M70.8799 65.5368L69.1082 63.0215" stroke="#00FF33" stroke-width="2"/>
<path d="M70.8799 65.5368L69.1082 63.0215" stroke="#00FF33" stroke-width="2"/>
<path d="M66.5773 71.0705L62.5277 68.0521" stroke="#00FF33" stroke-width="2"/>
<path d="M61.9222 87.6357L66.5773 85.6595" stroke="#00FF33" stroke-width="2"/>
<path d="M67.4631 92.8282L69.9941 91.0675" stroke="#00FF33" stroke-width="2"/>
</svg>
